<svg xmlns="http://www.w3.org/2000/svg" xmlns:xlink="http://www.w3.org/1999/xlink" width="1922" height="1084" viewBox="0 0 1922 1084"><defs><style>.a,.e{fill:none;}.b{fill:#f5f5f5;}.c{clip-path:url(#a);}.d{opacity:0.036;}.e{stroke:#2e394e;stroke-miterlimit:10;stroke-width:5px;}.f{fill:#2e394e;}</style><clipPath id="a"><rect class="a" width="1921" height="1080"/></clipPath></defs><g transform="translate(13861 3518)"><rect class="b" width="1920" height="1080" transform="translate(-13860 -3514)"/><g class="c" transform="translate(-13861 -3514)"><g class="d" transform="translate(-498.774 45.226)"><line class="e" x1="472.469" transform="translate(381.739 145.604)"/><line class="e" x1="472.469" transform="translate(381.739 618.073)"/><line class="e" y1="472.469" transform="translate(381.739 145.604)"/><line class="e" y1="472.469" transform="translate(854.209 145.604)"/><line class="e" x1="472.469" transform="translate(145.604 381.937)"/><line class="e" x1="472.469" transform="translate(145.604 854.209)"/><line class="e" y1="472.469" transform="translate(145.604 381.739)"/><line class="e" y1="472.469" transform="translate(618.073 381.739)"/><line class="e" x1="236.136" y2="236.136" transform="translate(145.009 145.009)"/><line class="e" x1="236.136" y2="236.136" transform="translate(618.667 145.009)"/><line class="e" x1="236.136" y2="236.136" transform="translate(618.667 618.667)"/><line class="e" x1="236.136" y2="236.136" transform="translate(145.009 618.667)"/><line class="e" x1="333.997" y1="333.997" transform="translate(668.786 166.008)"/><line class="e" x1="333.997" y1="333.997" transform="translate(334.789 500.005)"/><line class="e" y1="333.997" x2="333.997" transform="translate(334.789 166.008)"/><line class="e" y1="333.997" x2="333.997" transform="translate(668.786 500.005)"/><line class="e" x1="333.997" y1="333.997" transform="translate(334.789 166.008)"/><line class="e" x1="334.195" y1="333.997" transform="translate(0.792 500.005)"/><line class="e" y1="333.997" x2="334.195" transform="translate(0.792 166.008)"/><line class="e" y1="333.997" x2="333.997" transform="translate(334.789 500.005)"/><line class="e" x1="333.997" transform="translate(334.789 165.018)"/><line class="e" x1="333.997" transform="translate(669.777 500.005)"/><line class="e" x1="333.997" transform="translate(334.789 834.795)"/><line class="e" x1="333.997" transform="translate(0 500.005)"/><line class="e" y1="472.271" transform="translate(856.189 379.956)"/><line class="e" y1="472.271" transform="translate(383.72 379.956)"/><line class="e" x2="472.469" transform="translate(383.72 379.956)"/><line class="e" x2="472.469" transform="translate(383.72 852.227)"/><line class="e" y1="472.469" transform="translate(619.856 143.623)"/><line class="e" y1="472.469" transform="translate(147.585 143.623)"/><line class="e" x2="472.469" transform="translate(147.585 143.821)"/><line class="e" x2="472.469" transform="translate(147.585 616.092)"/><line class="e" x1="236.136" y1="236.136" transform="translate(620.648 143.028)"/><line class="e" x1="236.136" y1="236.136" transform="translate(620.648 616.686)"/><line class="e" x1="236.136" y1="236.136" transform="translate(146.99 616.686)"/><line class="e" x1="236.136" y1="236.136" transform="translate(146.99 143.028)"/><line class="e" y1="333.997" x2="333.997" transform="translate(501.788 668.786)"/><line class="e" y1="334.195" x2="334.195" transform="translate(167.791 334.789)"/><line class="e" x2="333.997" y2="334.195" transform="translate(501.788 334.789)"/><line class="e" x2="334.195" y2="333.997" transform="translate(167.791 668.786)"/><line class="e" y1="334.195" x2="333.997" transform="translate(501.788 334.789)"/><line class="e" y1="333.997" x2="334.195" transform="translate(167.791 0.991)"/><line class="e" x2="333.997" y2="333.997" transform="translate(501.788 0.991)"/><line class="e" x2="334.195" y2="334.195" transform="translate(167.791 334.789)"/><line class="e" y1="333.799" transform="translate(836.776 334.988)"/><line class="e" y1="333.997" transform="translate(501.788 669.777)"/><line class="e" y1="333.799" transform="translate(166.999 334.988)"/><line class="e" y1="333.997" transform="translate(501.788)"/><circle class="f" cx="80.627" cy="80.627" r="80.627" transform="translate(421.161 421.359)"/></g></g><g class="c" transform="translate(-11939 -2438) rotate(180)"><g class="d" transform="translate(-498.774 38.226)"><line class="e" x1="472.469" transform="translate(381.739 145.604)"/><line class="e" x1="472.469" transform="translate(381.739 618.073)"/><line class="e" y1="472.469" transform="translate(381.739 145.604)"/><line class="e" y1="472.469" transform="translate(854.209 145.604)"/><line class="e" x1="472.469" transform="translate(145.604 381.937)"/><line class="e" x1="472.469" transform="translate(145.604 854.209)"/><line class="e" y1="472.469" transform="translate(145.604 381.739)"/><line class="e" y1="472.469" transform="translate(618.073 381.739)"/><line class="e" x1="236.136" y2="236.136" transform="translate(145.009 145.009)"/><line class="e" x1="236.136" y2="236.136" transform="translate(618.667 145.009)"/><line class="e" x1="236.136" y2="236.136" transform="translate(618.667 618.667)"/><line class="e" x1="236.136" y2="236.136" transform="translate(145.009 618.667)"/><line class="e" x1="333.997" y1="333.997" transform="translate(668.786 166.008)"/><line class="e" x1="333.997" y1="333.997" transform="translate(334.789 500.005)"/><line class="e" y1="333.997" x2="333.997" transform="translate(334.789 166.008)"/><line class="e" y1="333.997" x2="333.997" transform="translate(668.786 500.005)"/><line class="e" x1="333.997" y1="333.997" transform="translate(334.789 166.008)"/><line class="e" x1="334.195" y1="333.997" transform="translate(0.792 500.005)"/><line class="e" y1="333.997" x2="334.195" transform="translate(0.792 166.008)"/><line class="e" y1="333.997" x2="333.997" transform="translate(334.789 500.005)"/><line class="e" x1="333.997" transform="translate(334.789 165.018)"/><line class="e" x1="333.997" transform="translate(669.777 500.005)"/><line class="e" x1="333.997" transform="translate(334.789 834.795)"/><line class="e" x1="333.997" transform="translate(0 500.005)"/><line class="e" y1="472.271" transform="translate(856.189 379.956)"/><line class="e" y1="472.271" transform="translate(383.72 379.956)"/><line class="e" x2="472.469" transform="translate(383.72 379.956)"/><line class="e" x2="472.469" transform="translate(383.72 852.227)"/><line class="e" y1="472.469" transform="translate(619.856 143.623)"/><line class="e" y1="472.469" transform="translate(147.585 143.623)"/><line class="e" x2="472.469" transform="translate(147.585 143.821)"/><line class="e" x2="472.469" transform="translate(147.585 616.092)"/><line class="e" x1="236.136" y1="236.136" transform="translate(620.648 143.028)"/><line class="e" x1="236.136" y1="236.136" transform="translate(620.648 616.686)"/><line class="e" x1="236.136" y1="236.136" transform="translate(146.99 616.686)"/><line class="e" x1="236.136" y1="236.136" transform="translate(146.99 143.028)"/><line class="e" y1="333.997" x2="333.997" transform="translate(501.788 668.786)"/><line class="e" y1="334.195" x2="334.195" transform="translate(167.791 334.789)"/><line class="e" x2="333.997" y2="334.195" transform="translate(501.788 334.789)"/><line class="e" x2="334.195" y2="333.997" transform="translate(167.791 668.786)"/><line class="e" y1="334.195" x2="333.997" transform="translate(501.788 334.789)"/><line class="e" y1="333.997" x2="334.195" transform="translate(167.791 0.991)"/><line class="e" x2="333.997" y2="333.997" transform="translate(501.788 0.991)"/><line class="e" x2="334.195" y2="334.195" transform="translate(167.791 334.789)"/><line class="e" y1="333.799" transform="translate(836.776 334.988)"/><line class="e" y1="333.997" transform="translate(501.788 669.777)"/><line class="e" y1="333.799" transform="translate(166.999 334.988)"/><line class="e" y1="333.997" transform="translate(501.788)"/><circle class="f" cx="80.627" cy="80.627" r="80.627" transform="translate(421.161 421.359)"/></g></g></g></svg>