<svg xmlns="http://www.w3.org/2000/svg" xmlns:xlink="http://www.w3.org/1999/xlink" width="1920.994" height="540" viewBox="0 0 1920.994 540"><defs><style>.a{fill:none;}.b,.m{fill:#003cdb;}.c{clip-path:url(#a);}.d{fill:#3462d6;}.e{fill:#062072;}.f{fill:#909090;}.g{fill:#fff;}.h{fill:#a8a8a8;}.i{fill:#d7d7d7;}.j{fill:url(#b);}.k{fill:url(#c);}.l{fill:url(#f);}.m{opacity:0.507;}.n{filter:url(#g);}.o{filter:url(#d);}</style><clipPath id="a"><rect class="a" width="1920.994" height="540" transform="translate(0)"/></clipPath><linearGradient id="b" x1="0.86" y1="0.327" x2="-0.045" y2="0.421" gradientUnits="objectBoundingBox"><stop offset="0" stop-color="#003cdb"/><stop offset="1" stop-color="#001e6e"/></linearGradient><linearGradient id="c" x1="-0.498" y1="0.354" x2="0.467" y2="0.219" xlink:href="#b"/><filter id="d" x="375.122" y="54.975" width="775.652" height="716.016" filterUnits="userSpaceOnUse"><feOffset dy="7" input="SourceAlpha"/><feGaussianBlur stdDeviation="8" result="e"/><feFlood flood-opacity="0.529"/><feComposite operator="in" in2="e"/><feComposite in="SourceGraphic"/></filter><linearGradient id="f" x1="0.47" y1="0.922" x2="-0.009" y2="0.918" xlink:href="#b"/><filter id="g" x="732.83" y="-44.173" width="803.979" height="857.944" filterUnits="userSpaceOnUse"><feOffset dy="7" input="SourceAlpha"/><feGaussianBlur stdDeviation="8" result="h"/><feFlood flood-opacity="0.525"/><feComposite operator="in" in2="h"/><feComposite in="SourceGraphic"/></filter></defs><g transform="translate(13719.994 2708)"><g transform="translate(-24 152)"><g transform="translate(-13695.994 -2860)"><path class="b" d="M0,0H1920.994V540H0Z" transform="translate(0)"/></g><g class="c" transform="translate(-13695.994 -2860)"><g transform="matrix(-0.643, 0.766, -0.766, -0.643, 1514.516, 189.58)"><g transform="translate(0 0)"><g transform="translate(560.598 416.829)"><path class="d" d="M.583,0l133.28,36.9-7.038,110.156L.47,107.519Z" transform="translate(0 0)"/><g transform="translate(0 0)"><path class="d" d="M131.875,38.318l-6.79,106.226L2.365,106.122,2.478,2.472l129.4,35.846Zm1.987-1.413L.583,0,.47,107.519l126.354,39.542,7.038-110.156Z"/></g><path class="d" d="M.583,0l133.28,36.9-7.038,110.156L.47,107.519Z" transform="translate(0 0)"/></g><g transform="translate(560.866 344.878)"><path class="e" d="M60.658.266,188.02,31.825l-54.425,77.033L.315,71.955Z" transform="translate(0 0)"/><g transform="translate(0.016 0)"><path class="e" d="M184.882,32.989l-52.05,73.694L3.622,70.9,61.31,2.363,184.882,32.989ZM188,31.825,60.657.266.315,71.955l133.279,36.9L188,31.825Z"/></g><path class="e" d="M60.658.266,188.02,31.825l-54.425,77.033L.315,71.955Z" transform="translate(0 0)"/></g><g transform="translate(370.049 18.669)"><path class="d" d="M10.258,187.431.238,54.441,76.954.337,82.53,127.812Z" transform="translate(0.016 0)"/><g transform="translate(0 0)"><path class="d" d="M75.231,3.847,80.62,127,11.887,183.673,2.211,55.327l73.02-51.48ZM76.969.337.238,54.441l10.019,132.99,72.288-59.6L76.969.337Z"/></g><path class="d" d="M10.258,187.431.238,54.441,76.954.337,82.53,127.812Z" transform="translate(0.016 0)"/></g><g transform="translate(248.068 52.004)"><path class="d" d="M0,0,122.235,21.106,132.253,154.1,15.842,128.534Z" transform="translate(0 0)"/><g transform="translate(0.016 0)"><path class="d" d="M120.433,22.705l9.723,128.983L17.549,126.966,2.19,2.283,120.433,22.705Zm1.785-1.6L0,0,15.826,128.534,132.238,154.1,122.219,21.106Z" transform="translate(0 0)"/></g><path class="d" d="M0,0,122.235,21.106,132.253,154.1,15.842,128.534Z" transform="translate(0 0)"/></g><g transform="translate(192.728 475.672)"><path class="d" d="M20.435,199.234.389,89.056,91.336.4l14.1,107.723Z" transform="translate(0 0)"/><g transform="translate(0 0)"><path class="d" d="M89.94,4.36l13.505,103.172-81.8,87.7L2.44,89.677,89.94,4.36ZM91.336.4.39,89.071,20.435,199.249l85-91.111L91.336.4Z"/></g><path class="d" d="M20.435,199.234.389,89.056,91.336.4l14.1,107.723Z" transform="translate(0 0)"/></g><g transform="translate(74.694 438.229)"><path class="e" d="M95.021.416l114.35,37.426L118.424,126.5.361,82.517Z" transform="translate(0 0)"/><g transform="translate(0.016 0)"><path class="e" d="M205.815,38.681l-87.842,85.644L3.963,81.85,95.409,2.544,205.815,38.681Zm3.54-.838L95.021.416.361,82.517l118.063,44,90.931-88.671Z"/></g><path class="e" d="M95.021.416l114.35,37.426L118.424,126.5.361,82.517Z" transform="translate(0 0)"/></g><g transform="translate(560.672 271.899)"><path class="d" d="M.674,0,143.347,32.576,135.3,158.339.534,122.057Z" transform="translate(0 0)"/><g transform="translate(0 0)"><path class="d" d="M141.36,34.05l-7.8,121.85L2.428,120.6,2.569,2.364,141.36,34.05Zm1.987-1.475L.673,0,.534,122.041l134.755,36.282,8.058-125.748Z"/></g><path class="d" d="M.674,0,143.347,32.576,135.3,158.339.534,122.057Z" transform="translate(0 0)"/></g><g transform="translate(561.036 204.809)"><path class="e" d="M64.411.282,200.3,27.666l-57.33,72L.293,67.093Z" transform="translate(0.016 0)"/><g transform="translate(0 0)"><path class="e" d="M196.943,28.907,142.267,97.553,3.957,65.991,65.064,2.332l131.88,26.575Zm3.369-1.242L64.426.282.293,67.093,142.982,99.666l57.331-72Z"/></g><path class="e" d="M64.411.282,200.3,27.666l-57.33,72L.293,67.093Z" transform="translate(0.016 0)"/></g><g transform="translate(532.361 41.864)"><path class="d" d="M1.723,197.992.259,59.258,70.031.307l-2.28,132.816Z" transform="translate(0 0)"/><g transform="translate(0 0)"><path class="d" d="M68.06,4.406l-2.2,127.955L3.57,193.551,2.154,60.082,68.06,4.406Zm1.971-4.1L.259,59.258,1.723,197.976l66.029-64.854L70.031.307Z"/></g><path class="d" d="M1.723,197.992.259,59.258,70.031.307l-2.28,132.816Z" transform="translate(0 0)"/></g><g transform="translate(396.098 77.558)"><path class="d" d="M0,0,136.522,23.563,137.986,162.3,8.73,133.921Z"/><path class="d" d="M134.643,25.163l1.432,134.773L10.531,132.384,2.051,2.283,134.643,25.163Zm1.879-1.6L0,0,8.73,133.906l129.256,28.376L136.522,23.563Z"/><path class="d" d="M0,0,136.522,23.563,137.986,162.3,8.73,133.921Z"/></g><g transform="translate(477.566 516.159)"><path class="d" d="M0,0,141,45.013l-3.372,113.324L4.361,110.764Z" transform="translate(0 0)"/><g transform="translate(0 0)"><path class="d" d="M139.059,46.378l-3.249,109.3L6.208,109.414,1.988,2.625,139.059,46.378ZM141,45.013,0,0,4.376,110.764l133.267,47.573L141,45.013Z"/></g><path class="d" d="M0,0,141,45.013l-3.372,113.324L4.361,110.764Z" transform="translate(0 0)"/></g><g transform="translate(477.183 431.986)"><path class="e" d="M70.957.311,205.48,38.426l-64.112,90.759L.368,84.173Z" transform="translate(0.016 0)"/><g transform="translate(0 0)"><path class="e" d="M202.436,39.528l-61.768,87.452L3.629,83.226l68-80.772,130.81,37.074Zm3.059-1.1L70.973.311.368,84.173l141,45.012L205.5,38.426Z"/></g><path class="e" d="M70.957.311,205.48,38.426l-64.112,90.759L.368,84.173Z" transform="translate(0.016 0)"/></g><g transform="translate(262.595 84.448)"><path class="d" d="M17.368,204.4.282,64.408,91.064.4l11.044,134.124Z" transform="translate(0 0)"/><g transform="translate(0 0)"><path class="d" d="M89.434,3.815l10.7,129.915L18.827,200.785,2.285,65.262,89.434,3.815ZM91.064.4.282,64.408,17.368,204.419l84.74-69.9L91.064.4Z"/></g><path class="d" d="M17.368,204.4.282,64.408,91.064.4l11.044,134.124Z" transform="translate(0 0)"/></g><g transform="translate(135.19 122.313)"><path class="d" d="M0,0,127.687,26.543l17.086,140L23.343,135.168Z" transform="translate(0 0)"/><g transform="translate(0 0.016)"><path class="d" d="M125.963,28.1l16.589,135.911L25.02,133.646,2.346,2.423,125.963,28.1Zm1.723-1.568L0,0,23.344,135.167l121.414,31.372L127.687,26.527Z" transform="translate(0 0)"/></g><path class="d" d="M0,0,127.687,26.543l17.086,140L23.343,135.168Z" transform="translate(0 0)"/></g><g transform="translate(350.013 525.201)"><path class="d" d="M12.493,211.181.429,98.147,85.348.374l6.659,110.765Z" transform="translate(0 0)"/><g transform="translate(0 0)"><path class="d" d="M83.719,5.079l6.363,105.484-76.177,95.85L2.4,98.707,83.719,5.079ZM85.348.374.429,98.147,12.493,211.181,92.007,111.138,85.348.374Z"/></g><path class="d" d="M12.493,211.181.429,98.147,85.348.374l6.659,110.765Z" transform="translate(0 0)"/></g><g transform="translate(217.679 483.556)"><path class="e" d="M90.472.4,217.681,42.019l-84.919,97.774L.4,90.481Z" transform="translate(0 0)"/><g transform="translate(0.016 0)"><path class="e" d="M214.39,42.935,132.2,137.572,3.781,89.721,90.939,2.539l123.451,40.4Zm3.276-.916L90.472.4.4,90.481l132.351,49.312,84.919-97.774Z"/></g><path class="e" d="M90.472.4,217.681,42.019l-84.919,97.774L.4,90.481Z" transform="translate(0 0)"/></g><g transform="translate(165.379 329.893)"><path class="d" d="M23.432,211.258.37,84.493,99.579.436l16.073,122.772Z" transform="translate(0.016 0)"/><g transform="translate(0 0)"><path class="d" d="M98.167,4.085,113.679,122.54,24.7,207.484,2.451,85.192,98.167,4.085ZM99.594.436.37,84.508l23.062,126.75,92.235-88.049L99.594.436Z"/></g><path class="d" d="M23.432,211.258.37,84.493,99.579.436l16.073,122.772Z" transform="translate(0.016 0)"/></g><g transform="translate(40.279 296.548)"><path class="e" d="M103.636.454,224.693,33.782l-99.209,84.056L.341,78Z" transform="translate(0 0)"/><g transform="translate(0 0)"><path class="e" d="M220.781,34.666,125.1,115.742,4.379,77.3,103.994,2.52,220.781,34.666Zm3.913-.884L103.636.454.341,78l125.143,39.836,99.209-84.056Z"/></g><path class="e" d="M103.636.454,224.693,33.782l-99.209,84.056L.341,78Z" transform="translate(0 0)"/></g><g transform="translate(560.759 106.111)"><path class="d" d="M.762,0,154.243,26.491l-9.265,144.928L.611,139.731Z" transform="translate(0 0)"/><g transform="translate(0 0)"><path class="d" d="M152.255,28.059l-9.018,141.029L2.521,138.194,2.672,2.24,152.255,28.059Zm1.987-1.568L.762,0,.611,139.715,144.977,171.4l9.265-144.912Z"/></g><path class="d" d="M.762,0,154.243,26.491l-9.265,144.928L.611,139.731Z" transform="translate(0 0)"/></g><g transform="translate(471.596 365.388)"><path class="d" d="M0,0,151.558,40.573l-3.88,130.9L5.017,127.087Z" transform="translate(0.016 0)"/><g transform="translate(0 0)"><path class="d" d="M149.633,42.017l-3.772,126.914-139-43.257L2,2.486l147.63,39.531Zm1.941-1.444L0,0,5.017,127.087l142.661,44.392,3.9-130.905Z" transform="translate(0 0)"/></g><path class="d" d="M0,0,151.558,40.573l-3.88,130.9L5.017,127.087Z" transform="translate(0.016 0)"/></g><g transform="translate(471.249 286.055)"><path class="e" d="M76.17.334,220.258,34.087l-68.353,85.819L.347,79.333Z" transform="translate(0.016 0)"/><g transform="translate(0 0)"><path class="e" d="M216.966,35.251l-65.729,82.527L3.9,78.34,76.777,2.43,216.966,35.251Zm3.307-1.164L76.186.334l-75.839,79,151.574,40.573,68.352-85.819Z"/></g><path class="e" d="M76.17.334,220.258,34.087l-68.353,85.819L.347,79.333Z" transform="translate(0.016 0)"/></g><g transform="translate(433.722 113.611)"><path class="d" d="M7.941,217.028.31,70.807,83.667.366,86.032,140.3Z" transform="translate(0.016 0)"/><g transform="translate(0 0)"><path class="d" d="M81.867,4.342l2.271,135.224L9.633,212.758,2.267,71.6l79.6-67.258ZM83.683.367.31,70.807,7.941,217.028l78.092-76.716L83.683.367Z"/></g><path class="d" d="M7.941,217.028.31,70.807,83.667.366,86.032,140.3Z" transform="translate(0.016 0)"/></g><g transform="translate(289.961 154.485)"><path class="d" d="M0,0,144.086,29.933l7.631,146.221L15.673,141Z" transform="translate(0 0)"/><g transform="translate(0.016 0)"><path class="d" d="M142.239,31.47l7.428,142.2L17.4,139.5,2.159,2.377,142.239,31.47Zm1.832-1.537L0,0,15.658,141.005,151.7,176.154,144.07,29.933Z"/></g><path class="d" d="M0,0,144.086,29.933l7.631,146.221L15.673,141Z" transform="translate(0 0)"/></g><g transform="translate(378.084 534.004)"><path class="e" d="M84.144.369,226.51,46.949,149.84,155.488.436,99.8Z" transform="translate(0 0)"/><g transform="translate(0 0)"><path class="e" d="M223.5,47.958,149.156,153.205,3.573,98.95,84.735,2.543,223.5,47.958Zm3.012-1.009L84.144.369.437,99.8l149.4,55.668L226.51,46.95Z"/></g><path class="e" d="M84.144.369,226.51,46.949,149.84,155.488.436,99.8Z" transform="translate(0 0)"/></g><g transform="translate(333.423 374.319)"><path class="d" d="M14.419,224.74.409,93.581,92.846.407,100.5,127.572Z" transform="translate(0 0)"/><g transform="translate(0.016 0)"><path class="d" d="M91.185,4.708,98.546,126.95,15.831,220.313,2.366,94.234,91.185,4.708ZM92.83.407.409,93.581l14.01,131.158L100.5,127.572,92.83.407Z"/></g><path class="d" d="M14.419,224.74.409,93.581,92.846.407,100.5,127.572Z" transform="translate(0 0)"/></g><g transform="translate(191.96 336.939)"><path class="e" d="M98.622.432,234.308,37.786l-92.436,93.175L.376,85.918Z" transform="translate(0 0)"/><g transform="translate(0 0)"><path class="e" d="M230.706,38.764l-89.331,90.054L4.118,85.126l94.939-82.6L230.706,38.764Zm3.6-.977L98.622.432.376,85.918l141.5,45.043,92.436-93.175Z"/></g><path class="e" d="M98.622.432,234.308,37.786l-92.436,93.175L.376,85.918Z" transform="translate(0 0)"/></g><g transform="translate(133.639 162.349)"><path class="d" d="M27.164,224.764.338,77.389,109.41.479,127.9,141.7Z" transform="translate(0 0)"/><g transform="translate(0 0)"><path class="d" d="M107.92,3.8l17.956,137.138L28.452,221.286,2.42,78.2,107.92,3.8ZM109.41.479.338,77.374l26.825,147.39L127.91,141.687,109.41.479Z"/></g><path class="d" d="M27.164,224.764.338,77.389,109.41.479,127.9,141.7Z" transform="translate(0 0)"/></g><g transform="translate(464.703 190.777)"><path class="d" d="M0,0,163.825,34.054,159.3,186.965,5.814,147.308Z" transform="translate(0.016 0)"/><g transform="translate(0 0.016)"><path class="d" d="M161.915,35.559,157.5,184.527,7.678,145.817,2,2.33,161.915,35.559Zm1.925-1.521L0,0,5.814,147.308,159.3,186.965,163.84,34.038Z" transform="translate(0 0)"/></g><path class="d" d="M0,0,163.825,34.054,159.3,186.965,5.814,147.308Z" transform="translate(0.016 0)"/></g><g transform="translate(363.576 382.237)"><path class="e" d="M91.47.4,244.6,42.558,161.73,146.607.417,95.269Z" transform="translate(0 0)"/><g transform="translate(0 0.016)"><path class="e" d="M241.368,43.613l-80.291,100.8L3.848,94.368,92.014,2.513l149.354,41.1Zm3.23-1.071L91.47.4.417,95.253l161.3,51.354L244.6,42.543Z"/></g><path class="e" d="M91.47.4,244.6,42.558,161.73,146.607.417,95.269Z" transform="translate(0 0)"/></g><g transform="translate(313.983 199.436)"><path class="d" d="M16.83,240.121.377,86.1,101.744.446l8.889,147.51Z" transform="translate(0 0)"/><g transform="translate(0 0)"><path class="d" d="M100.083,4.3l8.608,142.96L18.3,236.052,2.38,86.847,100.083,4.3Zm1.66-3.851L.377,86.086,16.83,240.105l93.819-92.165L101.744.446Z"/></g><path class="d" d="M16.83,240.121.377,86.1,101.744.446l8.889,147.51Z" transform="translate(0 0)"/></g><g transform="translate(520.98 66.88)"><g transform="translate(165.623 309.55)"><path class="f" d="M.82,187.461,7.858,77.306,62.282.273l-9.29,107.267Z" transform="translate(0 0)"/><g transform="translate(0 0)"><path class="g" d="M59.8,7.013l-8.639,99.936-48,73.509L9.721,77.912,59.8,7.013ZM62.282.273,7.858,77.306.82,187.477l52.173-79.922L62.282.273Z"/></g></g><g transform="translate(174.13 165.304)"><path class="f" d="M.866,198.054,8.91,72.29,66.24.29l-10.5,121.43Z" transform="translate(0 0)"/><g transform="translate(0 0)"><path class="g" d="M63.819,6.331,53.894,121.1,3.163,191.655l7.594-118.7L63.819,6.331ZM66.24.29l-57.33,72L.866,198.054,55.758,121.72,66.24.29Z"/></g></g><g transform="translate(93.32 403.232)"><path class="f" d="M.894,204.383,4.266,91.059,68.378.3,61.853,111.015Z" transform="translate(0 0)"/><g transform="translate(0.016 0)"><path class="g" d="M66.1,6.76l-6.107,103.7-57,87.313L6.145,91.649,66.1,6.76ZM68.362.3,4.251,91.058.894,204.383l60.959-93.369L68.362.3Z"/></g></g><g transform="translate(183.838 0.805)"><path class="f" d="M.918,209.844,10.183,64.917,70.761.31,58.776,138.9Z" transform="translate(0 0)"/><g transform="translate(0 0)"><path class="g" d="M68.417,5.543,56.944,138.186,3.183,204.1,12.046,65.663,68.417,5.543ZM70.761.31,10.183,64.917.918,209.829l57.858-70.944L70.761.31Z"/></g></g><g transform="translate(97.36 252.941)"><path class="f" d="M.949,217.046,4.829,86.14,73.182.321,65.729,126.954Z" transform="translate(0 0)"/><g transform="translate(0 0)"><path class="g" d="M70.947,6.129,63.866,126.348,3.013,210.974l3.7-124.181L70.947,6.129ZM73.182.321,4.829,86.14.949,217.046l64.78-90.091L73.182.321Z"/></g></g><g transform="translate(6.468 513.735)"><path class="f" d="M2.369,224.641.476,108.877,77.146.338,74.535,114.129Z" transform="translate(0 0)"/><g transform="translate(0 0)"><path class="g" d="M75.113,6.456,72.656,113.6,4.184,218.476,2.4,109.405,75.113,6.456ZM77.146.338.476,108.861l1.893,115.78,72.15-110.512L77.146.338Z"/></g></g><g transform="translate(102.025 79.537)"><path class="f" d="M1.012,231.325,5.538,78.414,78.738.345,70.126,146.562Z" transform="translate(0 0)"/><g transform="translate(0.015 0)"><path class="g" d="M76.519,5.407,68.247,145.894l-65.2,79.965L7.4,79.144,76.519,5.407Zm2.2-5.063L5.539,78.413,1.012,231.325l69.114-84.763L78.723.345Z"/></g></g><g transform="translate(3.854 357.55)"><path class="f" d="M2.665,240.057.457,104.414,83.324.365,80.3,132.093Z" transform="translate(0.016 0)"/><g transform="translate(0 0)"><path class="g" d="M81.322,5.894,78.435,131.5,4.481,234.358,2.367,105.035,81.322,5.894ZM83.34.365.457,104.429,2.681,240.073,80.314,132.109,83.34.365Z"/></g></g><g transform="translate(0.765 174.804)"><path class="f" d="M3.072,257.7.422,96.6,90.622.4,87.089,154.675Z" transform="translate(0 0)"/><g transform="translate(0 0)"><path class="g" d="M88.62,5.273,85.21,154.038l-80.323,98.5L2.348,97.315,88.62,5.273Zm2-4.876L.422,96.6,3.057,257.7,87.074,154.675,90.621.4Z"/></g></g></g><g transform="translate(0.901 205.941)"><g transform="translate(74.154 314.79)"><path class="h" d="M0,0,118.063,43.981,138.108,154.16l-112.722-46.4Z" transform="translate(0 0.016)"/><g transform="translate(0 0)"><path class="g" d="M116.386,45.41l19.236,105.706L27.017,106.406,2.672,3.045,116.386,45.41ZM118.063,44,0,0,25.386,107.757l112.722,46.4L118.063,44Z"/></g></g><g transform="translate(217.174 368.096)"><path class="h" d="M0,0,132.367,49.312l12.064,113.033L18.849,110.659Z" transform="translate(0 0)"/><g transform="translate(0.016 0)"><path class="g" d="M130.581,50.679l11.612,108.7L20.542,109.308,2.423,2.936,130.581,50.679Zm1.77-1.367L0,0,18.849,110.659l125.581,51.687L132.351,49.312Z" transform="translate(0 0)"/></g></g><g transform="translate(39.72 168.609)"><path class="h" d="M0,0,125.143,39.837,148.205,166.6,29.024,123.2Z"/><path class="g" d="M123.466,41.3l22.269,122.386-115.1-41.915L2.625,2.827,123.466,41.3Zm1.677-1.459L0,0,29.024,123.2,148.205,166.6,125.143,39.837Z"/></g><g transform="translate(377.62 427.867)"><path class="h" d="M0,0,149.4,55.684,151.3,171.449,10.542,113.5Z" transform="translate(0 0)"/><g transform="translate(0 0.016)"><path class="g" d="M147.525,56.987l1.83,111.6L12.312,112.179,2.159,2.827l145.366,54.16Zm1.879-1.319L0,0,10.542,113.5l140.77,57.949L149.4,55.668Z"/></g></g><g transform="translate(191.435 216.916)"><path class="h" d="M0,0,141.5,45.043,155.506,176.2l-133.8-48.722Z"/><path class="g" d="M139.742,46.472l13.542,126.9-129.9-47.308L2.376,2.734,139.742,46.472Zm1.754-1.428L0,0,21.711,127.479l133.8,48.722L141.5,45.043Z"/></g><g transform="translate(0 0)"><path class="h" d="M0,0,133.062,33.8l26.825,147.375-126.4-38.983Z" transform="translate(0.016 0)"/><g transform="translate(0 0.016)"><path class="g" d="M131.416,35.3l26.048,143.12L35.1,140.684,2.563,2.579,131.416,35.3Zm1.661-1.521L0,0,33.486,142.19l126.4,38.982L133.077,33.782Z" transform="translate(0 0)"/></g></g><g transform="translate(363.092 271.549)"><path class="h" d="M0,0,161.314,51.338l2.208,135.644L12.255,131.888Z" transform="translate(0 0.016)"/><g transform="translate(0.016 0)"><path class="g" d="M159.419,52.751l2.161,131.528L14.04,130.537,2.159,2.688l157.26,50.063Zm1.879-1.4L0,0,12.255,131.9,163.522,187,161.3,51.354Z" transform="translate(0 0)"/></g></g><g transform="translate(161.466 40.995)"><path class="h" d="M0,0,151.993,38.6l16.454,154.02L25.288,148.462Z" transform="translate(0 0)"/><g transform="translate(0 0.015)"><path class="g" d="M150.238,40.091l16,149.857L26.965,147,2.361,2.547,150.238,40.091Zm1.754-1.506L0,0,25.288,148.462,168.431,192.6,151.993,38.585Z" transform="translate(0 0)"/></g></g><g transform="translate(346.025 87.851)"><path class="h" d="M0,0,175.241,44.478l2.65,161.1L14.42,155.153Z" transform="translate(0 0.016)"/><g transform="translate(0 0)"><path class="g" d="M173.378,45.983l2.571,157.029L16.189,153.74,2.144,2.5,173.378,45.983Zm1.863-1.49L0,0,14.42,155.168l163.471,50.422-2.65-161.1Z"/></g></g></g><g transform="translate(0 0)"><g transform="translate(247.846 1.086)"><path class="i" d="M81.411.357,199.172,17.905l-76.715,54.1L.223,50.9Z" transform="translate(0 0.016)"/><g transform="translate(0 0)"><path class="g" d="M194.281,19.1,122.038,70.037,5.394,49.911,81.784,2.329l112.5,16.77Zm4.891-1.179L81.411.357.223,50.919,122.442,72.024l76.731-54.1Z"/></g></g><g transform="translate(395.856 22.361)"><path class="i" d="M75.931.333l130.6,19.462L136.763,78.746.241,55.182Z" transform="translate(0 0.016)"/><g transform="translate(0 0)"><path class="g" d="M202.157,21.067,136.235,76.758,4.931,54.1,76.382,2.321,202.157,21.067Zm4.379-1.257L75.947.333.241,55.2,136.763,78.761,206.536,19.81Z"/></g></g><g transform="translate(134.929 62.514)"><path class="i" d="M95.595.419,218.73,22.332,127.948,86.342.262,59.8Z" transform="translate(0 0)"/><g transform="translate(0 0.016)"><path class="g" d="M213.979,23.387l-86.4,60.919L5.231,58.883,95.952,2.376,213.979,23.387Zm4.752-1.07L95.595.419.262,59.8,127.948,86.326,218.73,22.317Z"/></g></g><g transform="translate(561.258 45.977)"><path class="i" d="M68.684.3,214.321,22.019,153.743,86.625.263,60.138Z" transform="translate(0 0)"/><g transform="translate(0 0)"><path class="g" d="M210.517,23.353,153.107,84.606,4.471,58.943,69.244,2.289,210.517,23.353Zm3.8-1.335L68.684.3.263,60.138l153.48,26.487,60.578-64.607Z"/></g></g><g transform="translate(289.659 89.072)"><path class="i" d="M90,.394,227.73,24.905l-83.357,70.44L.286,65.413Z" transform="translate(0.015 0)"/><g transform="translate(0 0)"><path class="g" d="M223.49,26.053l-79.6,67.258L4.836,64.42,90.432,2.4,223.49,26.053Zm4.255-1.148L90,.394.286,65.4,144.357,95.33l83.389-70.425Z"/></g></g><g transform="translate(0.589 134.73)"><path class="i" d="M113.842.5l128.6,27.6-109.072,76.91L.311,71.211Z" transform="translate(0.016 0)"/><g transform="translate(0 0)"><path class="g" d="M237.88,29.044,133.046,102.958,5.032,70.451,114.169,2.487,237.88,29.044Zm4.581-.946L113.857.5.311,71.211l133.077,33.782L242.46,28.1Z"/></g></g><g transform="translate(464.404 118.812)"><path class="i" d="M82.2.36,237.339,27.951l-73.2,78.068L.315,71.966Z" transform="translate(0 0)"/><g transform="translate(0 0)"><path class="g" d="M233.6,29.208l-70.079,74.761L4.384,70.895,82.726,2.364,233.6,29.208Zm3.742-1.257L82.212.36.315,71.981l163.84,34.038,73.184-78.068Z"/></g></g><g transform="translate(162.022 168.216)"><path class="i" d="M108.329.475,253.7,31.666,152.337,117.322.344,78.72Z" transform="translate(0 0)"/><g transform="translate(0 0)"><path class="g" d="M249.589,32.721,151.9,115.256,4.708,77.883,108.733,2.494,249.589,32.721Zm4.115-1.055L108.329.475.344,78.736l151.993,38.585L253.7,31.666Z"/></g></g><g transform="translate(346.542 206.097)"><path class="i" d="M100.166.439,265.824,35.984l-90.2,96.2L.384,87.71Z" transform="translate(0 0)"/><g transform="translate(0 0)"><path class="g" d="M262.19,37.132,175.034,130.09,4.3,86.748,100.664,2.473,262.19,37.132Zm3.633-1.148L100.166.439.384,87.71,175.625,132.2l90.2-96.219Z"/></g></g></g><g transform="translate(0.901 205.941)"><path class="j" d="M74.154,314.805l118.063,44L212.262,468.98,99.54,422.578Zm161.87,163.95L361.6,530.441,349.541,417.408,217.19,368.1ZM68.744,291.8,187.925,335.21,164.863,208.46,39.72,168.624ZM388.162,541.366l140.77,57.949-1.893-115.779-149.4-55.668ZM213.146,344.4l133.8,48.722-14.01-131.158-141.5-45.043ZM33.5,142.19l126.4,38.983L133.077,33.782,0,0ZM375.347,403.452l151.267,55.094L524.389,322.9l-161.3-51.354Zm-188.593-214L329.9,233.6,313.443,79.58,161.45,40.995Zm173.691,53.562,163.472,50.422-2.635-161.1L346.041,87.851Z" transform="translate(0 0)"/></g><g transform="translate(520.98 66.896)"><g class="o" transform="matrix(-0.64, -0.77, 0.77, -0.64, 307.31, 1215.15)"><path class="k" d="M173.48,386.84,227.9,309.807l-9.274,107.282-52.173,79.922Zm1.516-23.5,54.892-76.334,10.5-121.43-57.346,72ZM97.586,494.275,94.229,607.6l60.959-93.369,6.525-110.73ZM242.614,139.69,254.6,1.115,194.021,65.722l-9.265,144.912ZM170.542,253.246l-68.353,85.819-3.88,130.9,64.779-90.091ZM81,627.849l2.611-113.791L6.945,622.58,8.838,738.36ZM172.15,226.084l8.612-146.217-73.184,78.069-4.526,152.911ZM87.193,357.9,4.31,461.964,6.534,597.607,84.167,489.644Zm4.193-182.715-90.2,96.2,2.634,161.1L87.838,329.464Z" transform="matrix(-0.64, 0.77, -0.77, -0.64, 1128.39, 545.67)"/></g></g><g transform="translate(0.016 0.016)"><g class="n" transform="matrix(-0.64, -0.77, 0.77, -0.64, 828.27, 1282.03)"><path class="l" d="M329.241,1.442,447,19.006l-76.731,54.1L248.053,52Zm66.841,76.1L532.6,101.106l69.772-58.951L471.788,22.678ZM135.175,122.3l127.687,26.528,90.782-64.009-123.135-21.9Zm426.331-16.2,153.48,26.488L775.563,67.98,629.926,46.262Zm-271.56,48.37L434.016,184.4l83.373-70.44L379.64,89.451ZM.9,205.925l133.077,33.782L243.05,162.813l-128.6-27.6Zm463.8-15.164L628.543,224.8l73.184-78.069L546.6,119.141ZM162.351,246.921l151.993,38.585,101.367-85.64L270.336,168.675ZM346.91,293.792l175.241,44.493,90.2-96.2L446.693,206.536Z" transform="matrix(-0.64, 0.77, -0.77, -0.64, 1514.49, 189.58)"/></g></g></g></g></g></g><path class="m" d="M0,0H1920V540H0Z" transform="translate(-13719 -2708)"/></g></svg>