<svg xmlns="http://www.w3.org/2000/svg" xmlns:xlink="http://www.w3.org/1999/xlink" width="687.947" height="573.428" viewBox="0 0 687.947 573.428">
  <defs>
    <linearGradient id="linear-gradient" x1="0.5" y1="1" x2="0.5" gradientUnits="objectBoundingBox">
      <stop offset="0" stop-color="gray" stop-opacity="0.251"/>
      <stop offset="0.54" stop-color="gray" stop-opacity="0.122"/>
      <stop offset="1" stop-color="gray" stop-opacity="0.102"/>
    </linearGradient>
  </defs>
  <g id="Group_2995" data-name="Group 2995" transform="translate(-0.004 0.001)">
    <ellipse id="Ellipse_100" data-name="Ellipse 100" cx="70.283" cy="6.928" rx="70.283" ry="6.928" transform="translate(418.67 559.571)" fill="#003cdb" opacity="0.1"/>
    <path id="Path_2375" data-name="Path 2375" d="M399.245,41.538c30.954-11.506,68.638-1.61,100.819,12.822,101.073,45.339,174.707,131.4,233.21,219.086,21.182,31.749,41.3,64.9,49.265,100.34,16.214,72.14-26.075,146.823-98,172.994-24.458,8.909-51.328,12.561-78.239,14.6-47.854,3.625-97.4,2.186-144.87-11.239-33.853-9.594-65.877-25.027-96.591-42.077C279.067,460.42,200.732,398.552,144.326,322.979c-24.739-33.147-45.668-70.516-46.271-108.762s24.321-76.677,65.328-83.18c16.954-2.686,34.888.11,52.383,2.988,25.76,4.242,51.869,8.7,77.335,6.853,26.308-1.926,60.525-12.2,65.322-37.321C363.5,76.591,368.332,53.03,399.245,41.538Z" transform="translate(-98.04 -33.15)" fill="#003cdb" opacity="0.1"/>
    <path id="Path_2376" data-name="Path 2376" d="M341.772,800.4s33.072-1.994,29.173,21.182c0,0,.774,4.112-2.94,5.955,0,0-.055-1.72-3.392-1.138a14.939,14.939,0,0,1-3.591.178,7.49,7.49,0,0,1-4.393-1.816h0s-9.3-3.838-12.911-19.037c0,0-2.679-3.31-2.57-4.167l5.578,2.385s-1.905,4.029-.4,7.374c0,0,.178-7.223,1.254-7.058.212.034,2.9,1.371,2.9,1.371s-3.283,7.01-.809,12.109c0,0-.939-8.641,1.83-11.6l3.934,2.3s-3.838,7.243-1.233,13.151c0,0-.685-9.066,2.056-12.6l3.563,2.741s-3.6,7.141-1.4,12.047c0,0,.281-10.56,2.172-11.355,0,0,3.118,2.741,3.591,3.879,0,0-2.467,5.181-.939,7.915,0,0,.939-7.031,1.713-7.065,0,0,3.1,4.66,3.426,7.853a16.958,16.958,0,0,0-2.68-8.3,9.355,9.355,0,0,1,4.756,2.46s-.487-3.3-5.517-3.584c0,0-2.563-3.529-3.255-3.748,0,0,5.009-.418,8.045.932,0,0-2.673-3.111-8.964-1.7l-3.516-2.865s6.6-.9,9.388.1c0,0-3.214-2.741-10.334-.747l-3.824-2.289s5.619-1.213,8.97-.774c0,0-3.536-1.905-10.094.158l-2.741-1.227s4.112-.809,5.325-.939,1.268-.459,1.268-.459a14.267,14.267,0,0,0-7.737.857S341.669,800.8,341.772,800.4Z" transform="translate(-174.547 -273.545)" fill="#003cdb"/>
    <ellipse id="Ellipse_101" data-name="Ellipse 101" cx="23.409" cy="3.954" rx="23.409" ry="3.954" transform="translate(166.595 552.06)" fill="#003cdb" opacity="0.1"/>
    <path id="Path_2377" data-name="Path 2377" d="M277.243,777.659s18.647-1.124,16.447,11.944a3.173,3.173,0,0,1-1.652,3.358s-.034-.966-1.912-.637a8.307,8.307,0,0,1-2.022.1,4.152,4.152,0,0,1-2.481-1.021h0s-5.236-2.172-7.291-10.739c0,0-1.508-1.871-1.453-2.35l3.152,1.37a5.663,5.663,0,0,0-.233,4.16s.1-4.078.685-3.982c.123,0,1.638.788,1.638.788s-1.85,3.954-.452,6.853c0,0-.535-4.872,1.028-6.544l2.213,1.3s-2.159,4.112-.685,7.415c0,0-.377-5.112,1.158-7.1l2.008,1.563s-2.056,4.023-.788,6.791c0,0,.158-5.955,1.227-6.4a12.209,12.209,0,0,1,2.022,2.186s-1.371,2.919-.528,4.461c0,0,.528-3.961.966-3.981a13.1,13.1,0,0,1,1.926,4.427,9.594,9.594,0,0,0-1.508-4.68,5.228,5.228,0,0,1,2.679,1.37s-.267-1.857-3.111-2.022a12.11,12.11,0,0,0-1.83-2.111,11.459,11.459,0,0,1,4.537.521s-1.508-1.754-5.057-.959l-1.98-1.617s3.721-.507,5.3.055c0,0-1.816-1.549-5.832-.418l-2.152-1.3a19.577,19.577,0,0,1,5.051-.432s-1.987-1.076-5.688.089l-1.542-.685s2.323-.459,3-.528.72-.26.72-.26a8.079,8.079,0,0,0-4.365.487S277.188,777.885,277.243,777.659Z" transform="translate(-154.321 -266.394)" fill="#003cdb"/>
    <ellipse id="Ellipse_102" data-name="Ellipse 102" cx="13.199" cy="2.234" rx="13.199" ry="2.234" transform="translate(122.565 525.464)" fill="#003cdb" opacity="0.1"/>
    <path id="Path_2378" data-name="Path 2378" d="M946.63,795.986s22.512-1.371,19.873,14.391a3.865,3.865,0,0,1-2,4.057s-.041-1.172-2.309-.774a10.147,10.147,0,0,1-2.447.117,5.037,5.037,0,0,1-2.988-1.233h0s-6.332-2.611-8.792-12.959c0,0-1.823-2.255-1.748-2.83l3.8,1.617s-1.3,2.741-.274,5.023c0,0,.123-4.92.85-4.8.151,0,1.974.946,1.974.946s-2.234,4.8-.548,8.223c0,0-.637-5.88,1.247-7.895l2.673,1.556s-2.611,4.934-.836,8.957c0,0-.459-6.168,1.371-8.573L958.9,803.7s-2.453,4.859-.959,8.223c0,0,.2-7.182,1.487-7.73a14.779,14.779,0,0,1,2.44,2.638s-1.679,3.529-.637,5.393c0,0,.637-4.8,1.165-4.8,0,0,2.111,3.173,2.33,5.345a11.521,11.521,0,0,0-1.816-5.647,6.365,6.365,0,0,1,3.234,1.672s-.329-2.241-3.762-2.44a14.6,14.6,0,0,0-2.207-2.549,13.859,13.859,0,0,1,5.482.63s-1.823-2.111-6.106-1.151l-2.392-1.953s4.489-.617,6.394.062c0,0-2.193-1.871-7.038-.507l-2.6-1.556a23.721,23.721,0,0,1,6.106-.528s-2.405-1.3-6.853.11l-1.864-.836s2.8-.555,3.625-.637.864-.315.864-.315a9.732,9.732,0,0,0-5.263.583S946.562,796.247,946.63,795.986Z" transform="translate(-364.971 -272.16)" fill="#003cdb"/>
    <ellipse id="Ellipse_103" data-name="Ellipse 103" cx="15.933" cy="2.693" rx="15.933" ry="2.693" transform="translate(581.227 540.986)" fill="#003cdb" opacity="0.1"/>
    <path id="Path_2379" data-name="Path 2379" d="M839.261,503.439a48.879,48.879,0,0,1-.747-7.305c0-2.94-4-5.544-4-5.544s-2.467-5.708-4.112-6.551-6.723-8.313-6.723-8.313a6.792,6.792,0,0,0-1.528-4.03,57.923,57.923,0,0,1-4.16-6.277c-.685-.836-.343-1.425-1.371-6.3-.055-.254-.116-.5-.192-.733a.962.962,0,0,0-.11-.315,8.223,8.223,0,0,0,1.939-8.518,3.426,3.426,0,0,0-.973-1.508c-1.158-.946-3.008-.555-4.2-1.453l1.268-5.606c.3-1.371.459-3.1-.74-3.844a6.223,6.223,0,0,0-1.412-.473c-2.056-.685-3.248-2.858-3.783-4.948a16.954,16.954,0,0,1-.411-6.168c.233-1.987.815-3.92,1.028-5.914a16.242,16.242,0,0,0-2.515-10.512,8.093,8.093,0,0,0-3.324-3.139c-1.268-.569-2.741-.685-3.927-1.371-2.549-1.624-2.419-5.482-4.454-7.7s-5.64-2.207-8.607-1.446-5.921,2.056-8.964,1.734c-1.96-.219-3.8-1.11-5.763-1.316a6.071,6.071,0,0,0-1.686.075v-.062a3.656,3.656,0,0,0-3.132,2.446,3.733,3.733,0,0,0-.1,1c0,.8.192,1.638.206,2.405a2.289,2.289,0,0,1-.555,1.693c-.391.418-.966.637-1.37,1.069a1.714,1.714,0,0,0-.5,1.261c0,1.22,1.521,2.3,2.542,2.789h.041c-.274.274-.548.562-.8.857a18.05,18.05,0,0,0-4.537,11.986,18.3,18.3,0,0,0,11.129,16.707l-.144.445a25.554,25.554,0,0,1-1.007,2.59,5.133,5.133,0,0,0-4.3.48c-1.96,1.371-5.791,1.261-6.812,1.007s-11.65-1.6-12.506-1.261-2.549-1.172-3.653.843-1.617,3.1-2.741,3.611-3.063,2.1-2.8,2.433-2.81,2.351-2.81,2.351-2.638,2.741-4.167,3.1a24.466,24.466,0,0,0-4.763,2.44L723.27,459.1s-2.8.425-1.953-1.508-1.535-4.365-1.535-4.365-4.763-9.656-4.763-11.65-3.913-10.5-3.913-10.5l-.48-.048-.219-.624c-.72-2.022-1.651-4.5-2.364-5.955-1.371-2.775-2.213-3.063-2.213-3.063s-16.5-12.39-27.22-8.614S698.175,427.8,700.9,428.982c.953.411,1.638,1.741,2.118,3.3a14.1,14.1,0,0,0-5.859,5.27s6.551,14.521,6.723,18.133,4.509,13.706,4.509,13.706,1.617,7.476,10.375,7.052c0,0,12.082,2.22,14.72,0s5.016-3.961,6.3-4.215a4.969,4.969,0,0,0,2.378-1.679s-4,25.184-5.955,27.37-19.277,30.461-13.062,35.518A124.184,124.184,0,0,0,738.7,543.713c.528.26,2.111-2.378,4.372-4.249v1.46c.041,10.06,1.371,25.356,3.207,28.782,2.741,5.037,1.617,14.775,1.617,14.775a11.65,11.65,0,0,0,4.6,1.1c.082.329.178.685.267,1.028,1.5,5.667,3.933,14.432,5.174,16.762,1.871,3.529,3.228,14.7,3.228,14.7s1.11,10.965.685,12.506c-.164.582.555,5.146,1.686,10.965h0c-.685,7.874-1.987,23.053-2.207,28.542h0v.4a1.671,1.671,0,0,1,0,.185V671h0a5.129,5.129,0,0,0,.041,1.035,3.357,3.357,0,0,1-.116,1.563,27.276,27.276,0,0,1-1.844,4.4,20.96,20.96,0,0,0-.822,2.124,3.839,3.839,0,0,0-1.987,2.823c-.85,3.276-2.124,12.335-2.124,12.335s-.514,5.544-1.528,6.8-2.056,9.149,5.188,10.156,10.375-3.838,10.375-3.838l-.254-21.984v-.041a3.337,3.337,0,0,0,.377-.6v-.055c.048-.1.1-.212.151-.336l.062-.164.11-.267a.382.382,0,0,1,0-.1,14.528,14.528,0,0,0,.617-6.544V677.4a2.608,2.608,0,0,1,.041-.452v-.082l.041-.267v-.116a.506.506,0,0,1,.055-.274.3.3,0,0,1,0-.068c.068-.315.151-.685.24-.987v-.075l.1-.329h0c.1-.35.219-.685.343-1.055v-.068a.961.961,0,0,1,.116-.322v-.041c.123-.336.254-.685.377-.973l.034-.089.11-.274.034-.082.26-.61h0l2.008,6.2s1.11,4.619.514,5.708.685,5.626,1.528,5.708l-.788,5.708a87.327,87.327,0,0,0-.761,9.491c-.055.363-.11.685-.151.9-.548,2.926.767,7.463.767,7.463,6.716,7.943,14.72.617,14.72.617s.932-4.2,0-5.037-.514-3.865-.514-3.865.425-7.476.507-12.931-4.461-10.279-4.461-10.279l-.254.226c-.829-2.138-1.775-4.633-1.576-5.75.343-1.933-.939-22.334-.939-22.334a121.011,121.011,0,0,0,.3-16.447h0c.11-.925.212-1.837.315-2.741.514-4.386.932-8.134,1.1-10.1h0v-.233c.041-.528.062-.9.055-1.083,0-.685,0-1.467.068-2.323.158-2.357.528-4.982.528-4.982l1.782-10.834s1.37-5.29,3.324-8.223l.233-.37h0c.075-.13.151-.274.233-.425l.034-.062c.075-.144.158-.295.233-.452l.034-.062c.274-.541.569-1.165.877-1.85,0-.055.048-.1.069-.158l.233-.521a.538.538,0,0,1,.089-.206c.034-.068.144-.349.219-.521a2,2,0,0,0,.089-.212c.089-.206.185-.418.274-.637l.13-.315c.062-.158.13-.315.2-.473l.164-.418c.048-.1.089-.206.13-.308l.185-.473c0-.069.062-.144.089-.212.487-1.213.953-2.412,1.37-3.5h0c.13-.343.26-.685.377-.987,4.358.267,7.319.507,7.319.507s1.371-9.82.932-16.282a60.5,60.5,0,0,1,1.076-13.02c.062-.336.116-.637.171-.911l.116.1c2.131,1.679,3.659-3.865,3.659-3.865s-.576-5.174-1.37-11.444l-.082-.624a32.209,32.209,0,0,0,3.721.569s.685-.062,1.624-.178a44.964,44.964,0,0,0,8.182,3.7l4.53-8.361a34.025,34.025,0,0,1,2.981-4.955c1.371-1.679,6.209-7.052,6.126-8.059s1.617-6.8,3.317-9.409S839.344,503.857,839.261,503.439Zm-18.886,6.38c-1.789.754-3.488,4.955-3.57,6.216s-1.96,6.8-3.913,7.47c-1.8.617-5.242,3.783-5.791,4.29-.562.048-1.2.123-1.864.233-.747-5.3-1.487-9.683-1.96-10.567-1.371-2.522,1.5-10.581,1.5-10.581s.281-8.141,2.056-10.074S808.2,490,808.2,490s.425-2.015.6-2.933,2.529,0,2.549,0h0s4.591,2.515,5.277,6.291,5.7,10.327,5.7,10.327-.767,2.268,0,3.426S822.164,509.065,820.375,509.819Z" transform="translate(-280.032 -145.979)" fill="url(#linear-gradient)"/>
    <path id="Path_2380" data-name="Path 2380" d="M707,454.8a13.706,13.706,0,0,1,13.706-6.455v9.806h-5.955l-4.66-1.179Z" transform="translate(-289.686 -162.716)" fill="#4c4981"/>
    <path id="Path_2381" data-name="Path 2381" d="M707,454.8a13.706,13.706,0,0,1,13.706-6.455v9.806h-5.955l-4.66-1.179Z" transform="translate(-289.686 -162.716)" opacity="0.1"/>
    <path id="Path_2382" data-name="Path 2382" d="M711.725,442.288l-7.3,5.112s-.062-1.021-.247-2.419c-.363-2.645-1.179-6.613-2.94-7.38-2.68-1.179-32.51-12.4-21.929-16.18s26.815,8.6,26.815,8.6.836.288,2.172,3.049c.685,1.453,1.624,3.927,2.33,5.948C711.28,440.842,711.725,442.288,711.725,442.288Z" transform="translate(-280.261 -154.063)" fill="#ae6e79"/>
    <path id="Path_2383" data-name="Path 2383" d="M713.774,431.9l.829-.391,2.33,2.659-1.905,4.064-3.248-1.3.754-3.248Z" transform="translate(-224.005 -135.802)" fill="#4c4981"/>
    <path id="Path_2384" data-name="Path 2384" d="M793.293,811s-2.1-.247-2.933,3.022-2.1,12.335-2.1,12.335-.5,5.53-1.508,6.791-2.008,9.135,5.112,10.135,10.224-3.831,10.224-3.831l-.254-21.977Z" transform="translate(-314.564 -276.893)" fill="#444053"/>
    <path id="Path_2385" data-name="Path 2385" d="M827.835,812.44s4.482,4.8,4.4,10.238-.507,12.9-.507,12.9-.411,3.022.507,3.858,0,5.03,0,5.03-7.881,7.312-14.5-.617c0,0-1.288-4.53-.754-7.449s2.028-16.043,2.028-16.043Z" transform="translate(-324.258 -277.348)" fill="#444053"/>
    <path id="Path_2386" data-name="Path 2386" d="M830.037,664.092s-4.523,12.65-6.455,15.583-3.262,8.223-3.262,8.223l-1.761,10.807a60.318,60.318,0,0,0-.589,7.292c.082,2.433-4.358,37.876-4.358,37.876l-7.038,8.97s-3.1,6.284-2.6,8.909-.336,6.791-1.371,8.045c0,0-.164,8.223-.418,10.053s.925,7.045,0,7.963-13.24.507-13.576-1.007,1.508-8.8,1.508-8.8l1.09-7.038s2.179-3.851,1.679-5.112.918-4.187,1-4.441,2.351-4.358,1.932-5.948,2.638-35.4,2.638-35.4l8.628-60.586Z" transform="translate(-315.358 -229.209)" fill="#ae6e79"/>
    <path id="Path_2387" data-name="Path 2387" d="M830.037,664.1s-.685,1.905-1.624,4.406c-1.494,3.947-3.646,9.382-4.831,11.177-1.926,2.933-3.269,8.223-3.269,8.223l-1.761,10.814a60.763,60.763,0,0,0-.583,7.291c0,.959-.644,7.079-1.466,14.131-1.268,10.78-2.892,23.745-2.892,23.745l-7.038,8.97s-.356.685-.8,1.768c-.884,2.056-2.131,5.393-1.8,7.113.5,2.6-.336,6.784-1.371,8.045,0,0-.171,8.223-.418,10.053s.925,7.038,0,7.963-13.24.507-13.576-1,1.508-8.8,1.508-8.8l1.09-7.045s2.179-3.851,1.672-5.112.925-4.187,1.007-4.441,2.351-4.359,1.932-5.948c-.322-1.213,1.371-21.066,2.159-30.482.267-2.96.439-4.886.439-4.886l7.422-52.123.6-4.2.6-4.262Z" transform="translate(-315.358 -229.216)" opacity="0.1"/>
    <path id="Path_2388" data-name="Path 2388" d="M821.369,792.036c.075.925-11.821,2.268-13.521,1.261s0-13.493,0-13.493l.774-5.695c-.829-.089-2.09-4.612-1.508-5.7s-.5-5.695-.5-5.695l-1.974-6.168-1.206-3.776c-1.96-4.324-4.8-16.659-6.558-25.87-1.11-5.784-1.816-10.341-1.658-10.923.418-1.508-.685-12.486-.685-12.486s-1.371-11.15-3.18-14.665c-1.227-2.33-3.618-11.081-5.1-16.728-.754-2.9-1.275-4.982-1.275-4.982s12.664-1.062,20.346-1.432c3.529-.171,6.01-.192,5.722.1s-.363,1.823-.349,4.043c.034,5.75.836,15.864,1.686,18.585,1.172,3.769,2.344,15.076,1.843,16.173s-.336,8.381-.336,8.381a37.694,37.694,0,0,1,1.48,9.094,122.925,122.925,0,0,1-.288,16.372s1.254,20.367.918,22.292,2.679,7.963,2.679,9.135.836,9.135.836,9.135S821.314,791.117,821.369,792.036Z" transform="translate(-314.228 -231.122)" fill="#ae6e79"/>
    <path id="Path_2389" data-name="Path 2389" d="M833.3,476.628l-1.439,1.556-.939,1.014-5.482,5.893-14.165,1.6-7.538-2.015-1.864-.5s0-3.783.336-8.319c.48-5.818,1.624-12.883,4.358-14.809a10.889,10.889,0,0,0,3.187-4.036,22.733,22.733,0,0,0,1.371-3.385c.055-.151.1-.295.144-.445a37.847,37.847,0,0,0,1.329-6.216s1.809-1,4.324-2.166c6.558-3.063,17.886-7.291,13.946,2.166a37.014,37.014,0,0,0-1.48,4.249c-.062.212-.116.425-.164.63-1.316,5.263-.445,8.456.535,10.218h0a6.4,6.4,0,0,0,.569.87,4.572,4.572,0,0,0,.953.966l1.631,10.355.137.857Z" transform="translate(-319.543 -160.499)" fill="#ae6e79"/>
    <path id="Path_2390" data-name="Path 2390" d="M835.123,447.7c-.747,1.8.363-1.467,0,0-2.988,2.124-10.026,8.175-13.98,8.175-2.673,0-3.474-.487-5.763-1.521a37.379,37.379,0,0,0,1.473-6.654S840.571,434.626,835.123,447.7Z" transform="translate(-323.795 -160.731)" opacity="0.1"/>
    <path id="Path_2391" data-name="Path 2391" d="M836.219,425.91a18.283,18.283,0,0,1-16.358,18.167c-.63.062-1.268.1-1.912.1a18.27,18.27,0,1,1,18.27-18.27Z" transform="translate(-318.854 -149.952)" fill="#ae6e79"/>
    <path id="Path_2392" data-name="Path 2392" d="M836.019,531.728l-2.6,6.791s-2.118.089-5.421.192c-11.15.356-35.717.809-36.814-2.056a7.288,7.288,0,0,1-.384-2.255c-.144-4.365,1.891-11.067,1.891-11.067s1.172-13.411,1.172-13.994-1.007-9.978-1.007-9.978l2.015-7.538,5.613-3.94s2.515,3.858,4.023,4.187a10.454,10.454,0,0,1,3.522,2.186s4.941,3.015,6.538,1.336,13.994-9.053,13.994-9.053l6.538,7.209Z" transform="translate(-316.056 -174.783)" opacity="0.1"/>
    <path id="Path_2393" data-name="Path 2393" d="M836.028,533.248l-2.6,6.784s-2.118.1-5.421.2h-.322c-1.425.048-3.056.1-4.8.13-8.861.206-21.066.26-27.446-.685-2.4-.343-3.968-.836-4.228-1.508a6.052,6.052,0,0,1-.3-1.247c-.041-.315-.069-.685-.082-1.007-.144-4.365,1.891-11.067,1.891-11.067s1.172-13.411,1.172-13.994-1.007-9.978-1.007-9.978l2.015-7.538,3.858-2.7,1.754-1.234a26.3,26.3,0,0,0,1.926,2.536,5.126,5.126,0,0,0,2.1,1.651,10.488,10.488,0,0,1,3.522,2.186s4.941,3.015,6.538,1.336c1.213-1.281,8.751-5.893,12.232-8,1.069-.651,1.761-1.055,1.761-1.055l.877.973,5.66,6.236Z" transform="translate(-316.066 -175.261)" fill="#fff"/>
    <path id="Path_2394" data-name="Path 2394" d="M724.185,450.7l-7.3,5.112s-.062-1.021-.247-2.419a14.773,14.773,0,0,0,6.428-5.962C723.74,449.253,724.185,450.7,724.185,450.7Z" transform="translate(-292.72 -162.474)" opacity="0.1"/>
    <path id="Path_2395" data-name="Path 2395" d="M746.776,468.359l-1.59-.425s-2.6,2.741-4.112,3.1a24,24,0,0,0-4.687,2.426l-3.694,2.933s-2.741.425-1.926-1.508-1.508-4.358-1.508-4.358-4.694-9.635-4.694-11.65-3.879-10.471-3.879-10.471-4.866,9.471-13.747,6.455c0,0,6.455,14.494,6.62,18.1S718,486.622,718,486.622s1.6,7.463,10.224,7.045c0,0,11.9,2.213,14.5,0s4.941-3.954,6.168-4.208a5.087,5.087,0,0,0,2.344-1.672v-9.964Z" transform="translate(-289.668 -162.783)" fill="#4c4981"/>
    <path id="Path_2396" data-name="Path 2396" d="M743.3,491.33s2.1,7.8.754,8.635Z" transform="translate(-301.111 -176.29)" opacity="0.1"/>
    <path id="Path_2397" data-name="Path 2397" d="M828,562.161c-11.15.356-35.717.8-36.814-2.056a7.287,7.287,0,0,1-.384-2.255l36.423,1.919Z" transform="translate(-316.06 -197.225)" opacity="0.1"/>
    <path id="Path_2398" data-name="Path 2398" d="M828.913,664.092s-.685,1.905-1.624,4.406c-4.626-.281-10.752-.576-16.57-.617-2.056,0-4.071,0-5.976.069a45.017,45.017,0,0,0-9.765,1.083,25.9,25.9,0,0,1-8.7,1.124c-.754-2.9-1.275-4.982-1.275-4.982s12.664-1.062,20.346-1.432l.6-4.262Z" transform="translate(-314.234 -229.209)" opacity="0.1"/>
    <path id="Path_2399" data-name="Path 2399" d="M834.921,601.853l-1.425,3.015s-.2.9-.452,2.323a59.4,59.4,0,0,0-1.055,13.02c.418,6.455-.925,16.255-.925,16.255s-30.838-2.6-39.884,0-13.5,0-13.5,0,1.1-9.717-1.59-14.747c-1.83-3.426-3.118-18.722-3.159-28.782,0-4.639.233-8.155.816-8.868,1.843-2.261,9.717-24.89,9.717-24.89l1.8.1,4.8.254,27.274,1.439,4.283.226.452,1.371Z" transform="translate(-310.436 -197.643)" fill="#444053"/>
    <path id="Path_2400" data-name="Path 2400" d="M877.417,601.288l.254,2.686s-13.507-4.4-12.822-9.806,0-4.8,0-4.8l10.855.918Z" transform="translate(-339.356 -207.138)" fill="#4c4981"/>
    <path id="Path_2401" data-name="Path 2401" d="M877.417,601.288l.254,2.686s-13.507-4.4-12.822-9.806,0-4.8,0-4.8l10.855.918Z" transform="translate(-339.356 -207.138)" opacity="0.1"/>
    <path id="Path_2402" data-name="Path 2402" d="M755.509,493.489a12.034,12.034,0,0,0,4.756,2.474,3.1,3.1,0,0,1-1.371-.685c-.966-.685-1.885-1.432-2.817-2.159a8.839,8.839,0,0,0-2.618-1.809A14.435,14.435,0,0,0,755.509,493.489Z" transform="translate(-304.308 -176.284)" opacity="0.1"/>
    <path id="Path_2403" data-name="Path 2403" d="M755.042,498.1a6.051,6.051,0,0,1,1.042,1.652,9.984,9.984,0,0,1-.075,5.188l-2.166-5.222c-.377-.891-.754-1.782-1.206-2.632-.2-.363-1.446-1.878-1.3-2.193C751.719,494,754.638,497.6,755.042,498.1Z" transform="translate(-303.636 -177.368)" opacity="0.1"/>
    <path id="Path_2404" data-name="Path 2404" d="M840.936,540.993a6.976,6.976,0,0,0,3.94-1.843c-2.227.281-4.338,1.158-6.531,1.617a9.7,9.7,0,0,1-6.085-.562A14.964,14.964,0,0,0,840.936,540.993Z" transform="translate(-329.107 -191.34)" opacity="0.1"/>
    <path id="Path_2405" data-name="Path 2405" d="M830.714,516.407a1.528,1.528,0,0,1-1.131-.281q-2.508-1.439-4.948-3a32.858,32.858,0,0,1-4.845-3.344C823.114,512.782,826.211,515.317,830.714,516.407Z" transform="translate(-325.183 -182.097)" opacity="0.1"/>
    <path id="Path_2406" data-name="Path 2406" d="M840.417,544.63a10.428,10.428,0,0,0,2.618-.212,3.508,3.508,0,0,0,2.152-1.412,1.234,1.234,0,0,0-.911.144,15.378,15.378,0,0,1-8.415,1.007A12.152,12.152,0,0,0,840.417,544.63Z" transform="translate(-330.24 -192.543)" opacity="0.1"/>
    <path id="Path_2407" data-name="Path 2407" d="M809.554,601.836a27.49,27.49,0,0,1-5.352,1.048,32.336,32.336,0,0,1-4.235-.082l-6.853-.432-3.426-.219c-.4,0-2.056,0-1.24-.815.411-.4,2.7-.144,3.289-.164q1.706-.055,3.426-.062c2.268,0,4.543,0,6.812.137C804.518,601.37,807.019,601.562,809.554,601.836Z" transform="translate(-315.249 -210.839)" opacity="0.1"/>
    <path id="Path_2408" data-name="Path 2408" d="M800.55,606.827c-1.165-.048-2.666.644-3.865.795a25.706,25.706,0,0,1-4.043.158,22.547,22.547,0,0,1-7.792-1.59C790.079,606.457,795.321,606.615,800.55,606.827Z" transform="translate(-314.187 -212.438)" opacity="0.1"/>
    <path id="Path_2409" data-name="Path 2409" d="M785.244,612.259a11.2,11.2,0,0,1,1.494.411c2.892.822,5.969.1,8.909-.63a5.227,5.227,0,0,1-3.378,1.878,15.666,15.666,0,0,1-6.579.24c-.685-.137-2.405-.384-2.741-1.1C782.386,612.013,784.6,612.156,785.244,612.259Z" transform="translate(-313.56 -214.279)" opacity="0.1"/>
    <path id="Path_2410" data-name="Path 2410" d="M808.02,619.558a22.348,22.348,0,0,1,2.563.685c3.255.809,6.634-.3,9.9-1.048a46.094,46.094,0,0,1,11.986-1.11,11.867,11.867,0,0,0-2.57.843c-.925.281-1.864.541-2.8.774-1.843.452-3.714.822-5.6,1.09a57.558,57.558,0,0,1-11.492.5c-1.754-.1-4.8.082-6.3-.8A6.942,6.942,0,0,1,808.02,619.558Z" transform="translate(-320.122 -216.171)" opacity="0.1"/>
    <path id="Path_2411" data-name="Path 2411" d="M799.56,467.639s.164,7.716-1.09,11.239c-.4,1.1-1.014,3.118-1.686,5.386-.733,2.515-1.535,5.332-2.152,7.538s-1.028,3.687-1.028,3.687-2.83,23.053-3.563,34.038a2.681,2.681,0,0,1-.041.576c-.041.617-.11,1.261-.212,1.926-1.631,10.91-11.04,27.734-14.2,29.077a9.4,9.4,0,0,0-2.659,1.83c0-4.639.233-8.155.816-8.868,1.843-2.261,9.717-24.89,9.717-24.89l1.8.1c-.041-.315-.068-.685-.082-1.007-.144-4.365,1.891-11.067,1.891-11.067s1.172-13.411,1.172-13.994-1.007-9.978-1.007-9.978l2.015-7.538,3.858-2.7c.48-5.818,1.624-12.883,4.358-14.809a10.89,10.89,0,0,0,3.187-4.036c.541.075-.445-.4-.445-.4Z" transform="translate(-310.436 -167.607)" opacity="0.1"/>
    <path id="Path_2412" data-name="Path 2412" d="M791.425,463a4.989,4.989,0,0,0-4.242.48c-1.933,1.371-5.7,1.254-6.709,1.007s-11.479-1.6-12.335-1.261-2.515-1.172-3.6.843-1.59,3.1-2.679,3.6-3.022,2.1-2.741,2.433-2.741,2.344-2.741,2.344l6.113,19.873s-3.94,25.136-5.866,27.316-19.024,30.42-12.9,35.45a121.792,121.792,0,0,0,15.337,10.279c.685.336,3.1-4.187,6.448-5.613s13.747-20.284,14.391-31.009,3.6-34.607,3.6-34.607,3.6-13.075,4.859-16.6,1.09-11.239,1.09-11.239Z" transform="translate(-300.827 -167.289)" fill="#4c4981"/>
    <path id="Path_2413" data-name="Path 2413" d="M855.2,574.564l-1.425,3.015s-.2.9-.452,2.323a1.282,1.282,0,0,1-.685-.308c-2.1-1.679-14.391-14.329-15-25.561-.432-8.285-.226-15.426-.089-18.606.041-1,.082-1.6.082-1.734h0s9.553-11.568,8.463-15.666-3.6-26.041-3.6-26.041l-.37-2.878-.637-4.866-1.521-11.773,1.576.37a4.572,4.572,0,0,0,.953.966l1.631,10.355,5.661,6.236.925,37.965-2.6,6.784s-2.118.1-5.421.2h-.322Z" transform="translate(-330.719 -170.355)" opacity="0.1"/>
    <path id="Path_2414" data-name="Path 2414" d="M860.9,511.665s-2.344-.925-2.508,0-.589,2.926-.589,2.926.418,4.866-1.371,6.791-2.056,10.053-2.056,10.053-2.823,8.045-1.487,10.56c.487.911,1.24,5.482,1.994,10.965.48,3.427.953,7.189,1.371,10.629.761,6.25,1.329,11.424,1.329,11.424s-1.514,5.53-3.611,3.851S839.583,564.535,838.98,553.3c-.411-7.888-.247-14.74-.11-18.119.055-1.432.11-2.241.11-2.241s9.553-11.568,8.463-15.672-3.6-26.041-3.6-26.041l-.439-3.392-.473-3.646-.11-.8L841.3,471.74h0c.267.062,9.669,2.186,10.91,3.426s8.909,3.015,8.909,3.015a6.7,6.7,0,0,1,4.756,4.879c.075.233.13.48.185.733,1.007,4.866.685,5.448,1.371,6.291S860.9,511.665,860.9,511.665Z" transform="translate(-331.14 -170.125)" fill="#4c4981"/>
    <path id="Path_2415" data-name="Path 2415" d="M860.534,600.879c-3.426-.685-8.511-2.268-8.395-5.763.1-3.269,4.036-4.448,7.017-4.866C859.636,593.663,860.109,597.439,860.534,600.879Z" transform="translate(-335.363 -207.422)" opacity="0.1"/>
    <path id="Path_2416" data-name="Path 2416" d="M871.393,598.8c-.137.295-.685.548-1.466.774a39.531,39.531,0,0,1-5.571.911s-11.65-.925-11.485-6.209c.123-3.79,5.386-4.8,8.34-5.023a19.183,19.183,0,0,1,1.967-.082S871.893,597.715,871.393,598.8Z" transform="translate(-335.593 -207.081)" fill="#ae6e79"/>
    <path id="Path_2417" data-name="Path 2417" d="M874.934,598.8c-.137.295-.685.548-1.466.774-3.036-4.064-7.271-9.279-9.347-9.738l.63-.583a19.183,19.183,0,0,1,1.967-.082S875.434,597.715,874.934,598.8Z" transform="translate(-339.134 -207.081)" opacity="0.1"/>
    <path id="Path_2418" data-name="Path 2418" d="M872.234,497.69l3.427.507a59.551,59.551,0,0,0,4.112,6.284,6.853,6.853,0,0,1,1.507,4.023s5.03,7.456,6.62,8.292,4.023,6.538,4.023,6.538,3.94,2.6,3.94,5.53a49.259,49.259,0,0,0,.754,7.292c.089.418-.583,5.619-2.261,8.223s-3.358,8.347-3.269,9.375-4.694,6.373-6.031,8.045a34.056,34.056,0,0,0-2.933,4.948l-4.441,8.381s-9.388-13.829-12.822-14.583c0,0,3.851-3.687,5.777-4.358s3.776-6.168,3.858-7.456,1.761-5.448,3.516-6.168,2.686-1.508,1.932-2.686,0-3.426,0-3.426-4.948-6.538-5.619-10.279-5.195-6.284-5.195-6.284l-2.6-6.373Z" transform="translate(-339.367 -178.292)" fill="#4c4981"/>
    <path id="Path_2419" data-name="Path 2419" d="M892.372,542.163a10.875,10.875,0,0,1,6.764-2.563,8.246,8.246,0,0,0-4.427,1.734,10.436,10.436,0,0,0-1.227,1.563c-.4.569-3.632,4.68-4.112,4.029C888.569,545.973,891.721,542.718,892.372,542.163Z" transform="translate(-347.04 -191.481)" opacity="0.1"/>
    <path id="Path_2420" data-name="Path 2420" d="M882.73,531.426a2.9,2.9,0,0,0,2.392-1.693,9.493,9.493,0,0,0,.747-2.974,44.36,44.36,0,0,1,1.035-5.092,2.358,2.358,0,0,0-.144-2.056,6.956,6.956,0,0,0-.74-1.521c-.617.685-.795,2.282-1.049,3.2-.315,1.138-.6,2.282-.877,3.426C883.95,525.265,882.812,531.426,882.73,531.426Z" transform="translate(-344.991 -184.712)" opacity="0.1"/>
    <path id="Path_2421" data-name="Path 2421" d="M855.646,462.838a7.06,7.06,0,0,1-1.158,1.192c-1.371,1.09-3.187,2.008-3.358,3.728a4.01,4.01,0,0,1-.206,1.652c-.439.754-1.514.685-2.371.541a4.111,4.111,0,0,1-2.008-.74c-.9-.768-.98-2.138-1.665-3.1a4.228,4.228,0,0,0-3.426-1.515c-1.281-.041-2.556.247-3.838.3a10.548,10.548,0,0,1-2.46-.164,7.788,7.788,0,0,1-.795-.164,10.226,10.226,0,0,1-1.672-.569,7.352,7.352,0,0,1-.815-.384,10.826,10.826,0,0,1-2.364-1.645,5.878,5.878,0,0,1-2.193-4.448c.062-1.048.535-2.015.685-3.05.514-2.96-1.453-5.756-3.584-7.874-.85-.843-1.754-1.658-2.6-2.515a12.534,12.534,0,0,1-3.063-4.372,13.02,13.02,0,0,1-.548-5.482,37.822,37.822,0,0,0,.158-5.633c-.63-6.661-6.318-11.766-12.006-14.542l-.254-.13a18.263,18.263,0,1,1,24.568,26.726c-.062.212-.117.425-.164.63-1.316,5.263-.445,8.456.535,10.218h0c.267.062,9.669,2.186,10.91,3.426s8.909,3.015,8.909,3.015a6.7,6.7,0,0,1,4.79,4.9Z" transform="translate(-320.875 -149.957)" opacity="0.1"/>
    <path id="Path_2422" data-name="Path 2422" d="M804.112,405.361c.377-.432.946-.651,1.329-1.069,1.185-1.288,0-3.392.432-5.092.466-1.885,2.782-2.707,4.715-2.508s3.742,1.09,5.674,1.309c3,.336,5.907-.966,8.833-1.727s6.462-.8,8.477,1.439,1.878,6.058,4.386,7.682c1.158.747,2.618.829,3.872,1.371a7.956,7.956,0,0,1,3.276,3.132,16.405,16.405,0,0,1,2.481,10.492c-.212,1.987-.788,3.92-1.021,5.907a17.2,17.2,0,0,0,.411,6.168c.528,2.056,1.672,4.276,3.721,4.934a6.277,6.277,0,0,1,1.371.473c1.186.74,1.028,2.481.726,3.838l-1.22,5.626c1.172.891,2.995.507,4.112,1.446a3.427,3.427,0,0,1,.959,1.508,8.223,8.223,0,0,1-2.46,9c-1.371,1.09-3.187,2.008-3.358,3.721a3.864,3.864,0,0,1-.206,1.652c-.432.754-1.514.685-2.371.541a4.112,4.112,0,0,1-2-.74c-.9-.767-.98-2.138-1.665-3.1a4.242,4.242,0,0,0-3.426-1.514c-1.288-.041-2.556.247-3.844.308a11.362,11.362,0,0,1-8.08-2.919,5.9,5.9,0,0,1-2.2-4.454c.062-1.042.535-2.015.685-3.05.507-2.954-1.453-5.756-3.584-7.874s-4.633-4.071-5.674-6.887c-1.3-3.488-.041-7.381-.391-11.081-.63-6.668-6.312-11.766-12.006-14.549C804.8,408.692,802.639,407.04,804.112,405.361Z" transform="translate(-320.093 -146.227)" fill="#444053"/>
    <path id="Path_2423" data-name="Path 2423" d="M848.905,463.322c-.9-.774-.98-2.138-1.665-3.1a4.256,4.256,0,0,0-3.426-1.521c-1.288-.041-2.563.247-3.844.308a11.328,11.328,0,0,1-8.107-2.926,5.877,5.877,0,0,1-2.193-4.447c.062-1.048.535-2.022.685-3.05.514-2.96-1.453-5.763-3.584-7.881s-4.626-4.071-5.674-6.887c-1.3-3.481,0-7.374-.384-11.081-.637-6.668-6.318-11.766-12.006-14.549-1.329-.651-3.488-2.3-2.015-3.982.37-.432.939-.651,1.323-1.069,1.186-1.281,0-3.392.439-5.085a2.8,2.8,0,0,1,.432-.939,3.655,3.655,0,0,0-3.091,2.447c-.418,1.7.754,3.8-.432,5.092-.384.418-.953.637-1.329,1.062-1.473,1.679.685,3.337,2.015,3.982,5.695,2.782,11.376,7.888,12.006,14.549.35,3.707-.911,7.6.391,11.088,1.042,2.81,3.543,4.8,5.674,6.887s4.112,4.914,3.584,7.874a26.274,26.274,0,0,0-.685,3.05,5.884,5.884,0,0,0,2.2,4.448,11.3,11.3,0,0,0,8.1,2.926c1.288-.062,2.556-.343,3.844-.308a4.263,4.263,0,0,1,3.426,1.521c.685.966.761,2.337,1.665,3.1a4.112,4.112,0,0,0,2,.733c.857.158,1.939.212,2.371-.535a1.85,1.85,0,0,0,.192-.987A3.94,3.94,0,0,1,848.905,463.322Z" transform="translate(-320.068 -146.638)" opacity="0.1"/>
    <path id="Path_2424" data-name="Path 2424" d="M671.034,307.568h-47.4V260.859h47.435Zm-.685-70.427H624.318c0-72.586,68.995-68.344,68.995-114.265,0-25.294-20.7-45.558-46-45.558s-45.99,21.847-45.99,46.277h-46A91.828,91.828,0,0,1,647.316,31.61c50.807,0,91.986,40.535,91.986,91.266,0,57.42-68.988,63.958-68.988,114.265Z" transform="translate(-241.954 -31.61)" fill="#003cdb"/>
    <path id="Path_2425" data-name="Path 2425" d="M365.5,381.271H353.271V369.2H365.5Zm-.185-18.16H353.456c0-18.708,17.783-17.619,17.783-29.467a11.8,11.8,0,0,0-11.855-11.753,12.109,12.109,0,0,0-11.828,11.924H335.7a23.716,23.716,0,1,1,47.432-.185c-.038,14.8-17.821,16.488-17.821,29.454Z" transform="translate(-172.833 -119.225)" fill="#003cdb" opacity="0.1"/>
    <path id="Path_2426" data-name="Path 2426" d="M500.551,503.694H488.326v-12.04h12.226Zm-.178-18.153H488.517c0-18.715,17.783-17.619,17.783-29.467a11.794,11.794,0,0,0-11.855-11.746,12.109,12.109,0,0,0-11.89,11.938H470.7a23.716,23.716,0,1,1,47.432-.185C518.149,470.882,500.373,472.575,500.373,485.541Z" transform="translate(-215.32 -157.761)" fill="#003cdb" opacity="0.1"/>
    <path id="Path_2427" data-name="Path 2427" d="M586.474,296h-8.861v-8.71h8.861Zm-.13-13.164H577.75c0-13.555,12.89-12.767,12.89-21.347a8.552,8.552,0,0,0-8.594-8.511,8.772,8.772,0,0,0-8.594,8.648H564.86a17.187,17.187,0,1,1,34.374-.137C599.22,272.213,586.344,273.44,586.344,282.835Z" transform="translate(-244.953 -98.568)" fill="#003cdb" opacity="0.1"/>
    <path id="Path_2428" data-name="Path 2428" d="M811.616,324.371h-5.01v-4.934h5.01Zm-.075-7.435h-4.886c0-7.661,7.285-7.216,7.285-12.068a4.8,4.8,0,0,0-4.852-4.8,4.961,4.961,0,0,0-4.859,4.886H799.37a9.717,9.717,0,0,1,19.428-.075C818.825,310.906,811.541,311.625,811.541,316.936Z" transform="translate(-318.757 -114.646)" fill="#003cdb" opacity="0.1"/>
    <path id="Path_2429" data-name="Path 2429" d="M923.389,651.842h-5.01v-4.934h5.01Zm-.075-7.435h-4.859c0-7.668,7.291-7.216,7.291-12.068a4.831,4.831,0,0,0-4.859-4.8,4.955,4.955,0,0,0-4.859,4.886H911.17a9.717,9.717,0,0,1,19.428-.075c.027,6.051-7.257,6.743-7.257,12.054Z" transform="translate(-353.941 -217.706)" fill="#003cdb" opacity="0.1"/>
  </g>
</svg>
