<svg xmlns="http://www.w3.org/2000/svg" width="225.523" height="105.788" viewBox="0 0 225.523 105.788"><defs><style>.a{fill:#2e394e;}.b{fill:#1e2141;stroke:#2e394e;}</style></defs><g transform="translate(0.414 78.952)"><path class="a" d="M1277.563,1013.527V1000.17H1273.7v11.371l-6.22,3.311-5.962-3.311V1000.17h-5.038v13.357l10.541,5.42Z" transform="translate(-1157.667 -1000.17)"/><g transform="translate(74.177 0)"><path class="a" d="M961.712,1154.471H944.53v3.44h21.037v-6.861h-3.855Z" transform="translate(-944.53 -1139.135)"/><path class="a" d="M965.567,1003.611v-3.441H944.53v11.086h21.037v-3.44H949.548v-4.205Z" transform="translate(-944.53 -1000.17)"/></g><path class="a" d="M649.337,1000.17l.227,13.974-12.445-13.974H631.84v18.777h5.051v-13.47l11.994,13.466h0v0h4.049V1000.17Z" transform="translate(-582.357 -1000.17)"/><path class="a" d="M333.332,1000.17h-9.591v3.441h7.513l3.592,5.948-3.592,5.948h-8.383V1000.17H317.8v18.777h15.532l5.67-9.388Z" transform="translate(-293.118 -1000.17)"/><path class="a" d="M5.26,1005.591v13.356H9.123l.238-10.9,6.519-3.553,6.27,3.4.329,11.054h3.863v-13.356L15.8,1000.17Z" transform="translate(-5.26 -1000.17)"/><path class="a" d="M1285.243,1013.527V1000.17h-3.6v11.371l-6.223,3.434-6.222-3.434V1000.17h-3.6v13.357l9.821,5.42Z" transform="translate(-1166.067 -1000.17)"/><path class="a" d="M14.38,1005.591v13.356h3.6v-11.37l6.223-3.434,6.222,3.434v11.37h3.6v-13.356L24.2,1000.17Z" transform="translate(-13.66 -1000.17)"/><path class="a" d="M656.994,1000.17v13.974L644.55,1000.17h-3.6v18.777h3.6v-13.47l11.994,13.466h0v0h4.049V1000.17Z" transform="translate(-590.747 -1000.17)"/><g transform="translate(74.875 0)"><path class="a" d="M969.4,1154.471H953.36v3.44H973v-6.861h-3.6Z" transform="translate(-953.36 -1139.135)"/><path class="a" d="M973,1003.611v-3.441H953.36v11.086H973v-3.44H956.959v-4.205Z" transform="translate(-953.36 -1000.17)"/></g><path class="a" d="M340.9,1000.17h-8.926v3.441h6.849l3.593,5.948-3.593,5.948h-8.3V1000.17h-3.6v18.777H340.9l5.67-9.388Z" transform="translate(-301.527 -1000.17)"/><g transform="translate(0.239 22.184)"><g transform="translate(0 0.355)"><path class="a" d="M8.988,1295.316l-.306.884H8.29l1-2.81h.458l1,2.81h-.406l-.314-.884Zm.964-.284-.287-.809c-.066-.183-.109-.35-.152-.513H9.5c-.043.167-.092.338-.148.509l-.288.813Z" transform="translate(-8.29 -1292.773)"/><path class="a" d="M45.24,1305.225l.955-1.188c.092-.108.178-.2.275-.313v-.009H45.327v-.3h1.609l0,.229-.942,1.171c-.087.113-.175.213-.27.317v.009h1.234v.292H45.24Z" transform="translate(-42.322 -1302.011)"/><path class="a" d="M74.56,1285.788a.216.216,0,0,1,.218-.208.212.212,0,0,1,.209.208.214.214,0,0,1-.427,0Zm.4.408v2.81h-.379v-2.81Z" transform="translate(-69.326 -1285.58)"/><path class="a" d="M90.52,1285.788a.216.216,0,0,1,.218-.208.212.212,0,0,1,.209.208.214.214,0,0,1-.427,0Zm.4.408v2.81h-.379v-2.81Z" transform="translate(-84.026 -1285.58)"/><path class="a" d="M123.356,1295h-.009l-.493.254-.074-.28.619-.317h.327v2.71h-.37Z" transform="translate(-113.738 -1293.943)"/><path class="a" d="M150.63,1296.577a1.643,1.643,0,0,0,.31-.013,1.089,1.089,0,0,0,.593-.263,1.173,1.173,0,0,0,.375-.721h-.013a.849.849,0,0,1-.667.292.8.8,0,0,1-.837-.83.949.949,0,0,1,.968-.963c.58,0,.937.45.937,1.142a1.669,1.669,0,0,1-.489,1.271,1.441,1.441,0,0,1-.824.363,1.832,1.832,0,0,1-.353.021v-.3Zm.139-1.559a.531.531,0,0,0,.545.575.642.642,0,0,0,.558-.283.232.232,0,0,0,.035-.134c0-.463-.178-.817-.58-.817A.592.592,0,0,0,150.769,1295.018Z" transform="translate(-139.168 -1293.409)"/><path class="a" d="M181.7,1296.835v-.225l.3-.28c.724-.659,1.051-1.009,1.056-1.417a.494.494,0,0,0-.562-.529.989.989,0,0,0-.6.229l-.122-.258a1.278,1.278,0,0,1,.8-.275.781.781,0,0,1,.868.788c0,.5-.379.905-.977,1.455l-.227.2v.009h1.274v.3Z" transform="translate(-168.005 -1293.409)"/><path class="a" d="M214.223,1295.461c0,.922-.358,1.43-.986,1.43-.554,0-.929-.5-.937-1.392s.41-1.409.986-1.409C213.883,1294.089,214.223,1294.6,214.223,1295.461Zm-1.539.041c0,.7.227,1.1.576,1.1.393,0,.58-.437.58-1.13,0-.667-.178-1.1-.576-1.1C212.928,1294.373,212.684,1294.764,212.684,1295.5Z" transform="translate(-196.189 -1293.418)"/></g><g transform="translate(24.276 0.519)"><path class="a" d="M317.847,1291.8H316.39l-.29.76h-.42l1.234-3.122h.4l1.244,3.122h-.422Zm-.128-.334-.6-1.56h-.009l-.595,1.56Z" transform="translate(-315.68 -1289.299)"/><path class="a" d="M355.705,1303.711v.009h1.3v.309H355.2v-.261l1.3-1.56v-.009h-1.228v-.309h1.742v.255Z" transform="translate(-352.079 -1300.765)"/><path class="a" d="M382.132,1301.53a1.082,1.082,0,0,1,1.145,1.1,1.056,1.056,0,0,1-1.087,1.1,1.055,1.055,0,0,1-1.039-1.208H382.9a.722.722,0,0,0-.779-.659,1.463,1.463,0,0,0-.635.161l-.146-.285a1.749,1.749,0,0,1,.8-.2Zm.055,1.869a.671.671,0,0,0,.7-.586h-1.372a.647.647,0,0,0,.671.586Z" transform="translate(-375.97 -1300.434)"/><path class="a" d="M415.8,1301.56a.661.661,0,0,1,.092,0v.392c-.054,0-.11-.006-.148-.006a.674.674,0,0,0-.68.742v1.032h-.373v-2.139h.373v.374h.009a.851.851,0,0,1,.727-.4Z" transform="translate(-406.871 -1300.462)"/><path class="a" d="M435.91,1289.071a1.073,1.073,0,0,1,1.1,1.11,1.05,1.05,0,0,1-1.1,1.083.967.967,0,0,1-.783-.367h-.007v.339h-.357V1288h.373v1.414h.009a.986.986,0,0,1,.768-.343Zm-.038,1.867a.723.723,0,0,0,.754-.755.742.742,0,0,0-.759-.785.753.753,0,0,0-.748.785.74.74,0,0,0,.753.755Z" transform="translate(-425.356 -1287.972)"/><path class="a" d="M470.215,1301.585v2.139h-.357v-.339h-.007a.967.967,0,0,1-.783.367,1.05,1.05,0,0,1-1.1-1.083,1.074,1.074,0,0,1,1.1-1.11.98.98,0,0,1,.768.344h.009v-.317Zm-1.111,1.841a.739.739,0,0,0,.752-.755.753.753,0,0,0-.748-.785.742.742,0,0,0-.759.785.724.724,0,0,0,.755.755Z" transform="translate(-455.943 -1300.461)"/><path class="a" d="M503.4,1301.88l-1.266,3.008h-.395l.4-.952-.945-2.056h.4l.727,1.628h.011l.676-1.628Z" transform="translate(-486.54 -1300.756)"/><path class="a" d="M532.176,1303.725a1.1,1.1,0,1,1,.013-2.2,1.213,1.213,0,0,1,.9.382l-.258.215a.823.823,0,0,0-.626-.269.769.769,0,0,0,0,1.538.882.882,0,0,0,.635-.255l.258.221a1.276,1.276,0,0,1-.925.362Z" transform="translate(-514.06 -1300.434)"/><path class="a" d="M563,1301.585v2.139h-.357v-.339h-.007a.967.967,0,0,1-.783.367,1.05,1.05,0,0,1-1.1-1.083,1.074,1.074,0,0,1,1.1-1.11.98.98,0,0,1,.768.344h.009v-.317Zm-1.111,1.841a.739.739,0,0,0,.752-.755.753.753,0,0,0-.748-.785.742.742,0,0,0-.759.785.724.724,0,0,0,.755.755Z" transform="translate(-541.396 -1300.461)"/><path class="a" d="M598.283,1301.56c.482,0,.8.284.8.9v1.27h-.373v-1.171c0-.5-.22-.67-.548-.67a.688.688,0,0,0-.7.77v1.069h-.373v-2.139h.373v.369h.006a.983.983,0,0,1,.813-.394Z" transform="translate(-574.866 -1300.462)"/><path class="a" d="M646.131,1289.44h.976a1.544,1.544,0,0,1,1.695,1.566,1.522,1.522,0,0,1-1.681,1.556h-.99Zm.966,2.774a1.215,1.215,0,1,0,.017-2.427h-.584v2.427Z" transform="translate(-620.033 -1289.299)"/><path class="a" d="M686.539,1293.594a1.1,1.1,0,1,1,1.151-1.095,1.089,1.089,0,0,1-1.151,1.095Zm0-.328a.768.768,0,1,0-.781-.766.751.751,0,0,0,.781.766Zm-.683-2.485a.255.255,0,0,1,.265-.251.25.25,0,1,1,0,.5A.254.254,0,0,1,685.855,1290.781Zm.836,0a.262.262,0,0,1,.524,0,.252.252,0,0,1-.261.245A.255.255,0,0,1,686.691,1290.781Z" transform="translate(-656.184 -1290.302)"/><path class="a" d="M719.55,1301.88l-.909,2.139h-.357l-.914-2.139h.4l.689,1.687h.011l.676-1.687Z" transform="translate(-685.647 -1300.756)"/><path class="a" d="M750.58,1288h.37v3.236h-.37Z" transform="translate(-716.234 -1287.972)"/><path class="a" d="M763.042,1301.53a1.082,1.082,0,0,1,1.145,1.1,1.056,1.056,0,0,1-1.087,1.1,1.006,1.006,0,0,1-1.05-1.06,1.023,1.023,0,0,1,.011-.148h1.745a.722.722,0,0,0-.779-.659,1.463,1.463,0,0,0-.635.161l-.146-.285a1.744,1.744,0,0,1,.8-.2Zm.054,1.869a.671.671,0,0,0,.7-.586h-1.372a.648.648,0,0,0,.671.586Z" transform="translate(-726.799 -1300.434)"/><path class="a" d="M793.216,1295.068c-.4,0-.581-.234-.581-.665v-1.193h-.285v-.309h.285v-.732l.373-.039v.77h.741v.309h-.741v1.14c0,.257.063.384.274.384a.821.821,0,0,0,.378-.11l.1.311a1.032,1.032,0,0,1-.542.134Z" transform="translate(-754.706 -1291.776)"/><path class="a" d="M834.4,1289.44v3.122H834l-1.83-2.461h-.009v2.461h-.4v-3.122h.395l1.841,2.487H834v-2.487Z" transform="translate(-791.004 -1289.299)"/><path class="a" d="M874.611,1302.631a1.217,1.217,0,0,1-.011.146h-1.719a.717.717,0,0,0,.745.656.809.809,0,0,0,.631-.288l.261.212a1.119,1.119,0,0,1-.9.4,1.065,1.065,0,0,1-1.113-1.1,1.051,1.051,0,0,1,1.071-1.1,1.006,1.006,0,0,1,1.04,1.062Zm-1.022-.734a.691.691,0,0,0-.7.583h1.351a.641.641,0,0,0-.651-.583Z" transform="translate(-828.526 -1300.47)"/><path class="a" d="M903.094,1289.083h-.274v-.309h.274v-.434c0-.461.231-.691.629-.691a1.029,1.029,0,0,1,.52.135l-.083.307a.911.911,0,0,0-.391-.11c-.184,0-.306.11-.306.392v.4h.635v.309h-.635v1.831h-.37v-1.83Z" transform="translate(-856.452 -1287.65)"/><path class="a" d="M921.466,1295.068c-.4,0-.581-.234-.581-.665v-1.193H920.6v-.309h.285v-.732l.373-.039v.77H922v.309h-.741v1.14c0,.257.063.384.274.384a.821.821,0,0,0,.377-.11l.1.311a1.037,1.037,0,0,1-.542.134Z" transform="translate(-872.828 -1291.776)"/><path class="a" d="M958.35,1301.88l-.909,2.139h-.357l-.914-2.139h.4l.689,1.687h.011l.676-1.687Z" transform="translate(-905.588 -1300.756)"/><path class="a" d="M986.482,1301.53a1.082,1.082,0,0,1,1.145,1.1,1.056,1.056,0,0,1-1.087,1.1,1.006,1.006,0,0,1-1.05-1.06,1.151,1.151,0,0,1,.011-.148h1.745a.722.722,0,0,0-.779-.659,1.463,1.463,0,0,0-.635.161l-.146-.285a1.749,1.749,0,0,1,.8-.2Zm.055,1.869a.671.671,0,0,0,.7-.586h-1.372a.648.648,0,0,0,.671.586Z" transform="translate(-932.593 -1300.434)"/><path class="a" d="M1033.566,1292.267a1.607,1.607,0,0,1-1.156-.483l.253-.294a1.206,1.206,0,0,0,.907.414c.4,0,.669-.178.669-.476,0-.352-.3-.446-.732-.6-.483-.171-.974-.371-.974-.91a.912.912,0,0,1,1-.826,1.7,1.7,0,0,1,1.033.365l-.24.3a1.335,1.335,0,0,0-.795-.3c-.3,0-.577.159-.579.451s.29.406.7.557c.548.2,1.01.348,1.01.931s-.527.882-1.091.881Z" transform="translate(-975.808 -1288.976)"/><path class="a" d="M1066.7,1301.53a1.082,1.082,0,0,1,1.145,1.1,1.056,1.056,0,0,1-1.087,1.1,1.006,1.006,0,0,1-1.05-1.06,1.155,1.155,0,0,1,.011-.148h1.745a.722.722,0,0,0-.779-.659,1.464,1.464,0,0,0-.635.161l-.146-.285a1.746,1.746,0,0,1,.8-.2Zm.054,1.869a.671.671,0,0,0,.7-.586h-1.372a.649.649,0,0,0,.671.586Z" transform="translate(-1006.478 -1300.434)"/><path class="a" d="M1100.443,1301.56c.483,0,.8.284.8.9v1.27h-.373v-1.171c0-.5-.22-.67-.548-.67a.689.689,0,0,0-.7.77v1.069h-.373v-2.139h.373v.369h.006a.985.985,0,0,1,.813-.394Z" transform="translate(-1037.369 -1300.462)"/><path class="a" d="M1132.814,1301.585v2.139h-.357v-.339h-.006a.967.967,0,0,1-.783.367,1.05,1.05,0,0,1-1.1-1.083,1.073,1.073,0,0,1,1.1-1.11.98.98,0,0,1,.768.344h.009v-.317Zm-1.112,1.841a.74.74,0,0,0,.752-.755.753.753,0,0,0-.748-.785.742.742,0,0,0-.759.785.724.724,0,0,0,.755.755Z" transform="translate(-1066.216 -1300.461)"/><path class="a" d="M1165.977,1301.88l-1.266,3.008h-.4l.4-.952-.945-2.056h.4l.727,1.628h.011l.676-1.628Z" transform="translate(-1096.794 -1300.756)"/><path class="a" d="M1195.751,1302.631a1.235,1.235,0,0,1-.011.146h-1.719a.717.717,0,0,0,.745.656.809.809,0,0,0,.631-.288l.261.212a1.119,1.119,0,0,1-.9.4,1.065,1.065,0,0,1-1.114-1.1,1.051,1.051,0,0,1,1.071-1.1,1,1,0,0,1,1.04,1.062Zm-1.021-.734a.691.691,0,0,0-.7.583h1.351a.642.642,0,0,0-.651-.583Z" transform="translate(-1124.305 -1300.47)"/><path class="a" d="M1243.461,1292.59a1.191,1.191,0,0,1-1.261-1.3v-1.852h.4v1.823a.87.87,0,1,0,1.73,0v-1.823h.4v1.852a1.193,1.193,0,0,1-1.268,1.3Z" transform="translate(-1169.03 -1289.299)"/><path class="a" d="M1283.843,1301.56c.482,0,.8.284.8.9v1.27h-.373v-1.171c0-.5-.22-.67-.548-.67a.688.688,0,0,0-.7.77v1.069h-.373v-2.139h.373v.369h.006a.985.985,0,0,1,.813-.394Z" transform="translate(-1206.285 -1300.462)"/><path class="a" d="M1315.12,1290.781a.255.255,0,0,1,.265-.251.25.25,0,1,1,0,.5A.254.254,0,0,1,1315.12,1290.781Zm.077.645h.37v2.139h-.37Z" transform="translate(-1236.191 -1290.302)"/><path class="a" d="M1328.57,1301.88l-.909,2.139h-.357l-.914-2.139h.4l.689,1.687h.011l.676-1.687Z" transform="translate(-1246.571 -1300.756)"/><path class="a" d="M1357.951,1302.631a1.227,1.227,0,0,1-.011.146h-1.719a.717.717,0,0,0,.745.656.809.809,0,0,0,.631-.288l.261.212a1.119,1.119,0,0,1-.9.4,1.065,1.065,0,0,1-1.114-1.1,1.051,1.051,0,0,1,1.071-1.1,1.006,1.006,0,0,1,1.04,1.062Zm-1.022-.734a.691.691,0,0,0-.7.583h1.351a.641.641,0,0,0-.651-.583Z" transform="translate(-1273.695 -1300.47)"/><path class="a" d="M1390.049,1301.56a.664.664,0,0,1,.092,0v.392c-.054,0-.11-.006-.149-.006a.674.674,0,0,0-.68.742v1.032h-.373v-2.139h.373v.374h.009a.853.853,0,0,1,.727-.4Z" transform="translate(-1304.181 -1300.462)"/><path class="a" d="M1407.4,1303.762a1.319,1.319,0,0,1-.877-.309l.194-.27a.944.944,0,0,0,.685.255c.267,0,.424-.129.424-.285,0-.185-.207-.242-.532-.352-.366-.122-.674-.266-.674-.658,0-.326.314-.573.741-.573a1.2,1.2,0,0,1,.77.264l-.193.281a.922.922,0,0,0-.595-.223c-.171,0-.344.1-.344.251s.184.249.424.337c.472.174.784.251.781.67,0,.333-.264.613-.8.613Z" transform="translate(-1320.373 -1300.47)"/><path class="a" d="M1433.36,1290.781a.265.265,0,1,1,.265.249A.255.255,0,0,1,1433.36,1290.781Zm.077.645h.37v2.139h-.37Z" transform="translate(-1345.093 -1290.302)"/><path class="a" d="M1445.326,1295.068c-.4,0-.581-.234-.581-.665v-1.193h-.285v-.309h.285v-.732l.373-.039v.77h.741v.309h-.741v1.14c0,.257.063.384.274.384a.82.82,0,0,0,.377-.11l.1.311a1.035,1.035,0,0,1-.542.134Z" transform="translate(-1355.317 -1291.776)"/><path class="a" d="M1466.891,1302.631a1.194,1.194,0,0,1-.011.146h-1.719a.717.717,0,0,0,.746.656.808.808,0,0,0,.631-.288l.261.212a1.119,1.119,0,0,1-.9.4,1.065,1.065,0,0,1-1.114-1.1,1.051,1.051,0,0,1,1.071-1.1,1.006,1.006,0,0,1,1.04,1.062Zm-1.021-.734a.691.691,0,0,0-.7.583h1.351a.642.642,0,0,0-.651-.583Z" transform="translate(-1374.032 -1300.47)"/><path class="a" d="M1495.8,1295.068c-.4,0-.581-.234-.581-.665v-1.193h-.285v-.309h.285v-.732l.373-.039v.77h.741v.309h-.741v1.14c0,.257.063.384.274.384a.822.822,0,0,0,.378-.11l.1.311a1.032,1.032,0,0,1-.542.134Z" transform="translate(-1401.801 -1291.776)"/><path class="a" d="M1517.42,1290.781a.265.265,0,1,1,.265.249A.255.255,0,0,1,1517.42,1290.781Zm.077.645h.37v2.139h-.37Z" transform="translate(-1422.515 -1290.302)"/></g><g transform="translate(21.839)"><rect class="a" width="0.127" height="4.515"/></g><g transform="translate(21.35)"><rect class="a" width="0.127" height="4.515"/></g></g><g transform="translate(109.112 10.796)"><path class="a" d="M1386.89,1182.23v.014l.013-.006Z" transform="translate(-1386.89 -1178.648)"/><path class="a" d="M1388.46,1140.146l.23.13,5.827-3.151v-.254Z" transform="translate(-1388.336 -1136.87)"/></g><path class="a" d="M1384.16,1135.55l.23.13,6.167-3.335v-.254Z" transform="translate(-1275.264 -1121.672)"/><g transform="translate(4.674 4.492)"><path class="a" d="M142.573,1057.064v-.014l-.013.007Z" transform="translate(-136.391 -1057.05)"/><path class="a" d="M70.507,1059.609l-.231-.129-5.827,3.151v.254Z" transform="translate(-64.45 -1059.288)"/></g><path class="a" d="M70.847,1062.059l-.23-.129-6.167,3.335v.254Z" transform="translate(-59.776 -1057.053)"/></g><g transform="translate(0 0.005)"><path class="a" d="M123.507,39.207c-.189.08-.185.248-.186.411,0,.265,0,.531,0,.8,0,3.278,0,6.556.008,9.834a.59.59,0,0,1-.393.637q-3.586,1.624-7.161,3.276c-1.688.776-3.372,1.562-5.061,2.338q-3.617,1.664-7.236,3.322c-1.206.554-2.409,1.114-3.615,1.668q-3.195,1.47-6.391,2.938-1.769.814-3.536,1.631c-1.74.8-3.482,1.606-5.217,2.422a1.389,1.389,0,0,1-1.057.069c-.86-.256-1.733-.468-2.6-.694a.986.986,0,0,0-.209,0,2.752,2.752,0,0,0-.043.333c0,.62-.013,1.241,0,1.861a.475.475,0,0,1-.312.514c-1.5.685-3,1.384-4.5,2.074-.522.24-1.049.469-1.573.7-.088,0-.177-.009-.265-.009l-14.555,0c-.84-.318-1.682-.633-2.52-.956q-3.591-1.382-7.179-2.77-3.073-1.188-6.144-2.382-3.568-1.38-7.138-2.755-3.053-1.18-6.1-2.363l-6.928-2.685q-4.062-1.573-8.125-3.145Q11.135,54.6,6.8,52.936q-2.372-.917-4.74-1.843c-.408-.159-.411-.158-.411-.607q0-4.608,0-9.215V35.314c-.257.04-.269-.34-.536-.274l0-.617.517-.15V26.634L1.2,26.447l-.092-.625C2.039,25.411,2.967,25,3.9,24.591q1.3-.565,2.6-1.11a.385.385,0,0,0,.289-.433c-.013-.117.009-.238,0-.354a1.4,1.4,0,0,1,.444-1.072c.369.183.75.339,1.1.552a1.053,1.053,0,0,0,1.1.041c1.8-.807,3.626-1.57,5.441-2.349.434-.186.863-.381,1.3-.558a.48.48,0,0,0,.35-.541c-.017-.175.015-.356-.006-.531a1.417,1.417,0,0,1,.551-1.22,3.169,3.169,0,0,1,1.537.562,1.158,1.158,0,0,0,1.29.128c1.465-.693,2.969-1.3,4.459-1.946,1.341-.577,2.684-1.15,4.024-1.728q2.173-.937,4.344-1.88,2.03-.877,4.062-1.749l4.344-1.879,4.062-1.751q2.193-.946,4.385-1.9,2.4-1.037,4.79-2.075c1.435-.62,2.872-1.233,4.306-1.856.321-.14.626-.311.939-.468h14.8c.554.3,1.1.62,1.665.91,1.613.833,3.23,1.656,4.845,2.484.779.4.779.4.757,1.267,0,.085-.017.169-.029.286l-.473-.155c-.021.186-.039.354-.062.556-.22-.02-.312.08-.31.322q.015,2.524,0,5.05c0,.269.129.38.365.474,2.192.869,4.379,1.751,6.569,2.626,1.341.536,2.7,1.041,4.022,1.609a3.354,3.354,0,0,0,1.679.246c.483-.044.964-.12,1.448-.151,1.205-.076,2.411-.13,3.617-.2a1.166,1.166,0,0,1,1.049.535,5.207,5.207,0,0,1,.819,2.034,5.038,5.038,0,0,1,.1.7.491.491,0,0,0,.351.453c2.9,1.154,5.8,2.317,8.71,3.465a1.662,1.662,0,0,0,.691.076c.454-.028.905-.112,1.359-.145.719-.052,1.441-.078,2.161-.123a.572.572,0,0,1,.594.366,3.824,3.824,0,0,1,.39,1.441.66.66,0,0,0,.468.657c2.084.821,4.17,1.639,6.237,2.5a16.809,16.809,0,0,1,1.767.993c.1.058.205.115.308.171v.709c-.284.039-.183.264-.184.417q-.008,4.275,0,8.55a.724.724,0,0,0,.013.263c.028.067.114.111.174.164C123.507,39.088,123.507,39.148,123.507,39.207ZM37.891,10.575l.306-.137-.047-.094-.259.131-.347.113-.361.178-.619.268-.517.2c.016.035.032.069.047.1l.469-.238.62-.261.448-.171Zm57.344,7.26.4.13.027-.095-.426-.115-.347-.181-.453-.161-.443-.178-.444-.175-.443-.175a.392.392,0,0,0-.39-.14c-.01.031-.02.062-.03.093l.425.115.443.176.443.179.444.174.358.179Zm20.118,7.811-.46-.142-.026.093.486.137a.43.43,0,0,0,.449.146Zm-76.679,3.8-.247.013-.907.117c.006.044.01.089.016.133a3.858,3.858,0,0,0,1.173-.158l.332-.018h.267C39.06,29.338,38.874,29.319,38.674,29.45ZM21.94,32.211l-.708.085c-.107.024-.258-.066-.347.2l.345-.109.709-.092c.187-.018.4.065.6-.128Zm3.722-16.49.621-.265.621-.266.621-.265a1.7,1.7,0,0,0,.844-.358,2.088,2.088,0,0,0-.518.156,2.8,2.8,0,0,0-.327.2l-.62.266-.621.266-.621.265-.374.09.042.107ZM57.391,2.78l.621-.265,1.064-.441a.444.444,0,0,0,.446-.24l-.447.152-1.065.529-.619.266-.444.177a2.535,2.535,0,0,0-.337.084c-.45.175-.9.358-1.346.538L54.1,4.121l.043.092,1.212-.547,1.684-.709ZM30.1,31.238l.338-.018.8-.087.625-.1.61-.077.376-.072.426-.017.618-.087c.118-.006.265.043.313-.208l-.679.118-.336.017-.619.087-.366.077-.344.017-.709.084c-.152.025-.3.048-.453.076s-.3.058-.445.088l-.338.014-.3.03c0,.032.007.064.01.1A.452.452,0,0,0,30.1,31.238Zm-4.263,0-.62.087-.621.087-.708.088-.3.066.028.115.276-.093.709-.09.621-.089.621-.089.709-.088c.19-.009.395.047.572-.158l-.572.074Zm3.81-.449.621-.088.621-.086.621-.087c.216-.024.456.057.628-.161l-.628.079-.621.088-.621.088-.62.088-.62.088-.708.088-.913.156c.006.037.012.075.018.112l.894-.184.708-.092Zm75.332-8.677a.294.294,0,0,0-.423-.049l.427.118a.415.415,0,0,0,.394.141c.01-.03.021-.06.032-.09Zm1.157.509a.41.41,0,0,0,.39.144c.01-.03.02-.06.03-.091l-.425-.115a.418.418,0,0,0-.392-.144l-.029.091Zm-2.662-1.138-.333-.1-.555-.246-1.152-.443c-.462-.187-.922-.381-1.388-.561-.834-.322-1.672-.636-2.508-.953-.872-.353-1.741-.713-2.615-1.057q-4.664-1.837-9.331-3.667c-.366-.144-.734-.284-1.117-.432-.1.26-.047.385.187.471.993.37,1.981.757,2.971,1.133q4.024,1.533,8.049,3.06c.549.208,1.107.393,1.661.589.269.115.533.242.806.344,1.032.39,2.068.772,3.1,1.158l1.151.443.631.256.336.108.371.163c.159.062.308.173.516.04l-.412-.139ZM25.928,31.764c.216-.022.454.061.628-.153l-.627.072-.621.086-.709.09-.62.087-.723.111c0,.027.009.054.013.081l.709-.111.62-.088.709-.088Zm-6.735.8-.621.087-.708.088-.631.1c0,.034.01.069.015.1l.615-.12.709-.088.621-.089.709-.088c.214-.019.449.062.655-.148l-.655.063Zm15.424-2.035v.156l.365-.066.34-.013c.332-.049.663-.106,1-.146.6-.073,1.2-.128,1.792-.2.346-.044.689-.113,1.032-.171.191-.012.383-.014.573-.038.831-.1,1.662-.215,2.492-.32.787-.1,1.576-.193,2.364-.292.86-.108,1.72-.221,2.58-.331.569-.073,1.138-.142,1.707-.215.817-.1,1.632-.212,2.449-.316s1.6-.2,2.407-.3c.787-.1,1.572-.216,2.36-.315.817-.1,1.636-.191,2.453-.291.291-.036.581-.083.87-.135.22-.04.249-.169.13-.379-.144.015-.287.026-.43.046-.524.073-1.047.149-1.572.221-.787.107-1.573.211-2.36.318-.947.129-1.892.262-2.839.389-.772.1-1.546.2-2.318.3s-1.512.219-2.27.321c-.976.131-1.954.248-2.93.381s-1.92.279-2.88.413c-1.106.155-2.214.3-3.32.455-.476.061-.952.12-1.428.183q-.971.129-1.941.262C35.03,30.468,34.824,30.5,34.617,30.527Zm77.811-5.5.622.265.441.177.976.355a2.524,2.524,0,0,0,1.145.376l-1.145-.465-.887-.353-.531-.178-.621-.262-.546-.155-.026.095Zm-90.4,6.734-.709.088a7.777,7.777,0,0,0-1.364.27,2.878,2.878,0,0,0,.65-.012c.27-.041.535-.111.8-.17l.62-.089c.213-.02.449.062.655-.147Zm69.5-15.522-.552-.246-.335-.11-.554-.246c-.325-.133-.645-.279-.975-.4-.644-.236-1.293-.458-1.94-.686a.99.99,0,0,0-.2-.156q-.653-.272-1.312-.527c-.494-.19-.991-.37-1.486-.554a.549.549,0,0,0-.509-.108l.4.2c.2.089.4.185.6.266.832.329,1.664.652,2.5.977l2.741,1.069.628.26.332.106.554.246.335.107a1.262,1.262,0,0,0,.646.235c-.144-.26-.378-.234-.542-.329Zm-49.118-7.7-.621.265a1.058,1.058,0,0,0-.658.359,1.215,1.215,0,0,0,.66-.262l.621-.265.58-.2-.04-.116A.865.865,0,0,0,42.411,8.536Zm2.5-.956.509-.194.8-.35c.584-.238,1.17-.471,1.751-.718.809-.345,1.613-.7,2.42-1.053.749-.3,1.5-.6,2.248-.914q2.505-1.051,5-2.113c.569-.241,1.141-.476,1.71-.719.128-.054.292-.1.185-.329a1.081,1.081,0,0,0-.208.043c-.421.177-.839.359-1.259.538-1.557.666-3.115,1.328-4.67,2-1.068.461-2.13.936-3.194,1.4-.433.178-.869.349-1.3.534-.956.411-1.91.828-2.865,1.242l-.734.336-.509.2-.621.265-1.1.457.036.087a3.259,3.259,0,0,0,1.168-.445ZM36.758,29.822l.593-.024a.378.378,0,0,0-.445-.141c-.143.019-.285.05-.427.075l-.771.125A1.819,1.819,0,0,0,36.758,29.822Zm3.9-.534a3.474,3.474,0,0,0,.4-.013c.838-.115,1.675-.237,2.512-.357a1.32,1.32,0,0,0,.177,0c.785-.113,1.57-.231,2.355-.34s1.574-.212,2.361-.319c.947-.129,1.894-.262,2.841-.389.772-.1,1.547-.2,2.319-.3.962-.131,1.921-.276,2.883-.407.947-.128,1.9-.246,2.844-.367.172-.022.281-.09.208-.35-.246.029-.5.055-.757.092q-1.354.191-2.708.387l-2.838.41q-1.4.2-2.794.4c-.917.132-1.835.261-2.751.392q-1.419.2-2.838.41c-.463.068-.926.142-1.388.213-.53.082-1.059.17-1.591.244s-1.066.134-1.6.2l-.77.133c.006.039.012.079.018.118A4.262,4.262,0,0,0,40.657,29.288ZM7.213,24.245c-1.59.657-3.176,1.322-4.772,1.964a.5.5,0,0,0-.37.549c.012,2.372.006,4.743.008,7.114,0,.112.021.223.036.359l.5-.079,1.073-.169c.582-.074,1.163-.145,1.745-.222.566-.075,1.132-.155,1.7-.233l.275-.084c.757-.1,1.515-.193,2.272-.3.931-.13,1.861-.272,2.792-.408.916-.134,1.832-.273,2.749-.4.582-.081,1.166-.148,1.749-.222l.378-.1,17.23-2.492V12.977a2.346,2.346,0,0,0-.279.073q-2.271.932-4.539,1.87-3.556,1.47-7.112,2.942-2.656,1.1-5.309,2.206l-.273.081c-.336.148-.67.3-1.009.441-1.236.511-2.473,1.016-3.71,1.526q-2.465,1.015-4.93,2.034C7.349,24.181,7.281,24.213,7.213,24.245Zm0,28.425.111,0c.171.084.337.183.514.252q3.515,1.365,7.033,2.721c.753.29,1.515.559,2.273.837l.187.094c.672.264,1.343.529,2.016.791q3.091,1.2,6.182,2.4,3.793,1.468,7.588,2.931c.449.174.9.344,1.389.531V31.1c-.65.077-1.275.148-1.9.224q-1.182.143-2.364.293c-.831.106-1.662.22-2.492.325-.8.1-1.606.2-2.407.3s-1.573.214-2.361.314c-.817.1-1.636.188-2.453.292-1.065.136-2.128.283-3.191.425l-.207.008c-.639.085-1.277.171-1.916.254q-.915.12-1.83.237c-.785.1-1.57.2-2.355.3-.6.075-1.191.155-1.787.228s-1.222.146-1.833.22l-.626.081c-.787.1-1.576.186-2.359.309s-1.567.137-2.326.333V50.7Zm52.335,20.25c.1-.722.067-44.64-.037-44.994-.456.051-.922.1-1.388.156-.817.1-1.634.211-2.451.314s-1.606.2-2.409.3c-.787.1-1.574.215-2.361.314-.817.1-1.636.19-2.454.292-.861.107-1.721.225-2.581.336-.788.1-1.576.2-2.364.3-.832.106-1.663.214-2.495.319l-2.364.3q-1.27.161-2.538.325c-.4.052-.8.111-1.215.167V63.381Zm24.9-32.793v28.04c.618-.287,1.189-.555,1.763-.82q3.176-1.461,6.353-2.919c1.273-.586,2.543-1.18,3.816-1.765q3.016-1.386,6.034-2.766c1.327-.61,2.65-1.23,3.976-1.842q3.275-1.51,6.553-3.014c1.166-.536,2.331-1.076,3.5-1.612,2.024-.93,4.047-1.861,6.077-2.779a.564.564,0,0,0,.389-.6c-.012-3.412-.007-6.824-.009-10.236,0-.127-.021-.254-.036-.435-.43.029-.822.071-1.215.081-1.593.036-3.187.062-4.779.092l-4.779.088-4.735.088-4.735.088-4.735.088-4.735.088c-1.7.031-3.393.066-5.09.09-1.049.015-2.1.013-3.146.021C84.765,40.1,84.621,40.117,84.446,40.126ZM63.5,72.944V58.884c0-.591,0-1.181,0-1.772s-.021-1.17.017-1.742c.748-.092,6.724-.057,7.072.044v.512q0,8.242,0,16.484c0,.625-.085.647.66.642s1.477,0,2.215,0,.663.021.663-.682V28.5c0-.088,0-.178,0-.266-.008-.113-.026-.224-.038-.328-.764-.094-13.793-.055-14.1.038-.088.736-.049,44.723.039,45.038A17.232,17.232,0,0,0,63.5,72.944Zm20.931-33.83h.574q7.484-.037,14.969-.073c3.529-.013,7.059-.007,10.589-.009l11.785-.01c.171,0,.342-.015.524-.024.009-.169.02-.286.02-.4q0-4.364,0-8.728c0-.429,0-.428-.431-.592q-2.747-1.05-5.494-2.1-6.14-2.33-12.281-4.655-5.167-1.964-10.329-3.943-4.753-1.81-9.509-3.609c-.128-.048-.261-.081-.419-.13C84.435,22.953,84.435,31,84.435,39.114ZM59.572,2.608,34.913,12.8V29.473L59.572,25.89Zm14.534-.1H60.45c-.132,0-.264.015-.4.024-.012,0-.023.017-.034.026l-.031.028c-.09.9-.047,22.916.057,23.279.144.009.3.025.46.025q6.535,0,13.07,0c.1,0,.207,0,.31,0a.229.229,0,0,0,.243-.254c0-.088,0-.177,0-.266q0-11.187,0-22.374C74.13,2.856,74.117,2.713,74.106,2.512ZM74.531,27.9c-.019.171-.034.243-.034.314q.008,22.288.021,44.576a.056.056,0,0,0,.022.035.39.39,0,0,0,.074.03l5.8-2.691c.1-1.448.051-41.026-.054-41.386Zm9.522,40.291V40.732c0-.073,0-.148,0-.221-.01-.373-.028-.4-.41-.4-.738-.009-1.476-.007-2.214-.01-.625,0-.625,0-.625.629V63.448q0,1.793,0,3.588c0,.355.007.357.349.449q1.258.338,2.518.67A3.485,3.485,0,0,0,84.053,68.194ZM74.527,25.883,80.418,26.9c.009-.208.021-.351.021-.5Q80.44,16.2,80.446,6a.576.576,0,0,0-.363-.612c-1.711-.833-3.412-1.688-5.116-2.534-.126-.062-.261-.111-.44-.186Zm6.584,2.971c-.385-.011-.306.256-.307.468q0,4.651,0,9.3c0,.073,0,.148,0,.221a.24.24,0,0,0,.272.27q1.35,0,2.7,0a.241.241,0,0,0,.272-.272c0-.073,0-.148,0-.221q0-11.692,0-23.384c0-.141-.017-.281-.029-.454-.223.037-.4.059-.565.1-.734.158-1.465.323-2.2.48-.434.093-.454.105-.455.546q0,5.314,0,10.629c0,.42.045.463.477.528a.649.649,0,0,1,.216.032c.068.039.16.116.162.18a3.148,3.148,0,0,1-.029.979h-.472C81.142,28.447,81.13,28.621,81.111,28.853Zm-16,27.939v15.66c0,.088,0,.178,0,.265-.013.218.075.33.306.329q1.638,0,3.277,0c.2,0,.3-.091.3-.294,0-.118,0-.236,0-.355V59.381c0-.738,0-1.476,0-2.214,0-.378-.028-.4-.4-.4-1.063,0-2.125,0-3.188,0C65.321,56.763,65.25,56.778,65.108,56.793Zm4.233,16.253c.261,0,.451,0,.64,0a.226.226,0,0,0,.248-.248c0-.118,0-.236,0-.355V65.131q0-4.453,0-8.907c0-.169-.013-.339-.021-.5H63.863V72.485c0,.567.036.6.6.56a1.6,1.6,0,0,0,.291-.088V56.432H69.34C69.341,61.965,69.341,67.468,69.341,73.045ZM74.087,1.34c.05-.462.033-.485-.348-.5-.1,0-.207,0-.31,0H63.772c-1.137,0-2.274,0-3.411,0-.4,0-.435.056-.326.494ZM74.1,26.284H60v.4H74.1Zm-.015,1.2c.014-.374.008-.385-.259-.407-.088-.007-.177,0-.265,0H60.542c-.1,0-.208-.007-.31,0-.246.026-.264.066-.2.405Zm26.067-7.733a7.5,7.5,0,0,0-.457-2.31,2.653,2.653,0,0,0-.629-1.053.51.51,0,0,0-.883.085,1.837,1.837,0,0,0-.2.344,4.91,4.91,0,0,0-.384,1.947ZM80.9,14.266l2.669-.593.017-.089c-.9-.49-1.763-1.056-2.7-1.521A6.75,6.75,0,0,0,80.9,14.266ZM74.571,26.279c-.111.429-.09.465.273.519.437.064.873.126,1.309.2q2.524.411,5.048.827c.023,0,.05-.021.1-.046l-.024-.327ZM74.553,1.034c-.063.4-.064.4.3.587q3.028,1.52,6.056,3.037c.112.056.231.1.35.149.136-.308-.083-.362-.247-.447q-1.791-.923-3.581-1.844c-.314-.163-.623-.336-.938-.5C75.85,1.688,75.206,1.364,74.553,1.034Zm22.273,15.2-3.279.28-.009.088,2.76,1.1ZM80.67,28.439c.09-.366-.181-.344-.336-.374-.447-.087-.9-.134-1.35-.208-1.189-.193-2.375-.4-3.566-.581-.291-.043-.588-.2-.886-.076-.073.208,0,.3.186.334.3.05.608.1.913.148l2.7.41ZM74.554,1.9c-.137.331.092.377.254.456q2.832,1.4,5.668,2.8a1.727,1.727,0,0,0,.206.07c.046-.285-.167-.318-.307-.39q-2.717-1.384-5.44-2.758C74.818,2.014,74.7,1.964,74.554,1.9Zm39.319,21.267a2.33,2.33,0,0,0-.422,1.823l.964.381A4.278,4.278,0,0,0,113.873,23.165ZM97.2,18.53a5.612,5.612,0,0,1,.682-2.336c-.408,0-.509.047-.682.3a3.5,3.5,0,0,0-.491,1.4C96.617,18.4,96.622,18.418,97.2,18.53ZM74.033,1.792c0-.016,0-.031.006-.047H60.059v.047Zm38.751,21.421-2.075.174a5.975,5.975,0,0,0,1.85.708ZM17.909,17.646v.821a1.752,1.752,0,0,0,.862-.339Zm92.933,6.235-.04.095a17.222,17.222,0,0,0,1.651.641l.031-.081ZM28.625,31.464a1.259,1.259,0,0,0-1.041.116ZM53.607,4.434l-.036-.116-.99.419.036.089ZM7.861,22.364v.523l.479-.255Zm16.182-6.011a1.316,1.316,0,0,0,.93-.406Zm11.33,13.69c0-.037-.007-.074-.01-.111l-.771.077.009.1Zm-1.572.205a.717.717,0,0,0-.65-.016c0,.033.007.066.01.1Zm75.519-6.838c-.257-.258-.257-.258-.6-.25Zm3.7.956-.1,0a.287.287,0,0,0,.1.406ZM38.81,10.207l-.043-.132-.449.179c.009.028.017.055.027.082Zm.625-.269-.028-.1c-.177-.016-.313.122-.457.23ZM110.559,23.89l.037-.089-.462-.208c-.013.03-.024.06-.037.089Zm-1.312-.032.05-.082a.434.434,0,0,0-.47-.079ZM16.92,32.981c0-.032.006-.062.009-.094l-.52.063c0,.024.007.049.011.073Zm90.425-9.968c.171.173.171.173.421.122ZM40.056,9.672c-.215-.16-.336.038-.486.126ZM28.984,31.279c0,.039,0,.078,0,.118l.323-.021c0-.032,0-.065,0-.1ZM40.574,9.3l.05.112L40.9,9.27l-.045-.089ZM29.405,14.085l.046.085.359-.184-.046-.085Zm-.212.167-.043-.085-.369.182.043.085ZM113.152,23.7l-.093-.01-.093.382.1.024Zm-10.359-2.883.042-.073a.554.554,0,0,0-.134-.085.571.571,0,0,0-.16,0c0,.023-.006.047-.009.069Zm-.682-.362-.028.073a.6.6,0,0,0,.132.072.711.711,0,0,0,.164,0l.007-.062C102.3,20.508,102.2,20.48,102.112,20.452ZM22.968,31.665c.006.028.01.055.016.084l.248-.038c-.006-.033-.012-.066-.018-.1Zm4.071-.144c0,.04-.006.08-.009.12h.247c0-.026.006-.051.008-.077ZM101.907,20.46l.042-.073a.583.583,0,0,0-.134-.085.577.577,0,0,0-.161,0c0,.023-.006.047-.008.069ZM35.267,11.7c-.2-.04-.2-.04-.332.119Zm-.973.293.031.077.317-.113-.041-.1Zm66.928,8.1-.029.073a.625.625,0,0,0,.132.074.817.817,0,0,0,.166.011l.009-.069ZM32.76,30.425l.014-.114-.245-.019c0,.031-.007.061-.01.092Zm74.162-7.6-.058.1.284.1.03-.08Zm1.6.621-.057.1.28.095c.009-.026.019-.052.029-.078Zm-3.232-1.656c-.1-.119-.19-.229-.388-.125Zm4.36,2.12-.028.072a.62.62,0,0,0,.131.07.829.829,0,0,0,.161.01c0-.023.006-.046.008-.069Zm1.4.625.027-.077-.351-.122-.028.084ZM101.032,20.11l.034-.1-.259-.071-.024.085Zm7.269,3.368c.011-.032.023-.064.034-.1l-.26-.071-.025.085Z" transform="translate(-1.024 -0.48)"/><path class="a" d="M741.78,922.932l14.555,0c.088,0,.177.006.265.009-.006.026-.012.053-.016.08h-14.8A.291.291,0,0,0,741.78,922.932Z" transform="translate(-683.201 -850.081)"/><path class="a" d="M.2,321.947l-.178.088v-.709a.286.286,0,0,1,.086,0Q.151,321.634.2,321.947Z" transform="translate(-0.02 -295.982)"/><path class="a" d="M.02,430.229a.563.563,0,0,1,.088,0l0,.617-.091,0Z" transform="translate(-0.02 -396.289)"/><path class="a" d="M203.993,438.912c0-.355.006-.708.006-1.063q0-10.783,0-21.567c0-.192-.012-.383-.018-.575l.207-.007c0,.118-.008.236-.008.355q0,11.475,0,22.951Z" transform="translate(-187.873 -382.909)"/><path class="a" d="M201.93,260.547c.1-.082.212-.159.19-.32a2.125,2.125,0,0,1,0-.265q0-5.44,0-10.88a2.837,2.837,0,0,0-.088-.5l.273-.081q0,5.865,0,11.731c0,.073.007.147.011.221Z" transform="translate(-185.984 -228.913)"/><path class="a" d="M73.4,449.586c0-.162.013-.324.013-.486q0-8.513,0-17.026v-.535l-.443-.028.626-.081a4.378,4.378,0,0,0-.082.6q-.007,8.778,0,17.557Z" transform="translate(-67.209 -397.396)"/><path class="a" d="M77.37,309.559a2.013,2.013,0,0,0,.091-.422q.007-4.343,0-8.685c0-.059-.009-.118-.013-.177l.2-.1c0,.738-.012,1.475-.012,2.213q0,3.541,0,7.082Z" transform="translate(-71.261 -276.512)"/><path class="a" d="M761.533,16.547H747.56V16.5h13.98C761.537,16.516,761.535,16.531,761.533,16.547Z" transform="translate(-688.524 -15.235)"/><path class="a" d="M213.83,217.85l.862.483a1.762,1.762,0,0,1-.862.339Z" transform="translate(-196.945 -200.684)"/><path class="a" d="M1390.13,296.8l1.641.655-.031.081a17.254,17.254,0,0,1-1.651-.641C1390.1,296.863,1390.117,296.832,1390.13,296.8Z" transform="translate(-1280.311 -273.399)"/><path class="a" d="M686.84,32.472c.449-.18.9-.362,1.346-.538a2.506,2.506,0,0,1,.337-.084h.09l-1.685.709Z" transform="translate(-632.6 -29.373)"/><path class="a" d="M241.2,397.808c-.268.058-.533.128-.8.17a2.878,2.878,0,0,1-.65.012,7.81,7.81,0,0,1,1.364-.27Z" transform="translate(-220.818 -366.349)"/><path class="a" d="M673.218,39.72l.088.088-1.212.547-.044-.092Z" transform="translate(-618.978 -36.621)"/><path class="a" d="M337.381,392.04l-1.041.116A1.256,1.256,0,0,1,337.381,392.04Z" transform="translate(-309.78 -361.056)"/><path class="a" d="M440.26,370.97a1.829,1.829,0,0,1-1.05.035l.771-.125Z" transform="translate(-404.526 -341.628)"/><path class="a" d="M1436.49,320.28l1.145.465a2.527,2.527,0,0,1-1.145-.376C1436.491,320.339,1436.491,320.309,1436.49,320.28Z" transform="translate(-1323.047 -295.024)"/><path class="a" d="M653.9,49.205l-.99.393-.036-.089.99-.419C653.871,49.128,653.884,49.167,653.9,49.205Z" transform="translate(-601.312 -45.251)"/><path class="a" d="M86.6,277.59l.479.268-.479.255Z" transform="translate(-79.762 -255.706)"/><path class="a" d="M291.5,196.746l.93-.406A1.321,1.321,0,0,1,291.5,196.746Z" transform="translate(-268.481 -180.872)"/><path class="a" d="M721.62,20.069l1.065-.529v.088l-1.064.441Z" transform="translate(-664.633 -18.035)"/><path class="a" d="M371.214,386.742l-.8.087-.18-.085c.148-.029.3-.061.445-.088s.3-.051.453-.076C371.158,386.634,371.186,386.688,371.214,386.742Z" transform="translate(-340.993 -356.089)"/><path class="a" d="M1425.115,316.154c0,.03,0,.059,0,.089l-.976-.355.089-.088Z" transform="translate(-1311.673 -290.898)"/><path class="a" d="M335.042,385.564l-.894.184c-.006-.037-.012-.075-.018-.112l.913-.156C335.042,385.507,335.042,385.535,335.042,385.564Z" transform="translate(-307.744 -355.075)"/><path class="a" d="M449.259,369.872l-.279-.09c.142-.025.284-.056.427-.075a.377.377,0,0,1,.445.141Z" transform="translate(-413.524 -340.531)"/><path class="a" d="M508.56,105.937a1.21,1.21,0,0,1-.66.262,1.052,1.052,0,0,1,.658-.359Q508.559,105.889,508.56,105.937Z" transform="translate(-467.791 -97.519)"/><path class="a" d="M425.851,373.531l-.772.069-.009-.1.771-.077C425.844,373.457,425.848,373.494,425.851,373.531Z" transform="translate(-391.502 -343.968)"/><path class="a" d="M516.232,102.852q0-.049,0-.1l.621-.265c0,.032,0,.065,0,.1Z" transform="translate(-475.463 -94.434)"/><path class="a" d="M335.56,179.187a2.935,2.935,0,0,1,.327-.2,2.088,2.088,0,0,1,.518-.156,1.7,1.7,0,0,1-.844.358Z" transform="translate(-309.061 -164.745)"/><path class="a" d="M407.47,376.4l-.64.084c0-.033-.007-.066-.01-.1A.716.716,0,0,1,407.47,376.4Z" transform="translate(-374.694 -346.633)"/><path class="a" d="M524.092,100.017l0-.1a.865.865,0,0,1,.543-.22l.04.116Z" transform="translate(-482.702 -91.864)"/><path class="a" d="M205.89,409.037l-.615.12c0-.034-.01-.069-.015-.1l.631-.1C205.891,408.978,205.89,409.008,205.89,409.037Z" transform="translate(-189.052 -376.692)"/><path class="a" d="M381.7,385.756l-.085-.162.709-.085c0,.048,0,.1,0,.145Z" transform="translate(-351.484 -355.103)"/><path class="a" d="M411.68,381.628l.679-.118c-.048.252-.194.2-.313.208Z" transform="translate(-379.17 -351.419)"/><path class="a" d="M257.108,396.786l-.088-.088.709-.088c0,.029,0,.058,0,.087Z" transform="translate(-236.724 -365.326)"/><path class="a" d="M450.041,131.008l.619-.268v.076l-.62.261C450.04,131.054,450.041,131.031,450.041,131.008Z" transform="translate(-414.5 -120.453)"/><path class="a" d="M1364.292,287.9l-.6-.25C1364.034,287.642,1364.034,287.642,1364.292,287.9Z" transform="translate(-1255.997 -264.97)"/><path class="a" d="M213.24,408c0-.029,0-.058,0-.088l.708-.088v.087Z" transform="translate(-196.401 -375.651)"/><path class="a" d="M299.239,396.761l-.709.088v-.08l.709-.09C299.24,396.707,299.239,396.734,299.239,396.761Z" transform="translate(-274.956 -365.391)"/><path class="a" d="M1411.292,310.581l-.621-.265v-.087l.621.262C1411.292,310.521,1411.292,310.551,1411.292,310.581Z" transform="translate(-1299.266 -285.768)"/><path class="a" d="M386.08,378.979l.628-.079c-.172.218-.412.137-.628.161Z" transform="translate(-355.592 -349.015)"/><path class="a" d="M378.85,379.9c0,.028,0,.054,0,.082l-.621.087v-.081Z" transform="translate(-348.362 -349.936)"/><path class="a" d="M426.009,379.85l.085.163-.34.013-.365-.089Z" transform="translate(-391.797 -349.89)"/><path class="a" d="M370.981,381.01v.081l-.621.086v-.08Z" transform="translate(-341.113 -350.958)"/><path class="a" d="M282.262,399l-.709.111c0-.027-.009-.054-.013-.081l.723-.111C282.262,398.947,282.262,398.974,282.262,399Z" transform="translate(-259.307 -367.454)"/><path class="a" d="M407.756,383.01l.366.091-.618.087-.084-.16Z" transform="translate(-375.246 -352.8)"/><path class="a" d="M345.68,384.523c0-.028,0-.056,0-.085l.708-.088c0,.027,0,.054,0,.081Z" transform="translate(-318.382 -354.034)"/><path class="a" d="M230.789,405.685l-.709.088c0-.028,0-.057,0-.085l.709-.088C230.789,405.628,230.789,405.657,230.789,405.685Z" transform="translate(-211.911 -373.606)"/><path class="a" d="M289.562,392.228l.708-.088v.085l-.709.09C289.56,392.286,289.56,392.257,289.562,392.228Z" transform="translate(-266.694 -361.209)"/><path class="a" d="M444.017,134.13c0,.023,0,.046,0,.069l-.469.238c-.016-.035-.032-.07-.047-.1Z" transform="translate(-408.477 -123.575)"/><path class="a" d="M315.371,394.752l.627-.072c-.173.213-.412.131-.628.153C315.37,394.806,315.37,394.779,315.371,394.752Z" transform="translate(-290.466 -363.549)"/><path class="a" d="M390.592,385.453c0-.048,0-.1,0-.145l.344-.017.268.085Z" transform="translate(-359.745 -354.9)"/><path class="a" d="M308.141,395.59v.081l-.621.086c0-.027,0-.055,0-.081Z" transform="translate(-283.236 -364.387)"/><path class="a" d="M298.54,391.212v-.085l.621-.087c0,.028,0,.056,0,.084Z" transform="translate(-274.965 -360.196)"/><path class="a" d="M1404.012,308.425v.087l-.572-.147.026-.095Z" transform="translate(-1292.607 -283.963)"/><path class="a" d="M472.761,122.112l-.464.13c-.009-.028-.017-.055-.027-.082l.449-.179Z" transform="translate(-434.975 -112.385)"/><path class="a" d="M480.745,119.01l-.485.126c.145-.107.28-.246.457-.23C480.726,118.94,480.735,118.975,480.745,119.01Z" transform="translate(-442.334 -109.552)"/><path class="a" d="M1381.622,293.447l-.462-.208c.013-.03.024-.06.037-.089l.462.208C1381.646,293.387,1381.634,293.417,1381.622,293.447Z" transform="translate(-1272.087 -270.037)"/><path class="a" d="M1365.5,294.258l-.42-.161a.433.433,0,0,1,.47.079Z" transform="translate(-1257.277 -270.88)"/><path class="a" d="M195.333,410.934l-.5.043c0-.024-.007-.049-.011-.073l.52-.063C195.338,410.872,195.336,410.9,195.333,410.934Z" transform="translate(-179.436 -378.433)"/><path class="a" d="M265.99,396c0-.029,0-.058,0-.087l.653-.06C266.439,396.058,266.2,395.976,265.99,396Z" transform="translate(-244.985 -364.626)"/><path class="a" d="M222.842,406.72c0,.028,0,.057,0,.085l-.621.088v-.087Z" transform="translate(-204.672 -374.638)"/><path class="a" d="M400.208,383.23l.085.16-.426.017-.277-.09Z" transform="translate(-368.035 -353.003)"/><path class="a" d="M354.65,383.4c0-.027,0-.054,0-.081l.62-.088c0,.027,0,.054,0,.081Z" transform="translate(-326.644 -353.003)"/><path class="a" d="M362.5,382.288c0-.027,0-.054,0-.081l.62-.088v.08Z" transform="translate(-333.874 -351.981)"/><path class="a" d="M239.06,404.948c0-.028,0-.057,0-.085l.655-.063C239.509,405.011,239.274,404.93,239.06,404.948Z" transform="translate(-220.182 -372.87)"/><path class="a" d="M327.71,183.616l.62-.266h0l-.621.265Z" transform="translate(-301.831 -168.908)"/><path class="a" d="M314.949,388.864l-.709.088c0-.027,0-.054,0-.081l.708-.091C314.95,388.808,314.949,388.836,314.949,388.864Z" transform="translate(-289.425 -358.115)"/><path class="a" d="M362.686,388.928a.45.45,0,0,1-.466.037c0-.032-.007-.064-.01-.1l.3-.03Z" transform="translate(-333.607 -358.17)"/><path class="a" d="M319.85,186.986l.621-.266h0l-.621.265Z" transform="translate(-294.592 -172.012)"/><path class="a" d="M488.586,116.172l-.486.126C488.251,116.21,488.372,116.013,488.586,116.172Z" transform="translate(-449.555 -106.98)"/><path class="a" d="M713.77,26.506l.62-.266h0l-.621.265Z" transform="translate(-657.403 -24.206)"/><path class="a" d="M312,190.356l.62-.266h0l-.62.265Z" transform="translate(-287.362 -175.116)"/><path class="a" d="M256.6,402.351l-.709.092,0-.088.708-.085C256.6,402.3,256.6,402.324,256.6,402.351Z" transform="translate(-235.683 -370.539)"/><path class="a" d="M354.07,390.47h.324c0,.032,0,.065,0,.1l-.323.021C354.072,390.548,354.072,390.509,354.07,390.47Z" transform="translate(-326.11 -359.671)"/><path class="a" d="M500.83,110.782l.276-.122.045.089-.272.145C500.863,110.856,500.847,110.819,500.83,110.782Z" transform="translate(-461.279 -101.959)"/><path class="a" d="M359.4,170.6l.359-.185.046.085-.359.184Z" transform="translate(-331.019 -156.999)"/><path class="a" d="M351.921,173.884l-.369.182-.043-.085.369-.182Z" transform="translate(-323.752 -160.112)"/><path class="a" d="M290.68,397.987c0-.027,0-.054,0-.081l.62-.087v.08Z" transform="translate(-267.726 -366.441)"/><path class="a" d="M264.87,401.808v-.081l.6-.047C265.266,401.873,265.057,401.79,264.87,401.808Z" transform="translate(-243.954 -369.996)"/><path class="a" d="M251.858,403.35c0,.029,0,.059,0,.088l-.345.109C251.6,403.284,251.751,403.374,251.858,403.35Z" transform="translate(-231.649 -371.534)"/><path class="a" d="M307.012,389.93c0,.027,0,.054,0,.081l-.621.089c0-.028,0-.056,0-.084Z" transform="translate(-282.195 -359.174)"/><path class="a" d="M323.22,388.007v-.083l.572-.074C323.615,388.054,323.41,388,323.22,388.007Z" transform="translate(-297.696 -357.258)"/><path class="a" d="M395.316,384.33l.277.09-.376.072-.268-.085Z" transform="translate(-363.761 -354.016)"/><path class="a" d="M1442.056,317.591l-.486-.137.026-.093.46.142Z" transform="translate(-1327.726 -292.335)"/><path class="a" d="M1418.54,313.639v-.089l.531.178-.089.088Z" transform="translate(-1306.515 -288.826)"/><path class="a" d="M735.1,17.86v-.088l.447-.152A.446.446,0,0,1,735.1,17.86Z" transform="translate(-677.048 -16.266)"/><path class="a" d="M1285.631,256.029l-.261-.092c0-.023.006-.047.009-.069a.3.3,0,0,1,.294.088Z" transform="translate(-1183.862 -235.695)"/><path class="a" d="M1279.718,253.38l.275.084c0,.021,0,.042-.007.062a.713.713,0,0,1-.164,0,.524.524,0,0,1-.132-.072C1279.7,253.428,1279.709,253.4,1279.718,253.38Z" transform="translate(-1178.63 -233.408)"/><path class="a" d="M277.89,394.734l.246-.054c.006.033.012.066.018.1l-.248.038C277.9,394.789,277.9,394.761,277.89,394.734Z" transform="translate(-255.946 -363.549)"/><path class="a" d="M329.339,393.54l.246.043c0,.026-.006.051-.008.077h-.247C329.332,393.621,329.336,393.58,329.339,393.54Z" transform="translate(-303.323 -362.499)"/><path class="a" d="M457.88,128.743c0-.025,0-.051,0-.076l.361-.178.087.082Z" transform="translate(-421.721 -118.381)"/><path class="a" d="M286.025,393.25c0,.029,0,.058,0,.088l-.276.093-.028-.115Z" transform="translate(-263.157 -362.232)"/><path class="a" d="M1274.411,251.54l-.261-.092c0-.023.006-.047.008-.069a.578.578,0,0,1,.161,0,.534.534,0,0,1,.134.085C1274.44,251.491,1274.426,251.516,1274.411,251.54Z" transform="translate(-1173.528 -231.56)"/><path class="a" d="M429.742,142.314l-.332.119C429.54,142.275,429.54,142.275,429.742,142.314Z" transform="translate(-395.5 -131.093)"/><path class="a" d="M421.3,144.65l.307-.14.041.1-.317.113C421.32,144.7,421.31,144.675,421.3,144.65Z" transform="translate(-388.03 -133.135)"/><path class="a" d="M1268.43,248.86l.277.088-.01.069a.828.828,0,0,1-.166-.011.567.567,0,0,1-.132-.074C1268.41,248.908,1268.421,248.885,1268.43,248.86Z" transform="translate(-1168.232 -229.245)"/><path class="a" d="M399.071,378.113l-.241-.041c0-.031.007-.061.01-.092l.245.019Z" transform="translate(-367.335 -348.168)"/><path class="a" d="M1375.127,297.16l.272.084c0,.023-.005.046-.008.069a.732.732,0,0,1-.161-.01.617.617,0,0,1-.131-.07C1375.109,297.208,1375.119,297.184,1375.127,297.16Z" transform="translate(-1266.505 -273.73)"/><path class="a" d="M1389.132,302.749l-.352-.115.028-.084.351.122C1389.15,302.7,1389.141,302.724,1389.132,302.749Z" transform="translate(-1279.105 -278.695)"/><path class="a" d="M1447.72,319.248v-.089l.448.235A.43.43,0,0,1,1447.72,319.248Z" transform="translate(-1333.39 -293.993)"/><path class="a" d="M366.14,388.763l-.18-.088.338-.014.18.085Z" transform="translate(-337.061 -358.004)"/><path class="a" d="M307.644,193.46l-.332.2-.042-.107.374-.09Z" transform="translate(-283.005 -178.22)"/><path class="a" d="M1263.469,247.087l-.249-.082.025-.085.259.071Z" transform="translate(-1163.461 -227.458)"/><path class="a" d="M462.537,127.255l-.087-.082.347-.113v.1Z" transform="translate(-425.93 -117.064)"/><path class="a" d="M466.85,125.621v-.1l.259-.132.047.094Z" transform="translate(-429.983 -115.525)"/><path class="a" d="M425.4,380.95l.365.089-.364.067C425.4,381.054,425.4,381,425.4,380.95Z" transform="translate(-391.806 -350.903)"/><path class="a" d="M708.24,29.788h-.09l.444-.177h0Z" transform="translate(-652.227 -27.31)"/><path class="a" d="M527.92,639.638V626.52c1.77.254,3.5.518,5.252.809V641.4Z" transform="translate(-486.23 -577.08)"/><path class="a" d="M444.419,613.7v12.577a2.751,2.751,0,0,1-.359-.066q-1.784-.59-3.566-1.189c-.351-.118-.368-.14-.368-.5q0-5.514,0-11.028c0-.127.025-.255.044-.44Z" transform="translate(-405.369 -564.673)"/><path class="a" d="M527.99,390.308c1.751-.2,3.482-.374,5.241-.538.013.174.028.288.028.4q0,2.3,0,4.6c0,.439-.031.468-.479.483-.206.007-.413,0-.619.008l-3.666.094c-.158,0-.317,0-.5,0C527.99,393.67,527.99,392.026,527.99,390.308Z" transform="translate(-486.294 -359.026)"/><path class="a" d="M532.874,511.389v5.346a2.042,2.042,0,0,1-.354.028q-1.122-.1-2.242-.209c-.454-.044-.907-.1-1.361-.141-.351-.035-.7-.068-1.056-.094a.249.249,0,0,1-.266-.281c0-.059,0-.118,0-.177q0-2.1,0-4.21c0-.447.029-.468.484-.456,1.106.03,2.212.052,3.318.091C531.879,511.3,532.36,511.352,532.874,511.389Z" transform="translate(-485.929 -470.86)"/><path class="a" d="M444.4,513.97l-4.252-.418c-.017-.179-.041-.306-.042-.435q0-1.86,0-3.72c0-.434.015-.453.45-.444,1.179.024,2.358.057,3.536.091a1.786,1.786,0,0,1,.307.066C444.4,510.734,444.4,512.336,444.4,513.97Z" transform="translate(-405.353 -468.796)"/><path class="a" d="M444.417,400.1v4.817c-1.418.137-2.824.138-4.261.137a3.436,3.436,0,0,1-.041-.368q0-1.882,0-3.764c0-.417.038-.441.447-.481,1.127-.109,2.252-.228,3.379-.339C444.083,400.089,444.229,400.1,444.417,400.1Z" transform="translate(-405.356 -368.538)"/><path class="a" d="M612.9,508.727v-.847l6.626.151c0,.23,0,.4,0,.574-.008.373-.073.427-.453.395-.278-.024-.557-.055-.835-.062-.517-.014-1.033-.007-1.55-.02q-1.547-.039-3.093-.095C613.376,508.814,613.159,508.764,612.9,508.727Z" transform="translate(-564.499 -467.809)"/><path class="a" d="M619.721,460.434v.857a2.946,2.946,0,0,1-.313.039q-2.9.046-5.8.087c-.145,0-.291,0-.472,0v-.837c.107-.013.22-.036.332-.038.457-.008.915,0,1.373-.014,1.459-.029,2.919-.063,4.378-.094C619.371,460.432,619.517,460.434,619.721,460.434Z" transform="translate(-564.72 -424.109)"/><path class="a" d="M624.17,484.342v-.822h4.644v.822Z" transform="translate(-574.879 -445.373)"/><path class="a" d="M626.277,527.69l4.268.187v.878c-1.425-.108-2.843-.111-4.268-.238-.012-.174-.026-.289-.027-.4S626.264,527.883,626.277,527.69Z" transform="translate(-576.795 -486.055)"/><path class="a" d="M1087.361,529.928l-4.257.69c-.011-.15-.026-.265-.026-.38q0-3.055,0-6.11c0-.073,0-.148,0-.221a.229.229,0,0,1,.241-.255l.088,0c.677-.031,1.354-.059,2.03-.093.471-.024.941-.057,1.411-.081.161-.008.323,0,.477,0C1087.435,523.789,1087.465,529.3,1087.361,529.928Z" transform="translate(-997.545 -482.168)"/><path class="a" d="M1087.726,656.81v6.464l-4.286,1.474v-6.927C1084.828,657.451,1086.249,657.161,1087.726,656.81Z" transform="translate(-997.879 -604.977)"/><path class="a" d="M1163.934,641.05c.01.19.024.32.024.449q0,2.5,0,5c0,.419,0,.419-.4.558q-1.3.448-2.591.893c-.149.051-.3.086-.453.128a58.781,58.781,0,0,1-.049-6.214Z" transform="translate(-1068.767 -590.462)"/><path class="a" d="M1164.377,525.8c-1.128.211-2.274.409-3.467.546v-6.215l3.418-.193A51.991,51.991,0,0,1,1164.377,525.8Z" transform="translate(-1069.231 -478.917)"/><path class="a" d="M1227.67,633.5l-2.87,1v-5.667c.918-.28,1.88-.465,2.87-.692Z" transform="translate(-1128.075 -578.572)"/><path class="a" d="M1224.73,523.221v-5.681l2.812-.13a45.48,45.48,0,0,1,.053,5.345C1226.67,522.931,1225.726,523.084,1224.73,523.221Z" transform="translate(-1128.011 -476.586)"/><path class="a" d="M1277.59,520.321V515.1l2.429-.119c.01.141.026.268.027.4q0,2.058,0,4.114c0,.435,0,.432-.46.5C1278.934,520.1,1278.283,520.207,1277.59,520.321Z" transform="translate(-1176.696 -474.348)"/><path class="a" d="M1277.64,617.666l2.417-.566c.016.192.034.319.035.445q0,2.039,0,4.077c0,.424,0,.43-.4.567-.668.228-1.339.45-2.05.689C1277.64,621.136,1277.64,619.435,1277.64,617.666Z" transform="translate(-1176.742 -568.404)"/><path class="a" d="M1324.628,513.19c.012.2.025.325.026.454q0,1.834,0,3.667c0,.434,0,.431-.455.505s-.924.162-1.388.237a2.145,2.145,0,0,1-.322,0v-4.72A9.287,9.287,0,0,1,1324.628,513.19Z" transform="translate(-1218.05 -472.7)"/><path class="a" d="M1322.181,612.933c-.01-.18-.021-.282-.021-.383q0-2.015,0-4.03c0-.4,0-.4.386-.5.557-.137,1.115-.266,1.722-.411a1.549,1.549,0,0,1,.079.332c.005,1.313,0,2.627.005,3.941a.341.341,0,0,1-.24.374Z" transform="translate(-1217.745 -559.663)"/><path class="a" d="M1361.58,604.39V599.9l1.775-.41a2.313,2.313,0,0,1,.053.329c0,1.193-.006,2.387.008,3.581a.415.415,0,0,1-.344.471C1362.582,604.021,1362.1,604.205,1361.58,604.39Z" transform="translate(-1254.053 -552.184)"/><path class="a" d="M1361.6,511.153l1.788-.113c.016.156.038.268.039.382q0,1.748,0,3.5c0,.41-.005.407-.4.468-.464.071-.928.148-1.426.229C1361.6,514.119,1361.6,512.654,1361.6,511.153Z" transform="translate(-1254.072 -470.719)"/><path class="a" d="M1167.678,598.654v1.2l-8.339,1.722a4,4,0,0,1-.035-1.238c0-.066.159-.159.257-.181.574-.125,1.152-.238,1.73-.347,1.04-.2,2.082-.386,3.123-.582,1-.188,1.993-.381,2.99-.569A1.76,1.76,0,0,1,1167.678,598.654Zm-7.95,2.446,7.607-1.573c-.009-.174-.014-.285-.023-.455l-7.584,1.433Z" transform="translate(-1067.723 -551.41)"/><path class="a" d="M1395.641,593.112v3.933l-1.567.561a2.025,2.025,0,0,1-.069-.35c0-1.164,0-2.328-.006-3.492,0-.242.058-.381.328-.421.333-.05.656-.156.986-.227A1.636,1.636,0,0,1,1395.641,593.112Z" transform="translate(-1283.913 -546.304)"/><path class="a" d="M1394.021,514.122a28.122,28.122,0,0,1-.047-4.124,5.225,5.225,0,0,1,1.539-.118,27.353,27.353,0,0,1,.054,3.945A10.611,10.611,0,0,1,1394.021,514.122Z" transform="translate(-1283.839 -469.651)"/><path class="a" d="M1425.623,586.09c.014.164.03.265.03.365q0,1.5,0,3c0,.4-.007.408-.377.536-.329.114-.663.216-1.025.333v-3.915Z" transform="translate(-1311.774 -539.842)"/><path class="a" d="M1424.3,513.164V509.24h1.327a24.473,24.473,0,0,1,.03,3.685Z" transform="translate(-1311.82 -469.062)"/><path class="a" d="M1450.08,584.492v-3.671l1.2-.3c.014.165.03.28.03.394q0,1.39,0,2.78c0,.388,0,.391-.384.521C1450.667,584.305,1450.4,584.387,1450.08,584.492Z" transform="translate(-1335.564 -534.712)"/><path class="a" d="M1450.935,511.111l-1.136.193a23.693,23.693,0,0,1-.047-3.677,6.052,6.052,0,0,1,1.184-.018Z" transform="translate(-1335.217 -467.542)"/><path class="a" d="M1323.421,576.192l5.174-.982a1.2,1.2,0,0,1,.069.9c-.017.093-.213.19-.343.219-.7.16-1.41.3-2.116.446q-1.232.253-2.465.5a2.912,2.912,0,0,1-.32.025C1323.421,576.927,1323.421,576.58,1323.421,576.192Zm.4.682,1.667-.348c.862-.178,1.724-.36,2.588-.531.2-.04.243-.126.149-.321-.963.181-1.913.36-2.865.537-.433.081-.866.155-1.3.238C1323.851,576.489,1323.689,576.571,1323.817,576.874Z" transform="translate(-1218.907 -529.822)"/><path class="a" d="M1472.77,579.5v-3.487l1.1-.242v3.359Z" transform="translate(-1356.462 -530.337)"/><path class="a" d="M1473.6,510.257l-1.124.156c-.048-1.181-.018-2.3-.021-3.462h1.133C1473.615,508.04,1473.6,509.132,1473.6,510.257Z" transform="translate(-1356.168 -466.952)"/><path class="a" d="M1494.929,571.25v3.2l-.929.324v-3.3Z" transform="translate(-1376.016 -526.174)"/><path class="a" d="M1494.832,509.107l-.932.156V505.98h.932Z" transform="translate(-1375.923 -466.059)"/><path class="a" d="M1427.885,560.663v.884l-3.566.75c-.212-.284-.111-.6-.095-.89,0-.055.115-.137.188-.15,1.124-.213,2.248-.418,3.374-.623C1427.8,560.63,1427.815,560.641,1427.885,560.663Zm-.877.57c-.291.031-.583.048-.87.094-.434.07-.866.159-1.3.245-.11.022-.251.035-.17.25.147-.027.3-.051.454-.083q.992-.208,1.982-.42l.415-.144A.422.422,0,0,0,1427.009,561.233Z" transform="translate(-1311.715 -516.396)"/><path class="a" d="M1511.753,507.539a2.912,2.912,0,0,1-.038-.317c0-.811,0-1.623,0-2.434,0-.379.027-.4.4-.415.118,0,.236,0,.354,0a1.325,1.325,0,0,1,.167.028,2.706,2.706,0,0,1,.039.326c0,.767,0,1.534,0,2.3,0,.4-.007.4-.425.444C1512.091,507.49,1511.934,507.514,1511.753,507.539Z" transform="translate(-1392.329 -464.576)"/><path class="a" d="M1511.88,570.413v-3.12l.9-.223a2.29,2.29,0,0,1,.051.322q.006,1.17,0,2.341c0,.373,0,.375-.357.5C1512.293,570.291,1512.111,570.342,1511.88,570.413Z" transform="translate(-1392.483 -522.325)"/><path class="a" d="M1529.427,563.56v1.256c0,.411,0,.824,0,1.235,0,.394-.012.409-.38.534-.134.046-.274.074-.443.119a2.584,2.584,0,0,1-.047-.335q0-1.125,0-2.25c0-.381.005-.382.368-.458Z" transform="translate(-1407.839 -519.092)"/><path class="a" d="M1528.537,503.439c.194-.032.366-.07.541-.089a.227.227,0,0,1,.284.252c0,.867,0,1.734,0,2.648l-.784.123A14.679,14.679,0,0,1,1528.537,503.439Z" transform="translate(-1407.776 -463.634)"/><path class="a" d="M1494.557,550.592c-.163-.808-.13-.87.576-1.014.675-.137,1.353-.26,2.077-.4.013.16.031.285.032.411,0,.43-.009.455-.408.541-.619.134-1.239.256-1.86.381C1494.847,550.538,1494.718,550.561,1494.557,550.592Zm2.071-.794.218-.1c-.015-.029-.03-.059-.046-.088l-.26.1-.439.093-.443.088c-.163.013-.348-.036-.447.184l.447-.1.443-.089Z" transform="translate(-1376.454 -505.847)"/><path class="a" d="M804.653,511.44h4.867v9.649a43.948,43.948,0,0,1-4.85.043C804.576,520.824,804.553,511.96,804.653,511.44Z" transform="translate(-741.049 -471.088)"/><path class="a" d="M797.99,377.076a3,3,0,0,1,3.036-2.976,2.966,2.966,0,0,1,2.956,3.01,2.894,2.894,0,0,1-2.987,2.969A2.953,2.953,0,0,1,797.99,377.076Z" transform="translate(-734.972 -344.594)"/><path class="a" d="M1087.3,390.028l-4.2-.118c-.1-.339-.115-6.359-.018-6.909,1.406.14,2.806.359,4.2.544C1087.383,383.882,1087.4,389.469,1087.3,390.028Z" transform="translate(-997.493 -352.791)"/><path class="a" d="M1083.1,239.34l4.277,1.355v6.466l-.891-.186c-1.009-.206-2.018-.408-3.026-.619-.387-.081-.391-.089-.392-.451q0-3.121,0-6.244C1083.073,239.575,1083.088,239.489,1083.1,239.34Z" transform="translate(-997.539 -220.476)"/><path class="a" d="M1160.593,393.06l3.475.468v5.793a1.279,1.279,0,0,1-.246.048c-.96,0-1.92-.007-2.88-.019-.351,0-.382-.036-.382-.383q0-2.814,0-5.628A2.717,2.717,0,0,1,1160.593,393.06Z" transform="translate(-1068.906 -362.057)"/><path class="a" d="M1160.559,263.75l3.513,1.114v5.853c-.436-.078-.837-.142-1.235-.224-.634-.13-1.266-.272-1.9-.407-.37-.079-.376-.077-.377-.451,0-1.108,0-2.215,0-3.323v-2.038C1160.559,264.127,1160.559,263.981,1160.559,263.75Z" transform="translate(-1068.908 -242.959)"/><path class="a" d="M1224.72,289.785V284.09l2.882.915v5.369Z" transform="translate(-1128.001 -261.692)"/><path class="a" d="M1227.622,408.353h-2.882v-5.585a10.814,10.814,0,0,1,2.882.348Z" transform="translate(-1128.02 -370.983)"/><path class="a" d="M1277.55,300.85l2.432.766v4.926c-.829-.1-1.615-.309-2.432-.466Z" transform="translate(-1176.659 -277.129)"/><path class="a" d="M1279.659,409.072v4.907h-2.384a46.372,46.372,0,0,1-.006-5.219Z" transform="translate(-1176.336 -376.517)"/><path class="a" d="M1322.16,414.54c.708.1,1.332.185,1.955.267a.242.242,0,0,1,.233.267c0,.1,0,.206,0,.31v3.449c0,.1,0,.206,0,.31,0,.176-.083.275-.269.272q-.818-.007-1.635-.01c-.208,0-.285-.109-.284-.306,0-.412,0-.825,0-1.238v-3.32Z" transform="translate(-1217.746 -381.84)"/><path class="a" d="M1322.58,315.31c.439.13.816.239,1.192.351.155.047.31.1.464.146.5.163.5.164.5.677,0,.767,0,1.534,0,2.3,0,.427,0,.855,0,1.283,0,.143-.014.286-.024.487l-2.132-.435C1322.58,318.529,1322.58,316.961,1322.58,315.31Z" transform="translate(-1218.133 -290.447)"/><path class="a" d="M1361.59,424.448V420.01c.422.05.81.095,1.2.142.058.007.115.028.172.037.453.067.456.066.456.5q0,1.7,0,3.4c0,.429-.014.449-.453.437S1362.063,424.477,1361.59,424.448Z" transform="translate(-1254.062 -386.878)"/><path class="a" d="M1363.335,332.555l-1.835-.4V327.71c.187.049.365.088.538.142.336.105.666.241,1.008.321.246.058.294.191.292.408-.006.663,0,1.325,0,1.988Z" transform="translate(-1253.98 -301.868)"/><path class="a" d="M1159.357,361.4l8.389,1.466v1.226c-.5-.071-.96-.133-1.421-.205-1.233-.194-2.465-.4-3.7-.591-.986-.156-1.974-.3-2.962-.455-.2-.031-.32-.116-.311-.345C1159.366,362.159,1159.357,361.822,1159.357,361.4Zm8,2.251c.054-.441.034-.473-.3-.529-.58-.1-1.162-.185-1.74-.287-1.752-.31-3.5-.625-5.253-.935a1,1,0,0,0-.246.015v.553Z" transform="translate(-1067.798 -332.897)"/><path class="a" d="M1394.019,337.85l1.635.5v3.964a5.771,5.771,0,0,1-1.448-.26c-.23-.059-.186-.273-.186-.445,0-1.031,0-2.064,0-3.095C1394.019,338.315,1394.019,338.115,1394.019,337.85Z" transform="translate(-1283.928 -311.207)"/><path class="a" d="M1395.683,428.956c-.493,0-.946,0-1.4,0a.212.212,0,0,1-.231-.213c-.008-.088-.009-.176-.009-.265q0-1.634,0-3.268c0-.115.012-.231.021-.39a6.739,6.739,0,0,1,1.618.18Z" transform="translate(-1283.953 -391.297)"/><path class="a" d="M1425.355,432.324h-1.318a27.535,27.535,0,0,1-.028-3.924l1.346.175Z" transform="translate(-1311.5 -394.606)"/><path class="a" d="M1425.75,352.058l-1.37-.257V347.91a5.694,5.694,0,0,1,1.37.414Z" transform="translate(-1311.894 -320.472)"/><path class="a" d="M1450.23,355.53c.37.117.722.218,1.063.346a.31.31,0,0,1,.152.235c.01,1.1.006,2.208.006,3.358l-1.221-.248Z" transform="translate(-1335.702 -327.491)"/><path class="a" d="M1449.87,431.8l1.182.166c.024,1.16,0,2.313.012,3.5h-1.17A22.45,22.45,0,0,1,1449.87,431.8Z" transform="translate(-1335.312 -397.737)"/><path class="a" d="M1328.323,392.931c-.558-.079-1.121-.152-1.684-.24-1.058-.165-2.115-.341-3.172-.508-.356-.056-.366-.058-.374-.4,0-.233,0-.466,0-.713a2.393,2.393,0,0,1,1.07.1c1.275.208,2.545.44,3.818.657.395.067.413.074.418.468,0,.162,0,.324-.01.486A.564.564,0,0,1,1328.323,392.931Zm-.389-.438c.079-.278-.062-.294-.223-.322-1.129-.2-2.257-.405-3.386-.6-.269-.047-.543-.071-.815-.106-.027.318-.029.33.14.359.464.081.929.152,1.393.224C1326,392.195,1326.957,392.342,1327.935,392.493Z" transform="translate(-1218.603 -360.188)"/><path class="a" d="M1472.476,434.89l.89.088c.149.015.255.081.255.246,0,1.044,0,2.089,0,3.185-.292,0-.539.007-.785,0-.327-.012-.356-.036-.359-.361-.006-.694,0-1.388,0-2.082Z" transform="translate(-1356.19 -400.583)"/><path class="a" d="M1472.51,362.58c.377.119.667.214.959.3.183.056.188.2.188.353q0,.971,0,1.943V366.3c-.34-.061-.625-.113-.912-.162a.246.246,0,0,1-.234-.267C1472.511,364.8,1472.51,363.731,1472.51,362.58Z" transform="translate(-1356.223 -333.984)"/><path class="a" d="M1493.87,369.3l.945.308v3.144a1.935,1.935,0,0,1-.945-.185Z" transform="translate(-1375.896 -340.173)"/><path class="a" d="M1493.564,437.76l.9.115v3.165c-.151.009-.292.021-.434.025s-.293,0-.43,0A15.7,15.7,0,0,1,1493.564,437.76Z" transform="translate(-1375.552 -403.227)"/><path class="a" d="M1424.421,408.75l3.6.625v.854a2.228,2.228,0,0,1-1.054-.074c-.7-.083-1.392-.22-2.09-.323-.522-.077-.55-.1-.544-.642,0-.1.006-.206.016-.309C1424.352,408.854,1424.376,408.83,1424.421,408.75Zm2.909.905c-.842-.17-1.684-.33-2.562-.441a.725.725,0,0,0,.029.182c.751.12,1.5.234,2.254.349a.458.458,0,0,0,.58-.039Z" transform="translate(-1311.851 -376.508)"/><path class="a" d="M1512.67,378.523a6.386,6.386,0,0,1-.778-.141.346.346,0,0,1-.156-.272c-.012-.938-.007-1.877-.007-2.889l.94.28C1512.67,376.512,1512.67,377.477,1512.67,378.523Z" transform="translate(-1392.344 -345.626)"/><path class="a" d="M1513.008,440.44V443.4h-.908v-3.025C1512.414,440.235,1512.7,440.394,1513.008,440.44Z" transform="translate(-1392.686 -405.584)"/><path class="a" d="M1528.542,442.2l.874.13v1.361c0,.4.005.794,0,1.192-.006.317-.039.342-.364.351-.059,0-.118,0-.176,0-.285-.02-.324-.052-.328-.348-.007-.6,0-1.206,0-1.809Z" transform="translate(-1407.828 -407.316)"/><path class="a" d="M1529.351,383.652a.88.88,0,0,1-.2,0c-.661-.172-.6-.029-.6-.723,0-.632,0-1.264,0-1.9v-.5a7.42,7.42,0,0,1,.714.227.31.31,0,0,1,.15.235c0,.865-.014,1.73-.025,2.6C1529.393,383.6,1529.378,383.612,1529.351,383.652Z" transform="translate(-1407.84 -350.516)"/><path class="a" d="M1497.769,422.578a11.878,11.878,0,0,1-2.689-.37v-.818a4.528,4.528,0,0,1,.475.028c.608.1,1.214.216,1.822.316.408.066.428.078.422.509C1497.8,422.357,1497.778,422.47,1497.769,422.578Zm-1.024-.483a.516.516,0,0,0,.539.021l-.538-.105-.532-.088-.64-.1c.181.239.42.16.638.186Z" transform="translate(-1377.01 -388.149)"/><path class="a" d="M643.209,237.86V244l-6.589,1.035v-5.685C638.793,238.847,640.976,238.343,643.209,237.86Z" transform="translate(-586.346 -219.113)"/><path class="a" d="M532.883,143.03v.551q0,2.234,0,4.469c0,.411,0,.415-.379.522q-2.356.669-4.714,1.333a.769.769,0,0,1-.165,0,2.491,2.491,0,0,1-.04-.326c0-1.445,0-2.891,0-4.336,0-.219.013-.38.279-.471,1.573-.541,3.139-1.1,4.708-1.658C532.647,143.088,532.733,143.07,532.883,143.03Z" transform="translate(-485.916 -131.772)"/><path class="a" d="M532.877,266.68c.007.118.022.246.022.374q0,2.282,0,4.563c0,.449,0,.445-.445.516-1.423.227-2.845.458-4.268.684-.171.027-.347.031-.558.048-.011-.151-.028-.279-.028-.407q0-2.1,0-4.208c0-.419,0-.434.378-.52,1.592-.365,3.186-.721,4.779-1.079C532.784,266.646,532.815,266.664,532.877,266.68Z" transform="translate(-485.934 -245.63)"/><path class="a" d="M646.75,111.574v-5.825c1.41-.54,2.849-1.065,4.345-1.579.021.185.045.3.045.408q0,2.653,0,5.308c0,.4-.028.426-.384.53l-3.64,1.071C647.008,111.519,646.9,111.54,646.75,111.574Z" transform="translate(-595.676 -95.981)"/><path class="a" d="M444.39,183.758l-4.235,1.192a3.538,3.538,0,0,1-.039-.354q0-1.924,0-3.848c0-.363.017-.381.364-.505q1.83-.654,3.661-1.3a1.093,1.093,0,0,1,.207-.031A37.628,37.628,0,0,1,444.39,183.758Z" transform="translate(-405.358 -164.819)"/><path class="a" d="M440.14,294.589a1.817,1.817,0,0,1-.063-.324c0-1.3,0-2.6-.007-3.9a.387.387,0,0,1,.336-.439l3.946-.887a2.686,2.686,0,0,1,.042.317q0,2.083,0,4.165c0,.419-.007.406-.447.47-.815.118-1.628.254-2.441.382C441.071,294.444,440.636,294.512,440.14,294.589Z" transform="translate(-405.318 -266.251)"/><path class="a" d="M368.225,601.96l3.471.539v11.427c-.148-.037-.262-.057-.37-.093-.936-.318-1.867-.647-2.807-.952a.419.419,0,0,1-.34-.475q.012-5.051.007-10.1A3.308,3.308,0,0,1,368.225,601.96Z" transform="translate(-339.105 -554.459)"/><path class="a" d="M311.419,604.133c-.946-.316-1.824-.61-2.7-.9a.271.271,0,0,1-.215-.292c0-.073,0-.148,0-.221v-9.467a8.561,8.561,0,0,1,1.5.176c.475.043.945.157,1.422.241C311.419,597.173,311.419,600.621,311.419,604.133Z" transform="translate(-284.138 -546.433)"/><path class="a" d="M257.241,584.94c.548.08,1.041.148,1.532.223.246.037.49.09.738.126a.282.282,0,0,1,.266.336c0,.073,0,.148,0,.221q0,4.293,0,8.585c0,.167-.031.335-.051.541l-2.484-.839C257.241,591.079,257.241,588.046,257.241,584.94Z" transform="translate(-236.926 -538.783)"/><path class="a" d="M212.25,578.01l2.12.319c.105.3.141,8.261.039,8.914a2.246,2.246,0,0,1-.285-.055c-.519-.168-1.032-.353-1.555-.509a.386.386,0,0,1-.325-.441c.015-.561,0-1.122,0-1.684V578.01Z" transform="translate(-195.485 -532.401)"/><path class="a" d="M368.23,507.408a14.333,14.333,0,0,1,3.461.117v4.344l-3.431-.331A27.906,27.906,0,0,1,368.23,507.408Z" transform="translate(-339.094 -467.328)"/><path class="a" d="M371.74,407.91v4.39a27.852,27.852,0,0,1-3.438.128,29.507,29.507,0,0,1-.012-4.163Z" transform="translate(-339.144 -375.734)"/><path class="a" d="M308.78,418.865v-3.873l2.883-.292v4.042Z" transform="translate(-284.396 -381.988)"/><path class="a" d="M311.763,505.593v4.065l-2.883-.275v-3.834C309.84,505.448,310.771,505.662,311.763,505.593Z" transform="translate(-284.488 -465.636)"/><path class="a" d="M259.771,504.415a20.244,20.244,0,0,1-.057,3.694l-2.434-.25v-3.537A13.312,13.312,0,0,1,259.771,504.415Z" transform="translate(-236.963 -464.52)"/><path class="a" d="M259.481,420.32c.017.175.039.3.039.43q0,1.459,0,2.919c0,.406-.023.431-.42.435-.69.006-1.38,0-2.128,0-.021-1.175,0-2.329-.01-3.522Z" transform="translate(-236.67 -387.164)"/><path class="a" d="M214.471,507.07l-2.169-.215c-.013-1.117-.007-2.183-.006-3.266h2.174Z" transform="translate(-195.53 -463.858)"/><path class="a" d="M214.467,429.186h-2.121a1.645,1.645,0,0,1-.051-.282q-.006-1.283,0-2.565c0-.359.007-.371.395-.425a8.513,8.513,0,0,1,1.778-.155C214.467,426.9,214.467,428.011,214.467,429.186Z" transform="translate(-195.527 -392.166)"/><path class="a" d="M797.4,82.884h-7.094c-.016-.158-.042-.3-.042-.441q0-3.124,0-6.247c0-.43.018-.453.4-.454q3.256,0,6.512,0a1.465,1.465,0,0,1,.17.02C797.455,76.074,797.5,81.853,797.4,82.884Z" transform="translate(-727.854 -69.796)"/><path class="a" d="M797.951,219.125v6.763h-7c-.1-.3-.136-6.132-.042-6.745C791.224,219.054,797.419,219.032,797.951,219.125Z" transform="translate(-728.399 -201.803)"/><path class="a" d="M944.923,374.16l2.928.365v15.66l-2.9.3C944.853,390.132,944.825,374.792,944.923,374.16Z" transform="translate(-870.245 -344.649)"/><path class="a" d="M944.946,660.181V645.545c0-.059,0-.119,0-.177.008-.381.01-.374.387-.439.724-.125,1.447-.259,2.17-.388.127-.023.256-.037.425-.062.012.165.029.293.029.42q0,6.862,0,13.725c0,.427,0,.427-.39.577q-1.072.415-2.144.827C945.29,660.08,945.15,660.117,944.946,660.181Z" transform="translate(-870.322 -593.621)"/><path class="a" d="M371.73,308.037v4.379l-3.461.544a1.3,1.3,0,0,1-.054-.257c0-1.194,0-2.387-.006-3.581,0-.241.06-.366.326-.422,1.006-.211,2.005-.452,3.008-.68A.854.854,0,0,1,371.73,308.037Z" transform="translate(-339.133 -283.731)"/><path class="a" d="M368.49,212.542V208.41l3.487-1.24a2.265,2.265,0,0,1,.033.253q0,1.9,0,3.807c0,.363,0,.372-.329.467-.99.286-1.981.565-2.973.843A1.057,1.057,0,0,1,368.49,212.542Z" transform="translate(-339.391 -190.847)"/><path class="a" d="M311.4,326.923l-2.872.458c-.017-.169-.037-.282-.038-.4q0-1.525,0-3.048c0-.4,0-.4.39-.492.828-.193,1.657-.378,2.52-.575C311.4,324.228,311.4,325.544,311.4,326.923Z" transform="translate(-284.131 -297.41)"/><path class="a" d="M311.723,231.05c.013.2.028.33.028.457q0,1.594,0,3.188c0,.408,0,.413-.38.521q-1.1.316-2.21.621a1.991,1.991,0,0,1-.321.032v-3.8Z" transform="translate(-284.451 -212.841)"/><path class="a" d="M257.24,255.827v-3.5c.8-.28,1.606-.614,2.491-.855a3.572,3.572,0,0,1,.045.384q0,1.461,0,2.921c0,.381,0,.39-.357.5-.649.193-1.3.374-1.953.555A1.073,1.073,0,0,1,257.24,255.827Z" transform="translate(-236.926 -231.648)"/><path class="a" d="M257.341,336.348l2.479-.558a2.187,2.187,0,0,1,.047.3c0,1.018,0,2.037.006,3.055,0,.25-.081.387-.333.425-.668.1-1.335.209-2,.309a.837.837,0,0,1-.2-.026C257.341,338.7,257.341,337.557,257.341,336.348Z" transform="translate(-237.019 -309.309)"/><path class="a" d="M212.339,272.715c-.019-.167-.042-.28-.042-.392q0-1.259,0-2.518c0-.38.011-.4.346-.517.592-.213,1.186-.419,1.782-.629a21.184,21.184,0,0,1,.054,3.416C213.819,272.336,213.1,272.483,212.339,272.715Z" transform="translate(-195.531 -247.481)"/><path class="a" d="M214.487,347.338v3.413l-2.128.331a2.571,2.571,0,0,1-.059-.352q-.006-1.282,0-2.564c0-.339.048-.407.337-.474.543-.127,1.089-.245,1.634-.362A1.039,1.039,0,0,1,214.487,347.338Z" transform="translate(-195.533 -319.934)"/><path class="a" d="M174.44,580.5V572.51c.354.041.67.076.987.115.219.028.436.066.655.092a.254.254,0,0,1,.262.287c0,.059,0,.118,0,.177q0,3.806,0,7.611c0,.087-.009.174-.018.333C175.676,580.908,175.058,580.7,174.44,580.5Z" transform="translate(-160.665 -527.335)"/><path class="a" d="M140.64,567.07c.523.073.988.128,1.448.212.081.015.15.148.2.238.026.043.006.115.006.175q0,3.611,0,7.221a1.964,1.964,0,0,1-.025.2l-1.633-.532C140.64,572.082,140.64,569.608,140.64,567.07Z" transform="translate(-129.535 -522.325)"/><path class="a" d="M111.23,570.045v-7.039a6.932,6.932,0,0,1,1.341.154c.1.343.114,6.872.014,7.337Z" transform="translate(-102.447 -518.571)"/><path class="a" d="M85.788,565.485l-1.268-.413V558.36l1.268.2Z" transform="translate(-77.847 -514.302)"/><path class="a" d="M174.27,505.174v-3a5.567,5.567,0,0,1,1.839,0,17.113,17.113,0,0,1,.023,3.168.574.574,0,0,1-.16.028C175.418,505.3,174.865,505.241,174.27,505.174Z" transform="translate(-160.509 -462.478)"/><path class="a" d="M175.95,429.6v3.208h-1.871a1.7,1.7,0,0,1-.043-.278q-.006-1.194,0-2.388c0-.354.03-.372.37-.4C174.9,429.7,175.4,429.651,175.95,429.6Z" transform="translate(-160.291 -395.711)"/><path class="a" d="M141.953,504.75l-1.571-.167a14.507,14.507,0,0,1-.025-2.863h1.6Z" transform="translate(-129.22 -462.135)"/><path class="a" d="M140.353,436.415c-.009-.2-.023-.339-.023-.483,0-.678,0-1.355,0-2.033,0-.374.024-.385.4-.413.405-.03.809-.069,1.248-.107v3.014C141.457,436.424,140.935,436.415,140.353,436.415Z" transform="translate(-129.247 -399.192)"/><path class="a" d="M110.985,436.816l1.346-.126a14.386,14.386,0,0,1,.047,2.816h-1.4C110.977,438.632,110.974,437.755,110.985,436.816Z" transform="translate(-102.215 -402.241)"/><path class="a" d="M112.78,500.341v2.806l-1.38-.113V500.27Z" transform="translate(-102.604 -460.8)"/><path class="a" d="M85.77,442.027H84.52v-2.555l1.214-.122A11.833,11.833,0,0,1,85.77,442.027Z" transform="translate(-77.847 -404.691)"/><path class="a" d="M85.73,499.762v2.623a2.633,2.633,0,0,1-1.28-.1V499.8A7.323,7.323,0,0,1,85.73,499.762Z" transform="translate(-77.782 -460.323)"/><path class="a" d="M947.9,77.849v7.576a2.731,2.731,0,0,1-.314-.064c-.8-.269-1.589-.544-2.386-.809-.188-.062-.3-.147-.3-.37q.011-3.72.009-7.438a1.025,1.025,0,0,1,.046-.182C945.958,76.956,946.918,77.42,947.9,77.849Z" transform="translate(-870.28 -70.552)"/><path class="a" d="M947.939,226c-.491-.1-.919-.193-1.349-.281-.46-.093-.922-.188-1.384-.272-.175-.032-.261-.117-.257-.295,0-.059,0-.118,0-.177q0-2.81,0-5.62c0-.114.018-.227.032-.4l2.956.858C947.939,221.863,947.939,223.891,947.939,226Z" transform="translate(-870.324 -201.697)"/><path class="a" d="M174.43,359.987V356.92a15.274,15.274,0,0,1,1.874-.45v3.221Z" transform="translate(-160.656 -328.356)"/><path class="a" d="M174.3,286.891v-3.05l1.876-.671a2.541,2.541,0,0,1,.039.295q0,1.283,0,2.566c0,.359-.006.363-.336.462-.437.131-.875.256-1.314.378A1.6,1.6,0,0,1,174.3,286.891Z" transform="translate(-160.537 -260.845)"/><path class="a" d="M141.948,299.295l-1.61.46a1.773,1.773,0,0,1-.043-.242c0-.783,0-1.564-.006-2.347a.369.369,0,0,1,.292-.419c.444-.141.881-.306,1.367-.476Z" transform="translate(-129.211 -272.911)"/><path class="a" d="M142.02,367.851l-1.68.261v-1.636c0-.34,0-.678,0-1.018,0-.144.024-.27.189-.306.471-.1.943-.2,1.486-.313C142.031,365.868,142.023,366.844,142.02,367.851Z" transform="translate(-129.258 -336.065)"/><path class="a" d="M110.986,375.3v-.736q0-.751,0-1.5c0-.513,0-.515.509-.629.285-.064.572-.118.877-.18a.707.707,0,0,1,.05.171c0,.78.007,1.56,0,2.342,0,.316-.036.34-.353.381C111.736,375.189,111.4,375.238,110.986,375.3Z" transform="translate(-102.222 -342.89)"/><path class="a" d="M110.968,308.507l1.35-.467a13.141,13.141,0,0,1,.043,2.819l-1.376.394c-.032-.492-.013-.928-.017-1.362S110.968,309.011,110.968,308.507Z" transform="translate(-102.204 -283.751)"/><path class="a" d="M85.431,317.62v1.218c0,.4,0,.794,0,1.192,0,.165-.036.29-.208.34l-1.072.3a1.454,1.454,0,0,1-.047-.245c0-.677,0-1.354-.006-2.03a.356.356,0,0,1,.291-.415C84.712,317.893,85.023,317.765,85.431,317.62Z" transform="translate(-77.459 -292.574)"/><path class="a" d="M85.435,378.39c0,.881,0,1.661,0,2.442,0,.158-.062.263-.213.287-.346.056-.693.1-1.087.153A11.083,11.083,0,0,1,84.108,380c-.006-.412,0-.824,0-1.3Z" transform="translate(-77.463 -348.545)"/><path class="a" d="M61.944,561.52l-1.114-.382V554.78l1.114.17Z" transform="translate(-56.028 -511.005)"/><path class="a" d="M38.246,551.37c.329.045.6.077.876.123a.247.247,0,0,1,.229.276c0,.059,0,.118,0,.177q0,2.721,0,5.443c0,.1-.012.2-.023.369-.329-.107-.636-.192-.928-.313-.082-.034-.13-.17-.175-.268a.446.446,0,0,1,0-.175q0-2.611,0-5.222C38.221,551.665,38.235,551.551,38.246,551.37Z" transform="translate(-35.197 -507.864)"/><path class="a" d="M20.048,554.516a.576.576,0,0,1-.107,0c-.841-.207-.841-.208-.841-1.067V548.5l.948.129Z" transform="translate(-17.593 -505.221)"/><path class="a" d="M61.947,501.352l-1.107-.12v-2.426a2.176,2.176,0,0,1,1.107.048Z" transform="translate(-56.037 -459.407)"/><path class="a" d="M61.594,444.632H60.458v-.85c0-.412-.006-.824,0-1.237.006-.314.043-.347.358-.371.248-.019.5-.028.776-.044Z" transform="translate(-55.683 -407.251)"/><path class="a" d="M39.411,444.93c0,.714,0,1.417,0,2.12a.225.225,0,0,1-.238.256c-.276,0-.553,0-.891,0v-.5c0-.515,0-1.03,0-1.545,0-.222.092-.329.313-.327C38.84,444.931,39.088,444.93,39.411,444.93Z" transform="translate(-35.258 -409.83)"/><path class="a" d="M39.67,501.46l-1.08-.115V499.07h1.08Z" transform="translate(-35.544 -459.695)"/><path class="a" d="M20.046,498.31v2.177c-.044.03-.067.058-.092.06-.864.063-.864.062-.864-.78V498.31Z" transform="translate(-17.584 -458.995)"/><path class="a" d="M19.213,448.546a.855.855,0,0,1-.062-.2c0-.66,0-1.32,0-2.023l.941-.115v2.263Z" transform="translate(-17.638 -411.009)"/><path class="a" d="M60.77,386.992v-2.42l1.109-.272c.014.153.032.265.033.378,0,.62,0,1.239,0,1.859,0,.309-.083.39-.385.413C61.294,386.968,61.059,386.976,60.77,386.992Z" transform="translate(-55.972 -353.988)"/><path class="a" d="M61.982,329.65l-1.1.3v-2.454l1.047-.372A10.721,10.721,0,0,1,61.982,329.65Z" transform="translate(-56.074 -301.324)"/><path class="a" d="M38.6,337.545v-2.322l1.059-.393a1.936,1.936,0,0,1,.047.277c0,.6-.006,1.206.006,1.809,0,.247-.069.379-.331.419A7.582,7.582,0,0,0,38.6,337.545Z" transform="translate(-35.553 -308.425)"/><path class="a" d="M39.4,389.65v2.384l-1.02.19c-.033-.054-.073-.088-.073-.123-.007-.647-.006-1.294-.014-1.941a.291.291,0,0,1,.271-.333C38.829,389.777,39.095,389.714,39.4,389.65Z" transform="translate(-35.267 -358.916)"/><path class="a" d="M19.48,342.672l.911-.332v2.3l-.911.256Z" transform="translate(-17.943 -315.342)"/><path class="a" d="M20.067,396.614l-.967.1v-2.168l.913-.225a3.867,3.867,0,0,1,.062,1.145C20.087,395.848,20.071,396.232,20.067,396.614Z" transform="translate(-17.593 -363.217)"/></g><line class="b" y2="105.601" transform="translate(130.695)"/><g transform="translate(139.213 0.915)"><path class="a" d="M1769.559,13.89l3.48,13.148h-2.762l-.608-2.781h-3.5l-.608,2.781H1762.8l3.48-13.148Zm-.351,8.194-1.271-5.911h-.036l-1.271,5.911Z" transform="translate(-1762.8 -13.742)"/><path class="a" d="M1915.3,56.992h-3.775V54.93h6.777v1.951l-3.96,5.893h3.96v2.063h-6.961V62.886Z" transform="translate(-1899.609 -51.541)"/><path class="a" d="M2026.99,58.06a5.619,5.619,0,0,0,.064.856,2.814,2.814,0,0,0,.213.737,1.379,1.379,0,0,0,.386.516.907.907,0,0,0,.589.193,1.035,1.035,0,0,0,.939-.46,3.4,3.4,0,0,0,.405-1.4h2.283a3.968,3.968,0,0,1-.921,2.634,3.506,3.506,0,0,1-2.669.9,4.231,4.231,0,0,1-2.155-.46,2.854,2.854,0,0,1-1.142-1.215,4.778,4.778,0,0,1-.451-1.694q-.083-.939-.082-1.878a12.875,12.875,0,0,1,.137-1.915,4.623,4.623,0,0,1,.553-1.639,3,3,0,0,1,1.188-1.142,4.29,4.29,0,0,1,2.062-.423,4.008,4.008,0,0,1,1.813.359,2.739,2.739,0,0,1,1.114,1.013,4.232,4.232,0,0,1,.553,1.583,13.224,13.224,0,0,1,.148,2.071v.571h-5.027v.791Zm2.522-3.306a2.566,2.566,0,0,0-.193-.737,1.029,1.029,0,0,0-.388-.46,1.171,1.171,0,0,0-.635-.156,1.083,1.083,0,0,0-.636.175,1.253,1.253,0,0,0-.4.46,2.28,2.28,0,0,0-.212.635,3.876,3.876,0,0,0-.064.7v.386h2.6C2029.573,55.377,2029.55,55.042,2029.513,54.754Z" transform="translate(-2003.786 -48.539)"/><path class="a" d="M2152.79,51.927v1.326h.038a3.589,3.589,0,0,1,.939-1.151,2.114,2.114,0,0,1,1.344-.433q.11,0,.23.009c.081.006.156.016.23.028v2.431c-.135-.012-.267-.021-.4-.028s-.262-.009-.4-.009a2.48,2.48,0,0,0-.663.092,1.765,1.765,0,0,0-.608.3,1.513,1.513,0,0,0-.442.553,1.915,1.915,0,0,0-.165.838v5.948h-2.541V51.927Z" transform="translate(-2119.753 -48.539)"/><path class="a" d="M2243.842,13.89v4.162h.036a2.878,2.878,0,0,1,.911-.884,2.4,2.4,0,0,1,1.225-.295,2.493,2.493,0,0,1,2.3,1.225,8.091,8.091,0,0,1,.736,3.987,7.929,7.929,0,0,1-.736,3.96,2.507,2.507,0,0,1-2.3,1.2,2.765,2.765,0,0,1-1.3-.276,2.542,2.542,0,0,1-.948-.976h-.038v1.05h-2.43V13.89Zm.248,10.635a1.05,1.05,0,0,0,1.1.82,1.038,1.038,0,0,0,1.077-.82,8.984,8.984,0,0,0,.248-2.44,8.985,8.985,0,0,0-.248-2.439,1.038,1.038,0,0,0-1.077-.82,1.049,1.049,0,0,0-1.1.82,9,9,0,0,0-.248,2.439A9.007,9.007,0,0,0,2244.089,24.525Z" transform="translate(-2203.512 -13.742)"/><path class="a" d="M2367.284,54.717a3.346,3.346,0,0,1,.277-1.446,2.517,2.517,0,0,1,.745-.939,2.963,2.963,0,0,1,1.106-.516,5.641,5.641,0,0,1,1.353-.156,6.3,6.3,0,0,1,1.842.221,2.518,2.518,0,0,1,1.086.626,2.094,2.094,0,0,1,.524.967,5.1,5.1,0,0,1,.138,1.224V59.91A6.916,6.916,0,0,0,2374.42,61a3.774,3.774,0,0,0,.248.828h-2.431a2.14,2.14,0,0,1-.194-.506c-.042-.178-.082-.353-.12-.525h-.036a2.16,2.16,0,0,1-1.021,1,4.138,4.138,0,0,1-1.5.23,2.5,2.5,0,0,1-1.123-.23,1.911,1.911,0,0,1-.738-.635,2.878,2.878,0,0,1-.405-.911,4.058,4.058,0,0,1-.129-1,4.34,4.34,0,0,1,.147-1.207,2.323,2.323,0,0,1,.451-.866,2.484,2.484,0,0,1,.774-.6,6.128,6.128,0,0,1,1.132-.423l1.436-.387a1.532,1.532,0,0,0,.792-.405,1.131,1.131,0,0,0,.22-.755,1.36,1.36,0,0,0-.267-.893,1.125,1.125,0,0,0-.911-.322,1.09,1.09,0,0,0-.884.35,1.4,1.4,0,0,0-.294.939v.276h-2.283v-.239Zm4.088,2.477a3.567,3.567,0,0,1-.534.175,1.956,1.956,0,0,0-1.106.552,1.564,1.564,0,0,0-.332,1.05,2.018,2.018,0,0,0,.221.976.773.773,0,0,0,.736.405,1.855,1.855,0,0,0,.535-.083A1.471,1.471,0,0,0,2371.4,60a1.388,1.388,0,0,0,.377-.479,1.538,1.538,0,0,0,.147-.7V56.871A2.253,2.253,0,0,1,2371.373,57.194Z" transform="translate(-2319.256 -48.53)"/><path class="a" d="M2500.332,12.02v2.173h-2.542V12.02Zm0,3.389v9.907h-2.542V15.409Z" transform="translate(-2439.745 -12.02)"/><path class="a" d="M2553.905,15.409V25.942a4.014,4.014,0,0,1-.138,1.1,1.77,1.77,0,0,1-.47.8,2.117,2.117,0,0,1-.892.488A5.066,5.066,0,0,1,2551,28.5c-.147,0-.3,0-.461-.009s-.332-.016-.515-.028V26.623a.647.647,0,0,0,.2.037h.2q.627,0,.782-.377a3.182,3.182,0,0,0,.156-1.151V15.409Zm0-3.389v2.173h-2.541V12.02Z" transform="translate(-2487.85 -12.02)"/><path class="a" d="M2631.224,54.717a3.347,3.347,0,0,1,.276-1.446,2.522,2.522,0,0,1,.745-.939,2.965,2.965,0,0,1,1.106-.516,5.645,5.645,0,0,1,1.354-.156,6.3,6.3,0,0,1,1.842.221,2.522,2.522,0,0,1,1.086.626,2.1,2.1,0,0,1,.524.967,5.11,5.11,0,0,1,.138,1.224V59.91a6.952,6.952,0,0,0,.065,1.087,3.8,3.8,0,0,0,.248.828h-2.431a2.108,2.108,0,0,1-.193-.506q-.064-.267-.12-.525h-.036a2.158,2.158,0,0,1-1.021,1,4.137,4.137,0,0,1-1.5.23,2.5,2.5,0,0,1-1.123-.23,1.91,1.91,0,0,1-.737-.635,2.878,2.878,0,0,1-.405-.911,4.046,4.046,0,0,1-.129-1,4.341,4.341,0,0,1,.147-1.207,2.327,2.327,0,0,1,.451-.866,2.485,2.485,0,0,1,.774-.6,6.124,6.124,0,0,1,1.133-.423l1.436-.387a1.535,1.535,0,0,0,.792-.405,1.134,1.134,0,0,0,.22-.755,1.363,1.363,0,0,0-.267-.893,1.126,1.126,0,0,0-.911-.322,1.09,1.09,0,0,0-.884.35,1.406,1.406,0,0,0-.295.939v.276h-2.283v-.239Zm4.088,2.477a3.58,3.58,0,0,1-.535.175,1.954,1.954,0,0,0-1.105.552,1.564,1.564,0,0,0-.332,1.05,2.016,2.016,0,0,0,.221.976.773.773,0,0,0,.736.405,1.854,1.854,0,0,0,.534-.083,1.476,1.476,0,0,0,.507-.267,1.394,1.394,0,0,0,.377-.479,1.541,1.541,0,0,0,.147-.7V56.871A2.259,2.259,0,0,1,2635.313,57.194Z" transform="translate(-2562.352 -48.53)"/><path class="a" d="M2763,51.927v1.16h.038a2.572,2.572,0,0,1,1.05-1.077,3.1,3.1,0,0,1,1.474-.34,2.51,2.51,0,0,1,1.868.663,2.983,2.983,0,0,1,.654,2.154v7.348h-2.541V55a1.7,1.7,0,0,0-.258-1.077,1.033,1.033,0,0,0-.829-.3q-1.344,0-1.344,1.639v6.575h-2.541V51.927Z" transform="translate(-2681.773 -48.539)"/><path class="a" d="M1770.583,300.108a4.386,4.386,0,0,0,.073.838,1.456,1.456,0,0,0,.276.635,1.359,1.359,0,0,0,.543.405,2.154,2.154,0,0,0,.856.148,1.691,1.691,0,0,0,1.1-.4,1.486,1.486,0,0,0,.488-1.225,2.218,2.218,0,0,0-.118-.764,1.525,1.525,0,0,0-.4-.58,2.87,2.87,0,0,0-.727-.47,10.421,10.421,0,0,0-1.114-.433,9.561,9.561,0,0,1-1.529-.644,4.088,4.088,0,0,1-1.077-.82,2.913,2.913,0,0,1-.635-1.087,4.573,4.573,0,0,1-.2-1.427,3.683,3.683,0,0,1,1.086-2.91,4.359,4.359,0,0,1,2.984-.957,6.5,6.5,0,0,1,1.63.193,3.422,3.422,0,0,1,1.289.626,2.924,2.924,0,0,1,.847,1.1,3.884,3.884,0,0,1,.3,1.611v.368h-2.541a2.639,2.639,0,0,0-.332-1.445,1.22,1.22,0,0,0-1.105-.506,1.835,1.835,0,0,0-.736.129,1.235,1.235,0,0,0-.47.34,1.159,1.159,0,0,0-.239.488,2.476,2.476,0,0,0-.065.571,1.9,1.9,0,0,0,.258,1.022,2.31,2.31,0,0,0,1.106.764l2.044.884a6.259,6.259,0,0,1,1.234.69,3.37,3.37,0,0,1,.765.773,2.577,2.577,0,0,1,.4.911,5.116,5.116,0,0,1,.11,1.1,3.619,3.619,0,0,1-1.206,3.029,5.311,5.311,0,0,1-3.36.948,4.4,4.4,0,0,1-3.213-.976,3.809,3.809,0,0,1-.968-2.8v-.534h2.652v.389Z" transform="translate(-1767.525 -268.434)"/><path class="a" d="M1902.342,298.821v2.836h1.473v1.731h-1.473v5.358a1.5,1.5,0,0,0,.175.838.844.844,0,0,0,.726.249c.1,0,.2,0,.295-.009s.19-.016.276-.028v1.767c-.282,0-.556.009-.82.028s-.543.028-.838.028a5.918,5.918,0,0,1-1.206-.1,1.232,1.232,0,0,1-.719-.405,1.745,1.745,0,0,1-.34-.8,7.045,7.045,0,0,1-.093-1.253v-5.672h-1.289v-1.731h1.289V298.82h2.543Z" transform="translate(-1887.792 -276.17)"/><path class="a" d="M1986.264,334.537a3.346,3.346,0,0,1,.276-1.446,2.52,2.52,0,0,1,.745-.939,2.961,2.961,0,0,1,1.105-.516,5.644,5.644,0,0,1,1.354-.156,6.3,6.3,0,0,1,1.842.221,2.52,2.52,0,0,1,1.086.626,2.1,2.1,0,0,1,.524.967,5.1,5.1,0,0,1,.138,1.224v5.211a6.952,6.952,0,0,0,.065,1.087,3.789,3.789,0,0,0,.248.828h-2.431a2.13,2.13,0,0,1-.193-.506c-.043-.178-.082-.353-.12-.525h-.036a2.159,2.159,0,0,1-1.021,1,4.137,4.137,0,0,1-1.5.23,2.493,2.493,0,0,1-1.123-.23,1.912,1.912,0,0,1-.738-.635,2.883,2.883,0,0,1-.405-.911,4.046,4.046,0,0,1-.129-1,4.34,4.34,0,0,1,.147-1.207,2.321,2.321,0,0,1,.451-.866,2.482,2.482,0,0,1,.774-.6,6.184,6.184,0,0,1,1.133-.423l1.436-.387a1.533,1.533,0,0,0,.792-.405,1.133,1.133,0,0,0,.22-.755,1.362,1.362,0,0,0-.267-.893,1.125,1.125,0,0,0-.911-.322,1.089,1.089,0,0,0-.884.35,1.4,1.4,0,0,0-.295.939v.276h-2.283v-.239Zm4.088,2.476a3.558,3.558,0,0,1-.535.175,1.955,1.955,0,0,0-1.105.552,1.564,1.564,0,0,0-.332,1.05,2.016,2.016,0,0,0,.221.976.773.773,0,0,0,.736.405,1.854,1.854,0,0,0,.535-.083,1.475,1.475,0,0,0,.506-.267,1.39,1.39,0,0,0,.377-.479,1.541,1.541,0,0,0,.147-.7v-1.952A2.206,2.206,0,0,1,1990.352,337.013Z" transform="translate(-1968.327 -306.251)"/><path class="a" d="M2110.1,298.821v2.836h1.473v1.731H2110.1v5.358a1.5,1.5,0,0,0,.175.838.845.845,0,0,0,.727.249c.1,0,.2,0,.295-.009s.19-.016.276-.028v1.767c-.282,0-.556.009-.82.028s-.543.028-.838.028a5.918,5.918,0,0,1-1.206-.1,1.232,1.232,0,0,1-.719-.405,1.743,1.743,0,0,1-.341-.8,7.048,7.048,0,0,1-.092-1.253v-5.672h-1.289v-1.731h1.289V298.82h2.543Z" transform="translate(-2079.145 -276.17)"/><path class="a" d="M2195.8,337.87a5.556,5.556,0,0,0,.064.856,2.8,2.8,0,0,0,.212.737,1.378,1.378,0,0,0,.386.516.908.908,0,0,0,.589.193,1.034,1.034,0,0,0,.939-.46,3.4,3.4,0,0,0,.405-1.4h2.283a3.967,3.967,0,0,1-.92,2.634,3.507,3.507,0,0,1-2.669.9,4.229,4.229,0,0,1-2.154-.46,2.854,2.854,0,0,1-1.142-1.215,4.769,4.769,0,0,1-.451-1.694q-.083-.939-.083-1.878a12.874,12.874,0,0,1,.138-1.915,4.623,4.623,0,0,1,.553-1.639,3.006,3.006,0,0,1,1.188-1.142,4.292,4.292,0,0,1,2.062-.423,4.005,4.005,0,0,1,1.813.359,2.737,2.737,0,0,1,1.115,1.013,4.228,4.228,0,0,1,.553,1.583,13.252,13.252,0,0,1,.148,2.071v.571H2195.8v.791Zm2.523-3.3a2.558,2.558,0,0,0-.193-.737,1.029,1.029,0,0,0-.388-.46,1.172,1.172,0,0,0-.635-.156,1.085,1.085,0,0,0-.636.175,1.252,1.252,0,0,0-.395.46,2.289,2.289,0,0,0-.212.635,3.855,3.855,0,0,0-.064.7v.386h2.6C2198.384,335.188,2198.36,334.853,2198.323,334.565Z" transform="translate(-2159.264 -306.251)"/><path class="a" d="M2385.988,294.509a6.073,6.073,0,0,1,.608-2.163,3.4,3.4,0,0,1,1.353-1.409,5.819,5.819,0,0,1,4.751,0,3.4,3.4,0,0,1,1.354,1.409,6.128,6.128,0,0,1,.608,2.163,27.587,27.587,0,0,1,0,5.516,6.082,6.082,0,0,1-.608,2.154,3.228,3.228,0,0,1-1.354,1.381,6.135,6.135,0,0,1-4.751,0,3.229,3.229,0,0,1-1.353-1.381,6.087,6.087,0,0,1-.608-2.154,27.587,27.587,0,0,1,0-5.516Zm2.578,5.009a6.293,6.293,0,0,0,.258,1.51,1.671,1.671,0,0,0,.553.847,1.817,1.817,0,0,0,1.9,0,1.68,1.68,0,0,0,.553-.847,6.217,6.217,0,0,0,.257-1.51q.066-.929.065-2.255t-.065-2.247a6.407,6.407,0,0,0-.257-1.51,1.681,1.681,0,0,0-.553-.856,1.817,1.817,0,0,0-1.9,0,1.68,1.68,0,0,0-.553.856,6.419,6.419,0,0,0-.258,1.51q-.064.922-.064,2.247T2388.567,299.518Z" transform="translate(-2336.646 -268.443)"/><path class="a" d="M2535.061,291.84v2.173h-2.542V291.84Zm0,3.388v9.907h-2.542v-9.907Z" transform="translate(-2471.732 -269.742)"/><path class="a" d="M2604.321,293.7v13.148h-2.541V293.7Z" transform="translate(-2535.523 -271.455)"/><path class="a" d="M1773.565,581.328a4.6,4.6,0,0,0,.13-.994h2.283a5.7,5.7,0,0,1-.377,2.053,8.587,8.587,0,0,1-.966,1.832l1.73,2.431h-2.818l-.736-1.012a3.145,3.145,0,0,1-1.335.9,5.2,5.2,0,0,1-1.832.313,4.917,4.917,0,0,1-2.026-.359,3.183,3.183,0,0,1-1.234-.93,3.324,3.324,0,0,1-.608-1.234,5.071,5.071,0,0,1-.165-1.215,3.362,3.362,0,0,1,.708-2.09,7.238,7.238,0,0,1,1.943-1.7l-.46-.682q-.277-.405-.451-.719a3.472,3.472,0,0,1-.268-.589,3.088,3.088,0,0,1-.129-.534,3.656,3.656,0,0,1-.036-.534,2.589,2.589,0,0,1,.248-1.151,2.559,2.559,0,0,1,.691-.866,3.169,3.169,0,0,1,1.059-.553,5,5,0,0,1,2.818.018,2.833,2.833,0,0,1,1.022.589,2.348,2.348,0,0,1,.6.875,2.929,2.929,0,0,1,.193,1.069,3.014,3.014,0,0,1-.562,1.786,7.27,7.27,0,0,1-1.722,1.621l1.97,2.67A4.693,4.693,0,0,0,1773.565,581.328Zm-5.129.663a2.282,2.282,0,0,0-.285,1.123,1.776,1.776,0,0,0,.47,1.17,1.766,1.766,0,0,0,.58.405,1.908,1.908,0,0,0,.792.156,2.091,2.091,0,0,0,1.712-.828l-2.21-3.13A3.87,3.87,0,0,0,1768.437,581.99Zm1.317-4.364.313.442.479-.405a2.582,2.582,0,0,0,.636-.727,1.492,1.492,0,0,0,.193-.709,1.042,1.042,0,0,0-.322-.82,1.219,1.219,0,0,0-.839-.286,1.19,1.19,0,0,0-.8.276.986.986,0,0,0-.321.792A2.655,2.655,0,0,0,1769.754,577.626Z" transform="translate(-1765.388 -529.158)"/><path class="a" d="M1776.1,853.34h2.652v13.148H1776.1Z" transform="translate(-1775.05 -786.898)"/><path class="a" d="M1849.411,891.367v1.16h.038a2.566,2.566,0,0,1,1.05-1.077,3.113,3.113,0,0,1,1.474-.34,2.506,2.506,0,0,1,1.868.663,2.983,2.983,0,0,1,.654,2.154v7.347h-2.542v-6.832a1.7,1.7,0,0,0-.258-1.077,1.033,1.033,0,0,0-.829-.3q-1.344,0-1.344,1.639v6.574h-2.542v-9.907Z" transform="translate(-1840.332 -821.685)"/><path class="a" d="M1979.125,865.429a2.562,2.562,0,0,1-.948.976,2.775,2.775,0,0,1-1.3.276,2.509,2.509,0,0,1-2.3-1.2,7.915,7.915,0,0,1-.736-3.96,8.091,8.091,0,0,1,.736-3.987,2.494,2.494,0,0,1,2.3-1.224,2.4,2.4,0,0,1,1.224.294,2.915,2.915,0,0,1,.911.884h.038V853.33h2.541v13.148h-2.431v-1.05h-.038Zm-2.5-1.465a1.129,1.129,0,0,0,2.172,0,12.038,12.038,0,0,0,0-4.879,1.049,1.049,0,0,0-1.1-.82,1.038,1.038,0,0,0-1.077.82,12.12,12.12,0,0,0,0,4.879Z" transform="translate(-1957.174 -786.889)"/><path class="a" d="M2111.806,903.1a2.4,2.4,0,0,1-1.05,1.05,3.329,3.329,0,0,1-1.473.313,2.574,2.574,0,0,1-1.869-.636,2.881,2.881,0,0,1-.653-2.127v-7.349h2.541v6.832a1.7,1.7,0,0,0,.258,1.077,1.027,1.027,0,0,0,.829.3q1.344,0,1.345-1.639V894.35h2.541v9.908h-2.431V903.1h-.038Z" transform="translate(-2079.596 -824.669)"/><path class="a" d="M2233.563,898.384a1.542,1.542,0,0,0,.34,1.041,1.229,1.229,0,0,0,.986.395,1.41,1.41,0,0,0,.939-.295,1.09,1.09,0,0,0,.35-.883.924.924,0,0,0-.276-.727,2.14,2.14,0,0,0-.644-.4l-1.787-.644a3.394,3.394,0,0,1-1.583-1.041,2.687,2.687,0,0,1-.533-1.722,3.246,3.246,0,0,1,.2-1.151,2.418,2.418,0,0,1,.644-.948,3.233,3.233,0,0,1,1.133-.644,5.121,5.121,0,0,1,1.666-.238,3.773,3.773,0,0,1,2.56.736,2.638,2.638,0,0,1,.829,2.081v.405H2236.1a2.015,2.015,0,0,0-.249-1.133.989.989,0,0,0-.875-.359,1.369,1.369,0,0,0-.838.267.935.935,0,0,0-.359.8,1.053,1.053,0,0,0,.231.664,1.761,1.761,0,0,0,.874.5l1.529.516a3.451,3.451,0,0,1,1.694,1.059,2.868,2.868,0,0,1,.5,1.777,3.163,3.163,0,0,1-.276,1.372,2.7,2.7,0,0,1-.765.966,2.992,2.992,0,0,1-1.16.553,6.231,6.231,0,0,1-1.482.166,6.576,6.576,0,0,1-1.777-.2,2.589,2.589,0,0,1-1.124-.608,2.179,2.179,0,0,1-.58-.986,4.753,4.753,0,0,1-.166-1.3v-.35h2.284v.332Z" transform="translate(-2194.282 -821.704)"/><path class="a" d="M2347.941,858.46V861.3h1.473v1.731h-1.473v5.358a1.5,1.5,0,0,0,.175.838.845.845,0,0,0,.727.248c.1,0,.2,0,.294-.009s.19-.016.277-.028V871.2q-.423,0-.82.028c-.264.018-.543.027-.838.027a5.919,5.919,0,0,1-1.206-.1,1.22,1.22,0,0,1-.719-.405,1.751,1.751,0,0,1-.341-.8,7.07,7.07,0,0,1-.092-1.253v-5.67h-1.289V861.3h1.289v-2.836h2.543Z" transform="translate(-2298.202 -791.614)"/><path class="a" d="M2438.2,891.377V892.7h.038a3.571,3.571,0,0,1,.939-1.151,2.112,2.112,0,0,1,1.344-.432c.073,0,.15,0,.23.009s.156.016.229.028v2.43c-.135-.012-.267-.021-.395-.027s-.262-.01-.4-.01a2.451,2.451,0,0,0-.662.092,1.768,1.768,0,0,0-.608.3,1.518,1.518,0,0,0-.442.553,1.918,1.918,0,0,0-.165.838v5.948h-2.541v-9.908Z" transform="translate(-2382.623 -821.695)"/><path class="a" d="M2522.748,905.622a1.232,1.232,0,0,0,1-.368,1.751,1.751,0,0,0,.359-.976l-2.781-9.908h2.652l1.473,6.85h.038l1.289-6.85h2.541l-2.395,9.245a18.99,18.99,0,0,1-.635,2,3.459,3.459,0,0,1-.719,1.179,1.992,1.992,0,0,1-.994.543,6.9,6.9,0,0,1-1.464.129h-1.03v-1.9A4.062,4.062,0,0,0,2522.748,905.622Z" transform="translate(-2461.426 -824.688)"/><path class="a" d="M1775.022,1142.32a5.91,5.91,0,0,0,.065.912,2.046,2.046,0,0,0,.239.718,1.279,1.279,0,0,0,.479.479,1.78,1.78,0,0,0,1.538,0,1.31,1.31,0,0,0,.47-.479,2.067,2.067,0,0,0,.239-.718,5.987,5.987,0,0,0,.065-.912v-9.17h2.651v9.17a5.308,5.308,0,0,1-.35,2.072,3.29,3.29,0,0,1-.939,1.3,3.168,3.168,0,0,1-1.344.645,7.334,7.334,0,0,1-1.565.166,8.119,8.119,0,0,1-1.565-.148,3.184,3.184,0,0,1-1.344-.6,3.063,3.063,0,0,1-.939-1.28,5.593,5.593,0,0,1-.351-2.154v-9.17h2.652Z" transform="translate(-1771.614 -1044.611)"/><path class="a" d="M1914.7,1171.177v1.16h.038a2.567,2.567,0,0,1,1.05-1.077,3.1,3.1,0,0,1,1.474-.34,2.507,2.507,0,0,1,1.869.663,2.984,2.984,0,0,1,.654,2.154v7.347h-2.541v-6.832a1.7,1.7,0,0,0-.258-1.077,1.033,1.033,0,0,0-.829-.3q-1.344,0-1.344,1.639v6.574h-2.541v-9.908h2.431Z" transform="translate(-1900.466 -1079.398)"/><path class="a" d="M2045.871,1131.29v2.172h-2.542v-2.172Zm0,3.387v9.908h-2.542v-9.908Z" transform="translate(-2021.176 -1042.898)"/><path class="a" d="M2109.843,1174.18l-2.486,9.908h-2.948l-2.559-9.908h2.652l1.417,7.09h.037l1.345-7.09Z" transform="translate(-2075.074 -1082.4)"/><path class="a" d="M2226.12,1177.329a5.627,5.627,0,0,0,.064.856,2.82,2.82,0,0,0,.212.738,1.378,1.378,0,0,0,.386.515.9.9,0,0,0,.589.193,1.033,1.033,0,0,0,.939-.459,3.407,3.407,0,0,0,.405-1.4H2231a3.966,3.966,0,0,1-.921,2.634,3.509,3.509,0,0,1-2.669.9,4.222,4.222,0,0,1-2.155-.461,2.856,2.856,0,0,1-1.142-1.216,4.773,4.773,0,0,1-.451-1.694q-.083-.939-.082-1.878a12.945,12.945,0,0,1,.137-1.915,4.62,4.62,0,0,1,.553-1.639,3,3,0,0,1,1.189-1.142,4.3,4.3,0,0,1,2.062-.423,4,4,0,0,1,1.813.359,2.75,2.75,0,0,1,1.114,1.012,4.244,4.244,0,0,1,.553,1.583,13.261,13.261,0,0,1,.148,2.073v.57h-5.027v.792Zm2.523-3.306a2.531,2.531,0,0,0-.194-.736,1.033,1.033,0,0,0-.388-.461,1.172,1.172,0,0,0-.635-.156,1.09,1.09,0,0,0-.636.175,1.26,1.26,0,0,0-.4.461,2.282,2.282,0,0,0-.212.635,3.9,3.9,0,0,0-.064.7v.388h2.6C2228.7,1174.646,2228.679,1174.312,2228.643,1174.023Z" transform="translate(-2187.19 -1079.416)"/><path class="a" d="M2351.92,1171.187v1.327h.038a3.574,3.574,0,0,1,.939-1.151,2.111,2.111,0,0,1,1.344-.432c.073,0,.15,0,.23.009s.156.016.23.027v2.43c-.135-.012-.267-.021-.395-.027s-.262-.009-.4-.009a2.449,2.449,0,0,0-.662.092,1.768,1.768,0,0,0-.608.3,1.512,1.512,0,0,0-.442.553,1.914,1.914,0,0,0-.165.838v5.948h-2.541v-9.908Z" transform="translate(-2303.157 -1079.407)"/><path class="a" d="M2437.343,1178.194a1.542,1.542,0,0,0,.34,1.041,1.229,1.229,0,0,0,.986.395,1.41,1.41,0,0,0,.939-.295,1.09,1.09,0,0,0,.35-.883.924.924,0,0,0-.277-.727,2.138,2.138,0,0,0-.644-.4l-1.786-.644a3.391,3.391,0,0,1-1.583-1.041,2.687,2.687,0,0,1-.533-1.721,3.246,3.246,0,0,1,.2-1.151,2.416,2.416,0,0,1,.644-.948,3.233,3.233,0,0,1,1.132-.644,5.125,5.125,0,0,1,1.667-.239,3.773,3.773,0,0,1,2.559.736,2.637,2.637,0,0,1,.829,2.081v.405h-2.283a2.012,2.012,0,0,0-.25-1.133.988.988,0,0,0-.874-.359,1.369,1.369,0,0,0-.838.267.936.936,0,0,0-.359.8,1.055,1.055,0,0,0,.23.664,1.762,1.762,0,0,0,.875.5l1.529.516a3.45,3.45,0,0,1,1.694,1.059,2.866,2.866,0,0,1,.5,1.777,3.167,3.167,0,0,1-.276,1.372,2.7,2.7,0,0,1-.764.966,2.992,2.992,0,0,1-1.16.553,6.233,6.233,0,0,1-1.482.166,6.575,6.575,0,0,1-1.777-.2,2.589,2.589,0,0,1-1.124-.608,2.179,2.179,0,0,1-.58-.986,4.743,4.743,0,0,1-.166-1.3v-.35h2.284v.332Z" transform="translate(-2381.969 -1079.416)"/><path class="a" d="M2560.951,1131.29v2.172h-2.541v-2.172Zm0,3.387v9.908h-2.541v-9.908Z" transform="translate(-2495.578 -1042.898)"/><path class="a" d="M2620.991,1138.261v2.836h1.473v1.731h-1.473v5.358a1.5,1.5,0,0,0,.175.838.845.845,0,0,0,.727.248c.1,0,.2,0,.295-.009s.19-.016.276-.028V1151q-.423,0-.82.028c-.265.018-.543.027-.838.027a5.916,5.916,0,0,1-1.206-.1,1.22,1.22,0,0,1-.719-.405,1.748,1.748,0,0,1-.34-.8,7.048,7.048,0,0,1-.092-1.252v-5.672h-1.289V1141.1h1.289v-2.836h2.543Z" transform="translate(-2549.688 -1049.317)"/><path class="a" d="M2700.668,1185.432a1.232,1.232,0,0,0,1-.368,1.752,1.752,0,0,0,.358-.976l-2.781-9.908h2.652l1.473,6.85h.038l1.289-6.85h2.541l-2.395,9.245a18.984,18.984,0,0,1-.635,2,3.462,3.462,0,0,1-.719,1.179,1.993,1.993,0,0,1-.995.543,6.908,6.908,0,0,1-1.464.129h-1.031v-1.9A4.092,4.092,0,0,0,2700.668,1185.432Z" transform="translate(-2625.295 -1082.4)"/></g></svg>