<svg id="Icon_color_American_Express" data-name="Icon/color/American Express" xmlns="http://www.w3.org/2000/svg" width="129.421" height="90.202" viewBox="0 0 129.421 90.202">
  <g id="American_Express" data-name="American Express">
    <rect id="Rectangle_Copy_4" data-name="Rectangle Copy 4" width="129.421" height="90.202" rx="3" fill="#016fd0"/>
    <g id="American_Express_logo__2018_" data-name="American_Express_logo_(2018)" transform="translate(0.129 21.734)">
      <path id="path3082" d="M0,20.121V0H21.418l2.3,2.98L26.09,0h77.741V18.733a9.008,9.008,0,0,1-4.384,1.388H56.4l-2.591-3.172v3.172h-8.49V14.707a7.153,7.153,0,0,1-3.667.756h-2.89v4.659H25.908l-2.295-3.044-2.33,3.044Z" transform="translate(25.011 26.366)" fill="#fff"/>
      <path id="path3080" d="M0,11.2,4.83,0h8.353l2.741,6.274V0H26.306l1.632,4.535L29.52,0H76.129V2.28A10.084,10.084,0,0,1,82.606,0L97.729.053l2.694,6.192V0h8.689L111.5,3.557V0h8.769V20.121H111.5l-2.292-3.568v3.568H96.445l-1.284-3.172H91.729l-1.263,3.172H81.809a8.578,8.578,0,0,1-5.68-2.233v2.233H63.076l-2.591-3.172v3.172H11.945l-1.283-3.172H7.241L5.967,20.121H0Z" transform="translate(0 0)" fill="#fff"/>
      <path id="path3046" d="M4.24,15.068H0L6.514,0h4.94l6.506,15.064-4.333,0-1.195-3.018H5.443l-1.2,3.018ZM8.925,3.507,6.788,8.778h4.267Z" transform="translate(0.025 2.481)" fill="#016fd0"/>
      <path id="path3048" d="M0,15.066V0L6.027.022,9.532,9.736,12.954,0h5.979V15.066H15.146V3.965l-4.014,11.1H7.812L3.787,3.965v11.1Z" transform="translate(18.434 2.478)" fill="#016fd0"/>
      <path id="path3050" d="M0,15.066V0H12.356V3.37H3.826V5.947h8.33V9.119H3.826V11.8h8.53v3.271Z" transform="translate(39.958 2.478)" fill="#016fd0"/>
      <path id="path3052" d="M3.787,15.068h0L0,15.066V0H8.427c2.549,0,5.293,1.53,5.293,4.889A4.626,4.626,0,0,1,9.565,9.516l4.979,5.547-4.624,0L5.381,9.714H3.787v5.355Zm0-11.7V6.542H8.171A1.7,1.7,0,0,0,9.908,4.956,1.74,1.74,0,0,0,8.115,3.371Z" transform="translate(54.506 2.481)" fill="#016fd0"/>
      <path id="path3054" d="M3.866,15.066H0V0H3.866Z" transform="translate(69.772 2.478)" fill="#016fd0"/>
      <path id="path3056" d="M7.324,15.066H6.489C2.452,15.066,0,11.9,0,7.595,0,3.182,2.424,0,7.523,0h4.185V3.568H7.37c-2.07,0-3.534,1.607-3.534,4.064,0,2.918,1.674,4.143,4.085,4.143h1Z" transform="translate(75.481 2.478)" fill="#016fd0"/>
      <path id="path3058" d="M4.24,15.068H0L6.514,0h4.94l6.506,15.064-4.333,0-1.195-3.018H5.443l-1.2,3.018ZM8.925,3.507,6.788,8.778h4.267Z" transform="translate(84.531 2.481)" fill="#016fd0"/>
      <path id="path3060" d="M0,15.066V0H4.814l6.147,9.466V0h3.787V15.066H10.089l-6.3-9.714v9.714Z" transform="translate(102.934 2.478)" fill="#016fd0"/>
      <path id="path3062" d="M0,15.066V0H12.356V3.37H3.826V5.947h8.33V9.119H3.826V11.8h8.53v3.271Z" transform="translate(27.602 28.844)" fill="#016fd0"/>
      <path id="path3064" d="M0,15.066V0H12.356V3.37H3.826V5.947h8.291V9.119H3.826V11.8h8.53v3.271Z" transform="translate(88.146 28.844)" fill="#016fd0"/>
      <path id="path3066" d="M.143,15.066l6.016-7.44L0,0H4.771L8.439,4.714,12.119,0H16.7L10.625,7.533l6.027,7.533h-4.77L8.32,10.426l-3.475,4.64Z" transform="translate(40.294 28.844)" fill="#016fd0"/>
      <path id="path3068" d="M3.886,15.066H0V0H8.364C11.616,0,13.8,2.036,13.8,5.067c0,3.233-2.272,5.242-5.93,5.242H3.886v4.758Zm0-11.658V6.876H8.071A1.753,1.753,0,0,0,9.952,5.141,1.708,1.708,0,0,0,8.083,3.408Z" transform="translate(57.396 28.846)" fill="#016fd0"/>
      <path id="path3072" d="M3.787,15.068h0L0,15.066V0H8.427c2.549,0,5.293,1.53,5.293,4.889A4.626,4.626,0,0,1,9.565,9.516l4.979,5.547-4.624,0L5.381,9.714H3.787v5.355Zm0-11.7V6.542H8.171A1.7,1.7,0,0,0,9.908,4.956,1.74,1.74,0,0,0,8.115,3.371Z" transform="translate(72.841 28.844)" fill="#016fd0"/>
      <path id="path3074" d="M.481,15.066V11.8H8.059c1.121,0,1.607-.6,1.607-1.264,0-.633-.484-1.274-1.607-1.274H4.634C1.658,9.258,0,7.454,0,4.745,0,2.33,1.518,0,5.941,0h7.374L11.721,3.39H5.343c-1.219,0-1.594.636-1.594,1.244a1.317,1.317,0,0,0,1.4,1.313H8.731c3.318,0,4.758,1.872,4.758,4.324,0,2.636-1.6,4.795-4.939,4.795Z" transform="translate(101.775 28.844)" fill="#016fd0"/>
      <path id="path3076" d="M.481,15.066V11.8H8.059c1.121,0,1.607-.6,1.607-1.264,0-.633-.484-1.274-1.607-1.274H4.634C1.658,9.258,0,7.454,0,4.745,0,2.33,1.518,0,5.941,0h7.374L11.721,3.39H5.343c-1.219,0-1.594.636-1.594,1.244a1.317,1.317,0,0,0,1.4,1.313H8.731c3.318,0,4.758,1.872,4.758,4.324,0,2.636-1.6,4.795-4.939,4.795Z" transform="translate(115.673 28.844)" fill="#016fd0"/>
    </g>
  </g>
</svg>
