<svg id="Icon_color_Apple_Pay" data-name="Icon/color/Apple Pay" xmlns="http://www.w3.org/2000/svg" width="129.421" height="90.202" viewBox="0 0 129.421 90.202">
  <g id="Apple_Pay" data-name="Apple Pay">
    <rect id="Rectangle_Copy_12" data-name="Rectangle Copy 12" width="129.421" height="90.202" rx="3" fill="#e6e7e8"/>
    <g id="Apple_Pay_logo" transform="translate(29.425 31.375)">
      <path id="XMLID_34_" d="M58.6,29.3a9.082,9.082,0,0,1-1.267-.083V26.612c.194.026.7.056.978.056,1.5,0,2.311-.654,2.813-2.259l.3-.962L55.775,7.626h3.487l3.93,12.839h.069l3.93-12.839h3.39L64.722,24.242C63.393,28.025,61.848,29.3,58.6,29.3ZM6.06,23.575c-1.477,0-2.6-1.474-3.616-2.984C.265,17.4-.987,12.164.982,8.741A5.67,5.67,0,0,1,5.793,5.785h.06a6.334,6.334,0,0,1,2.336.6l.016.006A4.33,4.33,0,0,0,9.626,6.8a4.284,4.284,0,0,0,1.357-.4L11,6.4l.023-.009A7.757,7.757,0,0,1,13.841,5.7c.124,0,.193,0,.254.007a5.353,5.353,0,0,1,4.273,2.342l-.013.009-.009.007-.019.012a5.3,5.3,0,0,0-2.481,4.46,5.221,5.221,0,0,0,3.08,4.763l.035.018-.005.018a12.791,12.791,0,0,1-1.594,3.314c-.908,1.346-1.938,2.871-3.584,2.9H13.71a3.877,3.877,0,0,1-1.721-.438,4.631,4.631,0,0,0-2.046-.5,4.835,4.835,0,0,0-2.119.5l-.011,0-.012.005a4.354,4.354,0,0,1-1.662.448C6.112,23.575,6.086,23.575,6.06,23.575ZM46.4,23.559c-3.15,0-5.266-1.882-5.266-4.684s2.065-4.389,5.97-4.627L51.266,14V12.8c0-1.762-1.131-2.732-3.186-2.732a2.937,2.937,0,0,0-3.157,2.217H41.917c.1-2.82,2.731-4.866,6.26-4.866,3.827,0,6.3,2.025,6.3,5.159V23.391H51.389V20.784H51.32A5.505,5.505,0,0,1,46.4,23.559Zm4.867-7.291-3.708.236c-2.075.125-3.171.916-3.171,2.287,0,1.329,1.142,2.188,2.908,2.188,2.3,0,3.971-1.466,3.971-3.486V16.268ZM28.5,23.391H25.166V1.659h8.065A6.8,6.8,0,0,1,40.3,8.8a6.864,6.864,0,0,1-7.183,7.165H28.5v7.43ZM28.5,4.5v8.63h3.833c2.9,0,4.562-1.575,4.562-4.322S35.24,4.5,32.348,4.5ZM9.674,5.448c-.086,0-.172,0-.254-.011A5.047,5.047,0,0,1,10.66,1.8,5.2,5.2,0,0,1,14.107,0a5.32,5.32,0,0,1-1.212,3.778A4.424,4.424,0,0,1,9.674,5.448Z" transform="translate(0 0)"/>
    </g>
  </g>
</svg>
