<svg xmlns="http://www.w3.org/2000/svg" width="207.38" height="69.987" viewBox="0 0 207.38 69.987"><defs><style>.a{stroke:#000;}.b{fill:#fff;}</style></defs><g transform="translate(0.5 0.5)"><g transform="translate(0 0)"><path class="a" d="M189.945,0H16.444c-.632,0-1.257,0-1.888,0-.528,0-1.052.013-1.585.022a22.791,22.791,0,0,0-3.456.3A11.5,11.5,0,0,0,6.237,1.412,11.1,11.1,0,0,0,3.445,3.444a10.794,10.794,0,0,0-2.032,2.8A11.385,11.385,0,0,0,.335,9.523a22.408,22.408,0,0,0-.309,3.453C.01,13.5.008,14.035,0,14.564V54.428c.008.536.01,1.054.026,1.59a22.408,22.408,0,0,0,.309,3.453,11.361,11.361,0,0,0,1.078,3.284,10.706,10.706,0,0,0,2.032,2.784,10.821,10.821,0,0,0,2.792,2.033A11.557,11.557,0,0,0,9.515,68.66a23.206,23.206,0,0,0,3.456.3c.533.012,1.057.018,1.585.018.631,0,1.256,0,1.888,0h173.5c.62,0,1.25,0,1.87,0,.526,0,1.064-.007,1.59-.018a22.9,22.9,0,0,0,3.449-.3,11.735,11.735,0,0,0,3.291-1.088,10.827,10.827,0,0,0,2.789-2.033,11.029,11.029,0,0,0,2.038-2.784,11.39,11.39,0,0,0,1.068-3.284,23.293,23.293,0,0,0,.32-3.453c.007-.536.007-1.054.007-1.59.013-.627.013-1.25.013-1.886V16.447c0-.632,0-1.258-.013-1.883,0-.529,0-1.059-.007-1.588a23.3,23.3,0,0,0-.32-3.453,11.413,11.413,0,0,0-1.068-3.283,11.152,11.152,0,0,0-4.827-4.829A11.672,11.672,0,0,0,196.854.33a22.5,22.5,0,0,0-3.449-.3c-.526-.008-1.064-.019-1.59-.022-.62,0-1.25,0-1.87,0Z" transform="translate(0 0)"/><path class="b" d="M13.932,66.843c-.525,0-1.038-.007-1.56-.018a21.88,21.88,0,0,1-3.224-.281A10.148,10.148,0,0,1,6.291,65.6a9.323,9.323,0,0,1-2.409-1.753,9.177,9.177,0,0,1-1.76-2.408,9.868,9.868,0,0,1-.936-2.858A21.409,21.409,0,0,1,.9,55.345C.887,54.981.873,53.77.873,53.77V13.93S.888,12.737.9,12.387a21.335,21.335,0,0,1,.285-3.229,9.926,9.926,0,0,1,.937-2.867A9.267,9.267,0,0,1,3.872,3.881,9.6,9.6,0,0,1,6.29,2.117a10.043,10.043,0,0,1,2.851-.938A21.707,21.707,0,0,1,12.377.9L13.933.875H191.174L192.749.9a21.36,21.36,0,0,1,3.205.28,10.242,10.242,0,0,1,2.882.945A9.647,9.647,0,0,1,203,6.3a9.94,9.94,0,0,1,.923,2.844,22.413,22.413,0,0,1,.3,3.255c.005.488.005,1.013.005,1.535.014.647.014,1.262.014,1.883V51.907c0,.627,0,1.238-.014,1.854,0,.561,0,1.075-.007,1.6a21.96,21.96,0,0,1-.295,3.2,9.9,9.9,0,0,1-.931,2.88,9.453,9.453,0,0,1-1.752,2.39,9.335,9.335,0,0,1-2.413,1.763,10.109,10.109,0,0,1-2.877.948,21.633,21.633,0,0,1-3.224.281c-.505.012-1.034.018-1.548.018l-1.87,0Z" transform="translate(0.633 0.634)"/><g transform="translate(17.198 15.04)"><path d="M35.492,24.886a8.535,8.535,0,0,1,4.064-7.161A8.737,8.737,0,0,0,32.673,14c-2.9-.3-5.7,1.733-7.18,1.733-1.5,0-3.777-1.7-6.223-1.652a9.167,9.167,0,0,0-7.714,4.7c-3.336,5.775-.848,14.262,2.348,18.93,1.6,2.286,3.467,4.839,5.912,4.749,2.392-.1,3.286-1.525,6.173-1.525,2.861,0,3.7,1.525,6.193,1.468,2.567-.042,4.184-2.3,5.727-4.6a18.906,18.906,0,0,0,2.619-5.334A8.247,8.247,0,0,1,35.492,24.886Z" transform="translate(-9.972 -4.914)"/><path d="M24.39,14.74a8.4,8.4,0,0,0,1.922-6.02,8.55,8.55,0,0,0-5.532,2.862,8,8,0,0,0-1.973,5.8A7.069,7.069,0,0,0,24.39,14.74Z" transform="translate(-3.581 -8.72)"/><g transform="translate(42.178 15.782)"><path d="M48.009,33.706H39.845l-1.96,5.789H34.427L42.16,18.078h3.592l7.732,21.417H49.968Zm-7.318-2.671h6.471l-3.19-9.395h-.089Z" transform="translate(-34.427 -17.721)"/><path d="M61.34,29.32c0,4.852-2.6,7.97-6.516,7.97a5.294,5.294,0,0,1-4.913-2.732h-.074v7.734H46.631V21.512h3.1v2.6h.059a5.539,5.539,0,0,1,4.972-2.76C58.728,21.349,61.34,24.482,61.34,29.32Zm-3.294,0c0-3.161-1.634-5.24-4.126-5.24-2.449,0-4.1,2.122-4.1,5.24,0,3.146,1.647,5.253,4.1,5.253C56.412,34.574,58.045,32.51,58.045,29.32Z" transform="translate(-25.583 -15.353)"/><path d="M71.3,29.32c0,4.852-2.6,7.97-6.516,7.97a5.294,5.294,0,0,1-4.913-2.732H59.8v7.734H56.6V21.512h3.1v2.6h.059a5.539,5.539,0,0,1,4.972-2.76C68.692,21.349,71.3,24.482,71.3,29.32Zm-3.294,0c0-3.161-1.634-5.24-4.126-5.24-2.449,0-4.1,2.122-4.1,5.24,0,3.146,1.647,5.253,4.1,5.253,2.493,0,4.126-2.063,4.126-5.253Z" transform="translate(-18.362 -15.353)"/><path d="M73.089,33.678c.237,2.124,2.3,3.518,5.12,3.518,2.7,0,4.645-1.395,4.645-3.31,0-1.662-1.172-2.658-3.948-3.34l-2.776-.669c-3.933-.95-5.758-2.789-5.758-5.774,0-3.7,3.22-6.233,7.793-6.233,4.526,0,7.628,2.538,7.732,6.233H82.662c-.194-2.137-1.96-3.427-4.542-3.427s-4.349,1.305-4.349,3.205c0,1.514,1.128,2.405,3.889,3.087l2.36.579c4.394,1.039,6.22,2.8,6.22,5.937,0,4.007-3.192,6.516-8.268,6.516-4.75,0-7.956-2.451-8.164-6.324Z" transform="translate(-8.788 -17.871)"/><path d="M85.653,19.3V23h2.969v2.538H85.653v8.608c0,1.337.595,1.96,1.9,1.96a10.015,10.015,0,0,0,1.054-.074v2.523a8.8,8.8,0,0,1-1.78.148c-3.161,0-4.394-1.187-4.394-4.216v-8.95h-2.27V23h2.27V19.3Z" transform="translate(-1.285 -16.836)"/><path d="M86.065,29.331c0-4.913,2.894-8,7.406-8,4.527,0,7.407,3.087,7.407,8s-2.865,8-7.407,8S86.065,34.258,86.065,29.331Zm11.547,0c0-3.37-1.544-5.359-4.142-5.359s-4.14,2-4.14,5.359c0,3.384,1.543,5.358,4.14,5.358s4.141-1.974,4.141-5.358Z" transform="translate(2.993 -15.364)"/><path d="M96.186,21.512h3.057V24.17h.074a3.724,3.724,0,0,1,3.756-2.821,4.943,4.943,0,0,1,1.1.12v3a4.481,4.481,0,0,0-1.44-.194,3.23,3.23,0,0,0-3.34,3.592v9.262H96.186Z" transform="translate(10.327 -15.353)"/><path d="M115.3,32.551c-.431,2.835-3.192,4.78-6.723,4.78-4.542,0-7.362-3.043-7.362-7.926,0-4.9,2.835-8.074,7.227-8.074,4.32,0,7.037,2.968,7.037,7.7v1.1H104.453v.194a4.067,4.067,0,0,0,4.2,4.423,3.533,3.533,0,0,0,3.606-2.2Zm-10.835-4.66h7.806a3.755,3.755,0,0,0-3.83-3.963,3.953,3.953,0,0,0-3.977,3.963Z" transform="translate(13.973 -15.364)"/></g></g></g><g transform="translate(61.52 14.551)"><path d="M39.388,8.736a4.552,4.552,0,0,1,4.842,5.113c0,3.288-1.777,5.177-4.842,5.177H35.671V8.736Zm-2.119,8.835h1.94a3.235,3.235,0,0,0,3.394-3.7,3.244,3.244,0,0,0-3.394-3.68h-1.94Z" transform="translate(-35.671 -8.229)"/><path d="M41.688,14.137a3.679,3.679,0,1,1,7.325,0,3.68,3.68,0,1,1-7.325,0Zm5.748,0c0-1.683-.756-2.668-2.083-2.668s-2.082.984-2.082,2.668.749,2.674,2.082,2.674,2.083-.984,2.083-2.674Z" transform="translate(-31.323 -7.226)"/><path d="M55.2,17.961h-1.59L52,12.241h-.121l-1.6,5.72H48.71l-2.141-7.766h1.555l1.391,5.926h.115l1.6-5.926H52.7l1.6,5.926h.121L55.8,10.195h1.533Z" transform="translate(-27.773 -7.163)"/><path d="M53.854,10.261h1.475v1.234h.115a2.325,2.325,0,0,1,2.318-1.384A2.526,2.526,0,0,1,60.449,13v5.027H58.916V13.384c0-1.248-.542-1.869-1.676-1.869a1.781,1.781,0,0,0-1.854,1.968v4.543H53.854Z" transform="translate(-22.495 -7.229)"/><path d="M59.094,8.437h1.533v10.8H59.094Z" transform="translate(-18.697 -8.437)"/><path d="M61.225,14.137a3.68,3.68,0,1,1,7.326,0,3.68,3.68,0,1,1-7.326,0Zm5.748,0c0-1.683-.756-2.668-2.083-2.668s-2.082.984-2.082,2.668.749,2.674,2.082,2.674,2.083-.984,2.083-2.674Z" transform="translate(-17.165 -7.226)"/><path d="M66.4,15.828c0-1.4,1.041-2.2,2.888-2.318l2.1-.121v-.67c0-.82-.542-1.283-1.59-1.283-.856,0-1.448.314-1.619.863H66.7c.157-1.334,1.411-2.19,3.173-2.19,1.947,0,3.045.969,3.045,2.61v5.306H71.444V16.932h-.121a2.613,2.613,0,0,1-2.333,1.219A2.346,2.346,0,0,1,66.4,15.828Zm4.992-.664v-.649l-1.9.121c-1.069.072-1.555.435-1.555,1.12s.606,1.106,1.44,1.106a1.831,1.831,0,0,0,2.011-1.7Z" transform="translate(-13.402 -7.226)"/><path d="M71.348,15.348c0-2.454,1.261-4.008,3.224-4.008A2.559,2.559,0,0,1,76.953,12.7h.115V8.437H78.6v10.8H77.132V18.008h-.121a2.7,2.7,0,0,1-2.439,1.355C72.6,19.363,71.348,17.808,71.348,15.348Zm1.583,0c0,1.647.776,2.638,2.075,2.638s2.09-1.005,2.09-2.632-.807-2.638-2.09-2.638-2.075,1-2.075,2.632Z" transform="translate(-9.817 -8.437)"/><path d="M79.237,14.137a3.679,3.679,0,1,1,7.325,0,3.68,3.68,0,1,1-7.325,0Zm5.748,0c0-1.683-.756-2.668-2.083-2.668s-2.082.984-2.082,2.668.749,2.674,2.082,2.674S84.986,15.828,84.986,14.137Z" transform="translate(-4.113 -7.226)"/><path d="M84.669,10.261h1.475v1.234h.115a2.325,2.325,0,0,1,2.318-1.384A2.526,2.526,0,0,1,91.265,13v5.027H89.732V13.384c0-1.248-.542-1.869-1.676-1.869A1.781,1.781,0,0,0,86.2,13.484v4.543H84.669Z" transform="translate(-0.163 -7.229)"/><path d="M94.678,9.074v1.969H96.36v1.291H94.678v3.993c0,.813.335,1.17,1.1,1.17a5.116,5.116,0,0,0,.584-.035v1.277a5.028,5.028,0,0,1-.834.078c-1.7,0-2.383-.6-2.383-2.1V12.334H91.911V11.043h1.233V9.074Z" transform="translate(5.084 -7.976)"/><path d="M95.7,8.437h1.519v4.28h.121a2.39,2.39,0,0,1,2.368-1.391,2.558,2.558,0,0,1,2.675,2.9v5.014h-1.534V14.6c0-1.24-.578-1.869-1.661-1.869A1.814,1.814,0,0,0,97.237,14.7v4.536H95.7Z" transform="translate(7.833 -8.437)"/><path d="M107.7,15.927a3.153,3.153,0,0,1-3.365,2.247,3.527,3.527,0,0,1-3.587-4.008,3.582,3.582,0,0,1,3.581-4.057c2.161,0,3.464,1.476,3.464,3.915v.535h-5.484v.086a2.053,2.053,0,0,0,2.068,2.225,1.862,1.862,0,0,0,1.848-.941Zm-5.391-2.5h3.923a1.874,1.874,0,0,0-1.912-2.012,1.986,1.986,0,0,0-2.011,2.012Z" transform="translate(11.461 -7.226)"/></g></g></svg>