<svg id="Icon_color_Bitcoin" data-name="Icon/color/Bitcoin" xmlns="http://www.w3.org/2000/svg" width="129.421" height="90.202" viewBox="0 0 129.421 90.202">
  <g id="Bitso">
    <rect id="Rectangle_Copy_18" data-name="Rectangle Copy 18" width="129.421" height="90.202" rx="3" fill="#f7931a"/>
    <g id="Bitcoin_logo_Copy" data-name="Bitcoin_logo Copy" transform="translate(48.869 23.543)">
      <path id="Shape" d="M16.3,42.788h0L12.6,41.863,14.11,35.8c-1.038-.258-2-.51-2.954-.768l-1.52,6.1-3.7-.925,1.534-6.159-.342-.088-.666-.173-.095-.025-.01,0c-.5-.131-1.013-.264-1.529-.394L0,32.157l1.841-4.244.117.031c2.024.535,2.516.647,2.573.647a2.107,2.107,0,0,0,.443.053,1.359,1.359,0,0,0,1.26-.937l2.425-9.721.161.041.117.029.114.028a3.618,3.618,0,0,0-.385-.124l1.73-6.938A1.977,1.977,0,0,0,8.667,8.865c-.011-.047-2-.51-2.693-.669l.987-3.96,5.113,1.278-.005.018c.74.184,1.511.362,2.368.557L15.956,0l3.7.925L18.172,6.893l.048.009c.952.218,1.962.451,2.922.69l1.477-5.93,3.708.923-1.52,6.09c5.649,1.946,8.01,4.656,7.432,8.526-.443,2.989-2.036,4.82-4.733,5.443,3.783,1.969,4.866,4.827,3.406,8.99-1.321,3.777-3.936,5.536-8.229,5.536a26.34,26.34,0,0,1-4.846-.531L16.3,42.786ZM14.4,22.41,12.361,30.57c.175.043.376.1.6.155l.127.034A25.619,25.619,0,0,0,19.21,31.8c2.576,0,4.111-.916,4.56-2.721a3.319,3.319,0,0,0-.367-2.635c-1.437-2.329-5.767-3.3-8.093-3.823l-.206-.046C14.833,22.514,14.6,22.461,14.4,22.41Zm2.778-11.138-1.846,7.4c.175.044.381.1.612.16a20,20,0,0,0,4.932.843c2.263,0,3.623-.855,4.044-2.542a3.14,3.14,0,0,0-.332-2.5c-1.233-1.991-4.756-2.771-6.649-3.189C17.639,11.381,17.384,11.324,17.174,11.272Z" transform="translate(0 0)" fill="#fff"/>
    </g>
  </g>
</svg>
