<svg xmlns="http://www.w3.org/2000/svg" xmlns:xlink="http://www.w3.org/1999/xlink" width="420" height="715.732" viewBox="0 0 420 715.732"><defs><style>.a{fill:#fff;}.b{fill:#1598e5;}.c{filter:url(#c);}.d{filter:url(#a);}</style><filter id="a" x="0" y="0" width="420" height="715.732" filterUnits="userSpaceOnUse"><feOffset dy="25" input="SourceAlpha"/><feGaussianBlur stdDeviation="12.5" result="b"/><feFlood flood-color="#001e6e" flood-opacity="0.424"/><feComposite operator="in" in2="b"/><feComposite in="SourceGraphic"/></filter><filter id="c" x="28.5" y="6.5" width="363" height="102.517" filterUnits="userSpaceOnUse"><feOffset dy="3" input="SourceAlpha"/><feGaussianBlur stdDeviation="3" result="d"/><feFlood flood-opacity="0.161"/><feComposite operator="in" in2="d"/><feComposite in="SourceGraphic"/></filter></defs><g transform="translate(-20.5 -3074.5)"><g class="d" transform="matrix(1, 0, 0, 1, 20.5, 3074.5)"><path class="a" d="M0,0H345a0,0,0,0,1,0,0V630.732a10,10,0,0,1-10,10H10a10,10,0,0,1-10-10V0A0,0,0,0,1,0,0Z" transform="translate(37.5 12.5)"/></g><g class="c" transform="matrix(1, 0, 0, 1, 20.5, 3074.5)"><path class="b" d="M0,0H345V82s-79.843-15.479-167.566-3.88S0,82,0,82Z" transform="translate(37.5 12.5)"/></g></g></svg>