<svg xmlns="http://www.w3.org/2000/svg" width="80" height="51" viewBox="0 0 80 51">
  <g id="Group_2916" data-name="Group 2916" transform="translate(-1055 -684)">
    <rect id="Rectangle_2137" data-name="Rectangle 2137" width="80" height="51" rx="11" transform="translate(1055 684)" fill="#ffdb15"/>
    <g id="Path_1871" data-name="Path 1871" transform="translate(1082 685)" fill="#ffdb15">
      <path d="M 12.5 48.5 C 10.00032806396484 48.5 4.863353252410889 44.39433288574219 2.932506799697876 42.67283248901367 C 2.636857748031616 41.27794647216797 0.5 30.96866035461426 0.5 24.5 C 0.5 18.16647529602051 1.19247305393219 6.625326633453369 1.312501788139343 4.672911167144775 C 2.715726613998413 3.956984519958496 9.640501976013184 0.5 12.5 0.5 C 13.72212028503418 0.5 16.00044059753418 1.372939944267273 19.08867073059082 3.024440050125122 C 21.02259063720703 4.058653354644775 22.71498489379883 5.102999210357666 23.28385734558105 5.459698677062988 C 23.45779418945313 7.19837760925293 24.5 17.89472198486328 24.5 24.5 C 24.5 30.49669456481934 22.58108711242676 41.20904922485352 22.31279945373535 42.6769905090332 C 21.88724899291992 43.05252075195313 20.42668151855469 44.31755828857422 18.67683029174805 45.56682968139648 C 15.98904991149902 47.4857292175293 13.85313987731934 48.5 12.5 48.5 Z" stroke="none"/>
      <path d="M 12.5 1 C 10.13545227050781 1 4.383693695068359 3.672313690185547 1.794229507446289 4.987174987792969 C 1.636758804321289 7.579181671142578 1 18.43699836730957 1 24.5 C 1 30.71062469482422 2.992080688476563 40.52138519287109 3.387212753295898 42.40584182739258 C 3.918233871459961 42.87004089355469 5.272140502929688 44.02677917480469 6.849340438842773 45.16847991943359 C 10.25277996063232 47.63214111328125 11.85052013397217 48 12.5 48 C 13.21187973022461 48 14.9222297668457 47.63174057006836 18.37866020202637 45.16535949707031 C 19.96543121337891 44.03309631347656 21.31351661682129 42.88598251342773 21.85205078125 42.41606140136719 C 22.20976066589355 40.44025802612305 24 30.26179885864258 24 24.5 C 24 18.17566680908203 23.03960609436035 8.072418212890625 22.81062126159668 5.753780364990234 C 22.10849761962891 5.317913055419922 20.57802963256836 4.387920379638672 18.85288047790527 3.465351104736328 C 14.84171962738037 1.320289611816406 13.15087985992432 1 12.5 1 M 12.5 0 C 15.68943023681641 0 23.75683975219727 5.167049407958984 23.75683975219727 5.167049407958984 C 23.75683975219727 5.167049407958984 25 17.22030067443848 25 24.5 C 25 31.03541946411133 22.77343940734863 42.9364013671875 22.77343940734863 42.9364013671875 C 22.77343940734863 42.9364013671875 16.06916046142578 49 12.5 49 C 9.193209648132324 49 2.4775390625 42.9364013671875 2.4775390625 42.9364013671875 C 2.4775390625 42.9364013671875 0 31.54966926574707 0 24.5 C 0 17.50452995300293 0.8310508728027344 4.358280181884766 0.8310508728027344 4.358280181884766 C 0.8310508728027344 4.358280181884766 9.165559768676758 0 12.5 0 Z" stroke="none" fill="#d3b200"/>
    </g>
    <line id="Line_95" data-name="Line 95" x1="24.7" transform="translate(1055.5 701.5)" fill="none" stroke="#d3b200" stroke-linecap="round" stroke-width="1"/>
    <line id="Line_98" data-name="Line 98" x1="24.7" transform="translate(1108.5 701.5)" fill="none" stroke="#d3b200" stroke-linecap="round" stroke-width="1"/>
    <line id="Line_96" data-name="Line 96" x1="24.7" transform="translate(1055.5 718.5)" fill="none" stroke="#d3b200" stroke-linecap="round" stroke-width="1"/>
    <line id="Line_97" data-name="Line 97" x1="24.7" transform="translate(1108.5 718.5)" fill="none" stroke="#d3b200" stroke-linecap="round" stroke-width="1"/>
  </g>
</svg>
