<svg id="Group_2992" data-name="Group 2992" xmlns="http://www.w3.org/2000/svg" width="737.219" height="503.079" viewBox="0 0 737.219 503.079">
  <path id="Path_2313" data-name="Path 2313" d="M307.112,791.779c0,13.108-61.473,23.74-137.306,23.74S32.5,804.888,32.5,791.779c0-3.279,3.837-6.4,10.779-9.233,20.211-8.27,66.748-14.148,121.445-14.488q2.531-.019,5.082-.019C245.639,768.04,307.112,778.671,307.112,791.779Z" transform="translate(-28.009 -312.44)" fill="#1598e5"/>
  <path id="Path_2314" data-name="Path 2314" d="M170.745,768.07A77.954,77.954,0,0,1,49.3,782.557C69.511,774.287,116.048,768.41,170.745,768.07Z" transform="translate(-34.029 -312.451)" opacity="0.1"/>
  <ellipse id="Ellipse_83" data-name="Ellipse 83" cx="71.861" cy="76.994" rx="71.861" ry="76.994" transform="translate(0 325.993)" fill="#1598e5"/>
  <path id="Path_2315" data-name="Path 2315" d="M274.927,141.3c10.189,39.252,43.058,64.622,73.49,56.723" transform="translate(-114.89 -87.827)" fill="#001e6e"/>
  <path id="Path_2316" data-name="Path 2316" d="M387.908,180.684c-10.3-39.693,8.839-78.945,42.8-87.76" transform="translate(-154.381 -70.491)" fill="#1598e5"/>
  <path id="Path_2317" data-name="Path 2317" d="M307.456,138.773c9.678,37.285,33.213,63.38,52.618,58.343" transform="translate(-126.548 -86.922)" fill="#1598e5"/>
  <path id="Path_2318" data-name="Path 2318" d="M387.278,168.154c-13.165-50.719,7.944-100,47.2-110.194" transform="translate(-153.751 -57.96)" fill="#001e6e"/>
  <path id="Path_2319" data-name="Path 2319" d="M371.616,229.828s7.745-2.267,9.664-4.554,11.056-6.794,12.337-4.258,15.2,10.32,6.406,12.679-20.839,3.944-23.559,3.123S371.616,229.828,371.616,229.828Z" transform="translate(-149.542 -116.127)" fill="#a8a8a8"/>
  <path id="Path_2320" data-name="Path 2320" d="M399.938,238.017c-8.8,2.359-20.839,3.944-23.559,3.123-2.071-.625-3.8-4.35-4.505-6.091l-.258.078s2.129,6.169,4.849,6.99,14.762-.763,23.559-3.123c2.539-.681,3.183-1.815,2.787-3.143C402.667,236.753,401.828,237.51,399.938,238.017Z" transform="translate(-149.542 -121.426)" opacity="0.2"/>
  <rect id="Rectangle_2173" data-name="Rectangle 2173" width="517.144" height="299.636" transform="translate(220.075 80.895)" fill="#f2f2f2"/>
  <rect id="Rectangle_2174" data-name="Rectangle 2174" width="283.595" height="148.535" transform="translate(232.266 171.844)" fill="#003cdb" opacity="0.3"/>
  <rect id="Rectangle_2175" data-name="Rectangle 2175" width="113.746" height="6.292" transform="translate(537.676 165.369)" fill="#001e6e"/>
  <rect id="Rectangle_2176" data-name="Rectangle 2176" width="165.537" height="6.292" transform="translate(537.676 176.985)" fill="#001e6e"/>
  <rect id="Rectangle_2177" data-name="Rectangle 2177" width="113.746" height="6.292" transform="translate(537.676 205.059)" fill="#001e6e"/>
  <rect id="Rectangle_2178" data-name="Rectangle 2178" width="113.746" height="6.292" transform="translate(537.676 251.526)" fill="#001e6e"/>
  <rect id="Rectangle_2179" data-name="Rectangle 2179" width="165.537" height="6.292" transform="translate(537.676 216.676)" fill="#001e6e"/>
  <rect id="Rectangle_2180" data-name="Rectangle 2180" width="165.537" height="6.292" transform="translate(537.676 228.292)" fill="#001e6e"/>
  <rect id="Rectangle_2181" data-name="Rectangle 2181" width="165.537" height="6.292" transform="translate(537.676 239.909)" fill="#001e6e"/>
  <rect id="Rectangle_2182" data-name="Rectangle 2182" width="59.535" height="16.457" transform="translate(537.676 279.599)" fill="#003cdb"/>
  <path id="Path_2321" data-name="Path 2321" d="M339.988,453.236s10.687-30.281,18.406-20.781-11.875,25.531-11.875,25.531Z" transform="translate(-138.207 -191.511)" fill="#a0616a"/>
  <path id="Path_2322" data-name="Path 2322" d="M249.391,419.6l6.429,2.383s3.071,13.648,1.883,16.023-1.781.594,0,5.344,7.125,17.219,7.719,19,34.437-11.281,34.437-17.812c0,0,7.125,8.312,10.687,10.094,0,0-39.187,28.5-44.531,32.062s-8.312,1.781-13.062-2.375-24.937-38.593-24.937-38.593Z" transform="translate(-98.078 -187.567)" fill="#575a89"/>
  <path id="Path_2323" data-name="Path 2323" d="M284.511,745.987s-.594,6.531-1.781,7.125-10.094,15.437,0,18.406,16.031,1.781,18.406,2.969,43.937,3.562,44.531-2.969S325.48,763.8,325.48,763.8s-19-12.469-21.968-19S284.511,745.987,284.511,745.987Z" transform="translate(-115.98 -303.171)" fill="#030e29"/>
  <path id="Path_2324" data-name="Path 2324" d="M94.025,766.623s-14.25,24.344-10.687,27.312,38.257,13.787,43.343,14.25c6.531.594,11.281-4.75,5.937-7.719s-16.625-15.437-16.625-19.594V770.186Z" transform="translate(-46.023 -311.932)" fill="#030e29"/>
  <path id="Path_2325" data-name="Path 2325" d="M76.846,518.621S64.377,534.058,83.97,559l32.656,41.562s-20.187,32.062-20.781,48.687-4.75,13.062-5.937,20.187-6.531,3.563-2.375,8.906,19.593,10.094,24.343,5.937,4.75-9.5,4.75-11.875,8.312-16.031,8.906-20.187,22.562-38,22.562-38,7.125-20.187-1.187-31.468S133.1,555.464,133.1,555.464s24.493,29.656,41.711,36.781c0,0,6.531,1.188,5.344,4.156s0,4.75,1.781,7.719,14.25,37.406,18.406,46.312,2.375,14.25,7.125,17.219,26.125.594,26.125-2.375-2.969-10.687-4.75-14.844S212.813,598.182,214,589.87s-.594-19.594-9.5-24.343-54.031-43.343-56.406-43.343S76.846,518.621,76.846,518.621Z" transform="translate(-42.5 -223.053)" fill="#001e6e"/>
  <circle id="Ellipse_84" data-name="Ellipse 84" cx="24.937" cy="24.937" r="24.937" transform="translate(128.751 152.476)" fill="#a0616a"/>
  <path id="Path_2326" data-name="Path 2326" d="M223.025,338.171s-7.719,13.656-17.219,15.437S230.744,382.7,230.744,382.7s8.312-26.125,15.437-27.312S223.025,338.171,223.025,338.171Z" transform="translate(-89.525 -158.383)" fill="#a0616a"/>
  <path id="Path_2327" data-name="Path 2327" d="M201.465,400.795c0,7.719-23.156,29.687-23.156,29.687L156.34,448.888s-.594,6.531-2.969,7.125-5.344.594-2.969,4.156,8.312,11.281,2.969,12.469a43.639,43.639,0,0,1-4.863.463c-1.425.083-3.1.16-4.982.232-4.394.154-9.892.255-15.847.214q-2.538-.009-5.166-.059c-22.449-.445-48.455-3.028-46.33-11.536,3.562-14.25,1.187-19,8.906-26.718s20.187-34.437,20.187-34.437S130.216,358.639,151,358.639l4.317-1.134a9.885,9.885,0,0,1,10.788,4.144c4.168,6.347,10.741,15.883,14.582,18.958,5.937,4.75,6.864,1.342,6.864,1.342S201.465,393.076,201.465,400.795Z" transform="translate(-43.621 -165.195)" fill="#575a89"/>
  <path id="Path_2328" data-name="Path 2328" d="M183.512,565.815s17.219,26.718,6.531,31.468-16.625-27.906-16.625-27.906Z" transform="translate(-78.511 -239.967)" fill="#a0616a"/>
  <path id="Path_2329" data-name="Path 2329" d="M231.091,312.918c.957-.121,1.26-1.328,1.421-2.279.863-5.093,4.658-9.923,9.758-10.745a13.817,13.817,0,0,1,5.814.469,22.06,22.06,0,0,1,7.46,3.672,12.3,12.3,0,0,0,3.728,2.341c.936.275,4.909,2.041,5.837,2.34,2.041.657,3.73,2.793,5.832,2.37,2.011-.4,2.775-2.833,3.1-4.859.736-4.615-1.905-11.5-4.532-15.367-1.993-2.933-5.366-4.622-8.738-5.72a62.779,62.779,0,0,0-12.119-2.408c-5.547-.655-11.292-1-16.607.712s-10.156,5.909-11.148,11.405c-.207,1.145-.245,2.318-.5,3.453-.618,2.77-2.451,5.1-3.52,7.728a14.881,14.881,0,0,0,.454,12.064c1.481,2.977,4.055,5.839,3.5,9.117l4.582-3.613a3.328,3.328,0,0,0,1.529-3.895l-.666-5.737a5.048,5.048,0,0,1,.3-3.1C228.61,307.306,229.5,313.12,231.091,312.918Z" transform="translate(-93.706 -138.322)" fill="#2f2e41"/>
  <path id="Path_2330" data-name="Path 2330" d="M159.962,455.2l5.593,23.257c-5.641.2-13.1.309-21.012.154-2-5.985-3.9-12.225-5.361-18.068-5.344-21.375,3.562-54.031,8.312-69.468s16.625-19.594,16.625-19.594a54.146,54.146,0,0,1,13.656,7.125C185.493,383.953,159.962,455.2,159.962,455.2Z" transform="translate(-65.649 -170.322)" opacity="0.1"/>
  <path id="Path_2331" data-name="Path 2331" d="M167.365,460.667l5.825,24.213c-1.425.083-3.1.16-4.982.232-4.394.154-9.892.255-15.847.214-2.143-6.359-4.216-13.068-5.777-19.314-5.344-21.375,3.562-54.031,8.312-69.468s15.14,1.484,15.14,1.484-4.156-10.094,3.562-4.75S167.365,460.667,167.365,460.667Z" transform="translate(-68.302 -176.974)" opacity="0.1"/>
  <path id="Path_2332" data-name="Path 2332" d="M167.82,369.634s-11.875,4.156-16.625,19.593-13.656,48.093-8.312,69.468,16.625,48.093,16.625,48.093,11.281-8.312,15.437-6.531l-11.281-46.906s25.531-71.249,17.812-76.593A54.147,54.147,0,0,0,167.82,369.634Z" transform="translate(-66.975 -169.659)" fill="#575a89"/>
  <rect id="Rectangle_2183" data-name="Rectangle 2183" width="283.595" height="148.535" transform="translate(220.075 156.445)" fill="#001e6e"/>
  <ellipse id="Ellipse_85" data-name="Ellipse 85" cx="32.092" cy="32.15" rx="32.092" ry="32.15" transform="translate(335.057 201.47)" fill="#fff"/>
  <path id="Path_2333" data-name="Path 2333" d="M576.3,363.423a38.354,38.354,0,1,0,38.354,38.354A38.354,38.354,0,0,0,576.3,363.423Zm-7.874,58.8L548.77,402.57l5.513-5.513,14.161,14.161,29.89-29.89,5.513,5.513-35.422,35.385Z" transform="translate(-209.152 -167.433)" fill="#003cdb"/>
</svg>
