<svg xmlns="http://www.w3.org/2000/svg" width="329.13" height="141.04" viewBox="0 0 329.13 141.04"><defs><style>.a{fill:none;stroke:#1598e5;stroke-miterlimit:10;}.b,.c{fill:#1598e5;}.c{font-size:61px;font-family:Rubik-Regular, Rubik;letter-spacing:0em;}.d{fill:#2e394e;font-size:21px;font-family:SegoeUI, Segoe UI;opacity:0.863;}</style></defs><g transform="translate(-75.757 -3915.031)"><g transform="translate(76.051 3915.311)"><g transform="translate(0 0)"><line class="a" x1="35.266" transform="translate(28.494 10.868)"/><line class="a" x1="35.266" transform="translate(28.494 46.135)"/><line class="a" y1="35.266" transform="translate(28.494 10.868)"/><line class="a" y1="35.266" transform="translate(63.76 10.868)"/><line class="a" x1="35.266" transform="translate(10.868 28.509)"/><line class="a" x1="35.266" transform="translate(10.868 63.76)"/><line class="a" y1="35.266" transform="translate(10.868 28.494)"/><line class="a" y1="35.266" transform="translate(46.135 28.494)"/><line class="a" x1="17.626" y2="17.626" transform="translate(10.824 10.824)"/><line class="a" x1="17.626" y2="17.626" transform="translate(46.179 10.824)"/><line class="a" x1="17.626" y2="17.626" transform="translate(46.179 46.179)"/><line class="a" x1="17.626" y2="17.626" transform="translate(10.824 46.179)"/><line class="a" x1="24.93" y1="24.93" transform="translate(49.92 12.391)"/><line class="a" x1="24.93" y1="24.93" transform="translate(24.99 37.322)"/><line class="a" y1="24.93" x2="24.93" transform="translate(24.99 12.391)"/><line class="a" y1="24.93" x2="24.93" transform="translate(49.92 37.322)"/><line class="a" x1="24.93" y1="24.93" transform="translate(24.99 12.391)"/><line class="a" x1="24.945" y1="24.93" transform="translate(0.059 37.322)"/><line class="a" y1="24.93" x2="24.945" transform="translate(0.059 12.391)"/><line class="a" y1="24.93" x2="24.93" transform="translate(24.99 37.322)"/><line class="a" x1="24.93" transform="translate(24.99 12.317)"/><line class="a" x1="24.93" transform="translate(49.994 37.322)"/><line class="a" x1="24.93" transform="translate(24.99 62.311)"/><line class="a" x1="24.93" transform="translate(0 37.322)"/><line class="a" y1="35.252" transform="translate(63.908 28.361)"/><line class="a" y1="35.252" transform="translate(28.642 28.361)"/><line class="a" x2="35.266" transform="translate(28.642 28.361)"/><line class="a" x2="35.266" transform="translate(28.642 63.613)"/><line class="a" y1="35.266" transform="translate(46.268 10.72)"/><line class="a" y1="35.266" transform="translate(11.016 10.72)"/><line class="a" x2="35.266" transform="translate(11.016 10.735)"/><line class="a" x2="35.266" transform="translate(11.016 45.987)"/><line class="a" x1="17.626" y1="17.626" transform="translate(46.327 10.676)"/><line class="a" x1="17.626" y1="17.626" transform="translate(46.327 46.031)"/><line class="a" x1="17.626" y1="17.626" transform="translate(10.972 46.031)"/><line class="a" x1="17.626" y1="17.626" transform="translate(10.972 10.676)"/><line class="a" y1="24.93" x2="24.93" transform="translate(37.455 49.92)"/><line class="a" y1="24.945" x2="24.945" transform="translate(12.524 24.99)"/><line class="a" x2="24.93" y2="24.945" transform="translate(37.455 24.99)"/><line class="a" x2="24.945" y2="24.93" transform="translate(12.524 49.92)"/><line class="a" y1="24.945" x2="24.93" transform="translate(37.455 24.99)"/><line class="a" y1="24.93" x2="24.945" transform="translate(12.524 0.074)"/><line class="a" x2="24.93" y2="24.93" transform="translate(37.455 0.074)"/><line class="a" x2="24.945" y2="24.945" transform="translate(12.524 24.99)"/><line class="a" y1="24.916" transform="translate(62.459 25.004)"/><line class="a" y1="24.93" transform="translate(37.455 49.994)"/><line class="a" y1="24.916" transform="translate(12.465 25.004)"/><line class="a" y1="24.93" transform="translate(37.455)"/><ellipse class="b" cx="6.018" cy="6.018" rx="6.018" ry="6.018" transform="translate(31.437 31.451)"/></g><text class="c" transform="translate(210.836 57.295)"><tspan x="-117.998" y="0">KubiRub</tspan></text></g><text class="d" transform="translate(240.163 4023.07)"><tspan x="-151.173" y="0">Mobile Game &amp; New advertising</tspan><tspan x="-39.457" y="28">Platform</tspan></text></g></svg>