<svg xmlns="http://www.w3.org/2000/svg" xmlns:xlink="http://www.w3.org/1999/xlink" width="467.342" height="742.5" viewBox="0 0 467.342 742.5">
  <defs>
    <linearGradient id="linear-gradient" x1="0.5" x2="0.5" y2="1" gradientUnits="objectBoundingBox">
      <stop offset="0" stop-color="#1a1a1a"/>
      <stop offset="1" stop-color="#0a0a0a"/>
    </linearGradient>
    <filter id="Case" x="0" y="0" width="467.342" height="742.5" filterUnits="userSpaceOnUse">
      <feOffset input="SourceAlpha"/>
      <feGaussianBlur stdDeviation="33.5" result="blur"/>
      <feFlood flood-opacity="0.235"/>
      <feComposite operator="in" in2="blur"/>
      <feComposite in="SourceGraphic"/>
    </filter>
    <linearGradient id="linear-gradient-2" x1="0.5" x2="0.5" y2="1" gradientUnits="objectBoundingBox">
      <stop offset="0" stop-color="#141414"/>
      <stop offset="1" stop-color="#1c1c1c"/>
    </linearGradient>
    <linearGradient id="linear-gradient-3" x1="0.5" x2="0.5" y2="1" gradientUnits="objectBoundingBox">
      <stop offset="0" stop-color="#191919"/>
      <stop offset="1" stop-color="#0d0d0d"/>
    </linearGradient>
    <linearGradient id="linear-gradient-4" x1="1" y1="0.377" x2="0" y2="0.377" gradientUnits="objectBoundingBox">
      <stop offset="0" stop-opacity="0"/>
      <stop offset="0.322" stop-opacity="0"/>
      <stop offset="1"/>
    </linearGradient>
    <linearGradient id="linear-gradient-11" x1="0.5" x2="0.5" y2="1" gradientUnits="objectBoundingBox">
      <stop offset="0" stop-color="#1c1c1c"/>
      <stop offset="1" stop-color="#0d0d0d"/>
    </linearGradient>
    <linearGradient id="linear-gradient-12" x1="0.5" x2="0.5" y2="1" gradientUnits="objectBoundingBox">
      <stop offset="0" stop-color="#0d0d0d"/>
      <stop offset="1" stop-color="#313131"/>
    </linearGradient>
    <linearGradient id="linear-gradient-13" x1="0.5" x2="0.5" y2="1" gradientUnits="objectBoundingBox">
      <stop offset="0" stop-color="#292929"/>
      <stop offset="1" stop-color="#1a1a1a"/>
    </linearGradient>
    <filter id="Rectangle_1477" x="118.389" y="485.928" width="88.295" height="44.714" filterUnits="userSpaceOnUse">
      <feOffset dx="2" input="SourceAlpha"/>
      <feGaussianBlur stdDeviation="2.5" result="blur-2"/>
      <feFlood flood-opacity="0.224"/>
      <feComposite operator="in" in2="blur-2"/>
      <feComposite in="SourceGraphic"/>
    </filter>
    <filter id="Ellipse_11" x="137.396" y="498.351" width="19.206" height="19.206" filterUnits="userSpaceOnUse">
      <feOffset input="SourceAlpha"/>
      <feGaussianBlur stdDeviation="1" result="blur-3"/>
      <feFlood flood-color="#b2a507"/>
      <feComposite operator="in" in2="blur-3"/>
      <feComposite in="SourceGraphic"/>
    </filter>
    <filter id="Ellipse_12" x="195.447" y="492.351" width="31.207" height="31.206" filterUnits="userSpaceOnUse">
      <feOffset input="SourceAlpha"/>
      <feGaussianBlur stdDeviation="3" result="blur-4"/>
      <feFlood flood-color="#003362"/>
      <feComposite operator="in" in2="blur-4"/>
      <feComposite in="SourceGraphic"/>
    </filter>
    <filter id="Path_1599" x="266.762" y="492.351" width="31.207" height="31.206" filterUnits="userSpaceOnUse">
      <feOffset input="SourceAlpha"/>
      <feGaussianBlur stdDeviation="3" result="blur-5"/>
      <feFlood flood-color="#003362"/>
      <feComposite operator="in" in2="blur-5"/>
      <feComposite in="SourceGraphic"/>
    </filter>
    <filter id="Ellipse_38" x="291.595" y="136.787" width="54.809" height="54.809" filterUnits="userSpaceOnUse">
      <feOffset dy="3" input="SourceAlpha"/>
      <feGaussianBlur stdDeviation="3" result="blur-6"/>
      <feFlood flood-opacity="0.161"/>
      <feComposite operator="in" in2="blur-6"/>
      <feComposite in="SourceGraphic"/>
    </filter>
    <filter id="Ellipse_12-2" x="107.029" y="132.287" width="58.386" height="58.386" filterUnits="userSpaceOnUse">
      <feOffset dy="6" input="SourceAlpha"/>
      <feGaussianBlur stdDeviation="5.5" result="blur-7"/>
      <feFlood flood-color="#003cdb" flood-opacity="0.451"/>
      <feComposite operator="in" in2="blur-7"/>
      <feComposite in="SourceGraphic"/>
    </filter>
    <filter id="Rectangle_650" x="131.279" y="509.435" width="207.287" height="87.631" filterUnits="userSpaceOnUse">
      <feOffset dy="3" input="SourceAlpha"/>
      <feGaussianBlur stdDeviation="10" result="blur-8"/>
      <feFlood flood-opacity="0.255"/>
      <feComposite operator="in" in2="blur-8"/>
      <feComposite in="SourceGraphic"/>
    </filter>
    <filter id="Delete" x="217.155" y="542.655" width="22" height="12" filterUnits="userSpaceOnUse">
      <feOffset dy="1" input="SourceAlpha"/>
      <feGaussianBlur stdDeviation="1" result="blur-9"/>
      <feFlood flood-opacity="0.161"/>
      <feComposite operator="in" in2="blur-9"/>
      <feComposite in="SourceGraphic"/>
    </filter>
    <filter id="Path_1597" x="115.078" y="179.337" width="239.671" height="351.303" filterUnits="userSpaceOnUse">
      <feOffset dy="3" input="SourceAlpha"/>
      <feGaussianBlur stdDeviation="10" result="blur-10"/>
      <feFlood flood-opacity="0.314"/>
      <feComposite operator="in" in2="blur-10"/>
      <feComposite in="SourceGraphic"/>
    </filter>
    <filter id="Line_76" x="152.762" y="229.692" width="165.079" height="10" filterUnits="userSpaceOnUse">
      <feOffset dy="3" input="SourceAlpha"/>
      <feGaussianBlur stdDeviation="1.5" result="blur-11"/>
      <feFlood flood-opacity="0.455"/>
      <feComposite operator="in" in2="blur-11"/>
      <feComposite in="SourceGraphic"/>
    </filter>
    <clipPath id="clip-path">
      <rect id="Rectangle_1611" data-name="Rectangle 1611" width="28.318" height="329.94" transform="translate(0)" fill="none"/>
    </clipPath>
    <clipPath id="clip-path-2">
      <rect id="Rectangle_1612" data-name="Rectangle 1612" width="21.733" height="314.134" fill="none"/>
    </clipPath>
    <filter id="Ellipse_38-2" x="292.342" y="135.218" width="54.669" height="54.669" filterUnits="userSpaceOnUse">
      <feOffset dy="3" input="SourceAlpha"/>
      <feGaussianBlur stdDeviation="3" result="blur-12"/>
      <feFlood flood-opacity="0.161"/>
      <feComposite operator="in" in2="blur-12"/>
      <feComposite in="SourceGraphic"/>
    </filter>
    <filter id="Ellipse_12-3" x="108.453" y="130.718" width="58.289" height="58.289" filterUnits="userSpaceOnUse">
      <feOffset dy="6" input="SourceAlpha"/>
      <feGaussianBlur stdDeviation="5.5" result="blur-13"/>
      <feFlood flood-color="#003cdb" flood-opacity="0.451"/>
      <feComposite operator="in" in2="blur-13"/>
      <feComposite in="SourceGraphic"/>
    </filter>
    <filter id="Ellipse_40" x="209.137" y="488.141" width="51.645" height="51.644" filterUnits="userSpaceOnUse">
      <feOffset dy="1" input="SourceAlpha"/>
      <feGaussianBlur stdDeviation="6.5" result="blur-14"/>
      <feFlood flood-opacity="0.322"/>
      <feComposite operator="in" in2="blur-14"/>
      <feComposite in="SourceGraphic"/>
    </filter>
  </defs>
  <g id="Group_2865" data-name="Group 2865" transform="translate(-917.087 -1200.5)">
    <g id="Group_2829" data-name="Group 2829" transform="translate(1015.698 1301)">
      <g id="iPhone_X_-_Dark" data-name="iPhone X - Dark" transform="translate(0 0)">
        <g transform="matrix(1, 0, 0, 1, -98.61, -100.5)" filter="url(#Case)">
          <path id="Case-2" data-name="Case" d="M35.89,0H230.452a35.89,35.89,0,0,1,35.89,35.89V505.61a35.89,35.89,0,0,1-35.89,35.89H35.89A35.89,35.89,0,0,1,0,505.61V35.89A35.89,35.89,0,0,1,35.89,0Z" transform="translate(100.5 100.5)" fill="url(#linear-gradient)"/>
        </g>
        <path id="Bezel" d="M29.594,0H226.674a29.594,29.594,0,0,1,29.594,29.594V501.832a29.594,29.594,0,0,1-29.594,29.594H29.594A29.594,29.594,0,0,1,0,501.832V29.594A29.594,29.594,0,0,1,29.594,0Z" transform="translate(6.926 5.037)" fill="url(#linear-gradient-2)"/>
        <g id="Button" transform="translate(267.602 125.93)">
          <path id="Rectangle_21" data-name="Rectangle 21" d="M0,0H1.148a2,2,0,0,1,2,2V58.447a2,2,0,0,1-2,2H0a0,0,0,0,1,0,0V0A0,0,0,0,1,0,0Z" transform="translate(0)" fill="url(#linear-gradient-3)"/>
          <path id="Rectangle_101" data-name="Rectangle 101" d="M0,0H1.148a2,2,0,0,1,2,2V58.447a2,2,0,0,1-2,2H0a0,0,0,0,1,0,0V0A0,0,0,0,1,0,0Z" transform="translate(0)" fill="url(#linear-gradient-4)"/>
        </g>
        <g id="Button-2" data-name="Button" transform="translate(0 73.669)">
          <path id="Path_76" data-name="Path 76" d="M.63,0H3.148V20.149H.63A.612.612,0,0,1,0,19.556V.593A.612.612,0,0,1,.63,0Z" fill="url(#linear-gradient-3)"/>
          <g id="Group_40" data-name="Group 40">
            <path id="Rectangle_149" data-name="Rectangle 149" d="M0,0H2.148a1,1,0,0,1,1,1V19.149a1,1,0,0,1-1,1H0a0,0,0,0,1,0,0V0A0,0,0,0,1,0,0Z" transform="translate(3.148 20.149) rotate(180)" fill="url(#linear-gradient-4)"/>
          </g>
        </g>
        <g id="Button-3" data-name="Button" transform="translate(0 113.337)">
          <path id="Path_81" data-name="Path 81" d="M.63,0H3.148V37.779H.63a.611.611,0,0,1-.63-.59V.59A.611.611,0,0,1,.63,0Z" transform="translate(0 0)" fill="url(#linear-gradient-3)"/>
          <g id="Group_42" data-name="Group 42" transform="translate(0 0)">
            <g id="Group_40-2" data-name="Group 40">
              <path id="Rectangle_149-2" data-name="Rectangle 149" d="M0,0H2.148a1,1,0,0,1,1,1V36.779a1,1,0,0,1-1,1H0a0,0,0,0,1,0,0V0A0,0,0,0,1,0,0Z" transform="translate(3.148 37.779) rotate(180)" fill="url(#linear-gradient-4)"/>
            </g>
          </g>
        </g>
        <g id="Button-4" data-name="Button" transform="translate(0 162.45)">
          <path id="Path_84" data-name="Path 84" d="M.63,0H3.148V37.779H.63a.611.611,0,0,1-.63-.59V.59A.611.611,0,0,1,.63,0Z" fill="url(#linear-gradient-3)"/>
          <g id="Group_45" data-name="Group 45" transform="translate(0 0)">
            <g id="Group_40-3" data-name="Group 40">
              <path id="Rectangle_149-3" data-name="Rectangle 149" d="M0,0H2.148a1,1,0,0,1,1,1V36.779a1,1,0,0,1-1,1H0a0,0,0,0,1,0,0V0A0,0,0,0,1,0,0Z" transform="translate(3.148 37.779) rotate(180)" fill="url(#linear-gradient-4)"/>
            </g>
          </g>
        </g>
        <path id="Glass" d="M27.982,0H225.767a27.91,27.91,0,0,1,27.982,27.837V501.07a27.91,27.91,0,0,1-27.982,27.837H27.982A27.91,27.91,0,0,1,0,501.07V27.837A27.91,27.91,0,0,1,27.982,0Z" transform="translate(8.185 6.297)" fill="url(#linear-gradient-11)"/>
        <path id="Path_85" data-name="Path 85" d="M0-1.728H146.709V5.2A15.112,15.112,0,0,1,131.6,20.31H15.112A15.112,15.112,0,0,1,0,5.2Z" transform="translate(62.335 12.432)" fill="#1b1b1b"/>
        <g id="Camera" transform="translate(162.45 15.741)">
          <ellipse id="Ellipse_7" data-name="Ellipse 7" cx="4.722" cy="4.722" rx="4.722" ry="4.722" transform="translate(0)" fill="url(#linear-gradient-12)"/>
          <circle id="Ellipse_8" data-name="Ellipse 8" cx="4.093" cy="4.093" r="4.093" transform="translate(0.63 0.63)" fill="url(#linear-gradient-13)"/>
          <ellipse id="Ellipse_10" data-name="Ellipse 10" cx="2.833" cy="2.833" rx="2.833" ry="2.833" transform="translate(1.889 1.889)" fill="#2d2d2d"/>
          <ellipse id="Ellipse_9" data-name="Ellipse 9" cx="0.944" cy="0.63" rx="0.944" ry="0.63" transform="translate(3.778 1.889)" fill="#5d5d5d"/>
        </g>
        <path id="Ear_Peice" data-name="Ear Peice" d="M2.7.5H37.335a2.2,2.2,0,1,1,0,4.408H2.7A2.2,2.2,0,1,1,2.7.5Z" transform="translate(115.041 18.075)" fill="#111" stroke="#262626" stroke-width="1"/>
        <path id="Home" d="M1.574,0H80.281a1.574,1.574,0,0,1,0,3.148H1.574A1.574,1.574,0,0,1,1.574,0Z" transform="translate(94.448 515.684)" fill="#363636"/>
      </g>
      <path id="Path_1600" data-name="Path 1600" d="M0-1.728H146.709V5.2A15.112,15.112,0,0,1,131.6,20.31H15.112A15.112,15.112,0,0,1,0,5.2Z" transform="translate(62.336 12.432)" fill="#1b1b1b"/>
      <g id="design" transform="translate(16.033 13.47)">
        <rect id="Rectangle_1476" data-name="Rectangle 1476" width="238.764" height="513.524" rx="17" fill="#00498d"/>
        <g id="Group_2824" data-name="Group 2824" transform="translate(74.334 193.194)">
          <g id="logo_kub" data-name="logo kub" transform="translate(1.458 0)">
            <line id="Line_6" data-name="Line 6" x1="42.091" transform="translate(34.008 12.971)" fill="none" stroke="#fff" stroke-miterlimit="10" stroke-width="0.5"/>
            <line id="Line_7" data-name="Line 7" x1="42.091" transform="translate(34.008 55.062)" fill="none" stroke="#fff" stroke-miterlimit="10" stroke-width="0.5"/>
            <line id="Line_8" data-name="Line 8" y1="42.091" transform="translate(34.008 12.971)" fill="none" stroke="#fff" stroke-miterlimit="10" stroke-width="0.5"/>
            <line id="Line_9" data-name="Line 9" y1="42.091" transform="translate(76.099 12.971)" fill="none" stroke="#fff" stroke-miterlimit="10" stroke-width="0.5"/>
            <line id="Line_10" data-name="Line 10" x1="42.091" transform="translate(12.971 34.026)" fill="none" stroke="#fff" stroke-miterlimit="10" stroke-width="0.5"/>
            <line id="Line_11" data-name="Line 11" x1="42.091" transform="translate(12.971 76.099)" fill="none" stroke="#fff" stroke-miterlimit="10" stroke-width="0.5"/>
            <line id="Line_12" data-name="Line 12" y1="42.091" transform="translate(12.971 34.008)" fill="none" stroke="#fff" stroke-miterlimit="10" stroke-width="0.5"/>
            <line id="Line_13" data-name="Line 13" y1="42.091" transform="translate(55.062 34.008)" fill="none" stroke="#fff" stroke-miterlimit="10" stroke-width="0.5"/>
            <line id="Line_14" data-name="Line 14" x1="21.037" y2="21.037" transform="translate(12.918 12.918)" fill="none" stroke="#fff" stroke-miterlimit="10" stroke-width="0.5"/>
            <line id="Line_15" data-name="Line 15" x1="21.037" y2="21.037" transform="translate(55.115 12.918)" fill="none" stroke="#fff" stroke-miterlimit="10" stroke-width="0.5"/>
            <line id="Line_16" data-name="Line 16" x1="21.037" y2="21.037" transform="translate(55.115 55.115)" fill="none" stroke="#fff" stroke-miterlimit="10" stroke-width="0.5"/>
            <line id="Line_17" data-name="Line 17" x1="21.037" y2="21.037" transform="translate(12.918 55.115)" fill="none" stroke="#fff" stroke-miterlimit="10" stroke-width="0.5"/>
            <line id="Line_18" data-name="Line 18" x1="29.755" y1="29.755" transform="translate(59.58 14.789)" fill="none" stroke="#fff" stroke-miterlimit="10" stroke-width="0.5"/>
            <line id="Line_19" data-name="Line 19" x1="29.755" y1="29.755" transform="translate(29.825 44.544)" fill="none" stroke="#fff" stroke-miterlimit="10" stroke-width="0.5"/>
            <line id="Line_20" data-name="Line 20" y1="29.755" x2="29.755" transform="translate(29.825 14.789)" fill="none" stroke="#fff" stroke-miterlimit="10" stroke-width="0.5"/>
            <line id="Line_21" data-name="Line 21" y1="29.755" x2="29.755" transform="translate(59.58 44.544)" fill="none" stroke="#fff" stroke-miterlimit="10" stroke-width="0.5"/>
            <line id="Line_22" data-name="Line 22" x1="29.755" y1="29.755" transform="translate(29.825 14.789)" fill="none" stroke="#fff" stroke-miterlimit="10" stroke-width="0.5"/>
            <line id="Line_23" data-name="Line 23" x1="29.773" y1="29.755" transform="translate(0.071 44.544)" fill="none" stroke="#fff" stroke-miterlimit="10" stroke-width="0.5"/>
            <line id="Line_24" data-name="Line 24" y1="29.755" x2="29.773" transform="translate(0.071 14.789)" fill="none" stroke="#fff" stroke-miterlimit="10" stroke-width="0.5"/>
            <line id="Line_25" data-name="Line 25" y1="29.755" x2="29.755" transform="translate(29.825 44.544)" fill="none" stroke="#fff" stroke-miterlimit="10" stroke-width="0.5"/>
            <line id="Line_26" data-name="Line 26" x1="29.755" transform="translate(29.825 14.701)" fill="none" stroke="#fff" stroke-miterlimit="10" stroke-width="0.5"/>
            <line id="Line_27" data-name="Line 27" x1="29.755" transform="translate(59.669 44.544)" fill="none" stroke="#fff" stroke-miterlimit="10" stroke-width="0.5"/>
            <line id="Line_28" data-name="Line 28" x1="29.755" transform="translate(29.825 74.37)" fill="none" stroke="#fff" stroke-miterlimit="10" stroke-width="0.5"/>
            <line id="Line_29" data-name="Line 29" x1="29.755" transform="translate(0 44.544)" fill="none" stroke="#fff" stroke-miterlimit="10" stroke-width="0.5"/>
            <line id="Line_30" data-name="Line 30" y1="42.073" transform="translate(76.276 33.849)" fill="none" stroke="#fff" stroke-miterlimit="10" stroke-width="0.5"/>
            <line id="Line_31" data-name="Line 31" y1="42.073" transform="translate(34.185 33.849)" fill="none" stroke="#fff" stroke-miterlimit="10" stroke-width="0.5"/>
            <line id="Line_32" data-name="Line 32" x2="42.091" transform="translate(34.185 33.849)" fill="none" stroke="#fff" stroke-miterlimit="10" stroke-width="0.5"/>
            <line id="Line_33" data-name="Line 33" x2="42.091" transform="translate(34.185 75.923)" fill="none" stroke="#fff" stroke-miterlimit="10" stroke-width="0.5"/>
            <line id="Line_34" data-name="Line 34" y1="42.091" transform="translate(55.221 12.795)" fill="none" stroke="#fff" stroke-miterlimit="10" stroke-width="0.5"/>
            <line id="Line_35" data-name="Line 35" y1="42.091" transform="translate(13.148 12.795)" fill="none" stroke="#fff" stroke-miterlimit="10" stroke-width="0.5"/>
            <line id="Line_36" data-name="Line 36" x2="42.091" transform="translate(13.148 12.813)" fill="none" stroke="#fff" stroke-miterlimit="10" stroke-width="0.5"/>
            <line id="Line_37" data-name="Line 37" x2="42.091" transform="translate(13.148 54.886)" fill="none" stroke="#fff" stroke-miterlimit="10" stroke-width="0.5"/>
            <line id="Line_38" data-name="Line 38" x1="21.037" y1="21.037" transform="translate(55.292 12.742)" fill="none" stroke="#fff" stroke-miterlimit="10" stroke-width="0.5"/>
            <line id="Line_39" data-name="Line 39" x1="21.037" y1="21.037" transform="translate(55.292 54.939)" fill="none" stroke="#fff" stroke-miterlimit="10" stroke-width="0.5"/>
            <line id="Line_40" data-name="Line 40" x1="21.037" y1="21.037" transform="translate(13.095 54.939)" fill="none" stroke="#fff" stroke-miterlimit="10" stroke-width="0.5"/>
            <line id="Line_41" data-name="Line 41" x1="21.037" y1="21.037" transform="translate(13.095 12.742)" fill="none" stroke="#fff" stroke-miterlimit="10" stroke-width="0.5"/>
            <line id="Line_42" data-name="Line 42" y1="29.755" x2="29.755" transform="translate(44.703 59.58)" fill="none" stroke="#fff" stroke-miterlimit="10" stroke-width="0.5"/>
            <line id="Line_43" data-name="Line 43" y1="29.773" x2="29.773" transform="translate(14.948 29.825)" fill="none" stroke="#fff" stroke-miterlimit="10" stroke-width="0.5"/>
            <line id="Line_44" data-name="Line 44" x2="29.755" y2="29.773" transform="translate(44.703 29.825)" fill="none" stroke="#fff" stroke-miterlimit="10" stroke-width="0.5"/>
            <line id="Line_45" data-name="Line 45" x2="29.773" y2="29.755" transform="translate(14.948 59.58)" fill="none" stroke="#fff" stroke-miterlimit="10" stroke-width="0.5"/>
            <line id="Line_46" data-name="Line 46" y1="29.773" x2="29.755" transform="translate(44.703 29.825)" fill="none" stroke="#fff" stroke-miterlimit="10" stroke-width="0.5"/>
            <line id="Line_47" data-name="Line 47" y1="29.755" x2="29.773" transform="translate(14.948 0.088)" fill="none" stroke="#fff" stroke-miterlimit="10" stroke-width="0.5"/>
            <line id="Line_48" data-name="Line 48" x2="29.755" y2="29.755" transform="translate(44.703 0.088)" fill="none" stroke="#fff" stroke-miterlimit="10" stroke-width="0.5"/>
            <line id="Line_49" data-name="Line 49" x2="29.773" y2="29.773" transform="translate(14.948 29.825)" fill="none" stroke="#fff" stroke-miterlimit="10" stroke-width="0.5"/>
            <line id="Line_50" data-name="Line 50" y1="29.737" transform="translate(74.546 29.843)" fill="none" stroke="#fff" stroke-miterlimit="10" stroke-width="0.5"/>
            <line id="Line_51" data-name="Line 51" y1="29.755" transform="translate(44.703 59.669)" fill="none" stroke="#fff" stroke-miterlimit="10" stroke-width="0.5"/>
            <line id="Line_52" data-name="Line 52" y1="29.737" transform="translate(14.877 29.843)" fill="none" stroke="#fff" stroke-miterlimit="10" stroke-width="0.5"/>
            <line id="Line_53" data-name="Line 53" y1="29.755" transform="translate(44.703)" fill="none" stroke="#fff" stroke-miterlimit="10" stroke-width="0.5"/>
            <circle id="Ellipse_9-2" data-name="Ellipse 9" cx="7.183" cy="7.183" r="7.183" transform="translate(37.52 37.538)" fill="#fff"/>
          </g>
          <text id="KubiRub_Company_Service" data-name="KubiRub
Company Service" transform="translate(44 109.608)" fill="#fff" font-size="10" font-family="Montserrat"><tspan x="-21.71" y="0">KubiRub</tspan><tspan x="-44.2" y="11">Company Service</tspan></text>
        </g>
      </g>
      <g id="design-2" data-name="design" transform="translate(16.033 13.075)">
        <rect id="Background" width="237.991" height="515.349" rx="17" transform="translate(0 0)" fill="#fff"/>
        <g id="input" transform="translate(23.111 159.39)" fill="#f0f2f7" stroke="#e3e8f0" stroke-width="1">
          <rect width="151.873" height="29.714" rx="14.857" stroke="none"/>
          <rect x="0.5" y="0.5" width="150.873" height="28.714" rx="14.357" fill="none"/>
        </g>
        <g id="input-2" data-name="input" transform="translate(23.111 213.991)" fill="#f0f2f7" stroke="#e3e8f0" stroke-width="1">
          <rect width="108.292" height="29.714" rx="14.857" stroke="none"/>
          <rect x="0.5" y="0.5" width="107.292" height="28.714" rx="14.357" fill="none"/>
        </g>
        <g id="input-3" data-name="input" transform="translate(23.111 265.445)" fill="#f0f2f7" stroke="#e3e8f0" stroke-width="1">
          <rect width="76.597" height="29.714" rx="14.857" stroke="none"/>
          <rect x="0.5" y="0.5" width="75.597" height="28.714" rx="14.357" fill="none"/>
        </g>
        <g id="input-4" data-name="input" transform="translate(23.111 320.706)" fill="#f0f2f7" stroke="#e3e8f0" stroke-width="1">
          <rect width="76.597" height="29.714" rx="14.857" stroke="none"/>
          <rect x="0.5" y="0.5" width="75.597" height="28.714" rx="14.357" fill="none"/>
        </g>
        <text id="COUNTRY" transform="translate(34.337 151.504)" fill="#00498d" font-size="4" font-family="Montserrat-Bold, Montserrat" font-weight="700" letter-spacing="0.1em"><tspan x="0" y="0">COUNTRY</tspan></text>
        <text id="CITY" transform="translate(34.337 206.105)" fill="#00498d" font-size="4" font-family="Montserrat-Bold, Montserrat" font-weight="700" letter-spacing="0.1em"><tspan x="0" y="0">CITY</tspan></text>
        <text id="DISCOUNT" transform="translate(34.337 257.559)" fill="#00498d" font-size="4" font-family="Montserrat-Bold, Montserrat" font-weight="700" letter-spacing="0.1em"><tspan x="0" y="0">DISCOUNT</tspan></text>
        <text id="AMOUNT" transform="translate(34.337 312.82)" fill="#00498d" font-size="4" font-family="Montserrat-Bold, Montserrat" font-weight="700" letter-spacing="0.1em"><tspan x="0" y="0">AMOUNT</tspan></text>
        <text id="_" data-name="%" transform="translate(103.01 284.727)" fill="#00498d" font-size="14" font-family="Montserrat-Light, Montserrat" font-weight="300" letter-spacing="0.1em"><tspan x="0" y="0">%</tspan></text>
        <g id="Group_2825" data-name="Group 2825" transform="translate(23.111 443.364)">
          <path id="button-5" data-name="button" d="M14.857,0H176.635a14.857,14.857,0,0,1,0,29.714H14.857A14.857,14.857,0,0,1,14.857,0Z" transform="translate(0 0)" fill="#0084ff"/>
          <text id="SAVE" transform="translate(84.521 14.565)" fill="#fff" font-size="4" font-family="Montserrat-Bold, Montserrat" font-weight="700" letter-spacing="0.1em"><tspan x="0" y="0">SAVE</tspan></text>
        </g>
        <text id="Select_your_country" data-name="Select your country" transform="translate(34.337 175.092)" fill="#b9bed1" font-size="5" font-family="Montserrat"><tspan x="0" y="0">Select your country</tspan></text>
        <text id="Select_your_city" data-name="Select your city" transform="translate(34.337 229.693)" fill="#b9bed1" font-size="5" font-family="Montserrat"><tspan x="0" y="0">Select your city</tspan></text>
        <path id="Chevron_down" data-name="Chevron down" d="M6.375,1.2,3.852,3.721a.7.7,0,0,1-.57.2.7.7,0,0,1-.57-.2L.189,1.2A.714.714,0,1,1,1.2.188L3.282,2.272,5.366.188A.714.714,0,0,1,6.375,1.2Z" transform="translate(160.477 171.982)" fill="#00498d" fill-rule="evenodd"/>
        <path id="Chevron_down-2" data-name="Chevron down" d="M6.375,1.2,3.852,3.721a.7.7,0,0,1-.57.2.7.7,0,0,1-.57-.2L.189,1.2A.714.714,0,1,1,1.2.188L3.282,2.272,5.366.188A.714.714,0,0,1,6.375,1.2Z" transform="translate(117.556 226.557)" fill="#00498d" fill-rule="evenodd"/>
        <g id="input-5" data-name="input" transform="translate(23.111 104.738)" fill="#f0f2f7" stroke="#e3e8f0" stroke-width="1">
          <rect width="191.492" height="29.714" rx="14.857" stroke="none"/>
          <rect x="0.5" y="0.5" width="190.492" height="28.714" rx="14.357" fill="none"/>
        </g>
        <text id="PRODUCT" transform="translate(34.337 96.852)" fill="#00498d" font-size="4" font-family="Montserrat-Bold, Montserrat" font-weight="700" letter-spacing="0.1em"><tspan x="0" y="0">PRODUCT</tspan></text>
        <text id="Enter_your_product_name" data-name="Enter your product name" transform="translate(34.337 120.44)" fill="#b9bed1" font-size="5" font-family="Montserrat"><tspan x="0" y="0">Enter your product name</tspan></text>
        <text id="Etc._15_" data-name="Etc. 15%" transform="translate(34.337 281.807)" fill="#b9bed1" font-size="5" font-family="Montserrat"><tspan x="0" y="0">Etc. 15%</tspan></text>
        <text id="Etc._3" data-name="Etc. 3" transform="translate(34.337 337.068)" fill="#b9bed1" font-size="5" font-family="Montserrat"><tspan x="0" y="0">Etc. 3</tspan></text>
        <path id="button-6" data-name="button" d="M17.06,0H202.826c9.422,0,17.06,6.652,17.06,14.857s-7.638,14.857-17.06,14.857H17.06C7.638,29.714,0,23.063,0,14.857S7.638,0,17.06,0Z" transform="translate(9.244 379.852)" fill="#0084ff"/>
        <g transform="matrix(1, 0, 0, 1, -114.64, -113.58)" filter="url(#Rectangle_1477)">
          <rect id="Rectangle_1477-2" data-name="Rectangle 1477" width="73.295" height="29.714" rx="14.857" transform="translate(123.89 493.43)" fill="#00498d"/>
        </g>
        <text id="GOLD" transform="translate(42.921 394.417)" fill="#fff" font-size="4" font-family="Montserrat-Bold, Montserrat" font-weight="700" letter-spacing="0.1em"><tspan x="0" y="0">GOLD</tspan></text>
        <g transform="matrix(1, 0, 0, 1, -114.64, -113.58)" filter="url(#Ellipse_11)">
          <ellipse id="Ellipse_11-2" data-name="Ellipse 11" cx="6.603" cy="6.603" rx="6.603" ry="6.603" transform="translate(140.4 501.35)" fill="#ffee1d"/>
        </g>
        <g id="Group_2239" data-name="Group 2239" transform="translate(89.803 387.776)">
          <text id="PREMIUM" transform="translate(17.829 6.641)" fill="#fff" font-size="4" font-family="Montserrat-Bold, Montserrat" font-weight="700" letter-spacing="0.1em"><tspan x="0" y="0">PREMIUM</tspan></text>
          <g transform="matrix(1, 0, 0, 1, -204.45, -501.35)" filter="url(#Ellipse_12)">
            <ellipse id="Ellipse_12-4" data-name="Ellipse 12" cx="6.603" cy="6.603" rx="6.603" ry="6.603" transform="translate(204.45 501.35)" fill="#0084ff"/>
          </g>
        </g>
        <g id="Group_2243" data-name="Group 2243" transform="translate(161.117 387.776)">
          <text id="STANDART" transform="translate(17.829 6.641)" fill="#fff" font-size="4" font-family="Montserrat-Bold, Montserrat" font-weight="700" letter-spacing="0.1em"><tspan x="0" y="0">STANDART</tspan></text>
          <g transform="matrix(1, 0, 0, 1, -275.76, -501.35)" filter="url(#Path_1599)">
            <path id="Path_1599-2" data-name="Path 1599" d="M6.6,0A6.6,6.6,0,1,1,0,6.6,6.6,6.6,0,0,1,6.6,0Z" transform="translate(275.76 501.35)" fill="#898989"/>
          </g>
        </g>
        <g id="Group_2826" data-name="Group 2826" transform="translate(185.95 29.212)">
          <g transform="matrix(1, 0, 0, 1, -300.59, -142.79)" filter="url(#Ellipse_38)">
            <circle id="Ellipse_38-3" data-name="Ellipse 38" cx="18.405" cy="18.405" r="18.405" transform="translate(300.59 142.79)" fill="#fff"/>
          </g>
          <g id="Group_2319" data-name="Group 2319" transform="translate(6.569 6.436)">
            <path id="Path_347" data-name="Path 347" d="M1717.212,1788.182V1787h-3.868l1.181,1.183h1.87v6.962h-2.214v-1.934h1.1v-.838h-1.934v2.772h-2.772v1.934h.838v-1.1h1.934v2.192h-6.962V1796.3l-1.182-1.182v3.868h11.991v-3.868h0v-6.94Zm-1.182,7.8v.344h0v1.5h-1.848v-1.848Z" transform="translate(-1705.2 -1787)" fill="#0b4c73"/>
            <path id="Path_348" data-name="Path 348" d="M1772.809,1796.4v1.869h-6.962v-2.192h1.934v1.1h.838v-1.934h-2.772v-2.772h-1.934v.838h1.1v1.934h-2.192v-6.962h1.869l1.183-1.182H1762v8.144h0v3.868h12.012v-3.868Zm-9.648,0v-.344h1.848v1.849h-1.848v-1.5Z" transform="translate(-1749.795 -1787.079)" fill="#0b4c73"/>
            <path id="Path_349" data-name="Path 349" d="M1763.082,1843.7H1761.9v3.868h0v8.144h3.868l-1.181-1.182h-1.87v-6.962h2.192v1.955h-1.1v.838h1.934v-2.793h2.772v-1.934h-.838v1.1h-1.934v-2.192h6.962v1.869l1.182,1.182v-3.868h-10.808Zm0,3.03v-.344h0v-1.5h1.848v1.848Z" transform="translate(-1749.716 -1831.516)" fill="#0b4c73"/>
            <path id="Path_350" data-name="Path 350" d="M1717.212,1843.7H1705.2v3.868l1.182-1.182v-1.869h6.962v2.192h-1.934v-1.1h-.838v1.935h2.772v2.771h1.934v-.838h-1.1v-1.933h2.192v6.962H1714.5l-1.182,1.182h3.868v-10.83l.021-1.16Zm-1.182,2.686v.344h-1.848v-1.848h1.848v1.5Z" transform="translate(-1705.2 -1831.516)" fill="#0b4c73"/>
          </g>
        </g>
        <g id="Group_2343" data-name="Group 2343" transform="translate(8.885 29.212)">
          <g transform="matrix(1, 0, 0, 1, -123.53, -142.79)" filter="url(#Ellipse_12-2)">
            <circle id="Ellipse_12-5" data-name="Ellipse 12" cx="12.693" cy="12.693" r="12.693" transform="translate(123.53 142.79)" fill="#fff"/>
          </g>
          <path id="Chevron" d="M6.053,12.745.185,6.947a.619.619,0,0,1,0-.883L6.053.265a.924.924,0,0,1,1.3,0,.9.9,0,0,1,0,1.279L2.329,6.505l5.019,4.96a.9.9,0,0,1,0,1.28.924.924,0,0,1-1.3,0" transform="translate(8.251 6.346)" fill="#007aff"/>
        </g>
      </g>
    </g>
    <g id="Group_2864" data-name="Group 2864">
      <g id="Group_2830" data-name="Group 2830" transform="translate(1033.188 1312.618)">
        <rect id="Background-2" data-name="Background" width="237.082" height="516.296" rx="17" transform="translate(0 0)" fill="#fff"/>
        <g id="Group_2235" data-name="Group 2235" transform="translate(45.177 424.317)">
          <g transform="matrix(1, 0, 0, 1, -161.28, -536.43)" filter="url(#Rectangle_650)">
            <rect id="Rectangle_650-2" data-name="Rectangle 650" width="147.287" height="27.631" rx="13.816" transform="translate(161.28 536.43)" fill="#002648"/>
          </g>
          <g transform="matrix(1, 0, 0, 1, -161.28, -536.43)" filter="url(#Delete)">
            <text id="Delete-2" data-name="Delete" transform="translate(220.15 549.65)" fill="#fff" font-size="5" font-family="SegoeUI, Segoe UI" letter-spacing="0.05em"><tspan x="0" y="0">Delete</tspan></text>
          </g>
        </g>
        <g transform="matrix(1, 0, 0, 1, -116.1, -112.12)" filter="url(#Path_1597)">
          <path id="Path_1597-2" data-name="Path 1597" d="M19.757,0H159.914c10.911,0,19.757,10,19.757,22.332V268.97c0,12.334-8.845,22.332-19.757,22.332H19.757C8.845,291.3,0,281.3,0,268.97V22.332C0,10,8.845,0,19.757,0Z" transform="translate(145.08 206.34)" fill="#00498d"/>
        </g>
        <g id="Group_2219" data-name="Group 2219" transform="translate(51.149 323.703)">
          <text id="_2" data-name="2" transform="translate(21.626 6)" fill="#fff" font-size="7" font-family="Roboto-Medium, Roboto" font-weight="500"><tspan x="0" y="0">2</tspan></text>
          <g id="Group_1909" data-name="Group 1909" transform="translate(37.846 1.028)">
            <path id="Path_1156" data-name="Path 1156" d="M6.165,0a6.165,6.165,0,1,0,6.165,6.165A6.172,6.172,0,0,0,6.165,0Zm0,11.856a5.691,5.691,0,1,1,5.691-5.691A5.7,5.7,0,0,1,6.165,11.856Z" fill="#fff" stroke="#fff" stroke-width="1"/>
            <path id="Path_1157" data-name="Path 1157" d="M18.665,15.846H15.938V13.237a.237.237,0,1,0-.474,0v2.608H12.737a.237.237,0,1,0,0,.474h2.727v2.846a.237.237,0,1,0,.474,0V16.32h2.727a.237.237,0,1,0,0-.474Z" transform="translate(-9.536 -9.917)" fill="#fff" stroke="#fff" stroke-width="1"/>
          </g>
          <g id="Group_1910" data-name="Group 1910" transform="translate(0 1.028)">
            <path id="Path_1154" data-name="Path 1154" d="M6.165,0a6.165,6.165,0,1,0,6.165,6.165A6.172,6.172,0,0,0,6.165,0Zm0,11.856a5.691,5.691,0,1,1,5.691-5.691A5.7,5.7,0,0,1,6.165,11.856Z" transform="translate(0)" fill="#fff" stroke="#fff" stroke-width="1"/>
            <path id="Path_1155" data-name="Path 1155" d="M18.4,25H12.237a.237.237,0,0,0,0,.474H18.4a.237.237,0,1,0,0-.474Z" transform="translate(-9.154 -19.072)" fill="#fff" stroke="#fff" stroke-width="1"/>
          </g>
        </g>
        <text id="_100.00" data-name=" ₹100.00" transform="translate(125.785 331.292)" fill="#fff" font-size="10" font-family="Roboto-Bold, Roboto" font-weight="700" letter-spacing="0.05em"><tspan x="0" y="0"> </tspan><tspan y="0" font-family="SegoeUI-Bold, Segoe UI">₹</tspan><tspan y="0">100.00</tspan></text>
        <line id="Line_16-2" data-name="Line 16" x2="132.028" transform="translate(53.186 260.166)" fill="none" stroke="#fff" stroke-width="0.2"/>
        <line id="Line_75" data-name="Line 75" x2="132.028" transform="translate(53.186 295.289)" fill="none" stroke="#fff" stroke-width="0.2"/>
        <line id="Line_71" data-name="Line 71" x2="132.028" transform="translate(53.186 225.043)" fill="none" stroke="#fff" stroke-width="0.2"/>
        <line id="Line_72" data-name="Line 72" x2="132.028" transform="translate(53.186 189.921)" fill="none" stroke="#fff" stroke-width="0.2"/>
        <line id="Line_73" data-name="Line 73" x2="132.028" transform="translate(53.186 154.798)" fill="none" stroke="#fff" stroke-width="0.2"/>
        <g transform="matrix(1, 0, 0, 1, -116.1, -112.12)" filter="url(#Line_76)">
          <line id="Line_76-2" data-name="Line 76" x2="156.079" transform="translate(157.26 231.69)" fill="none" stroke="#fff" stroke-width="1"/>
        </g>
        <text id="GARDENX" transform="translate(108.126 108.098)" fill="#fff" font-size="4" font-family="Montserrat-Bold, Montserrat" font-weight="700"><tspan x="-10.302" y="0">GARDENX</tspan></text>
        <text id="VIEW" transform="translate(78.012 144.74)" fill="#fff" font-size="3" font-family="Montserrat-Bold, Montserrat" font-weight="700"><tspan x="-4.034" y="0">VIEW</tspan></text>
        <text id="DISCOUNT-2" data-name="DISCOUNT" transform="translate(70.007 179.763)" fill="#fff" font-size="2" font-family="Montserrat-Bold, Montserrat" font-weight="700"><tspan x="-5.454" y="0">DISCOUNT</tspan></text>
        <text id="AMOUNT-2" data-name="AMOUNT" transform="translate(73.808 215.885)" fill="#fff" font-size="3" font-family="Montserrat-Bold, Montserrat" font-weight="700"><tspan x="-7.052" y="0">AMOUNT</tspan></text>
        <text id="USED" transform="translate(78.012 251.008)" fill="#fff" font-size="3" font-family="Montserrat-Bold, Montserrat" font-weight="700"><tspan x="-4.218" y="0">USED</tspan></text>
        <text id="TOTAL" transform="translate(75.211 285.131)" fill="#fff" font-size="2" font-family="Montserrat-Bold, Montserrat" font-weight="700"><tspan x="-3.266" y="0">TOTAL</tspan></text>
        <text id="_12_023" data-name="12 023" transform="translate(143.655 143.74)" fill="#fff" font-size="2" font-family="Montserrat-Light, Montserrat" font-weight="300"><tspan x="-2.951" y="0">12 023</tspan></text>
        <text id="_12_" data-name="12%" transform="translate(146.258 179.763)" fill="#fff" font-size="2" font-family="Montserrat-Light, Montserrat" font-weight="300"><tspan x="-1.743" y="0">12%</tspan></text>
        <text id="_5" data-name="5" transform="translate(149.661 213.885)" fill="#fff" font-size="1" font-family="Montserrat-Light, Montserrat" font-weight="300"><tspan x="-0.279" y="0">5</tspan></text>
        <text id="_3" data-name="3" transform="translate(149.661 249.008)" fill="#fff" font-size="1" font-family="Montserrat-Light, Montserrat" font-weight="300"><tspan x="-0.279" y="0">3</tspan></text>
        <text id="_12_023-2" data-name="12 023" transform="translate(143.655 285.131)" fill="#fff" font-size="2" font-family="Montserrat-Light, Montserrat" font-weight="300"><tspan x="-2.951" y="0">12 023</tspan></text>
        <line id="Line_74" data-name="Line 74" y2="179.216" transform="translate(118.749 134.085)" fill="none" stroke="#fff" stroke-width="0.2"/>
        <text id="Your_discount_raiting_0.54_12_" data-name="Your discount raiting 0.54 (12%)" transform="translate(92.905 370.928)" fill="#ffd800" font-size="4" font-family="Roboto-Regular, Roboto" letter-spacing="0.05em"><tspan x="-31.775" y="0">Your discount raiting 0.54 (12%)</tspan></text>
        <g id="Group_2234" data-name="Group 2234" transform="translate(70.466 347.414)">
          <g id="star">
            <path id="Path_1527" data-name="Path 1527" d="M11.1,23.043a.634.634,0,0,1-.288-.069L7.1,21.083,3.394,22.974a.635.635,0,0,1-.916-.662l.638-4.151L.183,15.183a.635.635,0,0,1,.35-1.072l4.1-.669,1.9-3.733a.635.635,0,0,1,1.131,0l1.9,3.733,4.1.669a.635.635,0,0,1,.35,1.072l-2.932,2.979.638,4.151a.635.635,0,0,1-.627.731Z" transform="translate(-0.001 -9.362)" fill="#f0d355"/>
            <g id="Group_2128" data-name="Group 2128" transform="translate(0 4.585)" opacity="0.1">
              <path id="Path_1528" data-name="Path 1528" d="M4.066,183.337a.635.635,0,0,1-.256-.611l.638-4.151L1.516,175.6a.634.634,0,0,1,.021-.91l-1,.164a.635.635,0,0,0-.35,1.072L3.116,178.9l-.638,4.151a.635.635,0,0,0,.916.662l.7-.358Z" transform="translate(-0.001 -174.686)" fill="#414042"/>
            </g>
          </g>
          <g id="star-2" data-name="star" transform="translate(20.504)">
            <path id="Path_1527-2" data-name="Path 1527" d="M11.1,23.043a.634.634,0,0,1-.288-.069L7.1,21.083,3.394,22.974a.635.635,0,0,1-.916-.662l.638-4.151L.183,15.183a.635.635,0,0,1,.35-1.072l4.1-.669,1.9-3.733a.635.635,0,0,1,1.131,0l1.9,3.733,4.1.669a.635.635,0,0,1,.35,1.072l-2.932,2.979.638,4.151a.635.635,0,0,1-.627.731Z" transform="translate(-0.001 -9.362)" fill="#f0d355"/>
            <g id="Group_2128-2" data-name="Group 2128" transform="translate(0 4.585)" opacity="0.1">
              <path id="Path_1528-2" data-name="Path 1528" d="M4.066,183.337a.635.635,0,0,1-.256-.611l.638-4.151L1.516,175.6a.634.634,0,0,1,.021-.91l-1,.164a.635.635,0,0,0-.35,1.072L3.116,178.9l-.638,4.151a.635.635,0,0,0,.916.662l.7-.358Z" transform="translate(-0.001 -174.686)" fill="#414042"/>
            </g>
          </g>
          <g id="star-3" data-name="star" transform="translate(41.351)">
            <path id="Path_1527-3" data-name="Path 1527" d="M11.1,23.043a.634.634,0,0,1-.288-.069L7.1,21.083,3.394,22.974a.635.635,0,0,1-.916-.662l.638-4.151L.183,15.183a.635.635,0,0,1,.35-1.072l4.1-.669,1.9-3.733a.635.635,0,0,1,1.131,0l1.9,3.733,4.1.669a.635.635,0,0,1,.35,1.072l-2.932,2.979.638,4.151a.635.635,0,0,1-.627.731Z" transform="translate(-0.001 -9.362)" fill="#f0d355"/>
            <g id="Group_2128-3" data-name="Group 2128" transform="translate(0 4.585)" opacity="0.1">
              <path id="Path_1528-3" data-name="Path 1528" d="M4.066,183.337a.635.635,0,0,1-.256-.611l.638-4.151L1.516,175.6a.634.634,0,0,1,.021-.91l-1,.164a.635.635,0,0,0-.35,1.072L3.116,178.9l-.638,4.151a.635.635,0,0,0,.916.662l.7-.358Z" transform="translate(-0.001 -174.686)" fill="#414042"/>
            </g>
          </g>
          <g id="star-4" data-name="star" transform="translate(61.855)">
            <path id="Path_1527-4" data-name="Path 1527" d="M11.1,23.043a.634.634,0,0,1-.288-.069L7.1,21.083,3.394,22.974a.635.635,0,0,1-.916-.662l.638-4.151L.183,15.183a.635.635,0,0,1,.35-1.072l4.1-.669,1.9-3.733a.635.635,0,0,1,1.131,0l1.9,3.733,4.1.669a.635.635,0,0,1,.35,1.072l-2.932,2.979.638,4.151a.635.635,0,0,1-.627.731Z" transform="translate(-0.001 -9.362)" fill="#f0d355"/>
            <g id="Group_2128-4" data-name="Group 2128" transform="translate(0 4.585)" opacity="0.1">
              <path id="Path_1528-4" data-name="Path 1528" d="M4.066,183.337a.635.635,0,0,1-.256-.611l.638-4.151L1.516,175.6a.634.634,0,0,1,.021-.91l-1,.164a.635.635,0,0,0-.35,1.072L3.116,178.9l-.638,4.151a.635.635,0,0,0,.916.662l.7-.358Z" transform="translate(-0.001 -174.686)" fill="#414042"/>
            </g>
          </g>
          <path id="star_1_" data-name="star (1)" d="M13.9,7.218a1.019,1.019,0,0,0-.565-1.738L9.9,4.979a.449.449,0,0,1-.339-.246L8.02,1.615a1.019,1.019,0,0,0-1.828,0L4.653,4.733a.45.45,0,0,1-.339.246l-3.441.5A1.019,1.019,0,0,0,.309,7.218L2.8,9.644a.451.451,0,0,1,.13.4L2.34,13.47a1.019,1.019,0,0,0,1.479,1.074L6.9,12.926a.45.45,0,0,1,.419,0l3.078,1.618a1.019,1.019,0,0,0,1.479-1.074l-.588-3.427a.45.45,0,0,1,.13-.4Zm-3.18,2.922.588,3.427a.45.45,0,0,1-.653.475L7.58,12.422a1.019,1.019,0,0,0-.949,0L3.554,14.041a.45.45,0,0,1-.653-.475l.588-3.427a1.019,1.019,0,0,0-.293-.9L.706,6.81a.45.45,0,0,1,.249-.768l3.441-.5a1.018,1.018,0,0,0,.767-.557L6.7,1.867a.45.45,0,0,1,.807,0L9.048,4.985a1.017,1.017,0,0,0,.767.557l3.441.5a.45.45,0,0,1,.249.768l-2.49,2.427A1.019,1.019,0,0,0,10.723,10.139Z" transform="translate(82.344 -1.047)" fill="#f0d355"/>
        </g>
        <g id="Group_2278" data-name="Group 2278" transform="translate(100.76 457.851)">
          <circle id="Ellipse_10-2" data-name="Ellipse 10" cx="17.781" cy="17.781" r="17.781" fill="#002648"/>
          <g id="Group_2237" data-name="Group 2237" transform="translate(9.244 9.245)">
            <line id="Line_77" data-name="Line 77" x2="17.732" transform="translate(0 8.866)" fill="none" stroke="#fff" stroke-width="3"/>
            <line id="Line_78" data-name="Line 78" y2="17.732" transform="translate(8.866)" fill="none" stroke="#fff" stroke-width="3"/>
          </g>
        </g>
        <g id="Mask_Group_608" data-name="Mask Group 608" transform="translate(208.764 94.219)" clip-path="url(#clip-path)">
          <rect id="Rectangle_648" data-name="Rectangle 648" width="154.491" height="272.317" rx="30" transform="translate(14.331 19.098)" fill="#0084ff"/>
        </g>
        <g id="Mask_Group_609" data-name="Mask Group 609" transform="translate(0 98.829)" clip-path="url(#clip-path-2)">
          <rect id="Rectangle_649" data-name="Rectangle 649" width="154.491" height="272.317" rx="30" transform="translate(-140.274 14.488)" fill="aqua"/>
        </g>
        <g id="Group_2826-2" data-name="Group 2826" transform="translate(185.24 29.1)">
          <g transform="matrix(1, 0, 0, 1, -301.34, -141.22)" filter="url(#Ellipse_38-2)">
            <circle id="Ellipse_38-4" data-name="Ellipse 38" cx="18.334" cy="18.334" r="18.334" transform="translate(301.34 141.22)" fill="#fff"/>
          </g>
          <g id="Group_2319-2" data-name="Group 2319" transform="translate(6.544 6.411)">
            <path id="Path_347-2" data-name="Path 347" d="M1717.166,1788.177V1787h-3.853l1.177,1.177h1.863v6.936h-2.205v-1.927h1.092v-.834h-1.927v2.761h-2.761v1.926h.835v-1.092h1.926v2.183h-6.935v-1.862l-1.178-1.178v3.853h11.945v-3.853h0v-6.914Zm-1.177,7.771v.342h0v1.5h-1.841v-1.841Z" transform="translate(-1705.2 -1787)" fill="#0b4c73"/>
            <path id="Path_348-2" data-name="Path 348" d="M1772.767,1796.369v1.863h-6.935v-2.184h1.927v1.092h.835v-1.927h-2.761v-2.761h-1.927v.835H1765v1.926h-2.183v-6.935h1.862l1.178-1.177H1762v8.113h0v3.853h11.967v-3.853Zm-9.611,0v-.343H1765v1.842h-1.841v-1.5Z" transform="translate(-1749.841 -1787.078)" fill="#0b4c73"/>
            <path id="Path_349-2" data-name="Path 349" d="M1763.077,1843.7H1761.9v3.853h0v8.113h3.854l-1.177-1.177h-1.863v-6.936h2.183v1.948h-1.092v.835h1.927v-2.783h2.762v-1.927h-.835v1.092h-1.927v-2.183h6.936v1.862l1.177,1.177v-3.853h-10.768Zm0,3.018v-.343h0v-1.5h1.841v1.841Z" transform="translate(-1749.762 -1831.563)" fill="#0b4c73"/>
            <path id="Path_350-2" data-name="Path 350" d="M1717.166,1843.7H1705.2v3.853l1.178-1.177v-1.862h6.935v2.184h-1.926v-1.092h-.835v1.927h2.761v2.761h1.927v-.834h-1.092v-1.926h2.184v6.935h-1.863l-1.177,1.177h3.853v-10.789l.021-1.156Zm-1.177,2.676v.343h-1.841v-1.841h1.841v1.5Z" transform="translate(-1705.2 -1831.563)" fill="#0b4c73"/>
          </g>
        </g>
        <g id="Group_2343-2" data-name="Group 2343" transform="translate(8.851 29.1)">
          <g transform="matrix(1, 0, 0, 1, -124.95, -141.22)" filter="url(#Ellipse_12-3)">
            <circle id="Ellipse_12-6" data-name="Ellipse 12" cx="12.644" cy="12.644" r="12.644" transform="translate(124.95 141.22)" fill="#fff"/>
          </g>
          <path id="Chevron-2" data-name="Chevron" d="M6.03,12.7.185,6.92a.616.616,0,0,1,0-.88L6.03.264a.92.92,0,0,1,1.29,0,.9.9,0,0,1,0,1.275l-5,4.942,5,4.941a.9.9,0,0,1,0,1.275.92.92,0,0,1-1.29,0" transform="translate(8.219 6.322)" fill="#007aff"/>
        </g>
        <circle id="Ellipse_39" data-name="Ellipse 39" cx="4.426" cy="4.426" r="4.426" transform="translate(99.258 396.42)" fill="#1598e5" opacity="0.429"/>
        <g transform="matrix(1, 0, 0, 1, -116.1, -112.12)" filter="url(#Ellipse_40)">
          <circle id="Ellipse_40-2" data-name="Ellipse 40" cx="6.322" cy="6.322" r="6.322" transform="translate(228.64 506.64)" fill="#003cdb"/>
        </g>
        <circle id="Ellipse_41" data-name="Ellipse 41" cx="4.426" cy="4.426" r="4.426" transform="translate(129.605 396.42)" fill="#1598e5" opacity="0.429"/>
      </g>
      <path id="Path_1603" data-name="Path 1603" d="M0-2.235H146.709V5.43A15.112,15.112,0,0,1,131.6,20.542H15.112A15.112,15.112,0,0,1,0,5.43Z" transform="translate(1078.034 1314.658)" fill="#1b1b1b"/>
    </g>
  </g>
</svg>
