<svg xmlns="http://www.w3.org/2000/svg" xmlns:xlink="http://www.w3.org/1999/xlink" width="257" height="257" viewBox="0 0 257 257"><defs><style>.a{fill:#003cdb;}.b{fill:#001e6e;}.c{fill:url(#a);}.d{fill:url(#b);}.e{fill:#fff;}.f{fill:#d9efff;}.g{fill:#ffe67b;}.h{fill:#fcc454;}</style><linearGradient id="a" x1="0.5" x2="0.5" y2="1" gradientUnits="objectBoundingBox"><stop offset="0" stop-color="#1598e5"/><stop offset="1" stop-color="#0b4c73"/></linearGradient><linearGradient id="b" x1="0.5" x2="0.5" y2="1" gradientUnits="objectBoundingBox"><stop offset="0" stop-color="#0b4c73"/><stop offset="1" stop-color="#1598e5"/></linearGradient></defs><path class="a" d="M253.673,441.95a9.963,9.963,0,0,1-7.308,3.2H186.712A9.95,9.95,0,0,1,176.8,434.4a39.884,39.884,0,0,1,32.21-35.935V377.78h15.059v20.686a39.884,39.884,0,0,1,32.21,35.935A9.983,9.983,0,0,1,253.673,441.95Z" transform="translate(-88.038 -188.152)"/><path class="b" d="M293.135,441.95a9.963,9.963,0,0,1-7.308,3.2H256V377.78h7.529v20.686A39.884,39.884,0,0,1,295.74,434.4,9.983,9.983,0,0,1,293.135,441.95Z" transform="translate(-127.5 -188.152)"/><path class="c" d="M257,25.871V171.292a25.9,25.9,0,0,1-25.871,25.866H25.871A25.9,25.9,0,0,1,0,171.292V25.871A25.9,25.9,0,0,1,25.871,0H231.13A25.9,25.9,0,0,1,257,25.871Z"/><path class="d" d="M384.5,25.871V171.292a25.9,25.9,0,0,1-25.871,25.866H256V0H358.63A25.9,25.9,0,0,1,384.5,25.871Z" transform="translate(-127.5)"/><g transform="translate(36.716 115.097)"><path class="e" d="M73.146,268.366v32.593h57.186V254.952H86.56A13.429,13.429,0,0,0,73.146,268.366Z" transform="translate(-73.146 -242.075)"/><rect class="f" width="57.186" height="59.057" transform="translate(84.255)"/></g><g transform="translate(78.844 84.367)"><path class="g" d="M193.317,197.731H170.488a13.429,13.429,0,0,0-13.414,13.414V272.46H206.73V211.145A13.429,13.429,0,0,0,193.317,197.731Z" transform="translate(-157.074 -182.846)"/><path class="h" d="M374.675,168.077H350.341a13.429,13.429,0,0,0-13.414,13.414v76.374H388.09V181.491A13.429,13.429,0,0,0,374.675,168.077Z" transform="translate(-246.649 -168.077)"/></g><g transform="translate(53.44 42.775)"><path class="e" d="M252.194,99.59l-49.427,22.683a9.91,9.91,0,0,1-9.527-.673l-11.716-7.534-17.588-11.314L116.963,122.9a7.53,7.53,0,0,1-5.938-13.839L160.5,87.839a9.946,9.946,0,0,1,9.3.773l11.731,7.544,17.508,11.264,46.882-21.514a7.528,7.528,0,1,1,6.279,13.683Z" transform="translate(-106.464 -85.218)"/></g><path class="b" d="M257,317.1v12.122a25.9,25.9,0,0,1-25.871,25.866H25.871A25.9,25.9,0,0,1,0,329.222V317.1Z" transform="translate(0 -157.93)"/><path class="a" d="M384.5,317.1v12.122a25.9,25.9,0,0,1-25.871,25.866H256V317.1Z" transform="translate(-127.5 -157.93)"/><path class="f" d="M326.67,99.59l-49.427,22.683a9.91,9.91,0,0,1-9.527-.673L256,114.066V96.156l17.508,11.264,46.883-21.514A7.528,7.528,0,1,1,326.67,99.59Z" transform="translate(-127.5 -42.442)"/></svg>