<svg xmlns="http://www.w3.org/2000/svg" xmlns:xlink="http://www.w3.org/1999/xlink" width="467.343" height="742.5" viewBox="0 0 467.343 742.5">
  <defs>
    <linearGradient id="linear-gradient" x1="0.5" x2="0.5" y2="1" gradientUnits="objectBoundingBox">
      <stop offset="0" stop-color="#1a1a1a"/>
      <stop offset="1" stop-color="#0a0a0a"/>
    </linearGradient>
    <filter id="Case" x="0" y="0" width="467.343" height="742.5" filterUnits="userSpaceOnUse">
      <feOffset input="SourceAlpha"/>
      <feGaussianBlur stdDeviation="33.5" result="blur"/>
      <feFlood flood-opacity="0.235"/>
      <feComposite operator="in" in2="blur"/>
      <feComposite in="SourceGraphic"/>
    </filter>
    <linearGradient id="linear-gradient-2" x1="0.5" x2="0.5" y2="1" gradientUnits="objectBoundingBox">
      <stop offset="0" stop-color="#141414"/>
      <stop offset="1" stop-color="#1c1c1c"/>
    </linearGradient>
    <linearGradient id="linear-gradient-3" x1="0.5" x2="0.5" y2="1" gradientUnits="objectBoundingBox">
      <stop offset="0" stop-color="#191919"/>
      <stop offset="1" stop-color="#0d0d0d"/>
    </linearGradient>
    <linearGradient id="linear-gradient-4" x1="1" y1="0.377" x2="0" y2="0.377" gradientUnits="objectBoundingBox">
      <stop offset="0" stop-opacity="0"/>
      <stop offset="0.322" stop-opacity="0"/>
      <stop offset="1"/>
    </linearGradient>
    <linearGradient id="linear-gradient-11" x1="0.5" x2="0.5" y2="1" gradientUnits="objectBoundingBox">
      <stop offset="0" stop-color="#1c1c1c"/>
      <stop offset="1" stop-color="#0d0d0d"/>
    </linearGradient>
    <linearGradient id="linear-gradient-12" x1="0.5" x2="0.5" y2="1" gradientUnits="objectBoundingBox">
      <stop offset="0" stop-color="#0d0d0d"/>
      <stop offset="1" stop-color="#313131"/>
    </linearGradient>
    <linearGradient id="linear-gradient-13" x1="0.5" x2="0.5" y2="1" gradientUnits="objectBoundingBox">
      <stop offset="0" stop-color="#292929"/>
      <stop offset="1" stop-color="#1a1a1a"/>
    </linearGradient>
  </defs>
  <g id="Group_2914" data-name="Group 2914" transform="translate(-220.389 -1352.5)">
    <g id="Group_2827" data-name="Group 2827" transform="translate(319 1453)">
      <g id="iPhone_X_-_Dark" data-name="iPhone X - Dark" transform="translate(0 0)">
        <g transform="matrix(1, 0, 0, 1, -98.61, -100.5)" filter="url(#Case)">
          <path id="Case-2" data-name="Case" d="M35.89,0H230.452a35.89,35.89,0,0,1,35.89,35.89V505.61a35.89,35.89,0,0,1-35.89,35.89H35.89A35.89,35.89,0,0,1,0,505.61V35.89A35.89,35.89,0,0,1,35.89,0Z" transform="translate(100.5 100.5)" fill="url(#linear-gradient)"/>
        </g>
        <path id="Bezel" d="M29.594,0H226.674a29.594,29.594,0,0,1,29.594,29.594V501.832a29.594,29.594,0,0,1-29.594,29.594H29.594A29.594,29.594,0,0,1,0,501.832V29.594A29.594,29.594,0,0,1,29.594,0Z" transform="translate(6.926 5.037)" fill="url(#linear-gradient-2)"/>
        <g id="Button" transform="translate(267.602 125.93)">
          <path id="Rectangle_21" data-name="Rectangle 21" d="M0,0H1.148a2,2,0,0,1,2,2V58.447a2,2,0,0,1-2,2H0a0,0,0,0,1,0,0V0A0,0,0,0,1,0,0Z" transform="translate(0)" fill="url(#linear-gradient-3)"/>
          <path id="Rectangle_101" data-name="Rectangle 101" d="M0,0H1.148a2,2,0,0,1,2,2V58.447a2,2,0,0,1-2,2H0a0,0,0,0,1,0,0V0A0,0,0,0,1,0,0Z" transform="translate(0)" fill="url(#linear-gradient-4)"/>
        </g>
        <g id="Button-2" data-name="Button" transform="translate(0 73.669)">
          <path id="Path_76" data-name="Path 76" d="M.63,0H3.148V20.149H.63A.612.612,0,0,1,0,19.556V.593A.612.612,0,0,1,.63,0Z" fill="url(#linear-gradient-3)"/>
          <g id="Group_40" data-name="Group 40">
            <path id="Rectangle_149" data-name="Rectangle 149" d="M0,0H2.148a1,1,0,0,1,1,1V19.149a1,1,0,0,1-1,1H0a0,0,0,0,1,0,0V0A0,0,0,0,1,0,0Z" transform="translate(3.148 20.149) rotate(180)" fill="url(#linear-gradient-4)"/>
          </g>
        </g>
        <g id="Button-3" data-name="Button" transform="translate(0 113.337)">
          <path id="Path_81" data-name="Path 81" d="M.63,0H3.148V37.779H.63a.611.611,0,0,1-.63-.59V.59A.611.611,0,0,1,.63,0Z" transform="translate(0 0)" fill="url(#linear-gradient-3)"/>
          <g id="Group_42" data-name="Group 42" transform="translate(0 0)">
            <g id="Group_40-2" data-name="Group 40">
              <path id="Rectangle_149-2" data-name="Rectangle 149" d="M0,0H2.148a1,1,0,0,1,1,1V36.779a1,1,0,0,1-1,1H0a0,0,0,0,1,0,0V0A0,0,0,0,1,0,0Z" transform="translate(3.148 37.779) rotate(180)" fill="url(#linear-gradient-4)"/>
            </g>
          </g>
        </g>
        <g id="Button-4" data-name="Button" transform="translate(0 162.45)">
          <path id="Path_84" data-name="Path 84" d="M.63,0H3.148V37.779H.63a.611.611,0,0,1-.63-.59V.59A.611.611,0,0,1,.63,0Z" fill="url(#linear-gradient-3)"/>
          <g id="Group_45" data-name="Group 45" transform="translate(0 0)">
            <g id="Group_40-3" data-name="Group 40">
              <path id="Rectangle_149-3" data-name="Rectangle 149" d="M0,0H2.148a1,1,0,0,1,1,1V36.779a1,1,0,0,1-1,1H0a0,0,0,0,1,0,0V0A0,0,0,0,1,0,0Z" transform="translate(3.148 37.779) rotate(180)" fill="url(#linear-gradient-4)"/>
            </g>
          </g>
        </g>
        <path id="Glass" d="M27.982,0H225.767a27.91,27.91,0,0,1,27.982,27.837V501.07a27.91,27.91,0,0,1-27.982,27.837H27.982A27.91,27.91,0,0,1,0,501.07V27.837A27.91,27.91,0,0,1,27.982,0Z" transform="translate(8.185 6.297)" fill="url(#linear-gradient-11)"/>
        <path id="Path_85" data-name="Path 85" d="M0-1.728H146.709V5.2A15.112,15.112,0,0,1,131.6,20.31H15.112A15.112,15.112,0,0,1,0,5.2Z" transform="translate(62.335 12.432)" fill="#1b1b1b"/>
        <g id="Camera" transform="translate(162.45 15.741)">
          <ellipse id="Ellipse_7" data-name="Ellipse 7" cx="4.722" cy="4.722" rx="4.722" ry="4.722" transform="translate(0)" fill="url(#linear-gradient-12)"/>
          <circle id="Ellipse_8" data-name="Ellipse 8" cx="4.093" cy="4.093" r="4.093" transform="translate(0.63 0.63)" fill="url(#linear-gradient-13)"/>
          <ellipse id="Ellipse_10" data-name="Ellipse 10" cx="2.833" cy="2.833" rx="2.833" ry="2.833" transform="translate(1.889 1.889)" fill="#2d2d2d"/>
          <ellipse id="Ellipse_9" data-name="Ellipse 9" cx="0.944" cy="0.63" rx="0.944" ry="0.63" transform="translate(3.778 1.889)" fill="#5d5d5d"/>
        </g>
        <path id="Ear_Peice" data-name="Ear Peice" d="M2.7.5H37.335a2.2,2.2,0,1,1,0,4.408H2.7A2.2,2.2,0,1,1,2.7.5Z" transform="translate(115.041 18.075)" fill="#111" stroke="#262626" stroke-width="1"/>
        <path id="Home" d="M1.574,0H80.281a1.574,1.574,0,0,1,0,3.148H1.574A1.574,1.574,0,0,1,1.574,0Z" transform="translate(94.448 515.684)" fill="#363636"/>
      </g>
      <path id="Path_1600" data-name="Path 1600" d="M0-1.728H146.709V5.2A15.112,15.112,0,0,1,131.6,20.31H15.112A15.112,15.112,0,0,1,0,5.2Z" transform="translate(62.336 12.432)" fill="#1b1b1b"/>
      <g id="design" transform="translate(16.033 13.47)">
        <rect id="Rectangle_1476" data-name="Rectangle 1476" width="238.764" height="513.524" rx="17" fill="#00498d"/>
        <g id="Group_2824" data-name="Group 2824" transform="translate(74.334 193.194)">
          <g id="logo_kub" data-name="logo kub" transform="translate(1.458 0)">
            <line id="Line_6" data-name="Line 6" x1="42.091" transform="translate(34.008 12.971)" fill="none" stroke="#fff" stroke-miterlimit="10" stroke-width="0.5"/>
            <line id="Line_7" data-name="Line 7" x1="42.091" transform="translate(34.008 55.062)" fill="none" stroke="#fff" stroke-miterlimit="10" stroke-width="0.5"/>
            <line id="Line_8" data-name="Line 8" y1="42.091" transform="translate(34.008 12.971)" fill="none" stroke="#fff" stroke-miterlimit="10" stroke-width="0.5"/>
            <line id="Line_9" data-name="Line 9" y1="42.091" transform="translate(76.099 12.971)" fill="none" stroke="#fff" stroke-miterlimit="10" stroke-width="0.5"/>
            <line id="Line_10" data-name="Line 10" x1="42.091" transform="translate(12.971 34.026)" fill="none" stroke="#fff" stroke-miterlimit="10" stroke-width="0.5"/>
            <line id="Line_11" data-name="Line 11" x1="42.091" transform="translate(12.971 76.099)" fill="none" stroke="#fff" stroke-miterlimit="10" stroke-width="0.5"/>
            <line id="Line_12" data-name="Line 12" y1="42.091" transform="translate(12.971 34.008)" fill="none" stroke="#fff" stroke-miterlimit="10" stroke-width="0.5"/>
            <line id="Line_13" data-name="Line 13" y1="42.091" transform="translate(55.062 34.008)" fill="none" stroke="#fff" stroke-miterlimit="10" stroke-width="0.5"/>
            <line id="Line_14" data-name="Line 14" x1="21.037" y2="21.037" transform="translate(12.918 12.918)" fill="none" stroke="#fff" stroke-miterlimit="10" stroke-width="0.5"/>
            <line id="Line_15" data-name="Line 15" x1="21.037" y2="21.037" transform="translate(55.115 12.918)" fill="none" stroke="#fff" stroke-miterlimit="10" stroke-width="0.5"/>
            <line id="Line_16" data-name="Line 16" x1="21.037" y2="21.037" transform="translate(55.115 55.115)" fill="none" stroke="#fff" stroke-miterlimit="10" stroke-width="0.5"/>
            <line id="Line_17" data-name="Line 17" x1="21.037" y2="21.037" transform="translate(12.918 55.115)" fill="none" stroke="#fff" stroke-miterlimit="10" stroke-width="0.5"/>
            <line id="Line_18" data-name="Line 18" x1="29.755" y1="29.755" transform="translate(59.58 14.789)" fill="none" stroke="#fff" stroke-miterlimit="10" stroke-width="0.5"/>
            <line id="Line_19" data-name="Line 19" x1="29.755" y1="29.755" transform="translate(29.825 44.544)" fill="none" stroke="#fff" stroke-miterlimit="10" stroke-width="0.5"/>
            <line id="Line_20" data-name="Line 20" y1="29.755" x2="29.755" transform="translate(29.825 14.789)" fill="none" stroke="#fff" stroke-miterlimit="10" stroke-width="0.5"/>
            <line id="Line_21" data-name="Line 21" y1="29.755" x2="29.755" transform="translate(59.58 44.544)" fill="none" stroke="#fff" stroke-miterlimit="10" stroke-width="0.5"/>
            <line id="Line_22" data-name="Line 22" x1="29.755" y1="29.755" transform="translate(29.825 14.789)" fill="none" stroke="#fff" stroke-miterlimit="10" stroke-width="0.5"/>
            <line id="Line_23" data-name="Line 23" x1="29.773" y1="29.755" transform="translate(0.071 44.544)" fill="none" stroke="#fff" stroke-miterlimit="10" stroke-width="0.5"/>
            <line id="Line_24" data-name="Line 24" y1="29.755" x2="29.773" transform="translate(0.071 14.789)" fill="none" stroke="#fff" stroke-miterlimit="10" stroke-width="0.5"/>
            <line id="Line_25" data-name="Line 25" y1="29.755" x2="29.755" transform="translate(29.825 44.544)" fill="none" stroke="#fff" stroke-miterlimit="10" stroke-width="0.5"/>
            <line id="Line_26" data-name="Line 26" x1="29.755" transform="translate(29.825 14.701)" fill="none" stroke="#fff" stroke-miterlimit="10" stroke-width="0.5"/>
            <line id="Line_27" data-name="Line 27" x1="29.755" transform="translate(59.669 44.544)" fill="none" stroke="#fff" stroke-miterlimit="10" stroke-width="0.5"/>
            <line id="Line_28" data-name="Line 28" x1="29.755" transform="translate(29.825 74.37)" fill="none" stroke="#fff" stroke-miterlimit="10" stroke-width="0.5"/>
            <line id="Line_29" data-name="Line 29" x1="29.755" transform="translate(0 44.544)" fill="none" stroke="#fff" stroke-miterlimit="10" stroke-width="0.5"/>
            <line id="Line_30" data-name="Line 30" y1="42.073" transform="translate(76.276 33.849)" fill="none" stroke="#fff" stroke-miterlimit="10" stroke-width="0.5"/>
            <line id="Line_31" data-name="Line 31" y1="42.073" transform="translate(34.185 33.849)" fill="none" stroke="#fff" stroke-miterlimit="10" stroke-width="0.5"/>
            <line id="Line_32" data-name="Line 32" x2="42.091" transform="translate(34.185 33.849)" fill="none" stroke="#fff" stroke-miterlimit="10" stroke-width="0.5"/>
            <line id="Line_33" data-name="Line 33" x2="42.091" transform="translate(34.185 75.923)" fill="none" stroke="#fff" stroke-miterlimit="10" stroke-width="0.5"/>
            <line id="Line_34" data-name="Line 34" y1="42.091" transform="translate(55.221 12.795)" fill="none" stroke="#fff" stroke-miterlimit="10" stroke-width="0.5"/>
            <line id="Line_35" data-name="Line 35" y1="42.091" transform="translate(13.148 12.795)" fill="none" stroke="#fff" stroke-miterlimit="10" stroke-width="0.5"/>
            <line id="Line_36" data-name="Line 36" x2="42.091" transform="translate(13.148 12.813)" fill="none" stroke="#fff" stroke-miterlimit="10" stroke-width="0.5"/>
            <line id="Line_37" data-name="Line 37" x2="42.091" transform="translate(13.148 54.886)" fill="none" stroke="#fff" stroke-miterlimit="10" stroke-width="0.5"/>
            <line id="Line_38" data-name="Line 38" x1="21.037" y1="21.037" transform="translate(55.292 12.742)" fill="none" stroke="#fff" stroke-miterlimit="10" stroke-width="0.5"/>
            <line id="Line_39" data-name="Line 39" x1="21.037" y1="21.037" transform="translate(55.292 54.939)" fill="none" stroke="#fff" stroke-miterlimit="10" stroke-width="0.5"/>
            <line id="Line_40" data-name="Line 40" x1="21.037" y1="21.037" transform="translate(13.095 54.939)" fill="none" stroke="#fff" stroke-miterlimit="10" stroke-width="0.5"/>
            <line id="Line_41" data-name="Line 41" x1="21.037" y1="21.037" transform="translate(13.095 12.742)" fill="none" stroke="#fff" stroke-miterlimit="10" stroke-width="0.5"/>
            <line id="Line_42" data-name="Line 42" y1="29.755" x2="29.755" transform="translate(44.703 59.58)" fill="none" stroke="#fff" stroke-miterlimit="10" stroke-width="0.5"/>
            <line id="Line_43" data-name="Line 43" y1="29.773" x2="29.773" transform="translate(14.948 29.825)" fill="none" stroke="#fff" stroke-miterlimit="10" stroke-width="0.5"/>
            <line id="Line_44" data-name="Line 44" x2="29.755" y2="29.773" transform="translate(44.703 29.825)" fill="none" stroke="#fff" stroke-miterlimit="10" stroke-width="0.5"/>
            <line id="Line_45" data-name="Line 45" x2="29.773" y2="29.755" transform="translate(14.948 59.58)" fill="none" stroke="#fff" stroke-miterlimit="10" stroke-width="0.5"/>
            <line id="Line_46" data-name="Line 46" y1="29.773" x2="29.755" transform="translate(44.703 29.825)" fill="none" stroke="#fff" stroke-miterlimit="10" stroke-width="0.5"/>
            <line id="Line_47" data-name="Line 47" y1="29.755" x2="29.773" transform="translate(14.948 0.088)" fill="none" stroke="#fff" stroke-miterlimit="10" stroke-width="0.5"/>
            <line id="Line_48" data-name="Line 48" x2="29.755" y2="29.755" transform="translate(44.703 0.088)" fill="none" stroke="#fff" stroke-miterlimit="10" stroke-width="0.5"/>
            <line id="Line_49" data-name="Line 49" x2="29.773" y2="29.773" transform="translate(14.948 29.825)" fill="none" stroke="#fff" stroke-miterlimit="10" stroke-width="0.5"/>
            <line id="Line_50" data-name="Line 50" y1="29.737" transform="translate(74.546 29.843)" fill="none" stroke="#fff" stroke-miterlimit="10" stroke-width="0.5"/>
            <line id="Line_51" data-name="Line 51" y1="29.755" transform="translate(44.703 59.669)" fill="none" stroke="#fff" stroke-miterlimit="10" stroke-width="0.5"/>
            <line id="Line_52" data-name="Line 52" y1="29.737" transform="translate(14.877 29.843)" fill="none" stroke="#fff" stroke-miterlimit="10" stroke-width="0.5"/>
            <line id="Line_53" data-name="Line 53" y1="29.755" transform="translate(44.703)" fill="none" stroke="#fff" stroke-miterlimit="10" stroke-width="0.5"/>
            <circle id="Ellipse_9-2" data-name="Ellipse 9" cx="7.183" cy="7.183" r="7.183" transform="translate(37.52 37.538)" fill="#fff"/>
          </g>
          <text id="KubiRub_Company_Service" data-name="KubiRub
Company Service" transform="translate(44 109.608)" fill="#fff" font-size="10" font-family="Montserrat"><tspan x="-21.71" y="0">KubiRub</tspan><tspan x="-44.2" y="11">Company Service</tspan></text>
        </g>
      </g>
    </g>
    <path id="Path_1601" data-name="Path 1601" d="M0-1.728H146.709V5.2A15.112,15.112,0,0,1,131.6,20.31H15.112A15.112,15.112,0,0,1,0,5.2Z" transform="translate(381.336 1466.889)" fill="#1b1b1b"/>
  </g>
</svg>
