<svg xmlns="http://www.w3.org/2000/svg" width="268.209" height="61.04" viewBox="0 0 268.209 61.04">
  <defs>
    <style>
      .cls-1 {
        fill: none;
        stroke: #1598e5;
        stroke-miterlimit: 10;
      }

      .cls-2, .cls-3 {
        fill: #1598e5;
      }

      .cls-3 {
        font-size: 50px;
        font-family: Rubik-Regular, Rubik;
        letter-spacing: 0em;
      }
    </style>
  </defs>
  <g id="Logo_kubirub" data-name="Logo kubirub" transform="translate(-179.496 -436.705)">
    <g id="logo_kub" data-name="logo kub" transform="translate(179.802 437)">
      <g id="Symbol_4_1" data-name="Symbol 4 – 1">
        <line id="Line_6" data-name="Line 6" class="cls-1" x1="28.454" transform="translate(22.99 8.769)"/>
        <line id="Line_7" data-name="Line 7" class="cls-1" x1="28.454" transform="translate(22.99 37.223)"/>
        <line id="Line_8" data-name="Line 8" class="cls-1" y1="28.454" transform="translate(22.99 8.769)"/>
        <line id="Line_9" data-name="Line 9" class="cls-1" y1="28.454" transform="translate(51.444 8.769)"/>
        <line id="Line_10" data-name="Line 10" class="cls-1" x1="28.454" transform="translate(8.769 23.002)"/>
        <line id="Line_11" data-name="Line 11" class="cls-1" x1="28.454" transform="translate(8.769 51.444)"/>
        <line id="Line_12" data-name="Line 12" class="cls-1" y1="28.454" transform="translate(8.769 22.99)"/>
        <line id="Line_13" data-name="Line 13" class="cls-1" y1="28.454" transform="translate(37.223 22.99)"/>
        <line id="Line_14" data-name="Line 14" class="cls-1" x1="14.221" y2="14.221" transform="translate(8.733 8.733)"/>
        <line id="Line_15" data-name="Line 15" class="cls-1" x1="14.221" y2="14.221" transform="translate(37.259 8.733)"/>
        <line id="Line_16" data-name="Line 16" class="cls-1" x1="14.221" y2="14.221" transform="translate(37.259 37.259)"/>
        <line id="Line_17" data-name="Line 17" class="cls-1" x1="14.221" y2="14.221" transform="translate(8.733 37.259)"/>
        <line id="Line_18" data-name="Line 18" class="cls-1" x1="20.115" y1="20.115" transform="translate(40.277 9.998)"/>
        <line id="Line_19" data-name="Line 19" class="cls-1" x1="20.115" y1="20.115" transform="translate(20.163 30.113)"/>
        <line id="Line_20" data-name="Line 20" class="cls-1" y1="20.115" x2="20.115" transform="translate(20.163 9.998)"/>
        <line id="Line_21" data-name="Line 21" class="cls-1" y1="20.115" x2="20.115" transform="translate(40.277 30.113)"/>
        <line id="Line_22" data-name="Line 22" class="cls-1" x1="20.115" y1="20.115" transform="translate(20.163 9.998)"/>
        <line id="Line_23" data-name="Line 23" class="cls-1" x1="20.127" y1="20.115" transform="translate(0.048 30.113)"/>
        <line id="Line_24" data-name="Line 24" class="cls-1" y1="20.115" x2="20.127" transform="translate(0.048 9.998)"/>
        <line id="Line_25" data-name="Line 25" class="cls-1" y1="20.115" x2="20.115" transform="translate(20.163 30.113)"/>
        <line id="Line_26" data-name="Line 26" class="cls-1" x1="20.115" transform="translate(20.163 9.938)"/>
        <line id="Line_27" data-name="Line 27" class="cls-1" x1="20.115" transform="translate(40.337 30.113)"/>
        <line id="Line_28" data-name="Line 28" class="cls-1" x1="20.115" transform="translate(20.163 50.275)"/>
        <line id="Line_29" data-name="Line 29" class="cls-1" x1="20.115" transform="translate(0 30.113)"/>
        <line id="Line_30" data-name="Line 30" class="cls-1" y1="28.442" transform="translate(51.564 22.883)"/>
        <line id="Line_31" data-name="Line 31" class="cls-1" y1="28.442" transform="translate(23.109 22.883)"/>
        <line id="Line_32" data-name="Line 32" class="cls-1" x2="28.454" transform="translate(23.109 22.883)"/>
        <line id="Line_33" data-name="Line 33" class="cls-1" x2="28.454" transform="translate(23.109 51.325)"/>
        <line id="Line_34" data-name="Line 34" class="cls-1" y1="28.454" transform="translate(37.33 8.65)"/>
        <line id="Line_35" data-name="Line 35" class="cls-1" y1="28.454" transform="translate(8.888 8.65)"/>
        <line id="Line_36" data-name="Line 36" class="cls-1" x2="28.454" transform="translate(8.888 8.662)"/>
        <line id="Line_37" data-name="Line 37" class="cls-1" x2="28.454" transform="translate(8.888 37.104)"/>
        <line id="Line_38" data-name="Line 38" class="cls-1" x1="14.221" y1="14.221" transform="translate(37.378 8.614)"/>
        <line id="Line_39" data-name="Line 39" class="cls-1" x1="14.221" y1="14.221" transform="translate(37.378 37.14)"/>
        <line id="Line_40" data-name="Line 40" class="cls-1" x1="14.221" y1="14.221" transform="translate(8.852 37.14)"/>
        <line id="Line_41" data-name="Line 41" class="cls-1" x1="14.221" y1="14.221" transform="translate(8.852 8.614)"/>
        <line id="Line_42" data-name="Line 42" class="cls-1" y1="20.115" x2="20.115" transform="translate(30.22 40.277)"/>
        <line id="Line_43" data-name="Line 43" class="cls-1" y1="20.127" x2="20.127" transform="translate(10.105 20.163)"/>
        <line id="Line_44" data-name="Line 44" class="cls-1" x2="20.115" y2="20.127" transform="translate(30.22 20.163)"/>
        <line id="Line_45" data-name="Line 45" class="cls-1" x2="20.127" y2="20.115" transform="translate(10.105 40.277)"/>
        <line id="Line_46" data-name="Line 46" class="cls-1" y1="20.127" x2="20.115" transform="translate(30.22 20.163)"/>
        <line id="Line_47" data-name="Line 47" class="cls-1" y1="20.115" x2="20.127" transform="translate(10.105 0.06)"/>
        <line id="Line_48" data-name="Line 48" class="cls-1" x2="20.115" y2="20.115" transform="translate(30.22 0.06)"/>
        <line id="Line_49" data-name="Line 49" class="cls-1" x2="20.127" y2="20.127" transform="translate(10.105 20.163)"/>
        <line id="Line_50" data-name="Line 50" class="cls-1" y1="20.103" transform="translate(50.394 20.174)"/>
        <line id="Line_51" data-name="Line 51" class="cls-1" y1="20.115" transform="translate(30.22 40.337)"/>
        <line id="Line_52" data-name="Line 52" class="cls-1" y1="20.103" transform="translate(10.057 20.174)"/>
        <line id="Line_53" data-name="Line 53" class="cls-1" y1="20.115" transform="translate(30.22)"/>
      </g>
      <circle id="Ellipse_9" data-name="Ellipse 9" class="cls-2" cx="4.856" cy="4.856" r="4.856" transform="translate(25.364 25.376)"/>
    </g>
    <text id="KubiRub" class="cls-3" transform="translate(350.705 484.238)"><tspan x="-96.72" y="0">KubiRub</tspan></text>
  </g>
</svg>
