<svg xmlns="http://www.w3.org/2000/svg" width="278" height="59.365" viewBox="0 0 278 59.365"><defs><style>.a{fill:#2e394e;}</style></defs><path class="a" d="M1.04.4H29.281q0,14.12,0,28.241H1.04V.4Z" transform="translate(-1.04 -0.4)"/><path class="a" d="M153.858.4H182.1q0,14.12,0,28.241-14.117,0-28.237,0-.006-14.12,0-28.241Z" transform="translate(-122.733 -0.4)"/><path class="a" d="M1219.78,47.3a11.089,11.089,0,0,1,8.9-1.045c.024,1.743,0,3.489.012,5.234a5.822,5.822,0,0,0-4.5-.411,3.571,3.571,0,0,0-2.037,2.849,38.941,38.941,0,0,0-.114,4.572c2.978.006,5.957,0,8.935,0,.022-1.933-.025-3.87.024-5.8,2.025-.576,4.029-1.222,6.043-1.831.016,2.548-.025,5.1.022,7.646,2.014-.029,4.029-.006,6.043-.014v4.959c-2.022-.084-4.045-.022-6.067-.029.008,2.851,0,5.7,0,8.556.033,1.578-.085,3.167.1,4.741a3.073,3.073,0,0,0,1.32,2.436,4.546,4.546,0,0,0,4.644-.436v5.008a11.947,11.947,0,0,1-5.585.855,6.792,6.792,0,0,1-4.815-2.208,9.11,9.11,0,0,1-1.725-5.829c-.014-4.377,0-8.752-.006-13.131q-4.47,0-8.939,0-.006,10.3,0,20.6h-6.108q0-10.3,0-20.6c-1.415-.026-2.835.006-4.251-.022.006-1.629.012-3.261,0-4.894,1.409-.033,2.821-.018,4.234-.008.1-2.167-.228-4.4.422-6.509a8.314,8.314,0,0,1,3.444-4.7Z" transform="translate(-965.11 -36.545)"/><path class="a" d="M597.255,54.81a3.735,3.735,0,0,1,3.381,1.2,3.481,3.481,0,0,1,.424,3.967,3.8,3.8,0,0,1-4.065,1.7,3.453,3.453,0,0,1-2.835-3.4,3.534,3.534,0,0,1,3.1-3.464Z" transform="translate(-473.357 -43.694)"/><path class="a" d="M379.541,58.678h8.882q4.146,10.531,8.318,21.055c.707,1.756,1.369,3.532,2.11,5.273,3.556-8.772,7.165-17.524,10.695-26.308,2.847-.045,5.7-.01,8.546-.016q-.009,17.808,0,35.614c-2.055,0-4.11.016-6.163-.012.022-8.76,0-17.522.01-26.284,0-.393-.01-.786-.037-1.181a4.486,4.486,0,0,0-.32.57c-3.53,8.968-7.126,17.911-10.638,26.886-1.462.053-2.927,0-4.389.026-3.642-8.968-7.238-17.955-10.86-26.929-.1-.187-.2-.369-.308-.542-.075,3.839-.012,7.68-.033,11.52q0,7.974,0,15.947c-1.939,0-3.878,0-5.815,0q0-17.811,0-35.622Z" transform="translate(-302.45 -46.807)"/><path class="a" d="M655.884,105.719a16.726,16.726,0,0,1,9.073.026,7.323,7.323,0,0,1,1.741.725c-.035,1.945,0,3.892-.018,5.839a9.7,9.7,0,0,0-6.972-2.143,7.176,7.176,0,0,0-5.073,2.817,9.858,9.858,0,0,0-1.619,7.071,7.206,7.206,0,0,0,8.183,6.776,11.631,11.631,0,0,0,5.481-2.249c.016,1.843-.008,3.688.014,5.532a14.85,14.85,0,0,1-8.348,1.729,12.389,12.389,0,0,1-7.957-3.318,12.729,12.729,0,0,1-3.7-8.546,15.482,15.482,0,0,1,2.415-9.477,12.3,12.3,0,0,1,6.776-4.784Z" transform="translate(-515.177 -83.78)"/><path class="a" d="M991.353,105.348a16.163,16.163,0,0,1,8.454.88c0,1.872,0,3.743,0,5.615a10.772,10.772,0,0,0-6.416-1.894,3.284,3.284,0,0,0-2.917,1.613,2.64,2.64,0,0,0,.886,3.124c1.731,1.159,3.8,1.65,5.593,2.688a8.032,8.032,0,0,1,3.5,3.328,7.451,7.451,0,0,1-1.589,8.595c-2.257,2.11-5.509,2.693-8.5,2.583a18.114,18.114,0,0,1-6.21-1.426c.008-1.969-.012-3.937.01-5.9a13.363,13.363,0,0,0,5.542,2.391,7.121,7.121,0,0,0,4.216-.387,2.44,2.44,0,0,0,.729-3.471,7.36,7.36,0,0,0-2.666-1.745,25.544,25.544,0,0,1-5.271-2.7,6.321,6.321,0,0,1-2.281-3.464,7.779,7.779,0,0,1,.845-6.092,9.063,9.063,0,0,1,6.071-3.735Z" transform="translate(-783.926 -83.798)"/><path class="a" d="M776.169,106.76a6.89,6.89,0,0,1,5.668-.479c-.008,2.037,0,4.073-.006,6.112a6.488,6.488,0,0,0-4.128-.969,5.068,5.068,0,0,0-3.819,3.055,11.283,11.283,0,0,0-.87,5.212q0,6.1,0,12.208h-6.021q-.006-12.758,0-25.516c2.01-.024,4.02-.014,6.031,0-.008,1.46,0,2.921,0,4.383a7.794,7.794,0,0,1,3.153-4Z" transform="translate(-610.99 -84.406)"/><path class="a" d="M596.89,108.23c2.024-.008,4.053-.029,6.078.01-.024,8.5,0,17.008-.01,25.51h-6.063q-.009-12.758,0-25.52Z" transform="translate(-475.534 -86.259)"/><path class="a" d="M866.539,111.7a10.8,10.8,0,0,0-5.334-5.391,16.19,16.19,0,0,0-8.744-1.031,12.185,12.185,0,0,0-8.029,4.291,13.611,13.611,0,0,0-2.819,7.8,14.654,14.654,0,0,0,2.236,9.534,11.561,11.561,0,0,0,7.055,4.6,17.547,17.547,0,0,0,7.151.006,11.827,11.827,0,0,0,7.012-4.326,13.533,13.533,0,0,0,2.684-7.432A16.767,16.767,0,0,0,866.539,111.7Zm-5.9,11.717a5.571,5.571,0,0,1-3,2.947,8.23,8.23,0,0,1-4.978.218,6.1,6.1,0,0,1-3.829-3.159,11.8,11.8,0,0,1-.929-6.389,8.126,8.126,0,0,1,2.358-5.326,6.392,6.392,0,0,1,4.018-1.587,6.576,6.576,0,0,1,5.108,1.733,8.236,8.236,0,0,1,2.108,5.32A13.341,13.341,0,0,1,860.639,123.418Z" transform="translate(-670.371 -83.778)"/><path class="a" d="M1105.546,112.431a10.9,10.9,0,0,0-5.246-5.939,15.824,15.824,0,0,0-9.065-1.232,12.641,12.641,0,0,0-6.75,2.9,12.512,12.512,0,0,0-4.029,7.839,16.915,16.915,0,0,0,.959,8.868,11.334,11.334,0,0,0,6.2,6.02,16.4,16.4,0,0,0,8.6.727,11.932,11.932,0,0,0,7.509-4.389,13.977,13.977,0,0,0,2.764-8.695A16.291,16.291,0,0,0,1105.546,112.431Zm-5.509,8.654a7.968,7.968,0,0,1-1.579,3.748,5.72,5.72,0,0,1-3.568,1.921,8.078,8.078,0,0,1-4.369-.475,6.18,6.18,0,0,1-3.22-3.371,12.132,12.132,0,0,1-.725-5.562,8.823,8.823,0,0,1,1.851-5.084,6.244,6.244,0,0,1,4.458-2.139,6.705,6.705,0,0,1,4.894,1.444,7,7,0,0,1,2.21,4.063A15.626,15.626,0,0,1,1100.037,121.085Z" transform="translate(-860.463 -83.77)"/><path class="a" d="M1.04,153.21q14.12.006,28.241,0,0,14.12,0,28.239H1.04V153.21Z" transform="translate(-1.04 -122.087)"/><path class="a" d="M153.856,153.21q14.117-.006,28.239,0v28.241H153.856q0-14.117,0-28.239Z" transform="translate(-122.732 -122.085)"/></svg>