<svg xmlns="http://www.w3.org/2000/svg" xmlns:xlink="http://www.w3.org/1999/xlink" width="257.001" height="257" viewBox="0 0 257.001 257"><defs><style>.a{fill:#003cdb;}.b{fill:#001e6e;}.c{fill:url(#a);}.d{fill:url(#b);}.e{fill:#fff;}.f{fill:#d9efff;}.g{fill:#537da0;}.h{fill:#3d5572;}.i{fill:#ff8c7d;}.j{fill:#ffe67b;}.k{fill:#d4d7d9;}</style><linearGradient id="a" x1="0.5" x2="0.5" y2="1" gradientUnits="objectBoundingBox"><stop offset="0" stop-color="#0b4c73"/><stop offset="1" stop-color="#1598e5"/></linearGradient><linearGradient id="b" x1="0.5" x2="0.5" y2="1" gradientUnits="objectBoundingBox"><stop offset="0" stop-color="#1598e5"/><stop offset="1" stop-color="#0b4c73"/></linearGradient></defs><path class="a" d="M253.673,441.95a9.963,9.963,0,0,1-7.308,3.2H186.712A9.95,9.95,0,0,1,176.8,434.4a39.884,39.884,0,0,1,32.21-35.935V377.78h15.059v20.686a39.884,39.884,0,0,1,32.21,35.935A9.983,9.983,0,0,1,253.673,441.95Z" transform="translate(-88.038 -188.152)"/><path class="b" d="M293.135,441.95a9.963,9.963,0,0,1-7.308,3.2H256V377.78h7.529v20.686A39.884,39.884,0,0,1,295.74,434.4,9.983,9.983,0,0,1,293.135,441.95Z" transform="translate(-127.5 -188.152)"/><path class="c" d="M257,25.871V171.292a25.9,25.9,0,0,1-25.871,25.866H25.871A25.9,25.9,0,0,1,0,171.292V25.871A25.9,25.9,0,0,1,25.871,0H231.13A25.9,25.9,0,0,1,257,25.871Z"/><path class="d" d="M384.5,25.871V171.292a25.9,25.9,0,0,1-25.871,25.866H256V0H358.63A25.9,25.9,0,0,1,384.5,25.871Z" transform="translate(-127.5)"/><path class="b" d="M257,317.1v12.122a25.9,25.9,0,0,1-25.871,25.866H25.871A25.9,25.9,0,0,1,0,329.222V317.1Z" transform="translate(0 -157.93)"/><path class="a" d="M384.5,317.1v12.122a25.9,25.9,0,0,1-25.871,25.866H256V317.1Z" transform="translate(-127.5 -157.93)"/><g transform="translate(81.254 55.245)"><g transform="translate(0 0)"><path class="e" d="M193.326,204.29H179.488a29.206,29.206,0,0,0-24.116-24.116V166.337a4.647,4.647,0,1,0-9.293,0v13.837a29.206,29.206,0,0,0-24.116,24.116H108.127a4.647,4.647,0,1,0,0,9.293h13.837A29.2,29.2,0,0,0,146.08,237.7v13.841a4.647,4.647,0,1,0,9.293,0V237.7a29.2,29.2,0,0,0,24.116-24.113h13.837a4.647,4.647,0,1,0,0-9.293Zm-42.6,24.484a19.838,19.838,0,1,1,19.838-19.838A19.861,19.861,0,0,1,150.726,228.774Z" transform="translate(-103.48 -161.69)"/></g><path class="f" d="M303.246,208.936a4.648,4.648,0,0,1-4.647,4.647H284.762A29.2,29.2,0,0,1,260.647,237.7v13.841A4.648,4.648,0,0,1,256,256.182V228.774a19.838,19.838,0,0,0,0-39.675V161.69a4.646,4.646,0,0,1,4.647,4.647v13.837a29.206,29.206,0,0,1,24.116,24.116H298.6A4.646,4.646,0,0,1,303.246,208.936Z" transform="translate(-208.754 -161.69)"/></g><path class="g" d="M256.993,15.966V34.781H0V15.966C0,7.162,11.6,0,25.87,0H231.123C245.388,0,256.993,7.162,256.993,15.966Z" transform="translate(0.007 0.007)"/><path class="h" d="M384.493,15.966V34.781H256V0H358.624C372.888,0,384.493,7.162,384.493,15.966Z" transform="translate(-127.5 0.007)"/><g transform="translate(25.525 13.061)"><path class="i" d="M64.7,42.14H54.615a4.647,4.647,0,0,0,0,9.293H64.7a4.647,4.647,0,0,0,0-9.293Z" transform="translate(-49.968 -42.14)"/><path class="j" d="M147.7,42.14H137.615a4.647,4.647,0,0,0,0,9.293H147.7a4.647,4.647,0,0,0,0-9.293Z" transform="translate(-107.257 -42.14)"/><path class="k" d="M338.713,42.14H294.5a4.647,4.647,0,1,0,0,9.293h44.214a4.647,4.647,0,0,0,0-9.293Z" transform="translate(-126.697 -42.14)"/></g></svg>