<svg id="Icon_color_Pay_Pal" data-name="Icon/color/Pay Pal" xmlns="http://www.w3.org/2000/svg" width="129.421" height="90.202" viewBox="0 0 129.421 90.202">
  <g id="Pay_Pal" data-name="Pay Pal">
    <rect id="Rectangle_Copy_4" data-name="Rectangle Copy 4" width="129.421" height="90.202" rx="3" fill="#1b3d92"/>
    <g id="Group" transform="translate(45.101 21.57)">
      <path id="Path" d="M36.758,12.352c.587-3.782,0-6.355-2.029-8.686C32.5,1.1,28.471,0,23.318,0H8.359A2.146,2.146,0,0,0,6.245,1.825L.016,41.723a1.293,1.293,0,0,0,1.268,1.5h9.235L9.882,47.3a1.131,1.131,0,0,0,1.109,1.311h7.784a1.878,1.878,0,0,0,1.849-1.6l.076-.4,1.466-9.393.095-.519a1.879,1.879,0,0,1,1.849-1.6h1.164c7.541,0,13.446-3.094,15.171-12.044.721-3.74.348-6.861-1.558-9.056a7.428,7.428,0,0,0-2.131-1.659h0" transform="translate(0)" fill="#fff" opacity="0.68"/>
      <path id="Path-2" data-name="Path" d="M36.758,12.352c.587-3.782,0-6.355-2.029-8.686C32.5,1.1,28.471,0,23.318,0H8.359A2.146,2.146,0,0,0,6.245,1.825L.016,41.723a1.293,1.293,0,0,0,1.268,1.5h9.235l2.32-14.859-.072.466A2.139,2.139,0,0,1,14.873,27h4.39c8.62,0,15.37-3.538,17.342-13.768.059-.3.108-.6.153-.884" transform="translate(0)" fill="#fff" opacity="0.7"/>
      <path id="Path-3" data-name="Path" d="M15.331,12.4a1.888,1.888,0,0,1,1.041-1.411,1.854,1.854,0,0,1,.808-.185H28.907a24.213,24.213,0,0,1,3.868.285q.507.082.988.19t.931.241c.151.044.3.091.444.14a10.5,10.5,0,0,1,1.621.692c.587-3.782,0-6.355-2.029-8.686C32.5,1.1,28.471,0,23.318,0H8.359A2.146,2.146,0,0,0,6.245,1.825L.016,41.723a1.293,1.293,0,0,0,1.268,1.5h9.235l2.32-14.859Z" transform="translate(0 0)" fill="#fff"/>
    </g>
  </g>
</svg>
