<svg xmlns="http://www.w3.org/2000/svg" width="155.65" height="257.074" viewBox="0 0 155.65 257.074"><defs><style>.a{fill:#d9efff;}.b{fill:#b3e2ff;}.c{fill:#001e6e;}.d{fill:#fff;}.e{fill:#003cdb;}.f,.g,.i{fill:none;}.f,.g{stroke:#0b4c73;stroke-width:3px;}.f{stroke-linecap:round;}.h{stroke:none;}</style></defs><path class="a" d="M256.65,25.376V231.7a25.4,25.4,0,0,1-25.376,25.376h-104.9A25.4,25.4,0,0,1,101,231.7V25.376A25.4,25.4,0,0,1,126.376,0h104.9A25.4,25.4,0,0,1,256.65,25.376Z" transform="translate(-101)"/><path class="b" d="M333.825,25.376V231.7a25.4,25.4,0,0,1-25.376,25.376H256V0h52.449A25.4,25.4,0,0,1,333.825,25.376Z" transform="translate(-178.175)"/><g transform="translate(0)"><path class="c" d="M231.274,0h-104.9A25.4,25.4,0,0,0,101,25.376V231.7a25.4,25.4,0,0,0,25.376,25.376h104.9A25.4,25.4,0,0,0,256.65,231.7V25.376A25.4,25.4,0,0,0,231.274,0Zm10.313,231.7a10.322,10.322,0,0,1-10.313,10.313h-104.9A10.322,10.322,0,0,1,116.063,231.7V25.376a10.322,10.322,0,0,1,10.313-10.313h18.06A12.522,12.522,0,0,0,156.944,27.57h41.483a12.518,12.518,0,0,0,12.507-12.507h20.34a10.322,10.322,0,0,1,10.313,10.313Z" transform="translate(-101)"/></g><g transform="translate(28.805 46.77)"><path class="d" d="M256.41,101.791v88.947a8.651,8.651,0,0,1-8.641,8.641H167.011a8.651,8.651,0,0,1-8.641-8.641V101.791a8.651,8.651,0,0,1,8.641-8.641h80.757A8.651,8.651,0,0,1,256.41,101.791Z" transform="translate(-158.37 -93.15)"/><path class="d" d="M256.41,342.181a7.528,7.528,0,0,1-7.531,7.531H165.9a7.531,7.531,0,0,1,0-15.063h82.977A7.531,7.531,0,0,1,256.41,342.181Z" transform="translate(-158.37 -213.393)"/><path class="d" d="M256.41,387.061a7.528,7.528,0,0,1-7.531,7.531H165.9a7.531,7.531,0,0,1,0-15.063h82.977A7.531,7.531,0,0,1,256.41,387.061Z" transform="translate(-158.37 -235.739)"/><path class="a" d="M307.923,424.415H285.1a7.531,7.531,0,0,0,0,15.063h22.825a7.531,7.531,0,1,0,0-15.063Z" transform="translate(-217.718 -258.087)"/></g><path class="a" d="M297.488,394.593H256V379.53h41.488a7.531,7.531,0,0,1,0,15.063Z" transform="translate(-178.175 -188.969)"/><path class="a" d="M297.488,349.713H256V334.65h41.488a7.531,7.531,0,0,1,0,15.063Z" transform="translate(-178.175 -166.623)"/><path class="a" d="M296.379,199.379H256V93.15h40.379a8.651,8.651,0,0,1,8.641,8.641v88.947A8.651,8.651,0,0,1,296.379,199.379Z" transform="translate(-178.175 -46.38)"/><path class="e" d="M333.825,25.376V231.7a25.4,25.4,0,0,1-25.376,25.376H256V242.011h52.449A10.322,10.322,0,0,0,318.762,231.7V25.376a10.322,10.322,0,0,0-10.313-10.313h-20.34A12.518,12.518,0,0,1,275.6,27.57H256V0h52.449A25.4,25.4,0,0,1,333.825,25.376Z" transform="translate(-178.175)"/><g transform="translate(7.08 6.844)"><line class="f" x1="34" y2="34" transform="translate(55.835 76.601)"/><g transform="translate(49.415 72.591)"><g class="g" transform="translate(0 0)"><circle class="h" cx="10.696" cy="10.696" r="10.696"/><circle class="i" cx="10.696" cy="10.696" r="9.196"/></g><g class="g" transform="translate(24.448 21.392)"><circle class="h" cx="10.696" cy="10.696" r="10.696"/><circle class="i" cx="10.696" cy="10.696" r="9.196"/></g></g></g></svg>