<svg xmlns="http://www.w3.org/2000/svg" xmlns:xlink="http://www.w3.org/1999/xlink" width="207.724" height="70.062" viewBox="0 0 207.724 70.062"><defs><style>.a,.j{fill:#fff;}.b,.c{stroke:#000;}.c{stroke-miterlimit:10;stroke-width:0.2px;}.d{fill:url(#a);}.e{fill:url(#b);}.f{fill:url(#c);}.g{fill:url(#d);}.h{opacity:0.2;}.i{opacity:0.12;}.j{opacity:0.25;}</style><linearGradient id="a" x1="0.914" y1="6.196" x2="-0.387" y2="5.526" gradientUnits="objectBoundingBox"><stop offset="0" stop-color="#00a0ff"/><stop offset="0.007" stop-color="#00a1ff"/><stop offset="0.26" stop-color="#00beff"/><stop offset="0.512" stop-color="#00d2ff"/><stop offset="0.76" stop-color="#00dfff"/><stop offset="1" stop-color="#00e3ff"/></linearGradient><linearGradient id="b" x1="1.078" y1="15.866" x2="-1.311" y2="15.866" gradientUnits="objectBoundingBox"><stop offset="0" stop-color="#ffe000"/><stop offset="0.409" stop-color="#ffbd00"/><stop offset="0.775" stop-color="orange"/><stop offset="1" stop-color="#ff9c00"/></linearGradient><linearGradient id="c" x1="0.86" y1="10.077" x2="-0.503" y2="8.304" gradientUnits="objectBoundingBox"><stop offset="0" stop-color="#ff3a44"/><stop offset="1" stop-color="#c31162"/></linearGradient><linearGradient id="d" x1="-0.19" y1="12.771" x2="0.419" y2="11.981" gradientUnits="objectBoundingBox"><stop offset="0" stop-color="#32a071"/><stop offset="0.068" stop-color="#2da771"/><stop offset="0.476" stop-color="#15cf74"/><stop offset="0.801" stop-color="#06e775"/><stop offset="1" stop-color="#00f076"/></linearGradient></defs><g transform="translate(0.5 0.5)"><g transform="translate(0)"><path class="a" d="M199.123,69.062H7.6c-4.146,0-7.6-3.9-7.6-8.574V8.574C0,3.9,3.455,0,7.6,0H199.123c4.146,0,7.6,3.9,7.6,8.574V60.487C206.723,65.164,203.269,69.062,199.123,69.062Z" transform="translate(0)"/></g><g transform="translate(0)"><path class="b" d="M199.123,1.4c3.593,0,6.495,3.274,6.495,7.327V60.643c0,4.053-2.9,7.327-6.495,7.327H7.6c-3.593,0-6.495-3.274-6.495-7.327V8.574C1.244,4.677,4.146,1.4,7.6,1.4H199.123m0-1.4H7.6C3.455,0,0,3.9,0,8.574V60.487c0,4.677,3.455,8.574,7.6,8.574H199.123c4.146,0,7.6-3.9,7.6-8.574V8.574c0-4.677-3.455-8.574-7.6-8.574Z" transform="translate(0)"/></g><g transform="translate(56.461 11.848)"><path class="c" d="M56.289,13.524a4.853,4.853,0,0,1-1.247,3.43A4.622,4.622,0,0,1,51.3,18.513a4.622,4.622,0,0,1-3.741-1.559A5.171,5.171,0,0,1,46,13.056a5.171,5.171,0,0,1,1.559-3.9A5.067,5.067,0,0,1,51.3,7.6a5.5,5.5,0,0,1,2.183.468,3.979,3.979,0,0,1,1.559,1.091l-.935.935A3.425,3.425,0,0,0,51.3,8.847a3.757,3.757,0,0,0-2.806,1.091,4.141,4.141,0,0,0,0,5.924A3.757,3.757,0,0,0,51.3,16.954a4.115,4.115,0,0,0,2.962-1.091,4.081,4.081,0,0,0,.935-2.027H51.456V12.589h4.989C56.133,12.9,56.289,13.212,56.289,13.524Z" transform="translate(-46 -7.6)"/><path class="c" d="M59.88,9.047H55.2v3.274h4.209v1.247H55.2v3.274H59.88v1.247H53.8V7.8h6.08Z" transform="translate(-41.64 -7.488)"/><path class="c" d="M62.865,18.089h-1.4V9.047H58.5V7.8h7.171V9.047H62.709v9.042Z" transform="translate(-39.013 -7.488)"/><path class="c" d="M66.4,18.089V7.8h1.4V18.245H66.4Z" transform="translate(-34.597 -7.488)"/><path class="c" d="M72.665,18.089h-1.4V9.047H68.3V7.8h7.171V9.047H72.509v9.042Z" transform="translate(-33.535 -7.488)"/><path class="c" d="M84.842,16.954A5.067,5.067,0,0,1,81.1,18.513a4.622,4.622,0,0,1-3.742-1.559,5.171,5.171,0,0,1-1.559-3.9,5.171,5.171,0,0,1,1.559-3.9A5.067,5.067,0,0,1,81.1,7.6a4.622,4.622,0,0,1,3.742,1.559,5.171,5.171,0,0,1,1.559,3.9A5.83,5.83,0,0,1,84.842,16.954Zm-6.7-.935a4.154,4.154,0,0,0,5.612,0,3.881,3.881,0,0,0,1.091-2.962,3.8,3.8,0,0,0-.935-2.962,4.154,4.154,0,0,0-5.612,0A3.881,3.881,0,0,0,77.2,13.056,4.5,4.5,0,0,0,78.138,16.018Z" transform="translate(-29.343 -7.6)"/><path class="c" d="M83.8,18.089V7.8h1.559l4.989,8.107h0V7.8h1.4V18.245h-1.4l-5.3-8.574h0v8.418Z" transform="translate(-24.872 -7.488)"/></g><path d="M90.349,26.951a7.076,7.076,0,0,0-7.026,7.327,7.033,7.033,0,1,0,14.053,0A6.987,6.987,0,0,0,90.349,26.951Zm0,11.848a4.291,4.291,0,0,1-4.036-4.521c0-2.65,1.794-4.521,4.036-4.521s4.036,1.871,4.036,4.521S92.592,38.8,90.349,38.8Zm-15.4-11.848a7.076,7.076,0,0,0-7.026,7.327,7.033,7.033,0,1,0,14.053,0A7.076,7.076,0,0,0,74.951,26.951Zm0,11.848a4.291,4.291,0,0,1-4.036-4.521c0-2.65,1.794-4.521,4.036-4.521a4.291,4.291,0,0,1,4.036,4.521A4.291,4.291,0,0,1,74.951,38.8Zm-18.388-9.51v3.118h7.176a6.168,6.168,0,0,1-1.644,3.9,7.224,7.224,0,0,1-5.531,2.338,8.152,8.152,0,0,1-7.923-8.262,8.055,8.055,0,0,1,7.923-8.262A7.261,7.261,0,0,1,61.945,24.3l2.093-2.183A10.494,10.494,0,0,0,56.563,19a11.385,11.385,0,0,0,0,22.761,9.515,9.515,0,0,0,7.624-3.274,10.7,10.7,0,0,0,2.541-7.327,6.69,6.69,0,0,0-.149-1.871Zm75.048,2.338c-.6-1.715-2.392-4.677-5.98-4.677s-6.578,2.962-6.578,7.327a7.079,7.079,0,0,0,7.026,7.327,6.649,6.649,0,0,0,5.83-3.274l-2.392-1.715a3.925,3.925,0,0,1-3.438,2.027,3.632,3.632,0,0,1-3.438-2.183l9.418-4.053Zm-9.568,2.494a4.012,4.012,0,0,1,3.737-4.365,2.941,2.941,0,0,1,2.691,1.559Zm-7.624,7.171h3.139V19.624h-3.139Zm-5.083-12.628h0a4.9,4.9,0,0,0-3.887-1.715c-3.588,0-6.727,3.274-6.727,7.327s3.289,7.327,6.727,7.327a4.809,4.809,0,0,0,3.737-1.715h.149v1.091c0,2.806-1.495,4.365-3.737,4.365a3.844,3.844,0,0,1-3.588-2.65l-2.691,1.247a6.855,6.855,0,0,0,6.279,4.365c3.588,0,6.727-2.183,6.727-7.639V27.418h-2.99ZM105.748,38.8a4.129,4.129,0,0,1-3.887-4.365c0-2.65,1.794-4.521,3.887-4.521s3.737,1.871,3.737,4.521C109.485,36.928,107.841,38.8,105.748,38.8Zm40.364-19.175h-7.475V41.293h3.139V33.031h4.335a6.7,6.7,0,1,0,0-13.407Zm.149,10.445h-4.335V22.586h4.335a3.745,3.745,0,0,1,0,7.483ZM165.4,26.951a6,6,0,0,0-5.531,3.274l2.691,1.247a2.792,2.792,0,0,1,2.84-1.559c1.644,0,3.289.935,3.289,2.806v.156A7.33,7.33,0,0,0,165.4,32.1c-2.99,0-5.98,1.715-5.98,4.833,0,2.962,2.392,4.677,5.083,4.677a3.941,3.941,0,0,0,3.887-2.183h.15v1.715h2.99V32.875C171.676,29.133,168.985,26.951,165.4,26.951ZM164.949,38.8c-1.046,0-2.392-.468-2.392-1.871,0-1.715,1.794-2.338,3.289-2.338a5.153,5.153,0,0,1,2.84.779A3.891,3.891,0,0,1,164.949,38.8Zm17.641-11.38L179,36.772h-.149l-3.737-9.354h-3.289l5.531,13.1-3.139,7.327h3.289l8.521-20.422ZM154.633,41.293h3.139V19.624h-3.139Z" transform="translate(10.182 10.62)"/><g transform="translate(10.187 12.357)"><path class="d" d="M11.879,8.4a3.661,3.661,0,0,0-.779,2.494V49.089a3.967,3.967,0,0,0,.779,2.494l.156.156L33.393,30.381V29.6L11.879,8.4Z" transform="translate(-11.1 -7.661)"/><path class="e" d="M32.571,32.21,25.4,25.039v-.468L32.571,17.4l.156.156,8.418,4.833c2.338,1.4,2.338,3.586,0,4.989L32.727,32.21Z" transform="translate(-3.107 -2.631)"/><path class="f" d="M40.441,29.527,33.114,22.2,11.6,43.714a2.978,2.978,0,0,0,3.586.156L40.441,29.527" transform="translate(-10.821 0.052)"/><path class="g" d="M40.441,22.845,15.186,8.5c-1.4-.779-2.806-.779-3.586.156L33.114,30.173Z" transform="translate(-10.821 -7.92)"/><g transform="translate(0 29.267)"><path class="h" d="M40.285,26.7l-25.1,14.186c-1.4.779-2.65.779-3.43,0h0L11.6,41.2h0l.156.156h0c.779.779,2.027.779,3.43,0L40.441,27.012Z" transform="translate(-10.821 -26.7)"/><path class="i" d="M11.879,36.694A3.661,3.661,0,0,1,11.1,34.2v.312a3.967,3.967,0,0,0,.779,2.494v-.312Z" transform="translate(-11.1 -22.508)"/></g><path class="i" d="M38.574,24.438,30,29.271l.156.156,8.418-4.833A2.924,2.924,0,0,0,40.445,22.1h0A3.383,3.383,0,0,1,38.574,24.438Z" transform="translate(-0.536 -0.004)"/><path class="j" d="M15.465,8.821,49.138,28a3.5,3.5,0,0,1,1.871,2.183h0a2.924,2.924,0,0,0-1.871-2.494L15.465,8.509C13.127,7.106,11.1,8.353,11.1,11v.312C11.1,8.509,12.971,7.418,15.465,8.821Z" transform="translate(-11.1 -7.926)"/></g></g></svg>