<svg xmlns="http://www.w3.org/2000/svg" width="155.65" height="257.074" viewBox="0 0 155.65 257.074"><defs><style>.a{fill:#d9efff;}.b{fill:#b3e2ff;}.c{fill:#003cdb;}.d{fill:#001e6e;}.e{fill:#fff;}</style></defs><g transform="translate(0)"><path class="a" d="M256.65,25.376V231.7a25.4,25.4,0,0,1-25.376,25.376h-104.9A25.4,25.4,0,0,1,101,231.7V25.376A25.4,25.4,0,0,1,126.376,0h104.9A25.4,25.4,0,0,1,256.65,25.376Z" transform="translate(-101)"/><path class="b" d="M333.825,25.376V231.7a25.4,25.4,0,0,1-25.376,25.376H256V0h52.449A25.4,25.4,0,0,1,333.825,25.376Z" transform="translate(-178.175)"/><g transform="translate(0)"><path class="c" d="M231.274,0h-104.9A25.4,25.4,0,0,0,101,25.376V231.7a25.4,25.4,0,0,0,25.376,25.376h104.9A25.4,25.4,0,0,0,256.65,231.7V25.376A25.4,25.4,0,0,0,231.274,0Zm10.313,231.7a10.322,10.322,0,0,1-10.313,10.313h-104.9A10.322,10.322,0,0,1,116.063,231.7V25.376a10.322,10.322,0,0,1,10.313-10.313h18.06A12.522,12.522,0,0,0,156.944,27.57h41.483a12.518,12.518,0,0,0,12.507-12.507h20.34a10.322,10.322,0,0,1,10.313,10.313Z" transform="translate(-101)"/></g><path class="d" d="M333.825,25.376V231.7a25.4,25.4,0,0,1-25.376,25.376H256V242.011h52.449A10.322,10.322,0,0,0,318.762,231.7V25.376a10.322,10.322,0,0,0-10.313-10.313h-20.34A12.518,12.518,0,0,1,275.6,27.57H256V0h52.449A25.4,25.4,0,0,1,333.825,25.376Z" transform="translate(-178.175)"/></g><g transform="translate(26.877 52.794)"><path class="e" d="M257.337,180.453v.2A19.271,19.271,0,0,1,238.088,199.8h-.858v6.9a7.864,7.864,0,0,1-7.864,7.848h-.005a7.83,7.83,0,0,1-7.827-7.848v-6.9H207.988a7.848,7.848,0,0,1,0-15.7h30.1a3.553,3.553,0,1,0,0-7.105H219.394A19.272,19.272,0,0,1,200.14,157.85v-.2A19.272,19.272,0,0,1,219.394,138.5h2.14v-6.854a7.83,7.83,0,0,1,7.827-7.848h.005a7.864,7.864,0,0,1,7.864,7.848V138.5h12.259a7.848,7.848,0,0,1,0,15.7H219.394a3.553,3.553,0,1,0,0,7.105h18.694A19.271,19.271,0,0,1,257.337,180.453Z" transform="translate(-178.281 -123.8)"/><path class="e" d="M260.521,347.808a7.848,7.848,0,0,1-7.848,7.848H166.208a7.848,7.848,0,1,1,0-15.7h86.465A7.848,7.848,0,0,1,260.521,347.808Z" transform="translate(-158.36 -226.864)"/><path class="e" d="M258.2,392.688a7.844,7.844,0,0,1-7.848,7.848H216.208a7.848,7.848,0,1,1,0-15.7h34.144A7.848,7.848,0,0,1,258.2,392.688Z" transform="translate(-182.2 -248.262)"/><path class="a" d="M280.915,392.688a7.844,7.844,0,0,1-7.848,7.848H256v-15.7h17.067A7.848,7.848,0,0,1,280.915,392.688Z" transform="translate(-204.914 -248.262)"/><path class="a" d="M276.122,154.2H256V123.8a7.864,7.864,0,0,1,7.864,7.848V138.5h12.259a7.848,7.848,0,1,1,0,15.7Z" transform="translate(-204.914 -123.8)"/><path class="a" d="M283.971,214.629v.2a19.271,19.271,0,0,1-19.249,19.149h-.858v6.9A7.864,7.864,0,0,1,256,248.721v-30.44h8.722a3.553,3.553,0,1,0,0-7.105H256v-15.7h8.722A19.271,19.271,0,0,1,283.971,214.629Z" transform="translate(-204.914 -157.977)"/><path class="a" d="M307.075,347.808a7.848,7.848,0,0,1-7.848,7.848H256v-15.7h43.227A7.848,7.848,0,0,1,307.075,347.808Z" transform="translate(-204.914 -226.864)"/></g></svg>