<svg xmlns="http://www.w3.org/2000/svg" xmlns:xlink="http://www.w3.org/1999/xlink" width="467.343" height="742.5" viewBox="0 0 467.343 742.5">
  <defs>
    <linearGradient id="linear-gradient" x1="0.5" x2="0.5" y2="1" gradientUnits="objectBoundingBox">
      <stop offset="0" stop-color="#1a1a1a"/>
      <stop offset="1" stop-color="#0a0a0a"/>
    </linearGradient>
    <filter id="Case" x="0" y="0" width="467.343" height="742.5" filterUnits="userSpaceOnUse">
      <feOffset input="SourceAlpha"/>
      <feGaussianBlur stdDeviation="33.5" result="blur"/>
      <feFlood flood-opacity="0.235"/>
      <feComposite operator="in" in2="blur"/>
      <feComposite in="SourceGraphic"/>
    </filter>
    <linearGradient id="linear-gradient-2" x1="0.5" x2="0.5" y2="1" gradientUnits="objectBoundingBox">
      <stop offset="0" stop-color="#141414"/>
      <stop offset="1" stop-color="#1c1c1c"/>
    </linearGradient>
    <linearGradient id="linear-gradient-3" x1="0.5" x2="0.5" y2="1" gradientUnits="objectBoundingBox">
      <stop offset="0" stop-color="#191919"/>
      <stop offset="1" stop-color="#0d0d0d"/>
    </linearGradient>
    <linearGradient id="linear-gradient-4" x1="1" y1="0.377" x2="0" y2="0.377" gradientUnits="objectBoundingBox">
      <stop offset="0" stop-opacity="0"/>
      <stop offset="0.322" stop-opacity="0"/>
      <stop offset="1"/>
    </linearGradient>
    <linearGradient id="linear-gradient-11" x1="0.5" x2="0.5" y2="1" gradientUnits="objectBoundingBox">
      <stop offset="0" stop-color="#1c1c1c"/>
      <stop offset="1" stop-color="#0d0d0d"/>
    </linearGradient>
    <linearGradient id="linear-gradient-12" x1="0.5" x2="0.5" y2="1" gradientUnits="objectBoundingBox">
      <stop offset="0" stop-color="#0d0d0d"/>
      <stop offset="1" stop-color="#313131"/>
    </linearGradient>
    <linearGradient id="linear-gradient-13" x1="0.5" x2="0.5" y2="1" gradientUnits="objectBoundingBox">
      <stop offset="0" stop-color="#292929"/>
      <stop offset="1" stop-color="#1a1a1a"/>
    </linearGradient>
    <filter id="Rectangle_1477" x="118.389" y="485.928" width="88.295" height="44.714" filterUnits="userSpaceOnUse">
      <feOffset dx="2" input="SourceAlpha"/>
      <feGaussianBlur stdDeviation="2.5" result="blur-2"/>
      <feFlood flood-opacity="0.224"/>
      <feComposite operator="in" in2="blur-2"/>
      <feComposite in="SourceGraphic"/>
    </filter>
    <filter id="Ellipse_11" x="137.396" y="498.351" width="19.206" height="19.206" filterUnits="userSpaceOnUse">
      <feOffset input="SourceAlpha"/>
      <feGaussianBlur stdDeviation="1" result="blur-3"/>
      <feFlood flood-color="#b2a507"/>
      <feComposite operator="in" in2="blur-3"/>
      <feComposite in="SourceGraphic"/>
    </filter>
    <filter id="Ellipse_12" x="195.447" y="492.351" width="31.206" height="31.206" filterUnits="userSpaceOnUse">
      <feOffset input="SourceAlpha"/>
      <feGaussianBlur stdDeviation="3" result="blur-4"/>
      <feFlood flood-color="#003362"/>
      <feComposite operator="in" in2="blur-4"/>
      <feComposite in="SourceGraphic"/>
    </filter>
    <filter id="Path_1599" x="266.762" y="492.351" width="31.206" height="31.206" filterUnits="userSpaceOnUse">
      <feOffset input="SourceAlpha"/>
      <feGaussianBlur stdDeviation="3" result="blur-5"/>
      <feFlood flood-color="#003362"/>
      <feComposite operator="in" in2="blur-5"/>
      <feComposite in="SourceGraphic"/>
    </filter>
    <filter id="Ellipse_38" x="291.595" y="136.787" width="54.81" height="54.809" filterUnits="userSpaceOnUse">
      <feOffset dy="3" input="SourceAlpha"/>
      <feGaussianBlur stdDeviation="3" result="blur-6"/>
      <feFlood flood-opacity="0.161"/>
      <feComposite operator="in" in2="blur-6"/>
      <feComposite in="SourceGraphic"/>
    </filter>
    <filter id="Ellipse_12-2" x="107.029" y="132.287" width="58.386" height="58.386" filterUnits="userSpaceOnUse">
      <feOffset dy="6" input="SourceAlpha"/>
      <feGaussianBlur stdDeviation="5.5" result="blur-7"/>
      <feFlood flood-color="#003cdb" flood-opacity="0.451"/>
      <feComposite operator="in" in2="blur-7"/>
      <feComposite in="SourceGraphic"/>
    </filter>
  </defs>
  <g id="Group_2863" data-name="Group 2863" transform="translate(-568.738 -1200.5)">
    <g id="Group_2828" data-name="Group 2828" transform="translate(667.349 1301)">
      <g id="iPhone_X_-_Dark" data-name="iPhone X - Dark" transform="translate(0 0)">
        <g transform="matrix(1, 0, 0, 1, -98.61, -100.5)" filter="url(#Case)">
          <path id="Case-2" data-name="Case" d="M35.89,0H230.452a35.89,35.89,0,0,1,35.89,35.89V505.61a35.89,35.89,0,0,1-35.89,35.89H35.89A35.89,35.89,0,0,1,0,505.61V35.89A35.89,35.89,0,0,1,35.89,0Z" transform="translate(100.5 100.5)" fill="url(#linear-gradient)"/>
        </g>
        <path id="Bezel" d="M29.594,0H226.674a29.594,29.594,0,0,1,29.594,29.594V501.832a29.594,29.594,0,0,1-29.594,29.594H29.594A29.594,29.594,0,0,1,0,501.832V29.594A29.594,29.594,0,0,1,29.594,0Z" transform="translate(6.926 5.037)" fill="url(#linear-gradient-2)"/>
        <g id="Button" transform="translate(267.602 125.93)">
          <path id="Rectangle_21" data-name="Rectangle 21" d="M0,0H1.148a2,2,0,0,1,2,2V58.447a2,2,0,0,1-2,2H0a0,0,0,0,1,0,0V0A0,0,0,0,1,0,0Z" transform="translate(0)" fill="url(#linear-gradient-3)"/>
          <path id="Rectangle_101" data-name="Rectangle 101" d="M0,0H1.148a2,2,0,0,1,2,2V58.447a2,2,0,0,1-2,2H0a0,0,0,0,1,0,0V0A0,0,0,0,1,0,0Z" transform="translate(0)" fill="url(#linear-gradient-4)"/>
        </g>
        <g id="Button-2" data-name="Button" transform="translate(0 73.669)">
          <path id="Path_76" data-name="Path 76" d="M.63,0H3.148V20.149H.63A.612.612,0,0,1,0,19.556V.593A.612.612,0,0,1,.63,0Z" fill="url(#linear-gradient-3)"/>
          <g id="Group_40" data-name="Group 40">
            <path id="Rectangle_149" data-name="Rectangle 149" d="M0,0H2.148a1,1,0,0,1,1,1V19.149a1,1,0,0,1-1,1H0a0,0,0,0,1,0,0V0A0,0,0,0,1,0,0Z" transform="translate(3.148 20.149) rotate(180)" fill="url(#linear-gradient-4)"/>
          </g>
        </g>
        <g id="Button-3" data-name="Button" transform="translate(0 113.337)">
          <path id="Path_81" data-name="Path 81" d="M.63,0H3.148V37.779H.63a.611.611,0,0,1-.63-.59V.59A.611.611,0,0,1,.63,0Z" transform="translate(0 0)" fill="url(#linear-gradient-3)"/>
          <g id="Group_42" data-name="Group 42" transform="translate(0 0)">
            <g id="Group_40-2" data-name="Group 40">
              <path id="Rectangle_149-2" data-name="Rectangle 149" d="M0,0H2.148a1,1,0,0,1,1,1V36.779a1,1,0,0,1-1,1H0a0,0,0,0,1,0,0V0A0,0,0,0,1,0,0Z" transform="translate(3.148 37.779) rotate(180)" fill="url(#linear-gradient-4)"/>
            </g>
          </g>
        </g>
        <g id="Button-4" data-name="Button" transform="translate(0 162.45)">
          <path id="Path_84" data-name="Path 84" d="M.63,0H3.148V37.779H.63a.611.611,0,0,1-.63-.59V.59A.611.611,0,0,1,.63,0Z" fill="url(#linear-gradient-3)"/>
          <g id="Group_45" data-name="Group 45" transform="translate(0 0)">
            <g id="Group_40-3" data-name="Group 40">
              <path id="Rectangle_149-3" data-name="Rectangle 149" d="M0,0H2.148a1,1,0,0,1,1,1V36.779a1,1,0,0,1-1,1H0a0,0,0,0,1,0,0V0A0,0,0,0,1,0,0Z" transform="translate(3.148 37.779) rotate(180)" fill="url(#linear-gradient-4)"/>
            </g>
          </g>
        </g>
        <path id="Glass" d="M27.982,0H225.767a27.91,27.91,0,0,1,27.982,27.837V501.07a27.91,27.91,0,0,1-27.982,27.837H27.982A27.91,27.91,0,0,1,0,501.07V27.837A27.91,27.91,0,0,1,27.982,0Z" transform="translate(8.185 6.297)" fill="url(#linear-gradient-11)"/>
        <path id="Path_85" data-name="Path 85" d="M0-1.728H146.709V5.2A15.112,15.112,0,0,1,131.6,20.31H15.112A15.112,15.112,0,0,1,0,5.2Z" transform="translate(62.335 12.432)" fill="#1b1b1b"/>
        <g id="Camera" transform="translate(162.45 15.741)">
          <ellipse id="Ellipse_7" data-name="Ellipse 7" cx="4.722" cy="4.722" rx="4.722" ry="4.722" transform="translate(0)" fill="url(#linear-gradient-12)"/>
          <circle id="Ellipse_8" data-name="Ellipse 8" cx="4.093" cy="4.093" r="4.093" transform="translate(0.63 0.63)" fill="url(#linear-gradient-13)"/>
          <ellipse id="Ellipse_10" data-name="Ellipse 10" cx="2.833" cy="2.833" rx="2.833" ry="2.833" transform="translate(1.889 1.889)" fill="#2d2d2d"/>
          <ellipse id="Ellipse_9" data-name="Ellipse 9" cx="0.944" cy="0.63" rx="0.944" ry="0.63" transform="translate(3.778 1.889)" fill="#5d5d5d"/>
        </g>
        <path id="Ear_Peice" data-name="Ear Peice" d="M2.7.5H37.335a2.2,2.2,0,1,1,0,4.408H2.7A2.2,2.2,0,1,1,2.7.5Z" transform="translate(115.041 18.075)" fill="#111" stroke="#262626" stroke-width="1"/>
        <path id="Home" d="M1.574,0H80.281a1.574,1.574,0,0,1,0,3.148H1.574A1.574,1.574,0,0,1,1.574,0Z" transform="translate(94.448 515.684)" fill="#363636"/>
      </g>
      <path id="Path_1600" data-name="Path 1600" d="M0-1.728H146.709V5.2A15.112,15.112,0,0,1,131.6,20.31H15.112A15.112,15.112,0,0,1,0,5.2Z" transform="translate(62.336 12.432)" fill="#1b1b1b"/>
      <g id="design" transform="translate(16.033 13.47)">
        <rect id="Rectangle_1476" data-name="Rectangle 1476" width="238.764" height="513.524" rx="17" fill="#00498d"/>
        <g id="Group_2824" data-name="Group 2824" transform="translate(74.334 193.194)">
          <g id="logo_kub" data-name="logo kub" transform="translate(1.458 0)">
            <line id="Line_6" data-name="Line 6" x1="42.091" transform="translate(34.008 12.971)" fill="none" stroke="#fff" stroke-miterlimit="10" stroke-width="0.5"/>
            <line id="Line_7" data-name="Line 7" x1="42.091" transform="translate(34.008 55.062)" fill="none" stroke="#fff" stroke-miterlimit="10" stroke-width="0.5"/>
            <line id="Line_8" data-name="Line 8" y1="42.091" transform="translate(34.008 12.971)" fill="none" stroke="#fff" stroke-miterlimit="10" stroke-width="0.5"/>
            <line id="Line_9" data-name="Line 9" y1="42.091" transform="translate(76.099 12.971)" fill="none" stroke="#fff" stroke-miterlimit="10" stroke-width="0.5"/>
            <line id="Line_10" data-name="Line 10" x1="42.091" transform="translate(12.971 34.026)" fill="none" stroke="#fff" stroke-miterlimit="10" stroke-width="0.5"/>
            <line id="Line_11" data-name="Line 11" x1="42.091" transform="translate(12.971 76.099)" fill="none" stroke="#fff" stroke-miterlimit="10" stroke-width="0.5"/>
            <line id="Line_12" data-name="Line 12" y1="42.091" transform="translate(12.971 34.008)" fill="none" stroke="#fff" stroke-miterlimit="10" stroke-width="0.5"/>
            <line id="Line_13" data-name="Line 13" y1="42.091" transform="translate(55.062 34.008)" fill="none" stroke="#fff" stroke-miterlimit="10" stroke-width="0.5"/>
            <line id="Line_14" data-name="Line 14" x1="21.037" y2="21.037" transform="translate(12.918 12.918)" fill="none" stroke="#fff" stroke-miterlimit="10" stroke-width="0.5"/>
            <line id="Line_15" data-name="Line 15" x1="21.037" y2="21.037" transform="translate(55.115 12.918)" fill="none" stroke="#fff" stroke-miterlimit="10" stroke-width="0.5"/>
            <line id="Line_16" data-name="Line 16" x1="21.037" y2="21.037" transform="translate(55.115 55.115)" fill="none" stroke="#fff" stroke-miterlimit="10" stroke-width="0.5"/>
            <line id="Line_17" data-name="Line 17" x1="21.037" y2="21.037" transform="translate(12.918 55.115)" fill="none" stroke="#fff" stroke-miterlimit="10" stroke-width="0.5"/>
            <line id="Line_18" data-name="Line 18" x1="29.755" y1="29.755" transform="translate(59.58 14.789)" fill="none" stroke="#fff" stroke-miterlimit="10" stroke-width="0.5"/>
            <line id="Line_19" data-name="Line 19" x1="29.755" y1="29.755" transform="translate(29.825 44.544)" fill="none" stroke="#fff" stroke-miterlimit="10" stroke-width="0.5"/>
            <line id="Line_20" data-name="Line 20" y1="29.755" x2="29.755" transform="translate(29.825 14.789)" fill="none" stroke="#fff" stroke-miterlimit="10" stroke-width="0.5"/>
            <line id="Line_21" data-name="Line 21" y1="29.755" x2="29.755" transform="translate(59.58 44.544)" fill="none" stroke="#fff" stroke-miterlimit="10" stroke-width="0.5"/>
            <line id="Line_22" data-name="Line 22" x1="29.755" y1="29.755" transform="translate(29.825 14.789)" fill="none" stroke="#fff" stroke-miterlimit="10" stroke-width="0.5"/>
            <line id="Line_23" data-name="Line 23" x1="29.773" y1="29.755" transform="translate(0.071 44.544)" fill="none" stroke="#fff" stroke-miterlimit="10" stroke-width="0.5"/>
            <line id="Line_24" data-name="Line 24" y1="29.755" x2="29.773" transform="translate(0.071 14.789)" fill="none" stroke="#fff" stroke-miterlimit="10" stroke-width="0.5"/>
            <line id="Line_25" data-name="Line 25" y1="29.755" x2="29.755" transform="translate(29.825 44.544)" fill="none" stroke="#fff" stroke-miterlimit="10" stroke-width="0.5"/>
            <line id="Line_26" data-name="Line 26" x1="29.755" transform="translate(29.825 14.701)" fill="none" stroke="#fff" stroke-miterlimit="10" stroke-width="0.5"/>
            <line id="Line_27" data-name="Line 27" x1="29.755" transform="translate(59.669 44.544)" fill="none" stroke="#fff" stroke-miterlimit="10" stroke-width="0.5"/>
            <line id="Line_28" data-name="Line 28" x1="29.755" transform="translate(29.825 74.37)" fill="none" stroke="#fff" stroke-miterlimit="10" stroke-width="0.5"/>
            <line id="Line_29" data-name="Line 29" x1="29.755" transform="translate(0 44.544)" fill="none" stroke="#fff" stroke-miterlimit="10" stroke-width="0.5"/>
            <line id="Line_30" data-name="Line 30" y1="42.073" transform="translate(76.276 33.849)" fill="none" stroke="#fff" stroke-miterlimit="10" stroke-width="0.5"/>
            <line id="Line_31" data-name="Line 31" y1="42.073" transform="translate(34.185 33.849)" fill="none" stroke="#fff" stroke-miterlimit="10" stroke-width="0.5"/>
            <line id="Line_32" data-name="Line 32" x2="42.091" transform="translate(34.185 33.849)" fill="none" stroke="#fff" stroke-miterlimit="10" stroke-width="0.5"/>
            <line id="Line_33" data-name="Line 33" x2="42.091" transform="translate(34.185 75.923)" fill="none" stroke="#fff" stroke-miterlimit="10" stroke-width="0.5"/>
            <line id="Line_34" data-name="Line 34" y1="42.091" transform="translate(55.221 12.795)" fill="none" stroke="#fff" stroke-miterlimit="10" stroke-width="0.5"/>
            <line id="Line_35" data-name="Line 35" y1="42.091" transform="translate(13.148 12.795)" fill="none" stroke="#fff" stroke-miterlimit="10" stroke-width="0.5"/>
            <line id="Line_36" data-name="Line 36" x2="42.091" transform="translate(13.148 12.813)" fill="none" stroke="#fff" stroke-miterlimit="10" stroke-width="0.5"/>
            <line id="Line_37" data-name="Line 37" x2="42.091" transform="translate(13.148 54.886)" fill="none" stroke="#fff" stroke-miterlimit="10" stroke-width="0.5"/>
            <line id="Line_38" data-name="Line 38" x1="21.037" y1="21.037" transform="translate(55.292 12.742)" fill="none" stroke="#fff" stroke-miterlimit="10" stroke-width="0.5"/>
            <line id="Line_39" data-name="Line 39" x1="21.037" y1="21.037" transform="translate(55.292 54.939)" fill="none" stroke="#fff" stroke-miterlimit="10" stroke-width="0.5"/>
            <line id="Line_40" data-name="Line 40" x1="21.037" y1="21.037" transform="translate(13.095 54.939)" fill="none" stroke="#fff" stroke-miterlimit="10" stroke-width="0.5"/>
            <line id="Line_41" data-name="Line 41" x1="21.037" y1="21.037" transform="translate(13.095 12.742)" fill="none" stroke="#fff" stroke-miterlimit="10" stroke-width="0.5"/>
            <line id="Line_42" data-name="Line 42" y1="29.755" x2="29.755" transform="translate(44.703 59.58)" fill="none" stroke="#fff" stroke-miterlimit="10" stroke-width="0.5"/>
            <line id="Line_43" data-name="Line 43" y1="29.773" x2="29.773" transform="translate(14.948 29.825)" fill="none" stroke="#fff" stroke-miterlimit="10" stroke-width="0.5"/>
            <line id="Line_44" data-name="Line 44" x2="29.755" y2="29.773" transform="translate(44.703 29.825)" fill="none" stroke="#fff" stroke-miterlimit="10" stroke-width="0.5"/>
            <line id="Line_45" data-name="Line 45" x2="29.773" y2="29.755" transform="translate(14.948 59.58)" fill="none" stroke="#fff" stroke-miterlimit="10" stroke-width="0.5"/>
            <line id="Line_46" data-name="Line 46" y1="29.773" x2="29.755" transform="translate(44.703 29.825)" fill="none" stroke="#fff" stroke-miterlimit="10" stroke-width="0.5"/>
            <line id="Line_47" data-name="Line 47" y1="29.755" x2="29.773" transform="translate(14.948 0.088)" fill="none" stroke="#fff" stroke-miterlimit="10" stroke-width="0.5"/>
            <line id="Line_48" data-name="Line 48" x2="29.755" y2="29.755" transform="translate(44.703 0.088)" fill="none" stroke="#fff" stroke-miterlimit="10" stroke-width="0.5"/>
            <line id="Line_49" data-name="Line 49" x2="29.773" y2="29.773" transform="translate(14.948 29.825)" fill="none" stroke="#fff" stroke-miterlimit="10" stroke-width="0.5"/>
            <line id="Line_50" data-name="Line 50" y1="29.737" transform="translate(74.546 29.843)" fill="none" stroke="#fff" stroke-miterlimit="10" stroke-width="0.5"/>
            <line id="Line_51" data-name="Line 51" y1="29.755" transform="translate(44.703 59.669)" fill="none" stroke="#fff" stroke-miterlimit="10" stroke-width="0.5"/>
            <line id="Line_52" data-name="Line 52" y1="29.737" transform="translate(14.877 29.843)" fill="none" stroke="#fff" stroke-miterlimit="10" stroke-width="0.5"/>
            <line id="Line_53" data-name="Line 53" y1="29.755" transform="translate(44.703)" fill="none" stroke="#fff" stroke-miterlimit="10" stroke-width="0.5"/>
            <circle id="Ellipse_9-2" data-name="Ellipse 9" cx="7.183" cy="7.183" r="7.183" transform="translate(37.52 37.538)" fill="#fff"/>
          </g>
          <text id="KubiRub_Company_Service" data-name="KubiRub
Company Service" transform="translate(44 109.608)" fill="#fff" font-size="10" font-family="Montserrat"><tspan x="-21.71" y="0">KubiRub</tspan><tspan x="-44.2" y="11">Company Service</tspan></text>
        </g>
      </g>
      <g id="design-2" data-name="design" transform="translate(16.033 13.075)">
        <rect id="Background" width="237.991" height="515.349" rx="17" transform="translate(0 0)" fill="#fff"/>
        <g id="input" transform="translate(23.111 159.39)" fill="#f0f2f7" stroke="#e3e8f0" stroke-width="1">
          <rect width="151.873" height="29.714" rx="14.857" stroke="none"/>
          <rect x="0.5" y="0.5" width="150.873" height="28.714" rx="14.357" fill="none"/>
        </g>
        <g id="input-2" data-name="input" transform="translate(23.111 213.991)" fill="#f0f2f7" stroke="#e3e8f0" stroke-width="1">
          <rect width="108.292" height="29.714" rx="14.857" stroke="none"/>
          <rect x="0.5" y="0.5" width="107.292" height="28.714" rx="14.357" fill="none"/>
        </g>
        <g id="input-3" data-name="input" transform="translate(23.111 265.445)" fill="#f0f2f7" stroke="#e3e8f0" stroke-width="1">
          <rect width="76.597" height="29.714" rx="14.857" stroke="none"/>
          <rect x="0.5" y="0.5" width="75.597" height="28.714" rx="14.357" fill="none"/>
        </g>
        <g id="input-4" data-name="input" transform="translate(23.111 320.706)" fill="#f0f2f7" stroke="#e3e8f0" stroke-width="1">
          <rect width="76.597" height="29.714" rx="14.857" stroke="none"/>
          <rect x="0.5" y="0.5" width="75.597" height="28.714" rx="14.357" fill="none"/>
        </g>
        <text id="COUNTRY" transform="translate(34.337 151.504)" fill="#00498d" font-size="4" font-family="Montserrat-Bold, Montserrat" font-weight="700" letter-spacing="0.1em"><tspan x="0" y="0">COUNTRY</tspan></text>
        <text id="CITY" transform="translate(34.337 206.105)" fill="#00498d" font-size="4" font-family="Montserrat-Bold, Montserrat" font-weight="700" letter-spacing="0.1em"><tspan x="0" y="0">CITY</tspan></text>
        <text id="DISCOUNT" transform="translate(34.337 257.559)" fill="#00498d" font-size="4" font-family="Montserrat-Bold, Montserrat" font-weight="700" letter-spacing="0.1em"><tspan x="0" y="0">DISCOUNT</tspan></text>
        <text id="AMOUNT" transform="translate(34.337 312.82)" fill="#00498d" font-size="4" font-family="Montserrat-Bold, Montserrat" font-weight="700" letter-spacing="0.1em"><tspan x="0" y="0">AMOUNT</tspan></text>
        <text id="_" data-name="%" transform="translate(103.01 284.727)" fill="#00498d" font-size="14" font-family="Montserrat-Light, Montserrat" font-weight="300" letter-spacing="0.1em"><tspan x="0" y="0">%</tspan></text>
        <g id="Group_2825" data-name="Group 2825" transform="translate(23.111 443.364)">
          <path id="button-5" data-name="button" d="M14.857,0H176.635a14.857,14.857,0,0,1,0,29.714H14.857A14.857,14.857,0,0,1,14.857,0Z" transform="translate(0 0)" fill="#0084ff"/>
          <text id="SAVE" transform="translate(84.521 14.565)" fill="#fff" font-size="4" font-family="Montserrat-Bold, Montserrat" font-weight="700" letter-spacing="0.1em"><tspan x="0" y="0">SAVE</tspan></text>
        </g>
        <text id="Select_your_country" data-name="Select your country" transform="translate(34.337 175.092)" fill="#b9bed1" font-size="5" font-family="Montserrat"><tspan x="0" y="0">Select your country</tspan></text>
        <text id="Select_your_city" data-name="Select your city" transform="translate(34.337 229.693)" fill="#b9bed1" font-size="5" font-family="Montserrat"><tspan x="0" y="0">Select your city</tspan></text>
        <path id="Chevron_down" data-name="Chevron down" d="M6.375,1.2,3.852,3.721a.7.7,0,0,1-.57.2.7.7,0,0,1-.57-.2L.189,1.2A.714.714,0,1,1,1.2.188L3.282,2.272,5.366.188A.714.714,0,0,1,6.375,1.2Z" transform="translate(160.477 171.982)" fill="#00498d" fill-rule="evenodd"/>
        <path id="Chevron_down-2" data-name="Chevron down" d="M6.375,1.2,3.852,3.721a.7.7,0,0,1-.57.2.7.7,0,0,1-.57-.2L.189,1.2A.714.714,0,1,1,1.2.188L3.282,2.272,5.366.188A.714.714,0,0,1,6.375,1.2Z" transform="translate(117.556 226.557)" fill="#00498d" fill-rule="evenodd"/>
        <g id="input-5" data-name="input" transform="translate(23.111 104.738)" fill="#f0f2f7" stroke="#e3e8f0" stroke-width="1">
          <rect width="191.492" height="29.714" rx="14.857" stroke="none"/>
          <rect x="0.5" y="0.5" width="190.492" height="28.714" rx="14.357" fill="none"/>
        </g>
        <text id="PRODUCT" transform="translate(34.337 96.852)" fill="#00498d" font-size="4" font-family="Montserrat-Bold, Montserrat" font-weight="700" letter-spacing="0.1em"><tspan x="0" y="0">PRODUCT</tspan></text>
        <text id="Enter_your_product_name" data-name="Enter your product name" transform="translate(34.337 120.44)" fill="#b9bed1" font-size="5" font-family="Montserrat"><tspan x="0" y="0">Enter your product name</tspan></text>
        <text id="Etc._15_" data-name="Etc. 15%" transform="translate(34.337 281.807)" fill="#b9bed1" font-size="5" font-family="Montserrat"><tspan x="0" y="0">Etc. 15%</tspan></text>
        <text id="Etc._3" data-name="Etc. 3" transform="translate(34.337 337.068)" fill="#b9bed1" font-size="5" font-family="Montserrat"><tspan x="0" y="0">Etc. 3</tspan></text>
        <path id="button-6" data-name="button" d="M17.06,0H202.826c9.422,0,17.06,6.652,17.06,14.857s-7.638,14.857-17.06,14.857H17.06C7.638,29.714,0,23.063,0,14.857S7.638,0,17.06,0Z" transform="translate(9.244 379.852)" fill="#0084ff"/>
        <g transform="matrix(1, 0, 0, 1, -114.64, -113.58)" filter="url(#Rectangle_1477)">
          <rect id="Rectangle_1477-2" data-name="Rectangle 1477" width="73.295" height="29.714" rx="14.857" transform="translate(123.89 493.43)" fill="#00498d"/>
        </g>
        <text id="GOLD" transform="translate(42.921 394.417)" fill="#fff" font-size="4" font-family="Montserrat-Bold, Montserrat" font-weight="700" letter-spacing="0.1em"><tspan x="0" y="0">GOLD</tspan></text>
        <g transform="matrix(1, 0, 0, 1, -114.64, -113.58)" filter="url(#Ellipse_11)">
          <ellipse id="Ellipse_11-2" data-name="Ellipse 11" cx="6.603" cy="6.603" rx="6.603" ry="6.603" transform="translate(140.4 501.35)" fill="#ffee1d"/>
        </g>
        <g id="Group_2239" data-name="Group 2239" transform="translate(89.803 387.776)">
          <text id="PREMIUM" transform="translate(17.829 6.641)" fill="#fff" font-size="4" font-family="Montserrat-Bold, Montserrat" font-weight="700" letter-spacing="0.1em"><tspan x="0" y="0">PREMIUM</tspan></text>
          <g transform="matrix(1, 0, 0, 1, -204.45, -501.35)" filter="url(#Ellipse_12)">
            <ellipse id="Ellipse_12-3" data-name="Ellipse 12" cx="6.603" cy="6.603" rx="6.603" ry="6.603" transform="translate(204.45 501.35)" fill="#0084ff"/>
          </g>
        </g>
        <g id="Group_2243" data-name="Group 2243" transform="translate(161.117 387.776)">
          <text id="STANDART" transform="translate(17.829 6.641)" fill="#fff" font-size="4" font-family="Montserrat-Bold, Montserrat" font-weight="700" letter-spacing="0.1em"><tspan x="0" y="0">STANDART</tspan></text>
          <g transform="matrix(1, 0, 0, 1, -275.76, -501.35)" filter="url(#Path_1599)">
            <path id="Path_1599-2" data-name="Path 1599" d="M6.6,0A6.6,6.6,0,1,1,0,6.6,6.6,6.6,0,0,1,6.6,0Z" transform="translate(275.76 501.35)" fill="#898989"/>
          </g>
        </g>
        <g id="Group_2826" data-name="Group 2826" transform="translate(185.95 29.212)">
          <g transform="matrix(1, 0, 0, 1, -300.59, -142.79)" filter="url(#Ellipse_38)">
            <circle id="Ellipse_38-2" data-name="Ellipse 38" cx="18.405" cy="18.405" r="18.405" transform="translate(300.59 142.79)" fill="#fff"/>
          </g>
          <g id="Group_2319" data-name="Group 2319" transform="translate(6.569 6.436)">
            <path id="Path_347" data-name="Path 347" d="M1717.212,1788.182V1787h-3.868l1.181,1.183h1.87v6.962h-2.214v-1.934h1.1v-.838h-1.934v2.772h-2.772v1.934h.838v-1.1h1.934v2.192h-6.962V1796.3l-1.182-1.182v3.868h11.991v-3.868h0v-6.94Zm-1.182,7.8v.344h0v1.5h-1.848v-1.848Z" transform="translate(-1705.2 -1787)" fill="#0b4c73"/>
            <path id="Path_348" data-name="Path 348" d="M1772.809,1796.4v1.869h-6.962v-2.192h1.934v1.1h.838v-1.934h-2.772v-2.772h-1.934v.838h1.1v1.934h-2.192v-6.962h1.869l1.183-1.182H1762v8.144h0v3.868h12.012v-3.868Zm-9.648,0v-.344h1.848v1.849h-1.848v-1.5Z" transform="translate(-1749.795 -1787.079)" fill="#0b4c73"/>
            <path id="Path_349" data-name="Path 349" d="M1763.082,1843.7H1761.9v3.868h0v8.144h3.868l-1.181-1.182h-1.87v-6.962h2.192v1.955h-1.1v.838h1.934v-2.793h2.772v-1.934h-.838v1.1h-1.934v-2.192h6.962v1.869l1.182,1.182v-3.868h-10.808Zm0,3.03v-.344h0v-1.5h1.848v1.848Z" transform="translate(-1749.716 -1831.516)" fill="#0b4c73"/>
            <path id="Path_350" data-name="Path 350" d="M1717.212,1843.7H1705.2v3.868l1.182-1.182v-1.869h6.962v2.192h-1.934v-1.1h-.838v1.935h2.772v2.771h1.934v-.838h-1.1v-1.933h2.192v6.962H1714.5l-1.182,1.182h3.868v-10.83l.021-1.16Zm-1.182,2.686v.344h-1.848v-1.848h1.848v1.5Z" transform="translate(-1705.2 -1831.516)" fill="#0b4c73"/>
          </g>
        </g>
        <g id="Group_2343" data-name="Group 2343" transform="translate(8.885 29.212)">
          <g transform="matrix(1, 0, 0, 1, -123.53, -142.79)" filter="url(#Ellipse_12-2)">
            <circle id="Ellipse_12-4" data-name="Ellipse 12" cx="12.693" cy="12.693" r="12.693" transform="translate(123.53 142.79)" fill="#fff"/>
          </g>
          <path id="Chevron" d="M6.053,12.745.185,6.947a.619.619,0,0,1,0-.883L6.053.265a.924.924,0,0,1,1.3,0,.9.9,0,0,1,0,1.279L2.329,6.505l5.019,4.96a.9.9,0,0,1,0,1.28.924.924,0,0,1-1.3,0" transform="translate(8.251 6.346)" fill="#007aff"/>
        </g>
      </g>
    </g>
    <path id="Path_1602" data-name="Path 1602" d="M0-1.728H146.709V5.2A15.112,15.112,0,0,1,131.6,20.31H15.112A15.112,15.112,0,0,1,0,5.2Z" transform="translate(729.685 1314.889)" fill="#1b1b1b"/>
  </g>
</svg>
