<svg xmlns="http://www.w3.org/2000/svg" xmlns:xlink="http://www.w3.org/1999/xlink" width="2419.75" height="1080" viewBox="0 0 2419.75 1080">
  <defs>
    <style>
      .cls-1, .cls-5 {
        fill: none;
      }

      .cls-2 {
        clip-path: url(#clip-path);
      }

      .cls-3 {
        fill: url(#linear-gradient);
      }

      .cls-4 {
        opacity: 0.036;
      }

      .cls-5 {
        stroke: #2e394e;
        stroke-miterlimit: 10;
        stroke-width: 5px;
      }

      .cls-6 {
        fill: #2e394e;
      }
    </style>
    <clipPath id="clip-path">
      <rect id="Rectangle_1686" data-name="Rectangle 1686" class="cls-1" width="1920" height="1080"/>
    </clipPath>
    <linearGradient id="linear-gradient" x1="0.5" x2="0.5" y2="1" gradientUnits="objectBoundingBox">
      <stop offset="0" stop-color="#003cdb"/>
      <stop offset="1" stop-color="#001e6e"/>
    </linearGradient>
  </defs>
  <g id="Group_3000" data-name="Group 3000" transform="translate(499.75)">
    <g id="Group_2997" data-name="Group 2997">
      <g id="Group_2996" data-name="Group 2996">
        <g id="Mask_logo_half" data-name="Mask logo half" class="cls-2">
          <path id="Path_62" data-name="Path 62" class="cls-3" d="M-6.685,270.5C212.375-198.483,224.25-237.222,488.072-245.433S852.548-82.419,852.548-82.419L840.447,459s.113,363.38-2.059,364.255c-57.6,23.206-598.917,10.482-598.917,10.482s-1042.185,51.086-1321.49-11.126l-1.7-121.073C-839.633,645.97-170.76,621.772-6.685,270.5Z" transform="translate(1082 257)"/>
        </g>
      </g>
    </g>
    <g id="logo_kub" data-name="logo kub" class="cls-4" transform="translate(-498.774 45.226)">
      <g id="Symbol_30_15" data-name="Symbol 30 – 15">
        <g id="Symbol_29_1" data-name="Symbol 29 – 1">
          <line id="Line_6" data-name="Line 6" class="cls-5" x1="472.469" transform="translate(381.739 145.604)"/>
          <line id="Line_7" data-name="Line 7" class="cls-5" x1="472.469" transform="translate(381.739 618.073)"/>
          <line id="Line_8" data-name="Line 8" class="cls-5" y1="472.469" transform="translate(381.739 145.604)"/>
          <line id="Line_9" data-name="Line 9" class="cls-5" y1="472.469" transform="translate(854.209 145.604)"/>
          <line id="Line_10" data-name="Line 10" class="cls-5" x1="472.469" transform="translate(145.604 381.937)"/>
          <line id="Line_11" data-name="Line 11" class="cls-5" x1="472.469" transform="translate(145.604 854.209)"/>
          <line id="Line_12" data-name="Line 12" class="cls-5" y1="472.469" transform="translate(145.604 381.739)"/>
          <line id="Line_13" data-name="Line 13" class="cls-5" y1="472.469" transform="translate(618.073 381.739)"/>
          <line id="Line_14" data-name="Line 14" class="cls-5" x1="236.136" y2="236.136" transform="translate(145.009 145.009)"/>
          <line id="Line_15" data-name="Line 15" class="cls-5" x1="236.136" y2="236.136" transform="translate(618.667 145.009)"/>
          <line id="Line_16" data-name="Line 16" class="cls-5" x1="236.136" y2="236.136" transform="translate(618.667 618.667)"/>
          <line id="Line_17" data-name="Line 17" class="cls-5" x1="236.136" y2="236.136" transform="translate(145.009 618.667)"/>
          <line id="Line_18" data-name="Line 18" class="cls-5" x1="333.997" y1="333.997" transform="translate(668.786 166.008)"/>
          <line id="Line_19" data-name="Line 19" class="cls-5" x1="333.997" y1="333.997" transform="translate(334.789 500.005)"/>
          <line id="Line_20" data-name="Line 20" class="cls-5" y1="333.997" x2="333.997" transform="translate(334.789 166.008)"/>
          <line id="Line_21" data-name="Line 21" class="cls-5" y1="333.997" x2="333.997" transform="translate(668.786 500.005)"/>
          <line id="Line_22" data-name="Line 22" class="cls-5" x1="333.997" y1="333.997" transform="translate(334.789 166.008)"/>
          <line id="Line_23" data-name="Line 23" class="cls-5" x1="334.195" y1="333.997" transform="translate(0.792 500.005)"/>
          <line id="Line_24" data-name="Line 24" class="cls-5" y1="333.997" x2="334.195" transform="translate(0.792 166.008)"/>
          <line id="Line_25" data-name="Line 25" class="cls-5" y1="333.997" x2="333.997" transform="translate(334.789 500.005)"/>
          <line id="Line_26" data-name="Line 26" class="cls-5" x1="333.997" transform="translate(334.789 165.018)"/>
          <line id="Line_27" data-name="Line 27" class="cls-5" x1="333.997" transform="translate(669.777 500.005)"/>
          <line id="Line_28" data-name="Line 28" class="cls-5" x1="333.997" transform="translate(334.789 834.795)"/>
          <line id="Line_29" data-name="Line 29" class="cls-5" x1="333.997" transform="translate(0 500.005)"/>
          <line id="Line_30" data-name="Line 30" class="cls-5" y1="472.271" transform="translate(856.189 379.956)"/>
          <line id="Line_31" data-name="Line 31" class="cls-5" y1="472.271" transform="translate(383.72 379.956)"/>
          <line id="Line_32" data-name="Line 32" class="cls-5" x2="472.469" transform="translate(383.72 379.956)"/>
          <line id="Line_33" data-name="Line 33" class="cls-5" x2="472.469" transform="translate(383.72 852.227)"/>
          <line id="Line_34" data-name="Line 34" class="cls-5" y1="472.469" transform="translate(619.856 143.623)"/>
          <line id="Line_35" data-name="Line 35" class="cls-5" y1="472.469" transform="translate(147.585 143.623)"/>
          <line id="Line_36" data-name="Line 36" class="cls-5" x2="472.469" transform="translate(147.585 143.821)"/>
          <line id="Line_37" data-name="Line 37" class="cls-5" x2="472.469" transform="translate(147.585 616.092)"/>
          <line id="Line_38" data-name="Line 38" class="cls-5" x1="236.136" y1="236.136" transform="translate(620.648 143.028)"/>
          <line id="Line_39" data-name="Line 39" class="cls-5" x1="236.136" y1="236.136" transform="translate(620.648 616.686)"/>
          <line id="Line_40" data-name="Line 40" class="cls-5" x1="236.136" y1="236.136" transform="translate(146.99 616.686)"/>
          <line id="Line_41" data-name="Line 41" class="cls-5" x1="236.136" y1="236.136" transform="translate(146.99 143.028)"/>
          <line id="Line_42" data-name="Line 42" class="cls-5" y1="333.997" x2="333.997" transform="translate(501.788 668.786)"/>
          <line id="Line_43" data-name="Line 43" class="cls-5" y1="334.195" x2="334.195" transform="translate(167.791 334.789)"/>
          <line id="Line_44" data-name="Line 44" class="cls-5" x2="333.997" y2="334.195" transform="translate(501.788 334.789)"/>
          <line id="Line_45" data-name="Line 45" class="cls-5" x2="334.195" y2="333.997" transform="translate(167.791 668.786)"/>
          <line id="Line_46" data-name="Line 46" class="cls-5" y1="334.195" x2="333.997" transform="translate(501.788 334.789)"/>
          <line id="Line_47" data-name="Line 47" class="cls-5" y1="333.997" x2="334.195" transform="translate(167.791 0.991)"/>
          <line id="Line_48" data-name="Line 48" class="cls-5" x2="333.997" y2="333.997" transform="translate(501.788 0.991)"/>
          <line id="Line_49" data-name="Line 49" class="cls-5" x2="334.195" y2="334.195" transform="translate(167.791 334.789)"/>
          <line id="Line_50" data-name="Line 50" class="cls-5" y1="333.799" transform="translate(836.776 334.988)"/>
          <line id="Line_51" data-name="Line 51" class="cls-5" y1="333.997" transform="translate(501.788 669.777)"/>
          <line id="Line_52" data-name="Line 52" class="cls-5" y1="333.799" transform="translate(166.999 334.988)"/>
          <line id="Line_53" data-name="Line 53" class="cls-5" y1="333.997" transform="translate(501.788)"/>
        </g>
        <circle id="Ellipse_9" data-name="Ellipse 9" class="cls-6" cx="80.627" cy="80.627" r="80.627" transform="translate(421.161 421.359)"/>
      </g>
    </g>
  </g>
</svg>
