<svg xmlns="http://www.w3.org/2000/svg" width="71.69" height="71.691" viewBox="0 0 71.69 71.691"><defs><style>.a{fill:#fff;}</style></defs><g transform="translate(-667 -4280)"><g transform="translate(702.845 4280) rotate(45)"><g transform="translate(0 0)"><path class="a" d="M49.423,16.9,33.789,1.269a4.345,4.345,0,0,0-6.138,0l-24.4,24.4a4.345,4.345,0,0,0,0,6.138l3.923,3.923L2.867,40.036a.99.99,0,1,0,1.4,1.4l4.307-4.307,1.794,1.794L.29,49a.99.99,0,1,0,1.4,1.4L11.769,40.324l7.117,7.117a4.345,4.345,0,0,0,6.138,0l24.4-24.4a4.34,4.34,0,0,0,0-6.138ZM21.235,46.617a2.342,2.342,0,0,1-.949-.577L4.652,30.406a2.36,2.36,0,0,1-.608-2.281H21.235ZM17.656,26.145l2.936-2.936a.99.99,0,0,0-1.4-1.4l-4.336,4.336H11.971l8.951-8.951a.99.99,0,1,0-1.4-1.4L9.171,26.145h-3.6L28.127,3.593V23.785a2.363,2.363,0,0,1-2.36,2.36Zm30.366-4.5-24.4,24.4a2.356,2.356,0,0,1-.408.324V28.125h2.552a4.345,4.345,0,0,0,4.34-4.34V21.233H41.457l-5.73,5.73a.99.99,0,1,0,1.4,1.4l7.129-7.129h4.093A2.374,2.374,0,0,1,48.023,21.641ZM30.107,19.253V2.062a2.36,2.36,0,0,1,2.281.608L48.023,18.3a2.347,2.347,0,0,1,.58.949Z"/></g></g><g transform="translate(699.154 4303.58)"><path class="a" d="M220.41,132.41a.99.99,0,1,0,.29.7A.993.993,0,0,0,220.41,132.41Z" transform="translate(-218.72 -132.12)"/></g><g transform="translate(672.924 4309.927) rotate(45)"><path class="a" d="M1.69.29a.99.99,0,0,0-1.4,0,.99.99,0,0,0,0,1.4A.99.99,0,1,0,1.69.29Z"/></g><g transform="translate(676.098 4315.782) rotate(45)"><g transform="translate(0 0)"><path class="a" d="M6.187.29a.99.99,0,0,0-1.4,0l-4.5,4.5a.99.99,0,0,0,1.4,1.4l4.5-4.5A.99.99,0,0,0,6.187.29Z"/></g></g></g></svg>