<svg id="Icon_color_Stripe" data-name="Icon/color/Stripe" xmlns="http://www.w3.org/2000/svg" width="129.421" height="90.202" viewBox="0 0 129.421 90.202">
  <g id="Stripe">
    <rect id="Rectangle_Copy_13" data-name="Rectangle Copy 13" width="129.421" height="90.202" rx="3" fill="#6772e5"/>
    <g id="Stripe_logo_-_white_Copy" data-name="Stripe logo - white Copy" transform="translate(25.492 29.414)">
      <path id="Shape" d="M9.02,20.2C3.372,20.2,0,16.438,0,10.134A11.656,11.656,0,0,1,2.217,2.95,7.5,7.5,0,0,1,8.323,0a6.953,6.953,0,0,1,5.869,2.956,12.293,12.293,0,0,1,2,7.222c0,.308-.014.812-.027,1.257-.009.321-.017.6-.017.721H5.49C5.7,14.4,7.117,15.534,9.717,15.534a11.483,11.483,0,0,0,5.339-1.221v4.444A12.041,12.041,0,0,1,9.02,20.2ZM8.3,4.511c-1.432,0-2.877,1.1-2.877,3.556h5.621a4.047,4.047,0,0,0-1-2.855A2.376,2.376,0,0,0,8.3,4.511Z" transform="translate(62.248 7.023)" fill="#fff"/>
      <path id="Shape-2" data-name="Shape" d="M0,26.268V.355H4.793l.284,1.378A6.026,6.026,0,0,1,9.347,0a6.6,6.6,0,0,1,5.137,2.561,11.579,11.579,0,0,1,2.293,7.394c0,3.27-.783,5.956-2.263,7.765A6.6,6.6,0,0,1,9.325,20.2a6.084,6.084,0,0,1-3.856-1.4l-.023,6.29L0,26.267ZM8.041,4.934A3.206,3.206,0,0,0,5.446,6.023l.023,8.244a3.262,3.262,0,0,0,2.571,1.045c1.975,0,3.355-2.138,3.355-5.2C11.4,7.112,9.985,4.934,8.041,4.934Z" transform="translate(44.491 7.023)" fill="#fff"/>
      <path id="Path" d="M0,5.712l5.469-1.2V0L0,1.178Z" transform="translate(36.996)" fill="#fff"/>
      <rect id="Rectangle" width="5.469" height="19.446" transform="translate(36.996 7.401)" fill="#fff"/>
      <path id="Path-2" data-name="Path" d="M5.055,1.874,4.706.23H0V19.675H5.447V6.5a3.791,3.791,0,0,1,4.14-1.156V.23A3.659,3.659,0,0,0,5.055,1.874Z" transform="translate(26.08 7.171)" fill="#fff"/>
      <path id="Path-3" data-name="Path" d="M5.338,0,.022,1.156,0,18.957a5.529,5.529,0,0,0,5.643,5.712,8.274,8.274,0,0,0,3.813-.733V19.424c-.7.289-4.14,1.311-4.14-1.978V9.556h4.14V4.823H5.316Z" transform="translate(14.903 2.578)" fill="#fff"/>
      <path id="Path-4" data-name="Path" d="M5.512,6.023c0-.867.7-1.2,1.852-1.2a11.964,11.964,0,0,1,5.4,1.422V1.022A14.12,14.12,0,0,0,7.364,0C2.941,0,0,2.356,0,6.289c0,6.134,8.279,5.156,8.279,7.8,0,1.022-.872,1.356-2.092,1.356A13.364,13.364,0,0,1,.24,13.668v5.289a14.85,14.85,0,0,0,5.948,1.267c4.532,0,7.648-2.289,7.648-6.267C13.814,7.334,5.512,8.512,5.512,6.023Z" transform="translate(0 7.023)" fill="#fff"/>
    </g>
  </g>
</svg>
