<svg xmlns="http://www.w3.org/2000/svg" width="784.571" height="622.816" viewBox="0 0 784.571 622.816">
  <g id="Group_2991" data-name="Group 2991" transform="translate(0 0)">
    <circle id="Ellipse_76" data-name="Ellipse 76" cx="51.502" cy="51.502" r="51.502" transform="translate(367.728 28.936)" fill="#ff6584"/>
    <path id="Path_2294" data-name="Path 2294" d="M376.675,416.145c0,99.471-59.134,134.2-132.079,134.2s-132.079-34.732-132.079-134.2S244.6,190.131,244.6,190.131,376.675,316.674,376.675,416.145Z" transform="translate(-112.517 -87.844)" fill="#f2f2f2"/>
    <path id="Path_2295" data-name="Path 2295" d="M145.27,472.11l1.352-83.248,56.3-102.99L146.835,375.8l.608-37.431,38.8-74.513L147.6,328.465h0l1.094-67.322,41.546-59.321-41.374,48.735.683-123.447-4.294,163.42.352-6.741-42.24-64.656,41.564,77.6L141,371.918l-.117-2-48.7-68.041,48.548,75.091-.492,9.4-.088.142.04.772-9.986,190.758h13.341l1.6-98.53,48.429-74.907Z" transform="translate(-18.002 -24.823)" fill="#3f3d56"/>
    <path id="Path_2296" data-name="Path 2296" d="M848.848,339.136c0,121.521-72.242,163.952-161.358,163.952S526.133,460.658,526.133,339.136,687.49,63.021,687.49,63.021,848.848,217.615,848.848,339.136Z" transform="translate(-193.289 -63.021)" fill="#f2f2f2"/>
    <path id="Path_2297" data-name="Path 2297" d="M591.089,421.479l1.652-101.7,68.775-125.82L593,303.822l.744-45.73,47.4-91.029-47.2,78.928h0l1.336-82.247,50.757-72.471-50.547,59.538L596.321,0l-5.247,199.647.431-8.236-51.6-78.988,50.777,94.8-4.809,91.855-.142-2.437-59.491-83.124,59.311,91.737-.6,11.487-.107.173.049.943L572.687,550.9h16.3l1.956-120.373,59.164-91.512Z" transform="translate(-102.766 0)" fill="#3f3d56"/>
    <ellipse id="Ellipse_77" data-name="Ellipse 77" cx="247.852" cy="8.852" rx="247.852" ry="8.852" transform="translate(74.007 542.344)" fill="#3f3d56"/>
    <ellipse id="Ellipse_78" data-name="Ellipse 78" cx="114.27" cy="10.864" rx="114.27" ry="10.864" transform="translate(556.032 601.089)" fill="#3f3d56"/>
    <rect id="Rectangle_2171" data-name="Rectangle 2171" width="28.97" height="271.994" transform="translate(307.375 279.202)" fill="#2f2e41"/>
    <path id="Path_2298" data-name="Path 2298" d="M521.809,411.85H343.967V361.958H521.809l51.5,24.946Z" transform="translate(-67.172 -70.685)" fill="#3f3d56"/>
    <path id="Path_2299" data-name="Path 2299" d="M521.809,413.392H343.967v4.024H521.809l51.5-24.946-4.153-2.012Z" transform="translate(-67.172 -76.25)" opacity="0.1"/>
    <path id="Path_2300" data-name="Path 2300" d="M223.469,493.85H401.311V443.958H223.469l-51.5,24.946Z" transform="translate(-33.583 -86.698)" fill="#3f3d56"/>
    <path id="Path_2301" data-name="Path 2301" d="M176.12,472.458l-4.153,2.012,51.5,24.946H401.311v-4.024H223.469Z" transform="translate(-33.583 -92.264)" opacity="0.1"/>
    <rect id="Rectangle_2172" data-name="Rectangle 2172" width="30.579" height="30.579" transform="translate(376.58 300.93)" fill="#1598e5"/>
    <circle id="Ellipse_79" data-name="Ellipse 79" cx="15.29" cy="15.29" r="15.29" transform="translate(238.169 366.916)" fill="#1598e5"/>
    <circle id="Ellipse_80" data-name="Ellipse 80" cx="8.852" cy="8.852" r="8.852" transform="translate(313.008 305.758)" fill="#2f2e41"/>
    <circle id="Ellipse_81" data-name="Ellipse 81" cx="8.852" cy="8.852" r="8.852" transform="translate(313.008 371.745)" fill="#2f2e41"/>
    <path id="Path_2302" data-name="Path 2302" d="M426.831,700.345c0,18.081-10.748,24.394-24.008,24.394q-.461,0-.92-.01c-.614-.013-1.223-.042-1.824-.083-11.967-.847-21.264-7.485-21.264-24.3,0-17.4,22.238-39.361,23.908-40.986l0,0,.1-.094S426.831,682.265,426.831,700.345Z" transform="translate(-164.521 -179.458)" fill="#1598e5"/>
    <path id="Path_2303" data-name="Path 2303" d="M405.221,721.973,414,709.7l-8.8,13.617-.023,1.409c-.614-.013-1.223-.042-1.824-.083l.946-18.09-.007-.14.016-.026.089-1.708-8.825-13.65,8.852,12.369.021.363.715-13.668L397.6,675.99l7.647,11.706L406,659.36l0-.1v.094l-.124,22.345,7.521-8.858-7.552,10.783-.2,12.237,7.023-11.744-7.052,13.545-.111,6.8,10.2-16.346-10.233,18.72Z" transform="translate(-167.793 -179.458)" fill="#3f3d56"/>
    <path id="Path_2304" data-name="Path 2304" d="M891.968,798.893s-11.394,9.595-17.391,9-17.391-.6-12.593,6,24.587,10.195,32.983,10.794,26.986,1.2,25.786-2.4-2.4-20.389-7.2-21.589S891.968,798.893,891.968,798.893Z" transform="translate(-258.652 -206.726)" fill="#575a89"/>
    <path id="Path_2305" data-name="Path 2305" d="M974.288,786.2s-8.4,12.3-14.333,13.338-16.912,4.1-10.518,9.161,26.422,3.212,34.67,1.533,26.315-6.1,24.193-9.241-7.79-18.994-12.734-18.86S974.288,786.2,974.288,786.2Z" transform="translate(-275.576 -203.452)" fill="#575a89"/>
    <path id="Path_2306" data-name="Path 2306" d="M889.727,565.777s-7.718,52.857-5.919,62.452,3,24.587,3,24.587-1.2,12.593,0,18.59,8.4,62.967,8.4,64.166-1.2,4.8,0,7.8,3.6.6,0,5.4-1.2,6-.6,6,23.987,2.4,25.187,0-.6-3,0-6,1.2-3.6,2.4-4.2,3.6.6,1.8-2.4-6-6.6-4.8-8.4-.6-14.992-.6-14.992-1.2-29.385-1.8-47.375,5.4-36.581,5.4-36.581A68.613,68.613,0,0,0,937.78,675c15.592,18.59,23.388,53.372,23.388,53.372s3.6,5.4,1.8,10.195-7.2,1.8-1.8,4.8,23.987-1.2,25.786-3-2.4-4.2-1.2-9,6-3.6,1.8-6-5.4-1.8-5.4-4.2-10.794-54.571-27.586-69.563l-1.2-54.571s14.992-38.38-.6-41.978S889.727,565.777,889.727,565.777Z" transform="translate(-263.085 -158.997)" fill="#2f2e41"/>
    <path id="Path_2307" data-name="Path 2307" d="M904.74,389.142s10.195,25.187,7.8,28.785,29.385-11.994,29.385-11.994-10.195-25.187-10.195-28.185S904.74,389.142,904.74,389.142Z" transform="translate(-267.226 -124.402)" fill="#a0616a"/>
    <circle id="Ellipse_82" data-name="Ellipse 82" cx="22.188" cy="22.188" r="22.188" transform="translate(622.822 226.66)" fill="#a0616a"/>
    <path id="Path_2308" data-name="Path 2308" d="M938.969,400.146s-15.592-1.8-23.388,7.8-9,11.994-9,11.994S888,449.92,891.594,464.912a43.406,43.406,0,0,1,2.4,4.2c1.2,2.4,1.2,35.981,0,41.378s-2.4,7.2-1.2,14.992-9.595,20.389,3,22.788,22.188.6,26.386-4.8.6-9,13.793-9a31.734,31.734,0,0,0,21.589-9s-6.6-7.2-4.2-8.4,0-4.2-1.2-7.2-1.2-5.4.6-5.4.6-1.2-.6-4.2,20.989-54.571,7.8-69.563-19.79-23.388-19.79-23.388S942.567,398.347,938.969,400.146Z" transform="translate(-264.274 -128.81)" fill="#1598e5"/>
    <path id="Path_2309" data-name="Path 2309" d="M902.451,471v26.386l-19.19,63.567s-12.593,32.983,0,32.983,11.919-31.481,11.919-31.481l27.061-47.678S933.035,477,931.836,474,902.451,471,902.451,471Z" transform="translate(-261.938 -142.693)" fill="#a0616a"/>
    <path id="Path_2310" data-name="Path 2310" d="M917.736,422.559s-17.991,7.2-13.193,26.386,0,18.59,0,18.59,24.587-2.4,32.383,3l1.8-7.2S945.921,421.959,917.736,422.559Z" transform="translate(-267.028 -133.232)" fill="#1598e5"/>
    <path id="Path_2311" data-name="Path 2311" d="M902.016,347.344a8.853,8.853,0,0,1-8.316-1.294,6.7,6.7,0,0,1-1.89-7.908c1.148-2.254,3.6-3.49,5.959-4.412A55.388,55.388,0,0,1,914,330.065c2.653-.189,5.439-.159,7.806,1.053,1.171.6,2.189,1.465,3.349,2.086,2.133,1.142,4.615,1.4,6.921,2.131a17.323,17.323,0,0,1,10.586,9.731,20.871,20.871,0,0,1,1.3,4.83,26.906,26.906,0,0,1-1.4,13.469c-2.556,6.806-7.918,12.756-8.22,20.02-3.281-2.381-4.5-6.678-7.128-9.764a13.281,13.281,0,0,0-7.58-4.4,4.222,4.222,0,0,1-2.259-.824,3.638,3.638,0,0,1-.825-1.925l-2.245-10.6c-.457-2.158-1.034-4.51-2.808-5.821a8.5,8.5,0,0,0-3.66-1.289,57.408,57.408,0,0,0-9.375-.855" transform="translate(-264.582 -115.154)" fill="#2f2e41"/>
  </g>
</svg>
