<svg xmlns="http://www.w3.org/2000/svg" width="279.309" height="53.503" viewBox="0 0 279.309 53.503"><defs><style>.a{fill:#2e394e;}</style></defs><path class="a" d="M27.451,8.8a1.835,1.835,0,0,1,1.84,1.82,1.87,1.87,0,0,1-1.84,1.84H17.383a.8.8,0,0,0-.907.907v24.7a1.83,1.83,0,1,1-3.66,0v-24.7a.8.8,0,0,0-.907-.907H1.84a1.788,1.788,0,0,1-1.313-.547A1.779,1.779,0,0,1,0,10.615,1.793,1.793,0,0,1,1.84,8.8Z" transform="translate(0 -4.339)"/><path class="a" d="M90.966,10.61a1.826,1.826,0,0,1,.527-1.293,1.84,1.84,0,0,1,3.133,1.293V38.061a1.788,1.788,0,0,1-.548,1.313,1.848,1.848,0,0,1-2.585,0,1.839,1.839,0,0,1-.527-1.313V26.178a.813.813,0,0,0-.933-.907H69.9a.8.8,0,0,0-.907.907V38.061a1.83,1.83,0,0,1-.527,1.313,1.809,1.809,0,0,1-1.293.527,1.8,1.8,0,0,1-1.84-1.84V10.61a1.83,1.83,0,1,1,3.66,0V20.678a.813.813,0,0,0,.907.933H90.033a.823.823,0,0,0,.933-.933Z" transform="translate(-32.212 -4.334)"/><path class="a" d="M413.147,39.379a1.838,1.838,0,0,1-.527-1.313V10.61a1.8,1.8,0,0,1,.527-1.293,1.873,1.873,0,0,1,2.606,0,1.809,1.809,0,0,1,.527,1.293V38.061a1.83,1.83,0,0,1-.527,1.313,1.88,1.88,0,0,1-2.606.005Z" transform="translate(-203.446 -4.334)"/><path class="a" d="M436.545,39.906a9.139,9.139,0,0,1-9.155-9.155V17.935a8.812,8.812,0,0,1,2.677-6.458A8.825,8.825,0,0,1,436.545,8.8h18.29a1.843,1.843,0,0,1,1.845,1.82,1.879,1.879,0,0,1-1.845,1.84h-18.29a5.351,5.351,0,0,0-3.9,1.6,5.27,5.27,0,0,0-1.6,3.873V30.751a5.47,5.47,0,0,0,5.5,5.5h18.29a1.83,1.83,0,1,1,0,3.66h-18.29Z" transform="translate(-210.728 -4.339)"/><path class="a" d="M220.4,17.971a5.2,5.2,0,0,1,1.577-3.63,5.3,5.3,0,0,1,3.645-1.577V9.14a9.042,9.042,0,0,0-8.846,8.836H220.4Z" transform="translate(-106.885 -4.507)"/><path class="a" d="M243.116,11.781A8.789,8.789,0,0,0,236.7,9.13h-9.2v3.625h9.2a5.461,5.461,0,0,1,5.45,5.424V30.863a5.461,5.461,0,0,1-5.45,5.445H225.829a5.418,5.418,0,0,1-5.445-5.445v-11.3H216.76v11.3a9.052,9.052,0,0,0,9.069,9.069H236.7a9.052,9.052,0,0,0,9.069-9.069V18.174A8.708,8.708,0,0,0,243.116,11.781Z" transform="translate(-106.875 -4.502)"/><circle class="a" cx="3.265" cy="3.265" r="3.265" transform="translate(105.51 0)"/><g transform="translate(61.756 45.609)"><path class="a" d="M122.053,96.647a2.832,2.832,0,0,1-.233-1.338V92.363a3.159,3.159,0,0,1,.213-1.348,1.136,1.136,0,0,1,.765-.568,7.729,7.729,0,0,1,1.754-.157h1.587v.659H123.65l-.142.01a1.89,1.89,0,0,0-.72.152c-.218.106-.324.527-.324,1.252v2.945a2.939,2.939,0,0,0,.1.938.593.593,0,0,0,.233.319,2.047,2.047,0,0,0,.821.162h2.519v.649H123.62l-.466-.041-.193-.041-.223-.081A1.243,1.243,0,0,1,122.053,96.647Z" transform="translate(-121.82 -90.128)"/><path class="a" d="M138,91.228a3.28,3.28,0,0,1,.127.867v3.447a3.358,3.358,0,0,1-.127.872,1.154,1.154,0,0,1-.329.517,1.453,1.453,0,0,1-.466.274,2.993,2.993,0,0,1-.689.122c-.3.025-.593.041-.892.041a8.938,8.938,0,0,1-.9-.046,2.953,2.953,0,0,1-.674-.127,1.232,1.232,0,0,1-.487-.274,1.144,1.144,0,0,1-.319-.522,3.524,3.524,0,0,1-.137-.867V92.115a3.566,3.566,0,0,1,.137-.867,1.2,1.2,0,0,1,.319-.522,1.5,1.5,0,0,1,.487-.284,2.691,2.691,0,0,1,.674-.122c.3-.025.6-.041.9-.041s.593.015.892.041a3.047,3.047,0,0,1,.689.122,1.511,1.511,0,0,1,.466.274A1.122,1.122,0,0,1,138,91.228Zm-.5,4.4v-3.6a1.945,1.945,0,0,0-.172-.75c0-.015-.051-.051-.157-.112a2.091,2.091,0,0,0-.532-.172,4.858,4.858,0,0,0-1.009-.081,5.288,5.288,0,0,0-.928.066,2.611,2.611,0,0,0-.558.152.428.428,0,0,0-.218.157,1.83,1.83,0,0,0-.172.771V95.6a1.958,1.958,0,0,0,.172.76.464.464,0,0,0,.218.147,2.567,2.567,0,0,0,.558.157,5.189,5.189,0,0,0,.928.071,4.825,4.825,0,0,0,1.009-.081,2.17,2.17,0,0,0,.553-.183c.117-.066.167-.1.147-.1A2.282,2.282,0,0,0,137.505,95.623Z" transform="translate(-127.387 -90.123)"/><path class="a" d="M149.5,90.29h.608v7.082h-.568l-.223-.335-1.637-2.824-1.627,2.814-.233.345h-.568V90.29h.618v5.825l1.506-2.631h.608l1.516,2.631Z" transform="translate(-133.372 -90.128)"/><path class="a" d="M161.952,91.228a3.28,3.28,0,0,1,.127.867v3.447a3.358,3.358,0,0,1-.127.872,1.154,1.154,0,0,1-.329.517,1.454,1.454,0,0,1-.466.274,2.994,2.994,0,0,1-.689.122c-.3.025-.593.041-.892.041a8.939,8.939,0,0,1-.9-.046,2.953,2.953,0,0,1-.674-.127,1.232,1.232,0,0,1-.487-.274,1.145,1.145,0,0,1-.319-.522,3.523,3.523,0,0,1-.137-.867V92.115a3.564,3.564,0,0,1,.137-.867,1.172,1.172,0,0,1,.319-.522,1.5,1.5,0,0,1,.487-.284,2.691,2.691,0,0,1,.674-.122c.3-.025.6-.041.9-.041s.593.015.892.041a3.047,3.047,0,0,1,.689.122,1.511,1.511,0,0,1,.466.274A1.165,1.165,0,0,1,161.952,91.228Zm-.5,4.4v-3.6a1.945,1.945,0,0,0-.172-.75c0-.015-.051-.051-.157-.112a2.09,2.09,0,0,0-.532-.172,4.858,4.858,0,0,0-1.009-.081,5.289,5.289,0,0,0-.928.066,2.612,2.612,0,0,0-.558.152.427.427,0,0,0-.218.157,1.829,1.829,0,0,0-.172.771V95.6a1.957,1.957,0,0,0,.172.76.464.464,0,0,0,.218.147,2.567,2.567,0,0,0,.558.157,5.19,5.19,0,0,0,.928.071,4.825,4.825,0,0,0,1.009-.081,2.171,2.171,0,0,0,.553-.183c.117-.066.167-.1.147-.1A2.043,2.043,0,0,0,161.45,95.623Z" transform="translate(-139.195 -90.123)"/><path class="a" d="M172.654,94.356l1.4,3.016h-.7l-1.374-2.955-2.246.01v2.945h-.649V90.29h2.124a8.151,8.151,0,0,1,1.617.117,1.091,1.091,0,0,1,.76.553,4.135,4.135,0,0,1,.02,2.737,1.167,1.167,0,0,1-.679.558l-.223.081Zm-.6-.578a1.956,1.956,0,0,0,.811-.172.717.717,0,0,0,.238-.324,2.684,2.684,0,0,0,.106-.933c0-.72-.112-1.136-.335-1.242a1.974,1.974,0,0,0-.72-.162l-2.418-.01v2.844Z" transform="translate(-145.127 -90.128)"/><path class="a" d="M185.375,90.29h.639v2.165a3.667,3.667,0,0,1-.132.847,1.177,1.177,0,0,1-.294.512l-.091.081-.112.071.112.071.091.071a1.272,1.272,0,0,1,.294.517,3.507,3.507,0,0,1,.132.862v1.891h-.639V95.405a2.2,2.2,0,0,0-.162-.76,1.244,1.244,0,0,0-.558-.253,4.432,4.432,0,0,0-.943-.1h-2.1v3.087h-.649V90.29h.649v3.351h2.1a3.99,3.99,0,0,0,.882-.091,1.97,1.97,0,0,0,.477-.167c.1-.056.142-.091.142-.106a1.984,1.984,0,0,0,.162-.75Z" transform="translate(-150.979 -90.128)"/><path class="a" d="M194.32,90.29h.629v7.082h-.629Z" transform="translate(-157.567 -90.128)"/><path class="a" d="M199.61,90.29h.5l3.26,5.637V90.29H204v7.082h-.5l-3.26-5.647v5.647h-.629Z" transform="translate(-160.175 -90.128)"/><path class="a" d="M211.406,96.911a1.136,1.136,0,0,1-.33-.512,3.441,3.441,0,0,1-.137-.867V92.115a3.441,3.441,0,0,1,.137-.867,1.136,1.136,0,0,1,.33-.512,1.29,1.29,0,0,1,.466-.284,3.25,3.25,0,0,1,.684-.127,8.718,8.718,0,0,1,.9-.046c.3,0,.593.015.892.041a2.889,2.889,0,0,1,.679.122,1.782,1.782,0,0,1,.477.274,1.207,1.207,0,0,1,.324.517,3.081,3.081,0,0,1,.132.862l.01.142-.649-.132v-.071a2.028,2.028,0,0,0-.162-.76c0-.015-.051-.051-.157-.106a2.341,2.341,0,0,0-.537-.167,4.891,4.891,0,0,0-1.009-.081,4.56,4.56,0,0,0-1.207.122,1.009,1.009,0,0,0-.5.243,2.021,2.021,0,0,0-.162.771v3.538a2.045,2.045,0,0,0,.162.771,1.009,1.009,0,0,0,.5.243,4.587,4.587,0,0,0,1.207.122,4.923,4.923,0,0,0,1.009-.081A2.341,2.341,0,0,0,215,96.48c.106-.056.157-.091.157-.106a1.981,1.981,0,0,0,.162-.76v-1.2h-1.962v-.7h2.6v1.83a3.186,3.186,0,0,1-.132.867,1.258,1.258,0,0,1-.324.522,1.783,1.783,0,0,1-.477.274,4.212,4.212,0,0,1-.694.117,8.7,8.7,0,0,1-.877.046c-.289,0-.583-.015-.887-.046a3.3,3.3,0,0,1-.695-.127A1.329,1.329,0,0,1,211.406,96.911Z" transform="translate(-165.761 -90.123)"/><path class="a" d="M230.749,92.287a1.784,1.784,0,0,1-.157-.695,1.551,1.551,0,0,1,.471-1.161,1.732,1.732,0,0,1,1.267-.461,1.57,1.57,0,0,1,1.176.431,1.4,1.4,0,0,1,.421,1.024,1.837,1.837,0,0,1-.436,1.217,4.118,4.118,0,0,1-.857.7l1.318,1.582c.086-.264.147-.461.183-.588a5.274,5.274,0,0,0,.106-.548h.847a5.452,5.452,0,0,1-.335,1.338c-.167.426-.248.6-.248.517l1.288,1.566h-1.146l-.679-.831a3.6,3.6,0,0,1-.74.644,2.538,2.538,0,0,1-1.348.355,2.023,2.023,0,0,1-1.637-.608,2.092,2.092,0,0,1-.512-1.374,2,2,0,0,1,.5-1.379,5.634,5.634,0,0,1,1.136-.842A3.7,3.7,0,0,1,230.749,92.287Zm2.134,4.061a1.969,1.969,0,0,0,.6-.563l-1.632-2a5.114,5.114,0,0,0-.9.71,1.316,1.316,0,0,0-.324.9,1.041,1.041,0,0,0,.421.887,1.47,1.47,0,0,0,.9.309A1.621,1.621,0,0,0,232.883,96.347Zm-.071-4.111a1.113,1.113,0,0,0,.289-.745.8.8,0,0,0-.213-.553.741.741,0,0,0-.568-.233.8.8,0,0,0-.755.365.827.827,0,0,0-.106.411,1.1,1.1,0,0,0,.167.578,5.544,5.544,0,0,0,.553.715A4.018,4.018,0,0,0,232.812,92.236Z" transform="translate(-175.026 -89.97)"/><path class="a" d="M252.472,97.372h-2V90.29h2.59a2.185,2.185,0,0,1,.857.233,1.115,1.115,0,0,1,.482.613,3.645,3.645,0,0,1,.162,1.217,4.966,4.966,0,0,1-.091.933l-.03.152.132.081a1.273,1.273,0,0,1,.461.563,3.177,3.177,0,0,1,.177,1.227,2.486,2.486,0,0,1-.385,1.577,1.03,1.03,0,0,1-.314.233,2.159,2.159,0,0,1-.755.2c-.3.03-.689.046-1.166.046h-.071Zm-1.354-4.152,2.692.041.041-.183a3.152,3.152,0,0,0,.061-.73,3.32,3.32,0,0,0-.076-.76.962.962,0,0,0-.208-.446.852.852,0,0,0-.375-.157,5.729,5.729,0,0,0-1.1-.066c-.218,0-.4.005-.547.01s-.243.01-.284.01l-.2.01V93.22Zm0,3.493h2.357l.01-.01.061-.01a1.755,1.755,0,0,0,.689-.152c.177-.086.284-.385.324-.892.005-.086.01-.2.01-.345a2.7,2.7,0,0,0-.106-.933.623.623,0,0,0-.238-.319,1.11,1.11,0,0,0-.355-.112l-.436-.061h-2.317v2.834Z" transform="translate(-185.252 -90.128)"/><path class="a" d="M262.317,96.4a3.52,3.52,0,0,1-.137-.867V92.125a3.619,3.619,0,0,1,.137-.877,1.2,1.2,0,0,1,.319-.522,1.348,1.348,0,0,1,.477-.274,3.067,3.067,0,0,1,.679-.127,8.8,8.8,0,0,1,1.79,0,3.07,3.07,0,0,1,.674.127,1.335,1.335,0,0,1,.477.264,1.154,1.154,0,0,1,.319.517,3.528,3.528,0,0,1,.137.872v3.437a3.529,3.529,0,0,1-.137.872,1.183,1.183,0,0,1-.319.517,1.335,1.335,0,0,1-.477.264,3.07,3.07,0,0,1-.674.127,8.716,8.716,0,0,1-.9.046,8.839,8.839,0,0,1-.892-.046,3.067,3.067,0,0,1-.679-.127,1.348,1.348,0,0,1-.477-.274A1.172,1.172,0,0,1,262.317,96.4Zm.5-4.334V95.6a2,2,0,0,0,.162.76,1.105,1.105,0,0,0,.5.243,4.256,4.256,0,0,0,1.2.132,4.585,4.585,0,0,0,1.237-.142l-3-5.171A2.782,2.782,0,0,0,262.819,92.064Zm.629-1.014,3,5.191a1.872,1.872,0,0,0,.1-.618V92.034a1.694,1.694,0,0,0-.162-.75c0-.015-.051-.051-.157-.117a1.876,1.876,0,0,0-.532-.177,4.879,4.879,0,0,0-1.014-.081A4.758,4.758,0,0,0,263.447,91.051Z" transform="translate(-191.026 -90.123)"/><path class="a" d="M274.257,96.4a3.566,3.566,0,0,1-.137-.872V90.29h.639V95.6a1.815,1.815,0,0,0,.172.76c.046.081.213.162.5.248a4.41,4.41,0,0,0,1.212.127,5.053,5.053,0,0,0,1.024-.081,2.057,2.057,0,0,0,.542-.172c.106-.061.157-.1.157-.112a1.844,1.844,0,0,0,.162-.76V90.29h.639v5.252a3.2,3.2,0,0,1-.132.877,1.225,1.225,0,0,1-.335.522,1.572,1.572,0,0,1-.477.274,2.889,2.889,0,0,1-.684.122c-.3.025-.6.041-.9.041a8.841,8.841,0,0,1-.892-.046,3.242,3.242,0,0,1-.689-.127,1.158,1.158,0,0,1-.477-.274A1.181,1.181,0,0,1,274.257,96.4Z" transform="translate(-196.913 -90.128)"/><path class="a" d="M288.255,90.969H286.09V90.28h5.039v.689h-2.2v6.393h-.679Z" transform="translate(-202.815 -90.123)"/><path class="a" d="M299.42,90.29h.629v7.082h-.629Z" transform="translate(-209.387 -90.128)"/><path class="a" d="M309.089,92.054v3.493a5.643,5.643,0,0,1-.091.7,1.572,1.572,0,0,1-.122.345.986.986,0,0,1-.253.355,1.568,1.568,0,0,1-.2.137,1.19,1.19,0,0,1-.264.127l-.051.01a.543.543,0,0,0,.253.142,1.89,1.89,0,0,0,.436.041l.294.558c.005.015-.02.025-.086.041a1.069,1.069,0,0,1-.238.02,1.8,1.8,0,0,1-1.191-.446,1.122,1.122,0,0,1-.213-.233c-.248.02-.512.03-.781.03a4.765,4.765,0,0,1-1.566-.172,1.125,1.125,0,0,1-.477-.274,1.256,1.256,0,0,1-.365-.679,3.691,3.691,0,0,1-.1-.7V92.13l.01-.112v-.041a2.609,2.609,0,0,1,.2-.9.887.887,0,0,1,.254-.345,1.307,1.307,0,0,1,.477-.284,3.169,3.169,0,0,1,.6-.112,7.083,7.083,0,0,1,.968-.051,6.938,6.938,0,0,1,.953.051,2.864,2.864,0,0,1,.629.112,1.2,1.2,0,0,1,.466.264.957.957,0,0,1,.264.375,2.5,2.5,0,0,1,.193.9C309.084,92.009,309.089,92.029,309.089,92.054Zm-.649,3.564V92.029a2.9,2.9,0,0,0-.071-.548,1.067,1.067,0,0,0-.091-.2.437.437,0,0,0-.1-.076,1.205,1.205,0,0,0-.324-.137,3.282,3.282,0,0,0-.613-.112,5.353,5.353,0,0,0-.669-.03,6.515,6.515,0,0,0-.75.03,2.968,2.968,0,0,0-.679.162c-.162.066-.254.127-.274.172a.508.508,0,0,0-.081.182,2.533,2.533,0,0,0-.091.588v3.549a2.922,2.922,0,0,0,.041.314,1.16,1.16,0,0,0,.132.446.5.5,0,0,0,.218.152,2.36,2.36,0,0,0,.563.157,5.265,5.265,0,0,0,.923.066,4.911,4.911,0,0,0,1.014-.081,2.171,2.171,0,0,0,.553-.182c.117-.066.167-.1.147-.1a2,2,0,0,0,.132-.466A2.377,2.377,0,0,0,308.44,95.618Z" transform="translate(-211.68 -90.128)"/><path class="a" d="M316.157,96.4a3.57,3.57,0,0,1-.137-.872V90.29h.639V95.6a1.815,1.815,0,0,0,.172.76c.046.081.213.162.5.248a4.41,4.41,0,0,0,1.212.127,5.052,5.052,0,0,0,1.024-.081,2.057,2.057,0,0,0,.542-.172c.106-.061.157-.1.157-.112a1.844,1.844,0,0,0,.162-.76V90.29h.639v5.252a3.2,3.2,0,0,1-.132.877,1.224,1.224,0,0,1-.335.522,1.572,1.572,0,0,1-.477.274,2.889,2.889,0,0,1-.684.122c-.3.025-.6.041-.9.041a8.84,8.84,0,0,1-.892-.046,3.242,3.242,0,0,1-.689-.127,1.157,1.157,0,0,1-.477-.274A1.227,1.227,0,0,1,316.157,96.4Z" transform="translate(-217.572 -90.128)"/><path class="a" d="M328.938,96.637a2.908,2.908,0,0,1-.228-1.338V92.353a3.26,3.26,0,0,1,.208-1.343,1.087,1.087,0,0,1,.76-.568,7.8,7.8,0,0,1,1.754-.152h1.587v.649H330.53l-.132.01a2.148,2.148,0,0,0-.73.152c-.218.122-.324.542-.324,1.252v1.13h3.67v.689h-3.67v1.12c0,.71.117,1.125.345,1.252a2.337,2.337,0,0,0,.821.172h2.509v.649l-2.52-.01-.466-.041-.182-.041-.243-.081A1.156,1.156,0,0,1,328.938,96.637Z" transform="translate(-223.829 -90.128)"/><path class="a" d="M356.852,91.228a3.279,3.279,0,0,1,.127.867v3.447a3.357,3.357,0,0,1-.127.872,1.154,1.154,0,0,1-.329.517,1.452,1.452,0,0,1-.466.274,2.993,2.993,0,0,1-.689.122c-.3.025-.593.041-.892.041a8.937,8.937,0,0,1-.9-.046,2.953,2.953,0,0,1-.674-.127,1.232,1.232,0,0,1-.487-.274,1.145,1.145,0,0,1-.319-.522,3.526,3.526,0,0,1-.137-.867V92.115a3.568,3.568,0,0,1,.137-.867,1.2,1.2,0,0,1,.319-.522,1.5,1.5,0,0,1,.487-.284,2.69,2.69,0,0,1,.674-.122c.3-.025.6-.041.9-.041s.593.015.892.041a3.046,3.046,0,0,1,.689.122,1.51,1.51,0,0,1,.466.274A1.165,1.165,0,0,1,356.852,91.228Zm-.5,4.4v-3.6a1.947,1.947,0,0,0-.172-.75c0-.015-.051-.051-.157-.112a2.09,2.09,0,0,0-.532-.172,4.857,4.857,0,0,0-1.009-.081,5.288,5.288,0,0,0-.928.066,2.612,2.612,0,0,0-.558.152.427.427,0,0,0-.218.157,1.829,1.829,0,0,0-.172.771V95.6a1.957,1.957,0,0,0,.172.76.464.464,0,0,0,.218.147,2.567,2.567,0,0,0,.558.157,5.19,5.19,0,0,0,.928.071,4.825,4.825,0,0,0,1.009-.081,2.17,2.17,0,0,0,.553-.183c.117-.066.167-.1.147-.1A2.157,2.157,0,0,0,356.35,95.623Z" transform="translate(-235.293 -90.123)"/><path class="a" d="M365.355,91.461a2.873,2.873,0,0,0-.1.9v1.115h3.68v.7h-3.68v3.2h-.629V92.363a2.975,2.975,0,0,1,.243-1.4,1.1,1.1,0,0,1,.76-.548,8.409,8.409,0,0,1,1.617-.127h1.688v.659H366.45l-.132.01a2.119,2.119,0,0,0-.73.142A.739.739,0,0,0,365.355,91.461Z" transform="translate(-241.54 -90.128)"/><path class="a" d="M377.325,91.461a2.871,2.871,0,0,0-.1.9v1.115h3.68v.7h-3.68v3.2H376.6V92.363a2.975,2.975,0,0,1,.243-1.4,1.1,1.1,0,0,1,.76-.548,8.41,8.41,0,0,1,1.617-.127h1.688v.659H378.42l-.132.01a2.119,2.119,0,0,0-.73.142A.777.777,0,0,0,377.325,91.461Z" transform="translate(-247.442 -90.128)"/><path class="a" d="M389.22,90.29h.629v7.082h-.629Z" transform="translate(-253.664 -90.128)"/><path class="a" d="M394.773,96.647a2.831,2.831,0,0,1-.233-1.338V92.363a3.159,3.159,0,0,1,.213-1.348,1.136,1.136,0,0,1,.765-.568,7.729,7.729,0,0,1,1.754-.157h1.587v.659H396.37l-.142.01a1.89,1.89,0,0,0-.72.152c-.218.106-.324.527-.324,1.252v2.945a2.938,2.938,0,0,0,.1.938.593.593,0,0,0,.233.319,2.048,2.048,0,0,0,.821.162h2.519v.649H396.34l-.466-.041-.193-.041-.223-.081A1.242,1.242,0,0,1,394.773,96.647Z" transform="translate(-256.287 -90.128)"/><path class="a" d="M406.768,96.637a2.908,2.908,0,0,1-.228-1.338V92.353a3.261,3.261,0,0,1,.208-1.343,1.087,1.087,0,0,1,.76-.568,7.8,7.8,0,0,1,1.754-.152h1.587v.649H408.36l-.132.01a2.148,2.148,0,0,0-.73.152c-.218.122-.324.542-.324,1.252v1.13h3.67v.689h-3.67v1.12c0,.71.117,1.125.345,1.252a2.337,2.337,0,0,0,.821.172h2.509v.649l-2.519-.01-.466-.041-.183-.041-.243-.081A1.141,1.141,0,0,1,406.768,96.637Z" transform="translate(-262.204 -90.128)"/><path class="a" d="M418.494,95.329V95.6a2.005,2.005,0,0,0,.162.76.553.553,0,0,0,.228.147,2.629,2.629,0,0,0,.563.157,5.209,5.209,0,0,0,.923.071h.223a3.456,3.456,0,0,0,.441-.03c.157-.02.269-.035.329-.051a1.947,1.947,0,0,0,.492-.142.56.56,0,0,0,.208-.142,1.806,1.806,0,0,0,.183-.76v-.375a1.671,1.671,0,0,0-.183-.75c0-.015-.051-.051-.157-.106a2.366,2.366,0,0,0-.532-.167,4.783,4.783,0,0,0-1-.081,6.427,6.427,0,0,1-.76-.041,4.475,4.475,0,0,1-.811-.122,1.292,1.292,0,0,1-.487-.284,1.144,1.144,0,0,1-.319-.522,3.563,3.563,0,0,1-.137-.867v-.182a3.563,3.563,0,0,1,.137-.867,1.172,1.172,0,0,1,.319-.522,1.635,1.635,0,0,1,.487-.274,3.073,3.073,0,0,1,.674-.127,8.744,8.744,0,0,1,1.784,0,3.25,3.25,0,0,1,.684.127,1.61,1.61,0,0,1,.466.264,1.127,1.127,0,0,1,.329.517,3.31,3.31,0,0,1,.127.862v.132h-.618v-.193a1.683,1.683,0,0,0-.183-.75c0-.015-.051-.051-.157-.112a2.09,2.09,0,0,0-.532-.172,4.785,4.785,0,0,0-1-.081,4.426,4.426,0,0,0-1.217.127.97.97,0,0,0-.5.248,1.907,1.907,0,0,0-.162.771v.324a2.13,2.13,0,0,0,.162.76c.046.076.213.152.5.238a4.419,4.419,0,0,0,1.207.127,8.6,8.6,0,0,1,.872.046,4.722,4.722,0,0,1,.7.117,1.139,1.139,0,0,1,.416.233l.081.081a1.171,1.171,0,0,1,.3.507,3.346,3.346,0,0,1,.122.842v.213a3.423,3.423,0,0,1-.122.842,1.251,1.251,0,0,1-.3.517l-.02.03-.041.03a.806.806,0,0,1-.172.132l-.264.112c-.147.035-.259.056-.324.071a3.914,3.914,0,0,1-.477.061,3.441,3.441,0,0,1-.345.02h-.03c-.1.005-.223.01-.4.01a8.714,8.714,0,0,1-.9-.046,3.074,3.074,0,0,1-.674-.127,1.215,1.215,0,0,1-.487-.274,1.179,1.179,0,0,1-.309-.507,3.2,3.2,0,0,1-.137-.821l-.01-.061v-.2h.634Z" transform="translate(-267.785 -90.123)"/></g><path class="a" d="M502.325,38.881a9.139,9.139,0,0,1-9.155-9.155V16.905a8.812,8.812,0,0,1,2.677-6.458,8.825,8.825,0,0,1,6.479-2.677h18.29a1.843,1.843,0,0,1,1.845,1.82,1.879,1.879,0,0,1-1.845,1.84h-18.29a5.351,5.351,0,0,0-3.9,1.6,5.27,5.27,0,0,0-1.6,3.873V29.721a5.47,5.47,0,0,0,5.5,5.5h18.29a1.83,1.83,0,1,1,0,3.66Z" transform="translate(-243.162 -3.831)"/><path class="a" d="M493.17,35.64a1.8,1.8,0,0,1,1.845-1.82h25.611a1.843,1.843,0,0,1,1.845,1.82,1.879,1.879,0,0,1-1.845,1.84H495.01a1.808,1.808,0,0,1-1.318-.548A1.762,1.762,0,0,1,493.17,35.64Z" transform="translate(-243.162 -16.675)"/><path class="a" d="M140.235,38.881a9.139,9.139,0,0,1-9.155-9.155V16.905a8.812,8.812,0,0,1,2.677-6.458,8.825,8.825,0,0,1,6.479-2.677h18.29a1.843,1.843,0,0,1,1.845,1.82,1.879,1.879,0,0,1-1.845,1.84h-18.29a5.351,5.351,0,0,0-3.9,1.6,5.27,5.27,0,0,0-1.6,3.873V29.721a5.47,5.47,0,0,0,5.5,5.5h18.29a1.83,1.83,0,1,1,0,3.66Z" transform="translate(-64.63 -3.831)"/><path class="a" d="M131.08,35.64a1.8,1.8,0,0,1,1.845-1.82h25.611a1.843,1.843,0,0,1,1.845,1.82,1.879,1.879,0,0,1-1.845,1.84H132.925a1.808,1.808,0,0,1-1.318-.548A1.747,1.747,0,0,1,131.08,35.64Z" transform="translate(-64.63 -16.675)"/><path class="a" d="M309.416,21.494H285.625V17.955a5.27,5.27,0,0,1,1.6-3.873,5.351,5.351,0,0,1,3.9-1.6h18.29a1.879,1.879,0,0,0,1.845-1.84,1.843,1.843,0,0,0-1.845-1.82h-18.29a9.131,9.131,0,0,0-9.15,9.039h-.005V38.086A1.809,1.809,0,0,0,282.5,39.4a1.83,1.83,0,0,0,3.133-1.313V30.72h0V25.154h23.791a1.879,1.879,0,0,0,1.845-1.84,1.843,1.843,0,0,0-1.85-1.82Z" transform="translate(-139.028 -4.349)"/><path class="a" d="M374.776,22.364H350.985V18.825a5.27,5.27,0,0,1,1.6-3.873,5.351,5.351,0,0,1,3.9-1.6h18.29a1.879,1.879,0,0,0,1.845-1.84,1.843,1.843,0,0,0-1.845-1.82h-18.29a9.131,9.131,0,0,0-9.15,9.039h-.005V38.956a1.809,1.809,0,0,0,.527,1.313,1.83,1.83,0,0,0,3.133-1.313V31.59h0V26.024h23.791a1.879,1.879,0,0,0,1.845-1.84,1.843,1.843,0,0,0-1.85-1.82Z" transform="translate(-171.254 -4.778)"/></svg>