<svg id="Icon_color_Visa" data-name="Icon/color/Visa" xmlns="http://www.w3.org/2000/svg" width="129.421" height="90.202" viewBox="0 0 129.421 90.202">
  <g id="Visa">
    <rect id="Rectangle_Copy_4" data-name="Rectangle Copy 4" width="129.421" height="90.202" rx="3" fill="#0742a6"/>
    <g id="Visa_Inc._logo" transform="translate(21.741 31.708)">
      <path id="polygon9" d="M6.941,26.143H0L4.341,0h6.941Z" transform="translate(30.189 0.474)" fill="#fff"/>
      <path id="path11" d="M20.821,1.113A17.508,17.508,0,0,0,14.6,0C7.741,0,2.914,3.56,2.885,8.649c-.057,3.755,3.456,5.84,6.083,7.092,2.685,1.279,3.6,2.114,3.6,3.255-.027,1.751-2.17,2.559-4.168,2.559a14.124,14.124,0,0,1-6.513-1.391l-.914-.418L0,25.615a21.622,21.622,0,0,0,7.741,1.391c7.283,0,12.025-3.5,12.081-8.928.028-2.976-1.827-5.256-5.826-7.12-2.428-1.2-3.914-2-3.914-3.227.028-1.113,1.257-2.252,4-2.252a12.063,12.063,0,0,1,5.17,1l.628.278.944-5.645Z" transform="translate(41.471 0)" fill="#fff"/>
      <path id="path13" d="M7.283,26.144H0L10.31,2.169C10.951.649,12.036,0,13.939,0h5.369l5.6,26.14-6.427,0c-.006-.031-.629-3.007-.828-3.921H8.739c-.258.7-1.456,3.921-1.456,3.921ZM14.425,7.071c-.208.576-.5,1.374-.7,1.9-.184.5-.216.584-.218.6-.022.058-2.2,5.826-2.77,7.314h5.769c-.285-1.3-1.586-7.505-1.6-7.566Z" transform="translate(60.778 0.474)" fill="#fff"/>
      <path id="path15" d="M17.137,0l-6.8,17.827L9.6,14.212C8.34,10.04,4.4,5.507,0,3.253L6.226,26.115h7.34L24.476,0h-7.34Z" transform="translate(7.255 0.474)" fill="#fff"/>
      <path id="path17" d="M11.282,0H.114L0,.528C8.711,2.7,14.481,7.927,16.851,14.213L14.423,2.2C14.024.528,12.8.055,11.282,0Z" transform="translate(0 0.474)" fill="#fff"/>
    </g>
  </g>
</svg>
